<svg width="38" height="38" viewBox="0 0 38 38" fill="none" xmlns="http://www.w3.org/2000/svg">
<path d="M0 19C0 8.50659 8.50659 0 19 0C29.4934 0 38 8.50659 38 19C38 29.4934 29.4934 38 19 38C8.50659 38 0 29.4934 0 19Z" fill="#4F4F4F"/>
<g clip-path="url(#clip0)">
<path d="M28.4461 17.7047L29.2877 17.2025C29.456 17.035 29.6243 16.8676 29.456 16.7002C29.2877 16.5328 29.1194 16.3654 28.951 16.5328L27.7591 17.4327C27.5908 17.2653 27.2542 17.0978 27.0858 17.0978L29.2877 15.6957C29.456 15.5283 29.6243 15.3608 29.456 15.1934C29.2877 15.026 29.1194 14.8586 28.951 15.026L25.753 16.7002C25.4164 16.5328 24.9115 16.5328 24.4065 16.5328L29.1194 14.0215C29.2877 13.8541 29.456 13.6866 29.2877 13.5192C29.1194 13.3518 28.951 13.1844 28.7827 13.3518L24.2382 15.6957V14.6912L29.1194 12.1798C29.2877 12.1798 29.2877 12.0124 29.2877 11.845C29.2877 11.6776 29.1194 11.5102 29.1194 11.5102L21.7135 7.8269C21.7135 7.8269 21.5451 7.8269 21.3768 7.8269L5.2185 15.6957C5.2185 15.6957 5.05019 15.8631 5.05019 16.0305C5.05019 16.1979 5.2185 16.3654 5.2185 16.3654L13.2977 20.216H13.466H13.6343L18.8521 17.5373V18.3744L13.466 21.2206L5.72345 17.3699C5.38682 17.3699 5.2185 17.3699 5.05019 17.5373C5.05019 17.8722 5.05019 18.0396 5.2185 18.207L13.2977 22.0577H13.466H13.6343L18.1788 19.7138C18.0105 20.0486 17.8422 20.3835 17.6739 20.7183L13.466 22.8948L5.72345 19.0441C5.38682 19.0441 5.2185 19.0441 5.05019 19.3789C5.05019 19.5464 5.05019 19.7138 5.2185 19.8812L13.2977 23.7319H13.466H13.6343L17.3372 21.8903C17.3372 22.2251 17.1689 22.3925 17.1689 22.7274L13.466 24.569L5.72345 20.7183C5.38682 20.7183 5.2185 20.7183 5.05019 21.0531C4.88187 21.388 5.05019 21.5554 5.2185 21.5554L13.2977 25.4061H13.466H13.6343L17.1143 23.4808C17.2826 27.3314 20.3396 30.5961 24.2108 30.5961C27.9341 30.5961 31.3074 27.75 31.3074 23.4808C31.3074 20.9904 30.2976 19.0441 28.4461 17.7047ZM21.5451 8.66401L28.2778 11.845L24.0699 14.0215L17.3372 10.6731L21.5451 8.66401ZM13.466 19.5464L6.39671 16.0305L11.4462 13.5192L18.3471 16.8676L13.466 19.5464ZM12.4561 13.1844L16.3273 11.1753L23.5649 14.8586V16.5328C22.0501 16.7002 21.0174 17.0769 19.6937 17.9908V17.2025L22.3867 15.8631C22.555 15.6957 22.7233 15.5283 22.555 15.3608C22.3867 15.1934 22.2184 15.026 22.0501 15.1934L19.357 16.5328L12.4561 13.1844ZM24.2108 29.8846C20.6762 29.8846 17.8239 26.8292 17.8239 23.4808C17.8239 19.5673 20.8445 17.2192 24.2108 17.2192C27.7455 17.2192 30.5977 19.5673 30.5977 23.4808C30.5977 27.3942 27.7455 29.8846 24.2108 29.8846ZM16.3273 14.6912C16.159 14.1889 16.8323 13.6866 17.6739 13.1844C18.5155 12.6821 19.5253 12.8495 19.6937 13.1844C19.862 13.5192 19.1887 14.1889 18.1788 14.5237C17.3372 15.026 16.3273 15.026 16.3273 14.6912ZM24.9115 19.3789L27.7728 26.7455H26.7629L25.753 24.569H22.555L21.8818 26.7455H20.8719L23.7332 19.3789H24.9115ZM25.5847 23.7319L24.4065 20.216L23.2283 23.7319H25.5847Z" fill="white"/>
</g>
<defs>
<clipPath id="clip0">
<rect width="29" height="23" fill="white" transform="translate(3.55762 7.8269)"/>
</clipPath>
</defs>
</svg>
