<?xml version="1.0" encoding="utf-8"?>
<!-- Generator: Adobe Illustrator 16.0.0, SVG Export Plug-In . SVG Version: 6.00 Build 0)  -->
<!DOCTYPE svg PUBLIC "-//W3C//DTD SVG 1.1//EN" "http://www.w3.org/Graphics/SVG/1.1/DTD/svg11.dtd">
<svg version="1.1" id="Layer_1" xmlns="http://www.w3.org/2000/svg" xmlns:xlink="http://www.w3.org/1999/xlink" x="0px" y="0px"
	 width="40px" height="40px" viewBox="0 0 40 40" enable-background="new 0 0 40 40" xml:space="preserve">
<circle fill="#2A88C9" cx="19.908" cy="19.97" r="19.461"/>
<path fill-rule="evenodd" clip-rule="evenodd" fill="#FFFFFF" d="M25.298,9.848c-4.195-3.516-10.312-3.661-14.679-0.375
	c-2.464,1.854-3.668,4.343-3.33,7.464c0.123,1.184,0.49,2.326,1.225,3.262c0.525,0.672,0.591,1.333,0.345,2.06
	c-0.419,1.238-0.88,2.465-1.323,3.691c-0.054,0.154-0.132,0.299-0.199,0.445c0.016,0.041,0.034,0.082,0.055,0.123
	c0.735-0.172,1.481-0.32,2.218-0.514c1.547-0.408,3.079-0.857,4.499-1.613c0.108-0.061,0.27-0.07,0.392-0.043
	c0.609,0.143,1.223,0.252,1.842,0.314c-0.318-1.342-0.156-2.738,0.478-3.985c-0.137-0.032-0.275-0.056-0.413-0.09
	c-0.637-0.153-1.27-0.322-1.904-0.482c-0.073-0.017-0.109-0.045-0.122-0.125c-0.239-1.414-0.482-2.827-0.73-4.239
	c-0.013-0.078,0.005-0.114,0.075-0.155c0.774-0.453,1.474-0.995,2.028-1.709c0.647-0.835,1.009-1.796,1.233-2.819
	c0.026-0.113,0.042-0.229,0.066-0.343c0.021-0.114,0.077-0.164,0.201-0.161c0.49,0.012,0.894,0.177,1.076,0.668
	c0.079,0.209,0.122,0.44,0.136,0.661c0.061,0.825-0.092,1.631-0.239,2.435c-0.014,0.069-0.031,0.139-0.043,0.226
	c0.199-0.012,0.386-0.022,0.567-0.032c1.082-0.067,2.145,0.032,3.183,0.335c0.501,0.145,0.757,0.646,0.596,1.139
	c-0.08,0.243-0.205,0.456-0.401,0.623c-0.083,0.069-0.104,0.156-0.108,0.252c1.995-0.494,4.131-0.311,6.032,0.568
	C28.612,14.716,27.688,11.852,25.298,9.848z M13.845,20.078c-0.207,0.034-0.415,0.071-0.62,0.106
	c-0.097,0.016-0.194,0.029-0.29,0.049c-0.067,0.013-0.11,0.018-0.144-0.066c-0.284-0.67-0.521-1.354-0.633-2.074
	c-0.104-0.663-0.103-1.329-0.058-1.995c0.001-0.029,0.031-0.078,0.053-0.082c0.317-0.06,0.638-0.113,0.963-0.171
	C13.36,17.26,13.6,18.662,13.845,20.078z"/>
<path fill-rule="evenodd" clip-rule="evenodd" fill="#FFFFFF" d="M32.039,31.552c-0.539-0.123-1.083-0.232-1.624-0.373
	c-1.128-0.301-2.245-0.625-3.284-1.178c-0.078-0.043-0.194-0.053-0.283-0.027c-0.903,0.209-1.816,0.313-2.738,0.271
	c-2.443-0.115-4.552-0.955-6.08-2.943c-1.919-2.496-1.551-5.848,0.927-7.926c3.065-2.567,7.533-2.675,10.724-0.273
	c1.797,1.354,2.679,3.174,2.434,5.451c-0.092,0.865-0.358,1.701-0.896,2.385c-0.384,0.492-0.434,0.973-0.252,1.504
	c0.308,0.906,0.642,1.803,0.968,2.697c0.039,0.113,0.097,0.219,0.144,0.326C32.068,31.495,32.054,31.524,32.039,31.552z
	 M27.771,24.958c0.553-0.004,1.031-0.486,1.035-1.035c0.006-0.557-0.496-1.059-1.052-1.055c-0.566,0.002-1.047,0.484-1.042,1.055
	C26.713,24.495,27.191,24.96,27.771,24.958z M21.527,24.958c0.554-0.004,1.034-0.486,1.037-1.033
	c0.005-0.557-0.497-1.055-1.051-1.057c-0.56-0.004-1.057,0.498-1.053,1.055C20.469,24.495,20.953,24.96,21.527,24.958z
	 M25.693,23.948c0.008-0.582-0.44-1.061-1.018-1.084c-0.542-0.025-1.064,0.48-1.076,1.035c-0.017,0.559,0.472,1.055,1.041,1.059
	C25.208,24.96,25.682,24.505,25.693,23.948z"/>
<path fill-rule="evenodd" clip-rule="evenodd" fill="#FFFFFF" d="M14.899,26.677"/>
</svg>
