<?xml version="1.0" encoding="utf-8"?>
<!-- Generator: Adobe Illustrator 16.0.0, SVG Export Plug-In . SVG Version: 6.00 Build 0)  -->
<!DOCTYPE svg PUBLIC "-//W3C//DTD SVG 1.1//EN" "http://www.w3.org/Graphics/SVG/1.1/DTD/svg11.dtd">
<svg version="1.1" id="Layer_1" xmlns="http://www.w3.org/2000/svg" xmlns:xlink="http://www.w3.org/1999/xlink" x="0px" y="0px"
	 width="18px" height="18px" viewBox="0 0 18 18" enable-background="new 0 0 18 18" xml:space="preserve">
<path fill-rule="evenodd" clip-rule="evenodd" fill="#28A64A" d="M0.354,13.868c0.047-0.104,0.101-0.203,0.14-0.311
	c0.309-0.856,0.63-1.711,0.923-2.577c0.171-0.507,0.126-0.969-0.241-1.438C0.663,8.89,0.407,8.093,0.319,7.267
	c-0.236-2.179,0.605-3.916,2.325-5.21c3.047-2.293,7.317-2.191,10.244,0.262c2.369,1.987,2.72,5.188,0.888,7.57
	c-1.461,1.9-3.475,2.705-5.809,2.812c-0.88,0.04-1.754-0.058-2.614-0.264c-0.085-0.019-0.198-0.011-0.273,0.032
	c-0.991,0.527-2.059,0.84-3.139,1.125c-0.514,0.135-1.035,0.238-1.548,0.358C0.377,13.924,0.364,13.896,0.354,13.868z"/>
<path fill-rule="evenodd" clip-rule="evenodd" fill="#FFFFFF" d="M7.924,5.596C8.063,5.588,8.193,5.582,8.32,5.574
	c0.754-0.047,1.496,0.022,2.222,0.234c0.349,0.102,0.525,0.451,0.414,0.796c-0.055,0.168-0.143,0.317-0.28,0.434
	c-0.07,0.06-0.081,0.13-0.081,0.218c0.005,0.16,0.005,0.322-0.017,0.48c-0.024,0.2-0.137,0.353-0.315,0.455
	c-0.115,0.067-0.171,0.16-0.173,0.297c-0.001,0.332-0.157,0.586-0.424,0.769c-0.128,0.09-0.215,0.197-0.248,0.349
	C9.409,9.646,9.39,9.687,9.369,9.727c-0.1,0.239-0.333,0.467-0.72,0.435c-0.667-0.061-1.319-0.188-1.965-0.346
	C6.239,9.707,5.798,9.589,5.355,9.478C5.304,9.465,5.278,9.446,5.27,9.39C5.103,8.403,4.933,7.417,4.76,6.432
	c-0.008-0.055,0.004-0.08,0.053-0.107C5.353,6.008,5.84,5.63,6.228,5.131c0.451-0.582,0.704-1.253,0.86-1.967
	c0.018-0.079,0.031-0.16,0.047-0.24c0.014-0.079,0.054-0.114,0.14-0.112c0.342,0.009,0.624,0.124,0.751,0.467
	C8.081,3.424,8.11,3.585,8.122,3.74c0.042,0.575-0.064,1.138-0.168,1.698C7.943,5.487,7.934,5.536,7.924,5.596z"/>
<path fill-rule="evenodd" clip-rule="evenodd" fill="#FFFFFF" d="M4.895,9.459c-0.144,0.025-0.29,0.049-0.433,0.074
	C4.395,9.544,4.327,9.554,4.26,9.567c-0.046,0.01-0.077,0.012-0.101-0.046C3.962,9.054,3.795,8.577,3.718,8.073
	C3.646,7.611,3.647,7.146,3.678,6.681c0-0.02,0.021-0.054,0.037-0.056c0.221-0.042,0.445-0.08,0.673-0.119
	C4.557,7.492,4.724,8.47,4.895,9.459z"/>
<path fill-rule="evenodd" clip-rule="evenodd" fill="#FFFFFF" d="M14.666,13.09c-0.405,0.002-0.737-0.323-0.737-0.724
	c-0.004-0.397,0.329-0.735,0.727-0.736c0.386-0.002,0.737,0.348,0.734,0.736C15.389,12.75,15.051,13.088,14.666,13.09z"/>
<path fill-rule="evenodd" clip-rule="evenodd" fill="#FFFFFF" d="M10.31,13.09c-0.403,0.002-0.738-0.323-0.744-0.724
	c-0.003-0.389,0.344-0.738,0.735-0.736c0.384,0.001,0.735,0.35,0.732,0.738C11.031,12.75,10.695,13.088,10.31,13.09z"/>
<path fill-rule="evenodd" clip-rule="evenodd" fill="#FFFFFF" d="M13.216,12.386c-0.006,0.388-0.338,0.706-0.734,0.704
	c-0.398-0.002-0.738-0.349-0.727-0.738c0.01-0.389,0.374-0.74,0.751-0.724C12.909,11.645,13.222,11.978,13.216,12.386z"/>
<path fill-rule="evenodd" clip-rule="evenodd" fill="#28A64A" stroke="#FFFFFF" stroke-width="0.5" stroke-miterlimit="10" d="
	M17.645,17.69c-0.376-0.085-0.756-0.162-1.132-0.261c-0.788-0.209-1.569-0.435-2.293-0.821c-0.054-0.03-0.138-0.036-0.2-0.021
	c-0.627,0.147-1.265,0.22-1.908,0.191c-1.706-0.079-3.177-0.666-4.244-2.054c-1.339-1.741-1.082-4.08,0.648-5.53
	c2.139-1.792,5.258-1.867,7.484-0.192c1.255,0.945,1.869,2.215,1.697,3.805c-0.063,0.604-0.25,1.187-0.624,1.663
	c-0.269,0.344-0.304,0.681-0.177,1.051c0.214,0.632,0.448,1.257,0.675,1.882c0.026,0.079,0.068,0.152,0.102,0.227
	C17.663,17.652,17.653,17.67,17.645,17.69z M14.666,13.09c0.385-0.002,0.723-0.34,0.724-0.724c0.003-0.389-0.349-0.738-0.734-0.736
	c-0.397,0.001-0.73,0.339-0.727,0.736C13.929,12.767,14.261,13.092,14.666,13.09z M10.31,13.09c0.386-0.002,0.722-0.34,0.724-0.722
	c0.003-0.389-0.349-0.737-0.732-0.738c-0.391-0.002-0.739,0.348-0.735,0.736C9.571,12.767,9.907,13.092,10.31,13.09z M13.216,12.386
	c0.006-0.408-0.307-0.741-0.71-0.758c-0.377-0.017-0.741,0.335-0.751,0.724c-0.012,0.39,0.328,0.736,0.727,0.738
	C12.878,13.092,13.21,12.773,13.216,12.386z"/>
</svg>
