<?xml version="1.0" encoding="utf-8"?>
<!-- Generator: Adobe Illustrator 16.0.0, SVG Export Plug-In . SVG Version: 6.00 Build 0)  -->
<!DOCTYPE svg PUBLIC "-//W3C//DTD SVG 1.1//EN" "http://www.w3.org/Graphics/SVG/1.1/DTD/svg11.dtd">
<svg version="1.1" id="Layer_1" xmlns="http://www.w3.org/2000/svg" xmlns:xlink="http://www.w3.org/1999/xlink" x="0px" y="0px"
	 width="40px" height="40px" viewBox="0 0 40 40" enable-background="new 0 0 40 40" xml:space="preserve">
<circle fill="#2A88C9" cx="19.908" cy="19.97" r="19.461"/>
<path fill-rule="evenodd" clip-rule="evenodd" fill="#FFFFFF" d="M14.899,26.677"/>
<path fill-rule="evenodd" clip-rule="evenodd" fill="#FFFFFF" d="M33.686,13.198c-0.115-1.332-0.691-2.466-1.593-3.432
	c-0.954-1.032-2.119-1.751-3.426-2.25c-1.129-0.429-2.295-0.667-3.496-0.739c-1.541-0.088-3.043,0.093-4.509,0.576
	c-0.756,0.248-1.476,0.576-2.151,0.995c-0.829,0.516-1.557,1.147-2.156,1.928c-0.607,0.791-1.002,1.671-1.135,2.656
	c-0.051,0.389-0.049,0.767-0.018,1.137c0.686-0.197,1.405-0.331,2.161-0.387c0.103-0.009,0.211,0.005,0.312,0.025
	c0.06,0.013,0.107,0.058,0.197,0.105c-0.066,0.16-0.132,0.317-0.214,0.514c0.127,0.103,0.268,0.214,0.407,0.326
	c1.04,0.809,1.886,1.756,1.994,3.085c0.054,0.639,0.023,1.282-0.004,1.924c0.518,0.207,1.047,0.383,1.595,0.512
	c0.094,0.022,0.16,0.054,0.151,0.173c-0.036,0.493-0.041,0.99-0.111,1.476c-0.133,0.986-0.431,1.932-0.888,2.822
	c-0.115,0.227-0.232,0.451-0.371,0.721c0.091-0.039,0.133-0.047,0.169-0.072c0.621-0.404,1.256-0.789,1.856-1.229
	c0.769-0.555,1.518-1.146,2.258-1.742c0.715-0.574,1.411-1.165,2.109-1.757c0.29-0.25,0.586-0.479,0.979-0.549
	c0.122-0.023,0.248-0.063,0.367-0.104c0.9-0.304,1.758-0.699,2.545-1.242c1.023-0.706,1.869-1.575,2.425-2.703
	C33.573,15.094,33.771,14.168,33.686,13.198z M29.482,15.887H19.51v-0.517h9.972V15.887z M29.482,14.624H19.51v-0.515h9.972V14.624z
	 M29.482,13.363H19.51v-0.517h9.972V13.363z M29.482,12.1H19.51v-0.517h9.972V12.1z"/>
<path fill="#FFFFFF" d="M18.788,29.601c-0.112-0.426-0.012-1.014-0.687-1.145c-0.048-0.006-0.105-0.137-0.099-0.199
	c0.066-0.512,0.115-1.025,0.227-1.531c0.071-0.34,0.241-0.652,0.344-0.988c0.161-0.518-0.072-1.18,0.621-1.498
	c0.044-0.018,0.075-0.104,0.08-0.152c0.099-0.754,0.2-1.51,0.275-2.264c0.012-0.1-0.092-0.199-0.134-0.303
	c-0.062-0.18-0.163-0.364-0.163-0.547c0-0.875,0.101-1.759,0.025-2.633c-0.104-1.293-0.927-2.215-1.938-3.002
	c-0.135-0.109-0.272-0.218-0.397-0.317c0.082-0.191,0.144-0.344,0.21-0.499c-0.088-0.047-0.134-0.089-0.192-0.102
	c-0.099-0.019-0.203-0.034-0.304-0.026c-2.326,0.179-4.333,0.983-5.824,2.775c-0.153,0.189-0.282,0.458-0.282,0.693
	c-0.004,0.933,0.046,1.867,0.083,2.799c0.015,0.35,0.176,0.697-0.253,0.978c-0.155,0.104-0.169,0.461-0.172,0.701
	c-0.006,0.332,0.074,0.656,0.095,0.988c0.03,0.455,0.02,0.91,0.607,1.09c0.099,0.027,0.171,0.203,0.221,0.324
	c0.251,0.576,0.486,1.16,0.734,1.732c0.271,0.623,0.001,1.969-0.477,2.439c-0.073,0.076-0.125,0.223-0.101,0.316
	c0.185,0.809-0.356,0.996-0.996,1.127c-0.297,0.063-0.589,0.152-0.878,0.242c-0.406,0.119-0.81,0.246-1.215,0.371
	c1.87,1.418,4.228,2.273,6.796,2.273c2.564,0,4.916-0.854,6.786-2.266c-0.715-0.205-1.429-0.398-2.142-0.602
	C19.179,30.253,18.912,30.06,18.788,29.601z"/>
</svg>
