<?xml version="1.0" encoding="UTF-8" standalone="no"?> <!-- Created with Vectornator for iOS (http://vectornator.io/) --><!DOCTYPE svg PUBLIC "-//W3C//DTD SVG 1.1//EN" "http://www.w3.org/Graphics/SVG/1.1/DTD/svg11.dtd">
<svg style="fill-rule:evenodd;clip-rule:evenodd;stroke-linecap:round;stroke-linejoin:round;" xmlns:vectornator="http://vectornator.io" xmlns:xlink="http://www.w3.org/1999/xlink" xmlns="http://www.w3.org/2000/svg" xml:space="preserve" version="1.1" viewBox="0 0 254.367 79">
<metadata>
<vectornator:setting key="DynamicGuides" value="1"/>
<vectornator:setting key="Units" value="Pixels"/>
<vectornator:setting key="GuidesVisible" value="1"/>
<vectornator:setting key="RulersVisible" value="1"/>
<vectornator:setting key="SnapToGuides" value="1"/>
<vectornator:setting key="GridSpacing" value="36"/>
</metadata>
<defs/>
<g id="Untitled" vectornator:layerName="Untitled">
<g opacity="1">
<path d="M208.006+37.575C207.279+38.067+206.912+38.809+206.912+39.821C206.912+41.254+207.742+41.975+209.394+41.975C210.578+41.975+211.527+41.635+212.224+40.955C212.935+40.269+213.287+39.37+213.287+38.245L213.287+36.699L211.32+36.77C209.832+36.816+208.734+37.082+208.006+37.575Z" opacity="1" fill="none"/>
<path d="M178.167+59.753L176.85+59.809C175.799+59.846+175.041+60.007+174.579+60.295C174.114+60.587+173.882+61.036+173.882+61.645C173.882+62.125+174.028+62.487+174.318+62.737C174.605+62.987+175.009+63.112+175.529+63.112C176.353+63.112+176.999+62.885+177.467+62.434C177.939+61.985+178.17+61.352+178.17+60.541L178.168+60.541L178.168+59.753L178.167+59.753Z" opacity="1" fill="none"/>
<path d="M217.486+56.283C216.622+56.283+215.968+56.568+215.529+57.137C215.087+57.703+214.866+58.549+214.866+59.673C214.866+60.786+215.089+61.636+215.536+62.221C215.982+62.803+216.637+63.096+217.501+63.096C218.367+63.096+219.023+62.805+219.471+62.225C219.919+61.643+220.145+60.791+220.143+59.672C220.143+58.567+219.918+57.725+219.471+57.147C219.023+56.572+218.361+56.283+217.486+56.283Z" opacity="1" fill="none"/>
<path d="M185.492+56.264C184.715+56.264+184.125+56.567+183.713+57.17C183.301+57.772+183.098+58.621+183.098+59.721C183.098+60.834+183.301+61.675+183.709+62.242C184.115+62.81+184.715+63.096+185.508+63.096C186.408+63.096+187.065+62.85+187.471+62.36C187.875+61.87+188.078+61.079+188.078+59.985L188.078+59.706C188.078+58.468+187.873+57.588+187.461+57.06C187.049+56.529+186.393+56.264+185.492+56.264Z" opacity="1" fill="none"/>
<path d="M195.523+56.266C194.824+56.266+194.265+56.496+193.849+56.954C193.433+57.412+193.187+58.042+193.113+58.85L197.674+58.85C197.674+58.016+197.486+57.377+197.117+56.934C196.746+56.492+196.216+56.266+195.523+56.266Z" opacity="1" fill="none"/>
<path d="M233.805+56.266C233.104+56.266+232.546+56.496+232.13+56.954C231.714+57.411+231.468+58.042+231.395+58.85L235.956+58.85C235.956+58.016+235.768+57.377+235.397+56.934C235.025+56.492+234.493+56.266+233.805+56.266Z" opacity="1" fill="none"/>
<path d="M104.821+30.419C103.459+30.419+102.478+30.88+101.875+31.8C101.274+32.719+100.972+34.113+100.972+35.972C100.972+37.827+101.276+39.226+101.884+40.175C102.492+41.123+103.483+41.6+104.854+41.6C106.215+41.6+107.194+41.126+107.791+40.186C108.389+39.243+108.687+37.838+108.687+35.975C108.687+34.125+108.385+32.736+107.784+31.81C107.181+30.883+106.193+30.419+104.821+30.419Z" opacity="1" fill="none"/>
<path d="M130.521+56.704C130.82+56.498+130.967+56.154+130.967+55.678C130.967+55.233+130.806+54.914+130.48+54.721C130.154+54.526+129.638+54.428+128.933+54.428L127.637+54.428L127.637+57.016L129.068+57.016C129.738+57.016+130.221+56.911+130.521+56.704Z" opacity="1" fill="none"/>
<path d="M144.016+30.963C143.378+30.278+142.522+29.934+141.438+29.934C140.356+29.934+139.507+30.278+138.893+30.963C138.278+31.651+137.93+32.624+137.839+33.883L145.001+33.883C144.979+32.624+144.648+31.651+144.016+30.963Z" opacity="1" fill="none"/>
<path d="M129.164+58.975L127.638+58.973L127.638+62.006L129.244+62.006C129.924+62.006+130.426+61.874+130.748+61.617C131.07+61.355+131.232+60.958+131.232+60.421C131.232+59.457+130.543+58.975+129.164+58.975Z" opacity="1" fill="none"/>
<path d="M77.922+53.609L81.606+53.609L81.606+64.04L82.959+64.04L82.96+64.04L82.96+53.609L86.644+53.609L86.644+52.408L77.922+52.408L77.922+53.609Z" opacity="1" fill="#333333"/>
<path d="M92.284+55.178C91.668+55.178+91.12+55.298+90.64+55.539C90.161+55.781+89.79+56.109+89.531+56.529L89.451+56.529C89.494+56.232+89.515+55.857+89.515+55.408L89.515+51.66L88.194+51.66L88.194+64.04L89.515+64.04L89.515+59.482C89.515+58.345+89.725+57.527+90.147+57.031C90.569+56.532+91.238+56.282+92.157+56.282C92.846+56.282+93.352+56.459+93.676+56.808C94+57.158+94.162+57.689+94.162+58.4L94.162+64.04L94.162+64.041L95.482+64.041L95.482+58.353C95.482+57.248+95.216+56.445+94.683+55.937C94.15+55.432+93.35+55.178+92.284+55.178Z" opacity="1" fill="#333333"/>
<path d="M98.864+52.082C98.642+52.082+98.456+52.152+98.307+52.294C98.159+52.434+98.085+52.654+98.085+52.957C98.085+53.255+98.159+53.477+98.307+53.622C98.456+53.768+98.642+53.843+98.864+53.843C99.076+53.843+99.26+53.768+99.413+53.622C99.567+53.476+99.644+53.255+99.644+52.957C99.644+52.66+99.567+52.441+99.413+52.298C99.26+52.154+99.077+52.082+98.864+52.082Z" opacity="1" fill="#333333"/>
<path d="M98.197+55.32L99.518+55.32L99.518+55.32L99.518+64.04L99.518+64.04L98.197+64.04L98.197+64.04L98.197+55.32L98.197+55.32Z" opacity="1" fill="#333333"/>
<path d="M106.441+55.161C105.842+55.161+105.299+55.279+104.81+55.515C104.321+55.749+103.943+56.082+103.672+56.513L103.608+56.513L103.393+55.32L102.319+55.32L102.319+64.041L103.64+64.041L103.64+59.466C103.64+58.331+103.852+57.516+104.275+57.024C104.699+56.53+105.368+56.284+106.281+56.284C106.97+56.284+107.476+56.461+107.8+56.809C108.124+57.16+108.286+57.69+108.286+58.401L108.286+64.041L109.609+64.041L109.609+58.351C109.609+57.238+109.343+56.429+108.813+55.921C108.283+55.413+107.492+55.161+106.441+55.161Z" opacity="1" fill="#333333"/>
<path d="M119.052+55.32L117.484+55.32L114.667+58.304C114.201+58.828+113.853+59.252+113.625+59.575L113.561+59.575C113.603+58.965+113.625+58.514+113.625+58.221L113.625+51.66L112.319+51.66L112.319+64.041L113.625+64.041L113.625+60.779L114.62+59.92L117.699+64.041L119.298+64.041L115.52+59.037L119.052+55.32Z" opacity="1" fill="#333333"/>
<path d="M131.71+57.943L131.71+57.867C132.251+57.775+132.686+57.508+133.012+57.06C133.337+56.618+133.501+56.045+133.501+55.351C133.501+54.33+133.128+53.58+132.382+53.111C131.639+52.642+130.44+52.409+128.79+52.409L125.17+52.409L125.17+64.04L129.522+64.04C130.836+64.04+131.877+63.744+132.645+63.148C133.412+62.556+133.793+61.728+133.793+60.666C133.793+59.918+133.631+59.318+133.307+58.869C132.98+58.418+132.449+58.109+131.71+57.943ZM127.637+54.428L128.933+54.428C129.638+54.428+130.154+54.526+130.48+54.721C130.806+54.914+130.967+55.233+130.967+55.678C130.967+56.155+130.82+56.498+130.521+56.704C130.22+56.911+129.738+57.016+129.068+57.016L127.637+57.016C127.637+57.016+127.637+54.428+127.637+54.428ZM130.748+61.617C130.426+61.874+129.924+62.006+129.244+62.006L127.638+62.006L127.638+58.973L129.164+58.975C130.543+58.975+131.232+59.457+131.232+60.421C131.232+60.958+131.07+61.355+130.748+61.617Z" opacity="1" fill="#333333"/>
<path d="M136.119+52.408L138.586+52.408L138.586+52.408L138.586+64.04L138.586+64.04L136.119+64.04L136.119+64.04L136.119+52.408L136.119+52.408Z" opacity="1" fill="#333333"/>
<path d="M145.932+59.561L148.137+59.561L148.137+61.99C147.606+62.096+147.083+62.149+146.569+62.149C145.583+62.149+144.831+61.815+144.313+61.149C143.794+60.485+143.538+59.52+143.538+58.256C143.538+57.047+143.858+56.085+144.501+55.366C145.144+54.652+145.997+54.294+147.064+54.294C147.982+54.294+148.865+54.506+149.712+54.932L150.532+52.956C149.425+52.478+148.272+52.242+147.079+52.242C145.175+52.242+143.686+52.767+142.61+53.814C141.538+54.866+140.999+56.331+140.999+58.208C140.999+60.139+141.462+61.62+142.39+62.652C143.314+63.683+144.656+64.199+146.411+64.199C147.099+64.199+147.774+64.15+148.434+64.053C149.093+63.956+149.796+63.783+150.544+63.54L150.544+57.509L145.932+57.509C145.932+57.509+145.932+59.561+145.932+59.561Z" opacity="1" fill="#333333"/>
<path d="M156.227+53.609L159.91+53.609L159.91+64.04L161.264+64.04L161.264+53.609L164.947+53.609L164.947+52.408L156.227+52.408L156.227+53.609Z" opacity="1" fill="#28a64a"/>
<path d="M168.973+55.624C168.516+55.932+168.124+56.37+167.802+56.937L167.739+56.937L167.589+55.32L166.499+55.32L166.499+64.043L167.819+64.043L167.819+59.365C167.819+58.509+168.069+57.795+168.571+57.222C169.071+56.65+169.675+56.365+170.382+56.365C170.659+56.365+170.978+56.404+171.337+56.482L171.521+55.255C171.212+55.192+170.867+55.16+170.48+55.16C169.932+55.162+169.43+55.316+168.973+55.624Z" opacity="1" fill="#28a64a"/>
<path d="M176.432+55.177C175.915+55.177+175.405+55.243+174.893+55.375C174.378+55.509+173.911+55.693+173.479+55.925L173.884+56.936C174.803+56.492+175.624+56.266+176.352+56.266C176.998+56.266+177.469+56.432+177.766+56.756C178.059+57.084+178.204+57.588+178.204+58.272L178.204+58.815L176.725+58.865C173.908+58.949+172.498+59.871+172.498+61.633C172.498+62.454+172.742+63.09+173.232+63.535C173.724+63.977+174.402+64.201+175.265+64.201C175.911+64.201+176.453+64.104+176.884+63.912C177.316+63.717+177.748+63.349+178.185+62.801L178.248+62.801L178.511+64.042L178.513+64.042L178.513+64.043L179.492+64.043L179.492+58.09C179.492+57.07+179.24+56.332+178.74+55.87C178.242+55.407+177.473+55.177+176.432+55.177ZM177.466+62.434C176.997+62.885+176.352+63.112+175.528+63.112C175.008+63.112+174.604+62.987+174.317+62.737C174.028+62.487+173.881+62.126+173.881+61.645C173.881+61.037+174.113+60.587+174.578+60.295C175.041+60.007+175.799+59.846+176.849+59.809L178.166+59.753L178.166+60.541L178.168+60.541C178.169+61.352+177.938+61.984+177.466+62.434Z" opacity="1" fill="#28a64a"/>
<path d="M188.075+55.21L188.075+55.21L188.107+55.82L188.164+56.449L188.06+56.449C187.429+55.593+186.521+55.162+185.336+55.162C184.203+55.162+183.315+55.558+182.681+56.355C182.043+57.15+181.726+58.267+181.726+59.705C181.726+61.143+182.043+62.251+182.677+63.032C183.312+63.812+184.198+64.198+185.338+64.198C186.552+64.198+187.463+63.757+188.074+62.87L188.145+62.87L188.321+64.04L189.395+64.04L189.395+51.66L188.074+51.66L188.074+55.21L188.075+55.21ZM188.078+59.984C188.078+61.078+187.875+61.869+187.471+62.359C187.065+62.849+186.408+63.095+185.508+63.095C184.715+63.095+184.115+62.81+183.709+62.241C183.301+61.674+183.098+60.833+183.098+59.72C183.098+58.62+183.301+57.771+183.713+57.169C184.125+56.565+184.715+56.263+185.492+56.263C186.392+56.263+187.049+56.529+187.461+57.058C187.873+57.586+188.078+58.466+188.078+59.704C188.078+59.704+188.078+59.984+188.078+59.984Z" opacity="1" fill="#28a64a"/>
<path d="M195.541+55.16C194.373+55.16+193.443+55.574+192.752+56.4C192.061+57.23+191.713+58.345+191.713+59.752C191.713+61.147+192.086+62.236+192.83+63.023C193.576+63.806+194.596+64.199+195.885+64.199C196.473+64.199+196.975+64.156+197.391+64.068C197.807+63.98+198.246+63.835+198.715+63.632L198.715+62.455C197.797+62.847+196.869+63.043+195.93+63.043C195.039+63.043+194.348+62.778+193.858+62.248C193.367+61.72+193.108+60.94+193.084+59.916L199.092+59.916L199.092+59.081C199.092+57.901+198.775+56.955+198.137+56.235C197.499+55.518+196.632+55.16+195.541+55.16ZM193.113+58.85C193.187+58.042+193.433+57.412+193.849+56.954C194.265+56.496+194.824+56.266+195.523+56.266C196.215+56.266+196.746+56.493+197.117+56.934C197.486+57.377+197.674+58.016+197.674+58.85C197.674+58.85+193.113+58.85+193.113+58.85Z" opacity="1" fill="#28a64a"/>
<path d="M205.773+64.04L207.126+64.04L207.126+59.066L211.949+59.066L211.949+57.867L207.126+57.867L207.126+53.609L212.259+53.609L212.259+52.408L205.773+52.408L205.773+64.04Z" opacity="1" fill="#28a64a"/>
<path d="M217.525+55.163C216.261+55.163+215.275+55.559+214.564+56.351C213.853+57.142+213.5+58.25+213.5+59.671C213.5+60.589+213.664+61.392+213.994+62.073C214.324+62.757+214.789+63.283+215.394+63.647C215.998+64.014+216.691+64.197+217.468+64.197C218.732+64.197+219.72+63.799+220.437+63.001C221.154+62.203+221.51+61.095+221.51+59.671C221.51+58.287+221.152+57.189+220.433+56.379C219.712+55.57+218.746+55.163+217.525+55.163ZM219.471+62.225C219.024+62.805+218.367+63.096+217.501+63.096C216.637+63.096+215.982+62.803+215.536+62.221C215.089+61.636+214.866+60.786+214.866+59.673C214.866+58.549+215.087+57.703+215.529+57.137C215.968+56.569+216.622+56.283+217.486+56.283C218.361+56.283+219.023+56.572+219.47+57.146C219.917+57.724+220.142+58.566+220.142+59.671C220.145+60.791+219.919+61.643+219.471+62.225Z" opacity="1" fill="#28a64a"/>
<path d="M226.302+55.624C225.844+55.932+225.452+56.37+225.13+56.937L225.067+56.937L224.918+55.32L223.828+55.32L223.828+64.043L225.147+64.043L225.147+59.365C225.147+58.509+225.399+57.795+225.899+57.222C226.401+56.648+227.004+56.365+227.711+56.365C227.985+56.365+228.306+56.404+228.666+56.482L228.849+55.255C228.541+55.192+228.195+55.16+227.808+55.16C227.262+55.162+226.759+55.316+226.302+55.624Z" opacity="1" fill="#28a64a"/>
<path d="M233.82+55.16C232.652+55.16+231.724+55.574+231.031+56.4C230.34+57.23+229.994+58.345+229.994+59.752C229.994+61.147+230.367+62.236+231.111+63.023C231.855+63.806+232.875+64.199+234.164+64.199C234.754+64.199+235.256+64.156+235.67+64.068C236.086+63.98+236.527+63.835+236.994+63.632L236.994+62.455C236.076+62.847+235.148+63.043+234.211+63.043C233.318+63.043+232.629+62.778+232.139+62.248C231.647+61.72+231.389+60.94+231.364+59.916L237.373+59.916L237.373+59.081C237.373+57.901+237.053+56.955+236.418+56.235C235.777+55.52+234.914+55.16+233.82+55.16ZM231.395+58.85C231.468+58.042+231.714+57.412+232.13+56.954C232.546+56.496+233.104+56.266+233.805+56.266C234.493+56.266+235.026+56.493+235.397+56.934C235.768+57.377+235.956+58.016+235.956+58.85C235.956+58.85+231.395+58.85+231.395+58.85Z" opacity="1" fill="#28a64a"/>
<path d="M246.273+55.32L244.785+55.32L242.494+58.662L240.193+55.32L238.689+55.32L241.723+59.577L238.531+64.04L240.027+64.04L242.496+60.508L244.938+64.04L246.434+64.04L243.242+59.577L246.273+55.32Z" opacity="1" fill="#28a64a"/>
<path d="M83.602+35.691L91.901+35.691L91.901+31.456L83.602+31.456L83.602+25.148L92.521+25.148L92.521+20.896L78.497+20.896L78.497+45.365L83.602+45.365L83.602+35.691Z" opacity="1" fill="#2a88c9"/>
<path d="M112.805+30.838C112.069+29.376+111.014+28.255+109.643+27.473C108.27+26.693+106.686+26.303+104.889+26.303C102+26.303+99.757+27.151+98.162+28.847C96.566+30.541+95.768+32.919+95.768+35.974C95.768+37.94+96.137+39.658+96.873+41.131C97.609+42.602+98.663+43.733+100.035+44.518C101.408+45.305+102.992+45.7+104.789+45.7C107.656+45.7+109.893+44.841+111.499+43.124C113.105+41.403+113.909+39.023+113.909+35.975C113.909+34.015+113.54+32.303+112.805+30.838ZM107.791+40.186C107.194+41.126+106.215+41.6+104.854+41.6C103.483+41.6+102.492+41.123+101.884+40.175C101.276+39.226+100.972+37.827+100.972+35.972C100.972+34.113+101.274+32.719+101.875+31.8C102.478+30.88+103.459+30.419+104.821+30.419C106.193+30.419+107.181+30.883+107.784+31.809C108.385+32.735+108.687+34.124+108.687+35.974C108.687+37.838+108.389+39.242+107.791+40.186Z" opacity="1" fill="#2a88c9"/>
<path d="M129.906+31.24L130.293+26.453C129.834+26.352+129.26+26.303+128.568+26.303C127.407+26.303+126.335+26.623+125.346+27.264C124.36+27.906+123.575+28.753+122.996+29.802L122.745+29.802L121.991+26.654L118.125+26.654L118.125+45.364L123.229+45.364L123.229+35.843C123.229+34.335+123.684+33.164+124.594+32.326C125.503+31.49+126.771+31.073+128.401+31.073C128.992+31.073+129.494+31.131+129.906+31.24Z" opacity="1" fill="#2a88c9"/>
<path d="M145.872+45.372C146.889+45.154+147.841+44.823+148.734+44.377L148.734+40.425C147.64+40.94+146.593+41.315+145.588+41.547C144.584+41.781+143.52+41.901+142.393+41.901C140.942+41.901+139.815+41.495+139.012+40.678C138.209+39.865+137.78+38.73+137.723+37.282L149.787+37.282L149.787+34.803L149.789+34.803C149.789+32.149+149.055+30.068+147.58+28.561C146.107+27.055+144.049+26.302+141.404+26.302C138.636+26.302+136.47+27.158+134.902+28.871C133.336+30.584+132.549+33.009+132.549+36.142C132.549+39.187+133.398+41.542+135.092+43.207C136.789+44.868+139.144+45.698+142.156+45.698C143.618+45.698+144.855+45.592+145.872+45.372ZM138.893+30.963C139.507+30.278+140.356+29.934+141.438+29.934C142.522+29.934+143.378+30.278+144.016+30.963C144.649+31.651+144.979+32.624+145.001+33.883L137.839+33.883C137.93+32.624+138.277+31.651+138.893+30.963Z" opacity="1" fill="#2a88c9"/>
<path d="M164.705+36.071L175.986+18.234L178.839+19.888L178.857+8.329L168.839+14.093L171.702+15.751L161.098+32.501L157.537+26.654L151.746+26.654L157.771+35.81L151.428+45.365L157.221+45.365L161.166+38.956L165.1+45.365L170.906+45.365L164.705+36.071Z" opacity="1" fill="#2a88c9"/>
<path d="M213.805+42.831L214.796+45.374L218.363+45.374L218.363+32.904C218.363+30.674+217.681+29.01+216.351+27.913C215.013+26.822+213.087+26.277+210.58+26.277C207.957+26.277+205.569+26.842+203.42+27.968L205.105+31.414C207.127+30.514+208.886+30.055+210.376+30.055C212.319+30.055+213.286+31.007+213.286+32.904L213.286+33.722L210.047+33.824C207.244+33.923+205.158+34.445+203.763+35.385C202.371+36.33+201.676+37.796+201.676+39.785C201.676+41.673+202.195+43.137+203.226+44.169C204.25+45.188+205.668+45.702+207.467+45.702C208.926+45.702+210.109+45.494+211.025+45.079C211.939+44.659+212.82+43.902+213.676+42.831C213.676+42.831+213.805+42.831+213.805+42.831ZM213.287+38.245C213.287+39.37+212.935+40.269+212.224+40.955C211.527+41.635+210.578+41.975+209.394+41.975C207.742+41.975+206.912+41.254+206.912+39.821C206.912+38.809+207.279+38.067+208.006+37.575C208.735+37.082+209.832+36.816+211.32+36.77L213.287+36.699C213.287+36.699+213.287+38.245+213.287+38.245Z" opacity="1" fill="#2a88c9"/>
<path d="M228.718+35.851C228.718+34.343+229.173+33.17+230.091+32.337C230.997+31.5+232.257+31.077+233.897+31.077C234.485+31.077+234.985+31.135+235.395+31.245L235.782+26.458C235.327+26.359+234.751+26.311+234.063+26.311C232.901+26.311+231.829+26.628+230.837+27.272C229.848+27.911+229.066+28.763+228.483+29.808L228.231+29.808L227.483+26.662L223.617+26.662L223.617+45.373L228.719+45.373L228.719+35.851L228.718+35.851Z" opacity="1" fill="#2a88c9"/>
<path d="M247.066+41.641C246.394+41.641+245.859+41.467+245.451+41.123C245.039+40.777+244.838+40.238+244.838+39.514L244.838+30.498L250.072+30.498L250.072+26.661L244.838+26.661L244.838+22.678L241.574+22.678L240.103+26.627L237.29+28.334L237.29+30.498L239.728+30.498L239.728+39.514C239.728+41.577+240.195+43.122+241.127+44.161C242.064+45.189+243.543+45.702+245.59+45.702C247.441+45.702+249.004+45.419+250.273+44.855L250.273+41.051C249.023+41.445+247.957+41.641+247.066+41.641Z" opacity="1" fill="#2a88c9"/>
<path d="M192.424+26.209L192.57+26.209C192.437+29.29+192.363+31.182+192.342+31.9C192.327+32.612+192.318+33.243+192.318+33.791L192.318+45.374L197.16+45.374L197.16+20.903L190.1+20.903L183.96+39.617L183.856+39.617L178.067+20.903L175.434+20.903L171.005+27.584L171.005+45.374L175.637+45.374L175.637+33.988C175.637+32.684+175.533+30.08+175.324+26.178L175.473+26.178L181.358+45.374L186.108+45.374L192.424+26.209Z" opacity="1" fill="#2a88c9"/>
<path d="M59.349+27.058L57.304+25.876L43.788+46.212L49.96+55.462L44.336+55.462L40.534+49.27L36.713+55.462L31.107+55.462L37.244+46.212L31.419+37.362L37.02+37.362L40.25+42.665L53.015+23.391L51.089+22.274L59.34+17.528C53.425+11.539+45.227+7.823+36.14+7.823C18.141+7.823+3.553+22.414+3.553+40.415C3.553+50.71+8.334+59.877+15.789+65.853L15.789+31.573L29.435+31.573L29.435+35.71L20.754+35.71L20.754+41.85L28.832+41.85L28.832+45.973L20.754+45.973L20.754+69.147C25.337+71.594+30.575+73+36.141+73C54.142+73+68.732+58.409+68.732+40.413C68.731+31.504+65.158+23.438+59.356+17.557L59.349+27.058Z" opacity="1" fill="#2986c8"/>
</g>
</g>
</svg>
