<?xml version="1.0" encoding="UTF-8" standalone="no"?> <!-- Created with Vectornator for iOS (http://vectornator.io/) --><!DOCTYPE svg PUBLIC "-//W3C//DTD SVG 1.1//EN" "http://www.w3.org/Graphics/SVG/1.1/DTD/svg11.dtd">
<svg style="fill-rule:evenodd;clip-rule:evenodd;stroke-linecap:round;stroke-linejoin:round;" xmlns:vectornator="http://vectornator.io" xmlns:xlink="http://www.w3.org/1999/xlink" xmlns="http://www.w3.org/2000/svg" xml:space="preserve" version="1.1" viewBox="0 0 254.367 79">
<metadata>
<vectornator:setting key="RulersVisible" value="1"/>
<vectornator:setting key="Units" value="Pixels"/>
<vectornator:setting key="DynamicGuides" value="1"/>
<vectornator:setting key="GuidesVisible" value="1"/>
<vectornator:setting key="CMYKEnabledKey" value="0"/>
<vectornator:setting key="SnapToGuides" value="1"/>
<vectornator:setting key="GridSpacing" value="36"/>
</metadata>
<defs>
<path d="M72.706+6.614L253.27+6.614L253.27+6.614L253.27+45.896L253.27+45.896L72.706+45.896L72.706+45.896L72.706+6.614L72.706+6.614Z" id="Mask"/>
<path d="M72.706+6.614L253.27+6.614L253.27+6.614L253.27+45.896L253.27+45.896L72.706+45.896L72.706+45.896L72.706+6.614L72.706+6.614Z" id="Mask_2"/>
<path d="M72.706+6.614L253.27+6.614L253.27+6.614L253.27+45.896L253.27+45.896L72.706+45.896L72.706+45.896L72.706+6.614L72.706+6.614Z" id="Mask_3"/>
<path d="M72.706+6.614L253.27+6.614L253.27+6.614L253.27+45.896L253.27+45.896L72.706+45.896L72.706+45.896L72.706+6.614L72.706+6.614Z" id="Mask_4"/>
<path d="M72.706+6.614L253.27+6.614L253.27+6.614L253.27+45.896L253.27+45.896L72.706+45.896L72.706+45.896L72.706+6.614L72.706+6.614Z" id="Mask_5"/>
<path d="M72.706+6.614L253.27+6.614L253.27+6.614L253.27+45.896L253.27+45.896L72.706+45.896L72.706+45.896L72.706+6.614L72.706+6.614Z" id="Mask_6"/>
<path d="M72.706+6.614L253.27+6.614L253.27+6.614L253.27+45.896L253.27+45.896L72.706+45.896L72.706+45.896L72.706+6.614L72.706+6.614Z" id="Mask_7"/>
<path d="M72.706+6.614L253.27+6.614L253.27+6.614L253.27+45.896L253.27+45.896L72.706+45.896L72.706+45.896L72.706+6.614L72.706+6.614Z" id="Mask_8"/>
<path d="M72.706+6.614L253.27+6.614L253.27+6.614L253.27+45.896L253.27+45.896L72.706+45.896L72.706+45.896L72.706+6.614L72.706+6.614Z" id="Mask_9"/>
<path d="M72.706+6.614L253.27+6.614L253.27+6.614L253.27+45.896L253.27+45.896L72.706+45.896L72.706+45.896L72.706+6.614L72.706+6.614Z" id="Mask_10"/>
<path d="M72.706+6.614L253.27+6.614L253.27+6.614L253.27+45.896L253.27+45.896L72.706+45.896L72.706+45.896L72.706+6.614L72.706+6.614Z" id="Mask_11"/>
<path d="M72.706+6.614L253.27+6.614L253.27+6.614L253.27+45.896L253.27+45.896L72.706+45.896L72.706+45.896L72.706+6.614L72.706+6.614Z" id="Mask_12"/>
</defs>
<g id="Untitled" vectornator:layerName="Untitled">
<g opacity="1">
<path d="M77.93+51.248L80.528+51.248C81.749+51.248+82.632+51.429+83.178+51.795C83.723+52.159+83.996+52.736+83.996+53.524C83.996+54.071+83.844+54.519+83.54+54.875C83.235+55.23+82.792+55.46+82.208+55.564L82.208+55.626C83.605+55.867+84.303+56.6+84.303+57.829C84.303+58.651+84.025+59.294+83.469+59.755C82.914+60.217+82.136+60.447+81.138+60.447L77.93+60.447L77.93+51.248L77.93+51.248ZM78.999+55.188L80.761+55.188C81.516+55.188+82.059+55.068+82.39+54.833C82.721+54.596+82.888+54.196+82.888+53.634C82.888+53.117+82.703+52.746+82.334+52.517C81.965+52.288+81.377+52.174+80.572+52.174L79+52.174L78.999+55.188L78.999+55.188ZM78.999+56.093L78.999+59.535L80.918+59.535C81.661+59.535+82.22+59.391+82.596+59.104C82.971+58.815+83.159+58.366+83.159+57.753C83.159+57.183+82.968+56.764+82.583+56.493C82.199+56.225+81.615+56.091+80.831+56.091L78.999+56.093L78.999+56.093Z" opacity="1" fill="#333333"/>
<path d="M87.167+56.402L89.048+56.402C89.925+56.402+90.574+56.563+90.995+56.888C91.417+57.213+91.628+57.699+91.628+58.345C91.628+59.037+91.405+59.561+90.958+59.914C90.511+60.268+89.854+60.446+88.985+60.446L86.122+60.446L86.122+53.55L87.166+53.55L87.166+56.402L87.167+56.402ZM87.167+57.301L87.167+59.572L88.935+59.572C90.043+59.572+90.597+59.184+90.597+58.407C90.597+58.022+90.469+57.74+90.214+57.565C89.957+57.388+89.521+57.3+88.905+57.3L87.167+57.3L87.167+57.301ZM93.83+60.447L92.785+60.447L92.785+53.551L93.83+53.551L93.83+60.447Z" opacity="1" fill="#333333"/>
<path d="M98.801+60.573C97.802+60.573+97.03+60.265+96.482+59.65C95.935+59.035+95.661+58.167+95.661+57.042C95.661+55.889+95.938+54.997+96.495+54.367C97.049+53.739+97.843+53.425+98.87+53.425C99.202+53.425+99.533+53.46+99.865+53.531C100.196+53.601+100.456+53.686+100.644+53.783L100.324+54.671C100.093+54.578+99.841+54.501+99.569+54.442C99.296+54.38+99.054+54.35+98.845+54.35C97.444+54.35+96.743+55.245+96.743+57.031C96.743+57.878+96.913+58.529+97.256+58.981C97.598+59.434+98.104+59.662+98.775+59.662C99.35+59.662+99.939+59.538+100.544+59.291L100.544+60.217C100.082+60.453+99.5+60.573+98.801+60.573Z" opacity="1" fill="#333333"/>
<path d="M108.133+56.992C108.133+58.117+107.85+58.995+107.283+59.625C106.717+60.256+105.934+60.573+104.936+60.573C104.319+60.573+103.772+60.427+103.294+60.138C102.815+59.848+102.446+59.432+102.186+58.892C101.926+58.352+101.796+57.718+101.796+56.992C101.796+55.869+102.077+54.993+102.639+54.365C103.202+53.739+103.981+53.425+104.979+53.425C105.944+53.425+106.71+53.745+107.279+54.388C107.849+55.029+108.133+55.898+108.133+56.992ZM102.879+56.992C102.879+57.873+103.055+58.544+103.407+59.007C103.76+59.468+104.277+59.698+104.961+59.698C105.645+59.698+106.164+59.468+106.519+59.009C106.874+58.549+107.051+57.877+107.051+56.992C107.051+56.116+106.874+55.45+106.519+54.995C106.165+54.54+105.642+54.311+104.949+54.311C104.266+54.311+103.749+54.536+103.402+54.985C103.052+55.434+102.879+56.104+102.879+56.992Z" opacity="1" fill="#333333"/>
<path d="M113.984+53.551L115.129+53.551L112.154+56.879L115.375+60.445L114.155+60.445L111.009+56.953L111.009+60.445L109.965+60.445L109.965+53.55L111.009+53.55L111.009+56.903L113.984+53.551Z" opacity="1" fill="#333333"/>
<path d="M117.634+53.551L117.634+57.924L117.59+59.069L117.571+59.428L121.302+53.551L122.605+53.551L122.605+60.447L121.629+60.447L121.629+56.23L121.649+55.4L121.681+54.583L117.956+60.447L116.653+60.447L116.653+53.551C116.653+53.551+117.634+53.551+117.634+53.551Z" opacity="1" fill="#333333"/>
<path d="M125.801+53.551L125.801+57.924L125.757+59.069L125.737+59.428L129.468+53.551L130.771+53.551L130.771+60.447L129.796+60.447L129.796+56.23L129.815+55.4L129.846+54.583L126.121+60.447L124.818+60.447L124.818+53.551C124.818+53.551+125.801+53.551+125.801+53.551ZM127.771+52.638C126.995+52.638+126.429+52.489+126.072+52.19C125.717+51.89+125.517+51.396+125.474+50.708L126.456+50.708C126.493+51.145+126.607+51.448+126.799+51.621C126.99+51.792+127.321+51.879+127.796+51.879C128.228+51.879+128.547+51.786+128.755+51.602C128.963+51.418+129.089+51.12+129.136+50.707L130.123+50.707C130.073+51.369+129.861+51.857+129.487+52.17C129.115+52.482+128.543+52.638+127.771+52.638Z" opacity="1" fill="#333333"/>
<path d="M143.664+60.447L141.72+60.447L141.72+52.871L138.336+52.871L138.336+60.447L136.385+60.447L136.385+51.248L143.664+51.248C143.664+51.248+143.664+60.447+143.664+60.447Z" opacity="1" fill="#303234"/>
<path d="M154.337+55.835C154.337+57.358+153.958+58.526+153.205+59.346C152.449+60.164+151.366+60.574+149.957+60.574C148.548+60.574+147.466+60.165+146.712+59.346C145.956+58.527+145.578+57.354+145.578+55.822C145.578+54.292+145.958+53.123+146.714+52.315C147.473+51.507+148.558+51.104+149.972+51.104C151.385+51.104+152.467+51.511+153.214+52.325C153.963+53.138+154.337+54.309+154.337+55.835ZM147.623+55.835C147.623+56.862+147.818+57.637+148.208+58.155C148.599+58.676+149.181+58.936+149.957+58.936C151.514+58.936+152.292+57.901+152.292+55.833C152.292+53.76+151.518+52.725+149.97+52.725C149.195+52.725+148.61+52.986+148.215+53.507C147.821+54.03+147.623+54.808+147.623+55.835Z" opacity="1" fill="#303234"/>
<path d="M163.522+60.447L161.578+60.447L161.578+52.871L159.326+52.871L159.225+53.714C158.965+55.858+158.735+57.363+158.537+58.228C158.339+59.095+158.048+59.705+157.666+60.057C157.283+60.409+156.769+60.582+156.118+60.574C155.765+60.574+155.456+60.527+155.187+60.435L155.187+58.837C155.429+58.921+155.659+58.963+155.872+58.963C156.095+58.963+156.27+58.861+156.401+58.658C156.532+58.454+156.654+58.076+156.77+57.523C156.885+56.973+157.039+56.069+157.229+54.812C157.419+53.555+157.582+52.368+157.715+51.248L163.524+51.248L163.524+60.447C163.524+60.447+163.522+60.447+163.522+60.447Z" opacity="1" fill="#303234"/>
<path d="M171.144+60.447L165.845+60.447L165.845+51.248L171.144+51.248L171.144+52.847L167.796+52.847L167.796+54.866L170.91+54.866L170.91+56.464L167.796+56.464L167.796+58.837L171.144+58.837L171.144+60.447Z" opacity="1" fill="#303234"/>
<path d="M176.612+60.447L174.661+60.447L174.661+52.871L172.163+52.871L172.163+51.248L179.109+51.248L179.109+52.871L176.612+52.871L176.612+60.447L176.612+60.447Z" opacity="1" fill="#303234"/>
<path d="M184.867+53.551L184.867+56.44L188.73+56.44L188.73+53.551L189.774+53.551L189.774+60.447L188.73+60.447L188.73+57.338L184.867+57.338L184.867+60.447L183.822+60.447L183.822+53.551L184.867+53.551Z" opacity="1" fill="#29a74a"/>
<path d="M196.231+60.447L196.024+59.466L195.973+59.466C195.63+59.897+195.285+60.19+194.945+60.343C194.601+60.495+194.174+60.572+193.665+60.572C192.98+60.572+192.444+60.395+192.057+60.043C191.67+59.691+191.475+59.19+191.475+58.54C191.475+57.147+192.59+56.416+194.816+56.35L195.987+56.313L195.987+55.885C195.987+55.342+195.87+54.944+195.637+54.685C195.405+54.428+195.032+54.298+194.519+54.298C193.945+54.298+193.295+54.475+192.57+54.827L192.249+54.027C192.589+53.842+192.962+53.697+193.366+53.592C193.77+53.487+194.176+53.435+194.583+53.435C195.405+53.435+196.016+53.619+196.411+53.982C196.807+54.347+197.005+54.933+197.005+55.739L197.005+60.445L196.233+60.445L196.233+60.447L196.231+60.447ZM193.871+59.711C194.521+59.711+195.032+59.532+195.403+59.177C195.775+58.82+195.96+58.32+195.96+57.678L195.96+57.055L194.915+57.101C194.085+57.129+193.486+57.259+193.119+57.487C192.751+57.716+192.567+58.071+192.567+58.554C192.567+58.932+192.682+59.218+192.912+59.416C193.14+59.613+193.459+59.711+193.871+59.711Z" opacity="1" fill="#29a74a"/>
<path d="M205.996+51.115L207.079+51.115L207.079+52.249L207.519+52.249C208.236+52.249+208.858+52.392+209.384+52.677C209.909+52.962+210.313+53.365+210.592+53.885C210.871+54.405+211.01+54.998+211.01+55.665C211.01+56.361+210.855+56.98+210.541+57.523C210.228+58.067+209.801+58.476+209.257+58.748C208.715+59.022+208.073+59.158+207.335+59.158L207.078+59.158L207.078+60.573L205.995+60.573L205.995+59.158L205.712+59.158C204.974+59.158+204.334+59.02+203.792+58.743C203.252+58.465+202.827+58.055+202.521+57.511C202.214+56.965+202.062+56.355+202.062+55.678C202.062+55.016+202.203+54.425+202.486+53.905C202.769+53.385+203.175+52.979+203.704+52.686C204.232+52.396+204.855+52.249+205.572+52.249L205.994+52.249L205.996+51.115L205.996+51.115ZM205.996+53.167L205.638+53.167C204.874+53.167+204.275+53.39+203.834+53.834C203.396+54.278+203.177+54.884+203.177+55.652C203.177+56.478+203.41+57.119+203.876+57.574C204.342+58.03+204.998+58.258+205.845+58.258L205.996+58.258L205.996+53.167L205.996+53.167ZM207.079+58.257L207.236+58.257C208.079+58.257+208.735+58.028+209.202+57.569C209.67+57.11+209.904+56.471+209.904+55.653C209.904+54.878+209.687+54.268+209.256+53.828C208.825+53.388+208.22+53.168+207.443+53.168L207.079+53.168C207.079+53.168+207.079+58.257+207.079+58.257Z" opacity="1" fill="#29a74a"/>
<path d="M218.738+56.992C218.738+58.117+218.455+58.995+217.887+59.625C217.322+60.256+216.538+60.573+215.541+60.573C214.924+60.573+214.376+60.427+213.898+60.138C213.419+59.848+213.05+59.432+212.791+58.892C212.53+58.352+212.401+57.718+212.401+56.992C212.401+55.869+212.68+54.993+213.244+54.365C213.806+53.739+214.586+53.425+215.584+53.425C216.55+53.425+217.314+53.745+217.884+54.388C218.454+55.029+218.738+55.898+218.738+56.992ZM213.484+56.992C213.484+57.873+213.661+58.544+214.013+59.007C214.366+59.468+214.882+59.698+215.566+59.698C216.251+59.698+216.77+59.468+217.125+59.009C217.479+58.549+217.656+57.877+217.656+56.992C217.656+56.116+217.479+55.45+217.125+54.995C216.771+54.54+216.247+54.311+215.554+54.311C214.871+54.311+214.355+54.536+214.007+54.985C213.657+55.434+213.484+56.104+213.484+56.992Z" opacity="1" fill="#29a74a"/>
<path d="M223.778+60.573C223.33+60.573+222.92+60.489+222.549+60.324C222.177+60.158+221.864+59.903+221.613+59.559L221.538+59.559C221.589+59.962+221.613+60.343+221.613+60.704L221.613+63.542L220.569+63.542L220.569+53.551L221.419+53.551L221.564+54.495L221.614+54.495C221.885+54.116+222.196+53.844+222.552+53.677C222.908+53.509+223.318+53.425+223.78+53.425C224.693+53.425+225.4+53.737+225.897+54.362C226.393+54.987+226.642+55.865+226.642+56.993C226.642+58.125+226.39+59.006+225.884+59.632C225.379+60.259+224.677+60.573+223.778+60.573ZM223.628+54.312C222.923+54.312+222.413+54.507+222.099+54.898C221.784+55.288+221.622+55.909+221.614+56.761L221.614+56.992C221.614+57.961+221.776+58.655+222.099+59.072C222.42+59.488+222.94+59.697+223.653+59.697C224.249+59.697+224.715+59.457+225.052+58.974C225.389+58.491+225.558+57.826+225.558+56.979C225.558+56.12+225.389+55.459+225.052+55C224.715+54.541+224.24+54.312+223.628+54.312Z" opacity="1" fill="#29a74a"/>
<path d="M231.38+60.573C230.359+60.573+229.556+60.262+228.966+59.642C228.377+59.021+228.083+58.158+228.083+57.054C228.083+55.943+228.356+55.06+228.903+54.406C229.45+53.752+230.185+53.425+231.109+53.425C231.972+53.425+232.656+53.709+233.16+54.278C233.663+54.846+233.916+55.596+233.916+56.528L233.916+57.187L229.165+57.187C229.186+57.998+229.392+58.611+229.778+59.031C230.166+59.451+230.713+59.661+231.417+59.661C232.161+59.661+232.893+59.505+233.62+59.195L233.62+60.125C233.251+60.286+232.901+60.4+232.571+60.47C232.242+60.537+231.845+60.573+231.38+60.573ZM231.097+54.299C230.543+54.299+230.102+54.48+229.772+54.841C229.444+55.201+229.25+55.701+229.19+56.338L232.795+56.338C232.795+55.68+232.649+55.176+232.356+54.825C232.062+54.475+231.642+54.299+231.097+54.299Z" opacity="1" fill="#29a74a"/>
<path d="M239.718+53.551L240.863+53.551L237.887+56.879L241.109+60.445L239.888+60.445L236.742+56.953L236.742+60.445L235.697+60.445L235.697+53.55L236.742+53.55L236.742+56.903L239.718+53.551Z" opacity="1" fill="#29a74a"/>
<path d="M245.141+60.573C244.142+60.573+243.37+60.265+242.823+59.65C242.276+59.035+242.003+58.167+242.003+57.042C242.003+55.889+242.279+54.997+242.836+54.367C243.393+53.739+244.185+53.425+245.212+53.425C245.543+53.425+245.874+53.46+246.205+53.531C246.537+53.601+246.797+53.686+246.986+53.783L246.665+54.671C246.435+54.578+246.183+54.501+245.91+54.442C245.637+54.38+245.396+54.35+245.185+54.35C243.785+54.35+243.084+55.245+243.084+57.031C243.084+57.878+243.254+58.529+243.597+58.981C243.938+59.434+244.446+59.662+245.117+59.662C245.692+59.662+246.281+59.538+246.886+59.291L246.886+60.217C246.422+60.453+245.843+60.573+245.141+60.573Z" opacity="1" fill="#29a74a"/>
</g>
<g opacity="1">
<g opacity="1" vectornator:mask="#Mask">
<clipPath id="ClipPath">
<use xlink:href="#Mask" fill="none" overflow="visible"/>
</clipPath>
<g clip-path="url(#ClipPath)">
<path d="M83.856+44.325L78.831+44.325L78.831+20.232L92.64+20.232L92.64+24.419L83.856+24.419L83.856+30.63L92.029+30.63L92.029+34.799L83.856+34.799L83.856+44.325Z" opacity="1" fill="#2a88c9"/>
</g>
</g>
<g opacity="1" vectornator:mask="#Mask_2">
<clipPath id="ClipPath_2">
<use xlink:href="#Mask_2" fill="none" overflow="visible"/>
</clipPath>
<g clip-path="url(#ClipPath_2)">
<g opacity="1">
<g opacity="1" vectornator:mask="#Mask_3">
<clipPath id="ClipPath_3">
<use xlink:href="#Mask_3" fill="none" overflow="visible"/>
</clipPath>
<g clip-path="url(#ClipPath_3)">
<path d="M113.698+35.078C113.698+38.079+112.907+40.425+111.325+42.115C109.744+43.806+107.542+44.654+104.719+44.654C102.949+44.654+101.389+44.265+100.038+43.49C98.687+42.717+97.649+41.604+96.925+40.155C96.2+38.704+95.837+37.013+95.837+35.076C95.837+32.069+96.622+29.727+98.193+28.059C99.764+26.389+101.972+25.554+104.817+25.554C106.586+25.554+108.147+25.938+109.498+26.707C110.849+27.476+111.888+28.58+112.613+30.019C113.335+31.461+113.698+33.147+113.698+35.078M100.96+35.078C100.96+36.903+101.26+38.281+101.858+39.217C102.457+40.151+103.433+40.618+104.783+40.618C106.122+40.618+107.087+40.152+107.674+39.225C108.263+38.295+108.556+36.914+108.556+35.078C108.556+33.257+108.259+31.887+107.666+30.976C107.073+30.064+106.101+29.608+104.749+29.608C103.409+29.608+102.442+30.062+101.849+30.967C101.258+31.874+100.96+33.246+100.96+35.078" opacity="1" fill="#2a88c9"/>
</g>
</g>
<g opacity="1" vectornator:mask="#Mask_4">
<clipPath id="ClipPath_4">
<use xlink:href="#Mask_4" fill="none" overflow="visible"/>
</clipPath>
<g clip-path="url(#ClipPath_4)">
<path d="M128.134+25.556C128.815+25.556+129.379+25.605+129.831+25.704L129.452+30.416C129.045+30.308+128.551+30.251+127.968+30.251C126.364+30.251+125.115+30.663+124.22+31.486C123.325+32.309+122.877+33.465+122.877+34.947L122.877+44.323L117.851+44.323L117.851+25.902L121.658+25.902L122.399+29L122.647+29C123.217+27.968+123.99+27.135+124.962+26.503C125.935+25.871+126.99+25.556+128.134+25.556" opacity="1" fill="#2a88c9"/>
</g>
</g>
<g opacity="1" vectornator:mask="#Mask_5">
<clipPath id="ClipPath_5">
<use xlink:href="#Mask_5" fill="none" overflow="visible"/>
</clipPath>
<g clip-path="url(#ClipPath_5)">
<path d="M141.514+44.654C138.547+44.654+136.231+43.836+134.56+42.199C132.892+40.56+132.057+38.243+132.057+35.244C132.057+32.158+132.828+29.772+134.372+28.085C135.915+26.398+138.049+25.555+140.773+25.555C143.376+25.555+145.403+26.297+146.852+27.779C148.304+29.262+149.028+31.312+149.028+33.926L149.028+36.365L137.147+36.365C137.203+37.792+137.627+38.907+138.417+39.708C139.207+40.512+140.316+40.912+141.745+40.912C142.854+40.912+143.905+40.796+144.894+40.565C145.882+40.336+146.913+39.968+147.991+39.46L147.991+43.351C147.111+43.79+146.173+44.117+145.174+44.332C144.172+44.547+142.954+44.654+141.514+44.654M140.806+29.131C139.742+29.131+138.907+29.469+138.301+30.144C137.697+30.821+137.351+31.78+137.263+33.02L144.315+33.02C144.294+31.78+143.969+30.82+143.345+30.144C142.717+29.469+141.871+29.131+140.806+29.131" opacity="1" fill="#2a88c9"/>
</g>
</g>
<g opacity="1" vectornator:mask="#Mask_6">
<clipPath id="ClipPath_6">
<use xlink:href="#Mask_6" fill="none" overflow="visible"/>
</clipPath>
<g clip-path="url(#ClipPath_6)">
<path d="M156.888+34.916L150.956+25.902L156.657+25.902L160.232+31.767L163.843+25.902L169.543+25.902L163.544+34.916L169.822+44.325L164.104+44.325L160.232+38.012L156.345+44.325L150.643+44.325L156.888+34.916Z" opacity="1" fill="#2a88c9"/>
</g>
</g>
<g opacity="1" vectornator:mask="#Mask_7">
<clipPath id="ClipPath_7">
<use xlink:href="#Mask_7" fill="none" overflow="visible"/>
</clipPath>
<g clip-path="url(#ClipPath_7)">
<path d="M213.04+44.334L212.062+41.83L211.936+41.83C211.092+42.886+210.224+43.63+209.326+44.042C208.423+44.452+207.26+44.656+205.824+44.656C204.052+44.656+202.656+44.151+201.647+43.147C200.631+42.129+200.12+40.689+200.12+38.83C200.12+36.873+200.806+35.43+202.174+34.498C203.548+33.573+205.604+33.059+208.363+32.962L211.552+32.862L211.552+32.055C211.552+30.187+210.601+29.25+208.685+29.25C207.22+29.25+205.489+29.703+203.497+30.589L201.84+27.194C203.957+26.087+206.308+25.53+208.889+25.53C211.361+25.53+213.256+26.067+214.573+27.141C215.884+28.22+216.553+29.858+216.553+32.055L216.553+44.334C216.553+44.334+213.04+44.334+213.04+44.334ZM211.552+35.792L209.616+35.86C208.15+35.907+207.068+36.167+206.352+36.654C205.637+37.137+205.274+37.869+205.274+38.864C205.274+40.277+206.091+40.986+207.72+40.986C208.884+40.986+209.821+40.652+210.508+39.982C211.207+39.308+211.552+38.422+211.552+37.314L211.552+35.792L211.552+35.792Z" opacity="1" fill="#2a88c9"/>
</g>
</g>
<g opacity="1" vectornator:mask="#Mask_8">
<clipPath id="ClipPath_8">
<use xlink:href="#Mask_8" fill="none" overflow="visible"/>
</clipPath>
<g clip-path="url(#ClipPath_8)">
<path d="M232.011+25.563C232.686+25.563+233.255+25.61+233.701+25.709L233.322+30.421C232.919+30.313+232.425+30.256+231.846+30.256C230.233+30.256+228.99+30.672+228.1+31.495C227.197+32.315+226.747+33.471+226.747+34.956L226.747+44.333L221.725+44.333L221.725+25.908L225.532+25.908L226.269+29.005L226.516+29.005C227.09+27.977+227.861+27.139+228.836+26.509C229.808+25.877+230.864+25.563+232.011+25.563" opacity="1" fill="#2a88c9"/>
</g>
</g>
<g opacity="1" vectornator:mask="#Mask_9">
<clipPath id="ClipPath_9">
<use xlink:href="#Mask_9" fill="none" overflow="visible"/>
</clipPath>
<g clip-path="url(#ClipPath_9)">
<path d="M244.814+40.657C245.691+40.657+246.74+40.466+247.971+40.079L247.971+43.821C246.723+44.378+245.184+44.656+243.361+44.656C241.346+44.656+239.888+44.151+238.967+43.138C238.049+42.117+237.589+40.591+237.589+38.561L237.589+29.686L235.187+29.686L235.187+27.555L237.958+25.875L239.404+21.987L242.619+21.987L242.619+25.908L247.773+25.908L247.773+29.686L242.619+29.686L242.619+38.561C242.619+39.277+242.816+39.805+243.221+40.148C243.624+40.486+244.153+40.657+244.814+40.657" opacity="1" fill="#2a88c9"/>
</g>
</g>
<g opacity="1" vectornator:mask="#Mask_10">
<clipPath id="ClipPath_10">
<use xlink:href="#Mask_10" fill="none" overflow="visible"/>
</clipPath>
<g clip-path="url(#ClipPath_10)">
<path d="M188.721+20.239L182.676+38.665L182.572+38.665L176.872+20.239L174.279+20.239L169.92+26.818L169.92+44.334L174.48+44.334L174.48+33.123C174.48+31.84+174.376+29.275+174.172+25.433L174.319+25.433L180.114+44.334L184.792+44.334L191.014+25.464L191.157+25.464C191.025+28.497+190.952+30.36+190.934+31.067C190.917+31.768+190.907+32.389+190.907+32.929L190.907+44.334L195.675+44.334L195.675+20.239L188.721+20.239Z" opacity="1" fill="#2a88c9"/>
</g>
</g>
<g opacity="1" vectornator:mask="#Mask_11">
<clipPath id="ClipPath_11">
<use xlink:href="#Mask_11" fill="none" overflow="visible"/>
</clipPath>
<g clip-path="url(#ClipPath_11)">
<path d="M171.629+13.548L175.743+16.159L162.517+37.069L159.822+32.202L171.629+13.548Z" opacity="1" fill="#2a88c9"/>
</g>
</g>
<g opacity="1" vectornator:mask="#Mask_12">
<clipPath id="ClipPath_12">
<use xlink:href="#Mask_12" fill="none" overflow="visible"/>
</clipPath>
<g clip-path="url(#ClipPath_12)">
<path d="M167.786+13.533L177.651+7.857L177.634+19.24L167.786+13.533Z" opacity="1" fill="#2a88c9"/>
</g>
</g>
</g>
</g>
</g>
<path d="M60.8206+16.1185L60.8133+25.8176L58.7263+24.6107L44.9268+45.37L51.2263+54.8119L45.4846+54.8119L41.604+48.4887L37.7036+54.8119L31.9807+54.8119L38.2448+45.37L32.2979+36.3335L38.0157+36.3335L41.3137+41.7486L54.3439+22.0738L52.3792+20.9333L60.8009+16.0874C54.7617+9.97359+46.3939+6.179+37.1179+6.179C18.7452+6.18107+3.85198+21.0774+3.85198+39.4522C3.85198+49.963+8.7331+59.3198+16.3441+65.4223L16.3441+30.427L30.2741+30.427L30.2741+34.6509L21.4128+34.6509L21.4128+40.915L29.6593+40.915L29.6593+45.1274L21.4128+45.1274L21.4128+68.7835C26.0928+71.2811+31.4395+72.717+37.1199+72.717C55.4967+72.717+70.391+57.8227+70.391+39.4521C70.3921+30.3555+66.7437+22.1225+60.8206+16.1185Z" opacity="1" fill="#2b87c8"/>
</g>
</g>
</svg>
