<?xml version="1.0" encoding="utf-8"?>
<!-- Generator: Adobe Illustrator 16.0.0, SVG Export Plug-In . SVG Version: 6.00 Build 0)  -->
<!DOCTYPE svg PUBLIC "-//W3C//DTD SVG 1.1//EN" "http://www.w3.org/Graphics/SVG/1.1/DTD/svg11.dtd">
<svg version="1.1" id="Layer_1" xmlns="http://www.w3.org/2000/svg" xmlns:xlink="http://www.w3.org/1999/xlink" x="0px" y="0px"
	 width="254px" height="79px" viewBox="197.496 19.982 254 79" enable-background="new 197.496 19.982 254 79" xml:space="preserve"
	>
<g id="Layer_3" display="none">
	<rect y="0.068" display="inline" fill="#2A88C9" width="648.979" height="118.896"/>
</g>
<g id="Layer_2">
</g>
<g>
	<path fill="#FFFFFF" d="M278.646,83.012h-1.341v-10.34h-3.652v-1.192h8.646v1.192h-3.652L278.646,83.012L278.646,83.012z"/>
	<path fill="#FFFFFF" d="M289.753,83.012v-5.59c0-0.706-0.16-1.233-0.482-1.579c-0.321-0.347-0.823-0.521-1.507-0.521
		c-0.91,0-1.573,0.249-1.992,0.741c-0.418,0.494-0.627,1.306-0.627,2.43v4.52h-1.309V70.738h1.309v3.717
		c0,0.444-0.021,0.817-0.063,1.111h0.08c0.257-0.415,0.625-0.741,1.1-0.981c0.476-0.238,1.019-0.36,1.629-0.36
		c1.057,0,1.849,0.252,2.378,0.754c0.529,0.503,0.793,1.299,0.793,2.395v5.639H289.753z"/>
	<path fill="#FFFFFF" d="M293.641,72.024c0-0.301,0.073-0.52,0.221-0.657c0.147-0.141,0.331-0.212,0.552-0.212
		c0.21,0,0.392,0.073,0.544,0.216c0.153,0.141,0.229,0.36,0.229,0.653c0,0.295-0.076,0.514-0.229,0.658
		c-0.152,0.146-0.334,0.217-0.544,0.217c-0.221,0-0.404-0.071-0.552-0.217C293.714,72.538,293.641,72.319,293.641,72.024z
		 M295.062,83.012h-1.31v-8.644h1.31V83.012z"/>
	<path fill="#FFFFFF" d="M303.754,83.012v-5.59c0-0.706-0.161-1.233-0.481-1.579c-0.321-0.347-0.824-0.521-1.507-0.521
		c-0.905,0-1.567,0.245-1.988,0.734c-0.419,0.487-0.63,1.298-0.63,2.422v4.536h-1.31v-8.646h1.066l0.212,1.184h0.063
		c0.269-0.427,0.644-0.757,1.128-0.99c0.484-0.234,1.023-0.353,1.618-0.353c1.042,0,1.825,0.252,2.351,0.753
		c0.525,0.504,0.789,1.306,0.789,2.411v5.639H303.754L303.754,83.012z"/>
	<path fill="#FFFFFF" d="M309.047,78.588c0.226-0.32,0.571-0.743,1.034-1.263l2.792-2.957h1.554l-3.502,3.682l3.747,4.962h-1.585
		l-3.053-4.085l-0.986,0.853v3.232h-1.293V70.738h1.293v6.509c0,0.289-0.021,0.737-0.063,1.341H309.047z"/>
	<path fill="#FFFFFF" d="M320.493,71.479h3.588c1.636,0,2.823,0.232,3.562,0.698c0.738,0.467,1.108,1.208,1.108,2.222
		c0,0.688-0.162,1.255-0.484,1.695c-0.324,0.442-0.754,0.706-1.291,0.796v0.079c0.732,0.164,1.258,0.469,1.582,0.914
		c0.324,0.446,0.485,1.041,0.485,1.784c0,1.052-0.38,1.872-1.14,2.462c-0.761,0.588-1.793,0.882-3.096,0.882h-4.315V71.479
		L320.493,71.479z M322.938,76.048h1.42c0.663,0,1.142-0.103,1.438-0.309c0.298-0.205,0.447-0.543,0.447-1.019
		c0-0.44-0.163-0.758-0.486-0.95c-0.323-0.19-0.835-0.289-1.535-0.289h-1.284V76.048L322.938,76.048z M322.938,77.988v3.007h1.593
		c0.673,0,1.17-0.13,1.491-0.388c0.318-0.258,0.481-0.652,0.481-1.182c0-0.959-0.686-1.436-2.051-1.436h-1.514V77.988z"/>
	<path fill="#FFFFFF" d="M331.347,83.012V71.479h2.445v11.532H331.347z"/>
	<path fill="#FFFFFF" d="M341.073,76.537h4.575v5.978c-0.741,0.243-1.439,0.413-2.094,0.51c-0.656,0.098-1.324,0.145-2.009,0.145
		c-1.738,0-3.068-0.511-3.985-1.533c-0.918-1.024-1.377-2.491-1.377-4.406c0-1.86,0.532-3.313,1.599-4.355
		c1.064-1.038,2.54-1.561,4.428-1.561c1.183,0,2.324,0.237,3.424,0.711l-0.813,1.955c-0.842-0.419-1.718-0.63-2.627-0.63
		c-1.058,0-1.904,0.355-2.54,1.064c-0.636,0.711-0.955,1.665-0.955,2.864c0,1.251,0.257,2.206,0.769,2.867
		c0.514,0.66,1.259,0.989,2.237,0.989c0.51,0,1.028-0.051,1.554-0.157V78.57h-2.185L341.073,76.537L341.073,76.537z"/>
	<path fill="#FFFFFF" d="M348.142,82.177c0-0.352,0.08-0.62,0.239-0.801c0.161-0.181,0.392-0.272,0.691-0.272
		c0.305,0,0.542,0.092,0.713,0.272s0.257,0.447,0.257,0.801c0,0.343-0.087,0.605-0.26,0.79c-0.173,0.183-0.411,0.275-0.709,0.275
		c-0.27,0-0.492-0.082-0.667-0.25C348.229,82.829,348.142,82.556,348.142,82.177z"/>
	<path fill="#FFFFFF" d="M360.572,83.012h-1.342v-10.34h-3.651v-1.192h8.646v1.192h-3.652V83.012L360.572,83.012z"/>
	<path fill="#FFFFFF" d="M369.707,74.209c0.383,0,0.728,0.033,1.032,0.095l-0.181,1.216c-0.358-0.079-0.673-0.119-0.947-0.119
		c-0.699,0-1.298,0.285-1.794,0.852c-0.497,0.568-0.745,1.276-0.745,2.124v4.638h-1.31v-8.646h1.079l0.15,1.601h0.063
		c0.322-0.563,0.708-0.997,1.16-1.302C368.669,74.362,369.165,74.209,369.707,74.209z"/>
	<path fill="#FFFFFF" d="M377.673,83.012l-0.26-1.23h-0.063c-0.43,0.543-0.86,0.908-1.289,1.101
		c-0.428,0.191-0.964,0.287-1.604,0.287c-0.858,0-1.53-0.22-2.017-0.66s-0.729-1.071-0.729-1.884c0-1.75,1.396-2.662,4.188-2.746
		l1.467-0.046v-0.539c0-0.678-0.146-1.178-0.438-1.502c-0.291-0.324-0.758-0.485-1.398-0.485c-0.723,0-1.537,0.222-2.446,0.662
		l-0.402-1.001c0.426-0.231,0.893-0.413,1.399-0.545c0.508-0.132,1.017-0.198,1.527-0.198c1.031,0,1.795,0.23,2.291,0.688
		s0.746,1.189,0.746,2.2v5.9h-0.972V83.012z M374.716,82.09c0.815,0,1.456-0.224,1.921-0.669c0.466-0.447,0.698-1.073,0.698-1.879
		v-0.779l-1.31,0.054c-1.042,0.038-1.792,0.2-2.253,0.485c-0.459,0.287-0.689,0.733-0.689,1.337c0,0.474,0.144,0.834,0.429,1.08
		C373.799,81.968,374.2,82.09,374.716,82.09z"/>
	<path fill="#FFFFFF" d="M387.226,81.853h-0.071c-0.605,0.88-1.509,1.316-2.713,1.316c-1.131,0-2.011-0.383-2.639-1.158
		c-0.628-0.773-0.943-1.872-0.943-3.297s0.315-2.532,0.947-3.319c0.631-0.79,1.51-1.186,2.635-1.186
		c1.172,0,2.072,0.427,2.697,1.278h0.103l-0.056-0.624l-0.031-0.606v-3.519h1.31v12.273h-1.064L387.226,81.853z M384.607,82.074
		c0.895,0,1.542-0.242,1.944-0.729c0.402-0.486,0.603-1.271,0.603-2.354v-0.277c0-1.227-0.203-2.1-0.611-2.621
		c-0.407-0.524-1.059-0.786-1.953-0.786c-0.767,0-1.354,0.298-1.764,0.895c-0.406,0.596-0.608,1.439-0.608,2.53
		c0,1.103,0.201,1.938,0.605,2.499C383.229,81.793,383.823,82.074,384.607,82.074z"/>
	<path fill="#FFFFFF" d="M394.894,83.169c-1.278,0-2.286-0.387-3.025-1.167c-0.739-0.777-1.108-1.856-1.108-3.241
		c0-1.393,0.343-2.5,1.029-3.32c0.688-0.82,1.607-1.231,2.766-1.231c1.083,0,1.939,0.356,2.57,1.069
		c0.631,0.714,0.947,1.653,0.947,2.82v0.828h-5.955c0.025,1.016,0.281,1.787,0.768,2.311c0.488,0.526,1.172,0.788,2.056,0.788
		c0.931,0,1.851-0.193,2.762-0.584v1.168c-0.464,0.2-0.902,0.344-1.314,0.432C395.975,83.128,395.478,83.169,394.894,83.169z
		 M394.539,75.307c-0.694,0-1.248,0.226-1.661,0.68c-0.413,0.451-0.655,1.077-0.729,1.876h4.521c0-0.824-0.185-1.457-0.552-1.897
		C395.748,75.526,395.224,75.307,394.539,75.307z"/>
	<path fill="#FFFFFF" d="M406.04,83.012h-1.343V71.479h6.43v1.192h-5.087v4.219h4.78v1.192h-4.78V83.012L406.04,83.012z"/>
	<path fill="#FFFFFF" d="M420.302,78.683c0,1.409-0.355,2.511-1.065,3.301c-0.709,0.791-1.69,1.186-2.942,1.186
		c-0.772,0-1.46-0.179-2.058-0.543c-0.601-0.362-1.063-0.884-1.39-1.561c-0.327-0.68-0.488-1.475-0.488-2.383
		c0-1.41,0.352-2.507,1.056-3.293c0.705-0.785,1.683-1.181,2.936-1.181c1.209,0,2.169,0.403,2.883,1.208
		C419.945,76.221,420.302,77.311,420.302,78.683z M413.715,78.683c0,1.104,0.221,1.946,0.663,2.524s1.091,0.867,1.948,0.867
		s1.507-0.287,1.952-0.862c0.444-0.577,0.667-1.421,0.667-2.529c0-1.1-0.223-1.935-0.667-2.505c-0.445-0.57-1.1-0.856-1.968-0.856
		c-0.856,0-1.504,0.281-1.94,0.846C413.933,76.729,413.715,77.567,413.715,78.683z"/>
	<path fill="#FFFFFF" d="M426.541,74.209c0.384,0,0.727,0.033,1.032,0.095l-0.181,1.216c-0.357-0.079-0.673-0.119-0.947-0.119
		c-0.698,0-1.297,0.285-1.795,0.852c-0.496,0.568-0.745,1.276-0.745,2.124v4.638h-1.31v-8.646h1.081l0.149,1.601h0.064
		c0.318-0.563,0.706-0.997,1.159-1.302C425.501,74.362,425.999,74.209,426.541,74.209z"/>
	<path fill="#FFFFFF" d="M432.844,83.169c-1.277,0-2.287-0.387-3.025-1.167c-0.738-0.777-1.108-1.856-1.108-3.241
		c0-1.393,0.343-2.5,1.03-3.32c0.685-0.82,1.607-1.231,2.765-1.231c1.083,0,1.94,0.356,2.571,1.069
		c0.63,0.714,0.946,1.653,0.946,2.82v0.828h-5.957c0.028,1.016,0.284,1.787,0.77,2.311c0.486,0.526,1.172,0.788,2.056,0.788
		c0.931,0,1.851-0.193,2.761-0.584v1.168c-0.463,0.2-0.9,0.344-1.313,0.432C433.926,83.128,433.427,83.169,432.844,83.169z
		 M432.488,75.307c-0.694,0-1.248,0.226-1.661,0.68c-0.412,0.451-0.655,1.077-0.729,1.876h4.52c0-0.824-0.184-1.457-0.552-1.897
		C433.697,75.526,433.172,75.307,432.488,75.307z"/>
	<path fill="#FFFFFF" d="M440.337,78.588l-3.006-4.22h1.49l2.28,3.313l2.271-3.313h1.477l-3.006,4.22l3.163,4.424h-1.483
		l-2.421-3.501l-2.444,3.501h-1.484L440.337,78.588z"/>
</g>
<g>
	<g id="Layer_1_1_">
		<g>
			<defs>
				<rect id="SVGID_1_" x="268.056" y="26.531" width="181.793" height="39.55"/>
			</defs>
			<clipPath id="SVGID_2_">
				<use xlink:href="#SVGID_1_"  overflow="visible"/>
			</clipPath>
			<polygon clip-path="url(#SVGID_2_)" fill="#FFFFFF" points="279.283,64.499 274.222,64.499 274.222,40.241 288.125,40.241 
				288.125,44.456 279.283,44.456 279.283,50.71 287.511,50.71 287.511,54.908 279.283,54.908 			"/>
		</g>
		<g>
			<defs>
				<rect id="SVGID_3_" x="268.056" y="26.531" width="181.793" height="39.55"/>
			</defs>
			<clipPath id="SVGID_4_">
				<use xlink:href="#SVGID_3_"  overflow="visible"/>
			</clipPath>
			<g clip-path="url(#SVGID_4_)">
				<g>
					<defs>
						<rect id="SVGID_5_" x="268.056" y="26.531" width="181.793" height="39.55"/>
					</defs>
					<defs>
						<rect id="SVGID_6_" x="268.056" y="26.531" width="181.793" height="39.55"/>
					</defs>
					<defs>
						<rect id="SVGID_7_" x="268.056" y="26.531" width="181.793" height="39.55"/>
					</defs>
					<defs>
						<rect id="SVGID_8_" x="268.056" y="26.531" width="181.793" height="39.55"/>
					</defs>
					<defs>
						<rect id="SVGID_9_" x="268.056" y="26.531" width="181.793" height="39.55"/>
					</defs>
					<defs>
						<rect id="SVGID_10_" x="268.056" y="26.531" width="181.793" height="39.55"/>
					</defs>
					<defs>
						<rect id="SVGID_11_" x="268.056" y="26.531" width="181.793" height="39.55"/>
					</defs>
					<defs>
						<rect id="SVGID_12_" x="268.056" y="26.531" width="181.793" height="39.55"/>
					</defs>
					<defs>
						<rect id="SVGID_13_" x="268.056" y="26.531" width="181.793" height="39.55"/>
					</defs>
					<defs>
						<rect id="SVGID_14_" x="268.056" y="26.531" width="181.793" height="39.55"/>
					</defs>
					<clipPath id="SVGID_15_">
						<use xlink:href="#SVGID_5_"  overflow="visible"/>
					</clipPath>
					<clipPath id="SVGID_16_" clip-path="url(#SVGID_15_)">
						<use xlink:href="#SVGID_6_"  overflow="visible"/>
					</clipPath>
					<clipPath id="SVGID_17_" clip-path="url(#SVGID_16_)">
						<use xlink:href="#SVGID_7_"  overflow="visible"/>
					</clipPath>
					<clipPath id="SVGID_18_" clip-path="url(#SVGID_17_)">
						<use xlink:href="#SVGID_8_"  overflow="visible"/>
					</clipPath>
					<clipPath id="SVGID_19_" clip-path="url(#SVGID_18_)">
						<use xlink:href="#SVGID_9_"  overflow="visible"/>
					</clipPath>
					<clipPath id="SVGID_20_" clip-path="url(#SVGID_19_)">
						<use xlink:href="#SVGID_10_"  overflow="visible"/>
					</clipPath>
					<clipPath id="SVGID_21_" clip-path="url(#SVGID_20_)">
						<use xlink:href="#SVGID_11_"  overflow="visible"/>
					</clipPath>
					<clipPath id="SVGID_22_" clip-path="url(#SVGID_21_)">
						<use xlink:href="#SVGID_12_"  overflow="visible"/>
					</clipPath>
					<clipPath id="SVGID_23_" clip-path="url(#SVGID_22_)">
						<use xlink:href="#SVGID_13_"  overflow="visible"/>
					</clipPath>
					<clipPath id="SVGID_24_" clip-path="url(#SVGID_23_)">
						<use xlink:href="#SVGID_14_"  overflow="visible"/>
					</clipPath>
					<path clip-path="url(#SVGID_24_)" fill="#FFFFFF" d="M309.328,55.188c0,3.022-0.796,5.384-2.389,7.086
						c-1.592,1.703-3.81,2.556-6.652,2.556c-1.782,0-3.352-0.393-4.712-1.171c-1.36-0.78-2.405-1.9-3.135-3.358
						c-0.73-1.461-1.096-3.164-1.096-5.113c0-3.027,0.791-5.385,2.373-7.064c1.582-1.682,3.805-2.522,6.67-2.522
						c1.781,0,3.352,0.386,4.712,1.161c1.36,0.774,2.406,1.885,3.136,3.334C308.962,51.547,309.328,53.245,309.328,55.188
						 M296.503,55.188c0,1.838,0.301,3.226,0.904,4.167c0.603,0.939,1.585,1.411,2.945,1.411c1.348,0,2.32-0.469,2.911-1.401
						c0.593-0.936,0.888-2.327,0.888-4.176c0-1.833-0.299-3.212-0.896-4.129c-0.597-0.919-1.576-1.378-2.937-1.378
						c-1.35,0-2.322,0.457-2.919,1.368S296.503,53.343,296.503,55.188"/>
					<path clip-path="url(#SVGID_24_)" fill="#FFFFFF" d="M323.861,45.601c0.685,0,1.254,0.049,1.709,0.149l-0.383,4.746
						c-0.41-0.109-0.907-0.167-1.492-0.167c-1.617,0-2.873,0.414-3.774,1.244c-0.902,0.831-1.353,1.992-1.353,3.485v9.44h-5.06
						V45.949h3.833l0.745,3.119h0.25c0.575-1.039,1.352-1.878,2.331-2.514C321.646,45.918,322.71,45.601,323.861,45.601"/>
					<path clip-path="url(#SVGID_24_)" fill="#FFFFFF" d="M337.332,64.829c-2.985,0-5.319-0.825-7.001-2.471
						c-1.68-1.65-2.52-3.983-2.52-7.002c0-3.107,0.776-5.51,2.329-7.208c1.555-1.698,3.703-2.547,6.446-2.547
						c2.621,0,4.662,0.747,6.121,2.239c1.462,1.494,2.189,3.558,2.189,6.189v2.456h-11.96c0.055,1.437,0.483,2.561,1.276,3.366
						c0.795,0.809,1.913,1.213,3.352,1.213c1.117,0,2.176-0.118,3.17-0.349c0.997-0.232,2.034-0.603,3.118-1.113v3.917
						c-0.885,0.444-1.831,0.769-2.837,0.986C340.009,64.722,338.783,64.829,337.332,64.829 M336.621,49.2
						c-1.074,0-1.914,0.341-2.523,1.021c-0.609,0.681-0.956,1.647-1.045,2.895h7.101c-0.022-1.248-0.349-2.215-0.978-2.895
						C338.544,49.541,337.692,49.2,336.621,49.2"/>
					<polygon clip-path="url(#SVGID_24_)" fill="#FFFFFF" points="352.812,55.024 346.839,45.949 352.58,45.949 356.179,51.855 
						359.814,45.949 365.553,45.949 359.513,55.024 365.834,64.499 360.076,64.499 356.179,58.143 352.265,64.499 346.523,64.499 
											"/>
					<path clip-path="url(#SVGID_24_)" fill="#FFFFFF" d="M409.345,64.508l-0.983-2.521h-0.126c-0.85,1.063-1.725,1.812-2.628,2.228
						c-0.911,0.413-2.08,0.617-3.527,0.617c-1.782,0-3.188-0.509-4.204-1.519c-1.023-1.024-1.538-2.476-1.538-4.347
						c0-1.97,0.691-3.423,2.069-4.361c1.382-0.932,3.451-1.449,6.23-1.547l3.21-0.1v-0.813c0-1.88-0.956-2.824-2.886-2.824
						c-1.475,0-3.218,0.456-5.224,1.348l-1.67-3.418c2.133-1.115,4.499-1.675,7.098-1.675c2.487,0,4.397,0.541,5.723,1.622
						c1.32,1.086,1.993,2.735,1.993,4.947v12.363H409.345L409.345,64.508z M407.848,55.906l-1.95,0.07
						c-1.475,0.046-2.564,0.31-3.284,0.798c-0.72,0.488-1.085,1.224-1.085,2.227c0,1.421,0.822,2.136,2.463,2.136
						c1.171,0,2.114-0.336,2.806-1.011c0.703-0.678,1.051-1.57,1.051-2.686V55.906L407.848,55.906z"/>
					<path clip-path="url(#SVGID_24_)" fill="#FFFFFF" d="M428.444,45.609c0.681,0,1.253,0.047,1.704,0.146l-0.383,4.745
						c-0.406-0.108-0.902-0.166-1.484-0.166c-1.625,0-2.876,0.418-3.773,1.248c-0.908,0.826-1.361,1.989-1.361,3.485v9.441h-5.057
						V45.957h3.833l0.742,3.117h0.25c0.576-1.035,1.353-1.879,2.336-2.513C426.229,45.924,427.293,45.609,428.444,45.609"/>
					<path clip-path="url(#SVGID_24_)" fill="#FFFFFF" d="M441.338,60.806c0.88,0,1.938-0.192,3.179-0.583v3.77
						c-1.257,0.561-2.807,0.839-4.642,0.839c-2.029,0-3.498-0.509-4.425-1.527c-0.925-1.028-1.389-2.563-1.389-4.608v-8.936h-2.418
						v-2.146l2.79-1.69l1.457-3.917h3.234v3.949h5.189v3.803h-5.189v8.936c0,0.72,0.199,1.253,0.607,1.597
						C440.14,60.634,440.671,60.806,441.338,60.806"/>
					<path clip-path="url(#SVGID_24_)" fill="#FFFFFF" d="M384.861,40.248L378.775,58.8h-0.105l-5.737-18.552h-2.61l-4.39,6.625
						v17.636h4.589V53.219c0-1.292-0.104-3.875-0.309-7.742h0.149l5.834,19.031h4.709l6.265-18.999h0.143
						c-0.132,3.053-0.206,4.929-0.225,5.641c-0.015,0.706-0.027,1.331-0.027,1.874v11.484h4.801v-24.26H384.861z"/>
					<polygon clip-path="url(#SVGID_24_)" fill="#FFFFFF" points="367.652,33.512 371.796,36.139 358.479,57.193 355.767,52.292 
											"/>
					<polygon clip-path="url(#SVGID_24_)" fill="#FFFFFF" points="363.784,33.497 373.717,27.783 373.699,39.242 					"/>
				</g>
			</g>
		</g>
		<path fill="none" stroke="#FFFFFF" stroke-miterlimit="10" d="M265.873,59.592c0,18.489-15.003,33.492-33.491,33.492
			c-18.501,0-33.498-15.003-33.498-33.492c0-18.499,14.997-33.498,33.498-33.498C250.869,26.095,265.873,41.093,265.873,59.592z"/>
		<path fill="#FFFFFF" d="M255.248,36.931l-0.008,9.42l-2.026-1.172l-13.4,20.16l6.117,9.17h-5.575l-3.769-6.139l-3.788,6.139
			h-5.558l6.083-9.17l-5.775-8.775h5.553l3.203,5.258l12.653-19.106l-1.908-1.107l8.179-4.706
			c-5.865-5.937-13.992-9.621-22.999-9.621c-17.844,0-32.306,14.465-32.306,32.31c0,10.206,4.74,19.294,12.131,25.219V50.826h13.527
			v4.102h-8.605v6.083h8.008V65.1h-8.008v22.974c4.544,2.429,9.736,3.82,15.253,3.82c17.845,0,32.309-14.464,32.309-32.304
			C264.542,50.757,260.999,42.762,255.248,36.931z"/>
	</g>
</g>
</svg>
