<?xml version="1.0" encoding="utf-8"?>
<!-- Generator: Adobe Illustrator 16.0.0, SVG Export Plug-In . SVG Version: 6.00 Build 0)  -->
<!DOCTYPE svg PUBLIC "-//W3C//DTD SVG 1.1//EN" "http://www.w3.org/Graphics/SVG/1.1/DTD/svg11.dtd">
<svg version="1.1" id="Layer_1" xmlns="http://www.w3.org/2000/svg" xmlns:xlink="http://www.w3.org/1999/xlink" x="0px" y="0px"
	 width="254px" height="79px" viewBox="197.496 19.982 254 79" enable-background="new 197.496 19.982 254 79" xml:space="preserve"
	>
<g id="Layer_3" display="none">
	<rect y="0.068" display="inline" fill="#2A88C9" width="648.979" height="118.896"/>
</g>
<g id="Layer_2">
</g>
<g>
	<path fill="#FFFFFF" d="M273.908,71.397h2.598c1.221,0,2.104,0.184,2.65,0.548c0.546,0.365,0.818,0.943,0.818,1.731
		c0,0.546-0.152,0.995-0.456,1.35s-0.748,0.585-1.332,0.688v0.064c1.397,0.237,2.096,0.974,2.096,2.202
		c0,0.823-0.278,1.466-0.834,1.926c-0.556,0.463-1.333,0.693-2.332,0.693h-3.209V71.397z M274.977,75.339h1.763
		c0.755,0,1.298-0.119,1.63-0.355c0.331-0.236,0.497-0.637,0.497-1.199c0-0.517-0.185-0.888-0.554-1.116
		c-0.37-0.229-0.957-0.343-1.763-0.343h-1.573L274.977,75.339L274.977,75.339z M274.977,76.244v3.443h1.919
		c0.743,0,1.302-0.144,1.677-0.432c0.375-0.287,0.563-0.737,0.563-1.35c0-0.57-0.191-0.99-0.576-1.258
		c-0.384-0.27-0.968-0.404-1.752-0.404H274.977L274.977,76.244z"/>
	<path fill="#FFFFFF" d="M283.146,76.554h1.883c0.876,0,1.525,0.162,1.948,0.487c0.422,0.325,0.632,0.811,0.632,1.456
		c0,0.693-0.224,1.216-0.67,1.57c-0.447,0.355-1.105,0.533-1.973,0.533h-2.864v-6.898h1.044V76.554z M283.146,77.454v2.271h1.769
		c1.108,0,1.661-0.389,1.661-1.165c0-0.386-0.128-0.667-0.384-0.842c-0.255-0.178-0.691-0.265-1.309-0.265H283.146z M289.812,80.601
		h-1.044v-6.898h1.044V80.601z"/>
	<path fill="#FFFFFF" d="M294.784,80.727c-0.998,0-1.772-0.309-2.318-0.923c-0.549-0.615-0.821-1.484-0.821-2.609
		c0-1.152,0.276-2.045,0.833-2.674s1.349-0.944,2.376-0.944c0.332,0,0.663,0.037,0.994,0.106c0.332,0.071,0.592,0.156,0.781,0.253
		l-0.321,0.887c-0.231-0.092-0.483-0.168-0.756-0.229c-0.273-0.061-0.514-0.092-0.723-0.092c-1.402,0-2.103,0.896-2.103,2.682
		c0,0.847,0.171,1.499,0.513,1.952s0.848,0.681,1.521,0.681c0.574,0,1.164-0.126,1.768-0.372v0.925
		C296.065,80.607,295.484,80.727,294.784,80.727z"/>
	<path fill="#FFFFFF" d="M304.118,77.146c0,1.124-0.283,2.002-0.851,2.633c-0.567,0.633-1.348,0.948-2.347,0.948
		c-0.617,0-1.164-0.144-1.643-0.435c-0.479-0.289-0.848-0.704-1.107-1.246c-0.261-0.541-0.391-1.174-0.391-1.9
		c0-1.124,0.281-2,0.844-2.629c0.562-0.627,1.342-0.94,2.341-0.94c0.965,0,1.732,0.321,2.301,0.962
		C303.833,75.182,304.118,76.05,304.118,77.146z M298.862,77.146c0,0.88,0.176,1.552,0.529,2.013
		c0.351,0.463,0.87,0.693,1.555,0.693c0.683,0,1.202-0.23,1.557-0.688c0.354-0.461,0.532-1.135,0.532-2.019
		c0-0.877-0.177-1.542-0.532-1.999c-0.355-0.454-0.878-0.683-1.57-0.683c-0.684,0-1.2,0.225-1.548,0.673
		C299.037,75.586,298.862,76.256,298.862,77.146z"/>
	<path fill="#FFFFFF" d="M309.971,73.702h1.145l-2.976,3.329l3.223,3.569h-1.222l-3.146-3.493v3.493h-1.045v-6.898h1.045v3.354
		L309.971,73.702z"/>
	<path fill="#FFFFFF" d="M313.622,73.702v4.375l-0.044,1.145l-0.019,0.358l3.733-5.878h1.303v6.898h-0.976v-4.218l0.018-0.83
		l0.031-0.818l-3.726,5.866h-1.303v-6.898H313.622z"/>
	<path fill="#FFFFFF" d="M321.791,73.702v4.375l-0.044,1.145l-0.019,0.358l3.732-5.878h1.304v6.898h-0.977v-4.218l0.019-0.83
		l0.033-0.818l-3.727,5.866h-1.303v-6.898H321.791z M323.76,72.789c-0.776,0-1.343-0.149-1.699-0.449
		c-0.357-0.3-0.556-0.795-0.598-1.481h0.982c0.038,0.438,0.152,0.741,0.343,0.913c0.191,0.171,0.523,0.258,0.999,0.258
		c0.432,0,0.751-0.093,0.959-0.277c0.207-0.185,0.334-0.482,0.382-0.894h0.987c-0.05,0.663-0.261,1.149-0.636,1.464
		C325.105,72.633,324.533,72.789,323.76,72.789z"/>
	<path fill="#FFFFFF" d="M340.479,80.601h-1.944v-7.577h-3.386v7.577h-1.951v-9.203h7.281V80.601z"/>
	<path fill="#FFFFFF" d="M351.154,75.987c0,1.523-0.378,2.694-1.133,3.512c-0.757,0.818-1.838,1.228-3.249,1.228
		c-1.408,0-2.491-0.409-3.246-1.228c-0.756-0.817-1.133-1.992-1.133-3.523s0.379-2.702,1.136-3.51
		c0.758-0.808,1.843-1.212,3.258-1.212c1.413,0,2.493,0.408,3.243,1.222C350.779,73.288,351.154,74.46,351.154,75.987z
		 M344.438,75.987c0,1.027,0.196,1.804,0.586,2.322c0.391,0.521,0.973,0.78,1.749,0.78c1.557,0,2.336-1.033,2.336-3.103
		c0-2.074-0.774-3.109-2.322-3.109c-0.777,0-1.362,0.261-1.758,0.783C344.637,74.185,344.438,74.958,344.438,75.987z"/>
	<path fill="#FFFFFF" d="M360.344,80.601h-1.945v-7.577h-2.253l-0.102,0.842c-0.261,2.144-0.49,3.648-0.689,4.516
		c-0.198,0.867-0.488,1.477-0.87,1.83c-0.384,0.352-0.899,0.523-1.549,0.516c-0.353,0-0.662-0.047-0.932-0.139v-1.6
		c0.243,0.085,0.473,0.127,0.687,0.127c0.223,0,0.398-0.103,0.529-0.306c0.13-0.203,0.251-0.581,0.367-1.134
		c0.116-0.552,0.27-1.456,0.459-2.712c0.19-1.258,0.354-2.446,0.487-3.566h5.811V80.601L360.344,80.601z"/>
	<path fill="#FFFFFF" d="M367.966,80.601h-5.301v-9.203h5.301v1.6h-3.35v2.021h3.116v1.599h-3.116v2.372h3.35V80.601z"/>
	<path fill="#FFFFFF" d="M373.435,80.601h-1.951v-7.577h-2.499v-1.626h6.949v1.626h-2.499V80.601L373.435,80.601z"/>
	<path fill="#FFFFFF" d="M382.513,73.702v2.89h3.864v-2.89h1.044v6.898h-1.044v-3.108h-3.864v3.108h-1.045v-6.898H382.513z"/>
	<path fill="#FFFFFF" d="M393.879,80.601l-0.207-0.982h-0.051c-0.346,0.432-0.688,0.724-1.029,0.878
		c-0.343,0.153-0.77,0.229-1.281,0.229c-0.685,0-1.221-0.176-1.609-0.529c-0.388-0.352-0.581-0.853-0.581-1.504
		c0-1.394,1.113-2.123,3.342-2.19l1.171-0.037v-0.428c0-0.541-0.116-0.941-0.35-1.198c-0.232-0.26-0.606-0.388-1.117-0.388
		c-0.574,0-1.224,0.176-1.95,0.529l-0.321-0.801c0.339-0.184,0.713-0.33,1.117-0.435c0.403-0.105,0.811-0.157,1.217-0.157
		c0.824,0,1.434,0.182,1.829,0.547c0.397,0.366,0.595,0.951,0.595,1.757v4.71H393.879z M391.52,79.865
		c0.649,0,1.16-0.18,1.533-0.536c0.37-0.356,0.556-0.855,0.556-1.498v-0.622l-1.045,0.044c-0.831,0.03-1.431,0.158-1.798,0.388
		c-0.367,0.228-0.55,0.584-0.55,1.065c0,0.378,0.114,0.665,0.343,0.862C390.787,79.765,391.107,79.865,391.52,79.865z"/>
	<path fill="#FFFFFF" d="M403.646,71.266h1.084v1.134h0.44c0.717,0,1.34,0.144,1.867,0.43c0.526,0.285,0.929,0.687,1.208,1.206
		c0.278,0.522,0.419,1.114,0.419,1.782c0,0.697-0.157,1.316-0.47,1.859c-0.313,0.544-0.74,0.952-1.284,1.225
		c-0.543,0.273-1.183,0.411-1.921,0.411h-0.26v1.415h-1.083v-1.415h-0.282c-0.738,0-1.378-0.14-1.919-0.417
		c-0.542-0.276-0.965-0.688-1.271-1.234c-0.307-0.544-0.461-1.156-0.461-1.83c0-0.663,0.142-1.256,0.425-1.775
		c0.284-0.52,0.689-0.928,1.219-1.219c0.529-0.29,1.151-0.438,1.869-0.438h0.421v-1.134H403.646z M403.646,73.318h-0.358
		c-0.762,0-1.363,0.223-1.802,0.666c-0.438,0.445-0.657,1.052-0.657,1.818c0,0.829,0.232,1.469,0.698,1.925
		c0.466,0.453,1.121,0.683,1.97,0.683h0.15L403.646,73.318L403.646,73.318z M404.729,78.41h0.157c0.843,0,1.499-0.23,1.966-0.688
		c0.467-0.461,0.701-1.099,0.701-1.918c0-0.775-0.216-1.384-0.647-1.824c-0.433-0.44-1.036-0.661-1.813-0.661h-0.365L404.729,78.41
		L404.729,78.41z"/>
	<path fill="#FFFFFF" d="M416.392,77.146c0,1.124-0.282,2.002-0.85,2.633c-0.566,0.633-1.349,0.948-2.348,0.948
		c-0.617,0-1.164-0.144-1.642-0.435c-0.479-0.289-0.849-0.704-1.108-1.246c-0.26-0.541-0.391-1.174-0.391-1.9
		c0-1.124,0.281-2,0.844-2.629c0.563-0.627,1.342-0.94,2.342-0.94c0.965,0,1.731,0.321,2.3,0.962
		C416.107,75.182,416.392,76.05,416.392,77.146z M411.137,77.146c0,0.88,0.177,1.552,0.528,2.013
		c0.352,0.463,0.871,0.693,1.554,0.693c0.685,0,1.205-0.23,1.56-0.688c0.354-0.461,0.53-1.135,0.53-2.019
		c0-0.877-0.177-1.542-0.53-1.999c-0.355-0.454-0.88-0.683-1.57-0.683c-0.685,0-1.201,0.225-1.55,0.673
		C411.311,75.586,411.137,76.256,411.137,77.146z"/>
	<path fill="#FFFFFF" d="M421.432,80.727c-0.447,0-0.857-0.083-1.229-0.25c-0.37-0.165-0.683-0.42-0.934-0.764h-0.076
		c0.051,0.402,0.076,0.784,0.076,1.145v2.839h-1.045v-9.994h0.849l0.146,0.944h0.051c0.269-0.378,0.579-0.65,0.937-0.818
		c0.357-0.167,0.766-0.252,1.227-0.252c0.915,0,1.622,0.313,2.119,0.938s0.746,1.502,0.746,2.632c0,1.134-0.253,2.013-0.758,2.64
		C423.032,80.412,422.331,80.727,421.432,80.727z M421.283,74.464c-0.705,0-1.216,0.196-1.53,0.587
		c-0.315,0.389-0.477,1.011-0.484,1.862v0.232c0,0.968,0.16,1.662,0.484,2.08c0.323,0.416,0.841,0.626,1.554,0.626
		c0.597,0,1.063-0.241,1.401-0.725c0.337-0.481,0.507-1.146,0.507-1.995c0-0.86-0.17-1.519-0.507-1.979
		C422.369,74.694,421.895,74.464,421.283,74.464z"/>
	<path fill="#FFFFFF" d="M429.036,80.727c-1.021,0-1.824-0.312-2.415-0.932c-0.588-0.621-0.883-1.484-0.883-2.586
		c0-1.112,0.274-1.997,0.82-2.649c0.549-0.656,1.283-0.983,2.207-0.983c0.864,0,1.548,0.285,2.052,0.853
		c0.503,0.568,0.755,1.32,0.755,2.251v0.66h-4.752c0.021,0.81,0.227,1.425,0.614,1.844c0.39,0.419,0.934,0.63,1.64,0.63
		c0.742,0,1.478-0.155,2.202-0.466v0.93c-0.368,0.16-0.718,0.273-1.049,0.344C429.898,80.689,429.502,80.727,429.036,80.727z
		 M428.754,74.451c-0.555,0-0.996,0.181-1.325,0.541c-0.33,0.36-0.525,0.861-0.583,1.499h3.605c0-0.659-0.146-1.164-0.44-1.514
		C429.718,74.626,429.299,74.451,428.754,74.451z"/>
	<path fill="#FFFFFF" d="M437.376,73.702h1.146l-2.977,3.329l3.222,3.569h-1.22l-3.147-3.493v3.493h-1.044v-6.898h1.044v3.354
		L437.376,73.702z"/>
	<path fill="#FFFFFF" d="M442.801,80.727c-0.998,0-1.772-0.309-2.319-0.923c-0.547-0.615-0.821-1.484-0.821-2.609
		c0-1.152,0.278-2.045,0.834-2.674s1.349-0.944,2.376-0.944c0.331,0,0.663,0.037,0.994,0.106c0.331,0.071,0.592,0.156,0.779,0.253
		l-0.319,0.887c-0.231-0.092-0.483-0.168-0.757-0.229c-0.272-0.061-0.514-0.092-0.723-0.092c-1.402,0-2.104,0.896-2.104,2.682
		c0,0.847,0.172,1.499,0.514,1.952s0.849,0.681,1.521,0.681c0.574,0,1.164-0.126,1.769-0.372v0.925
		C444.083,80.607,443.501,80.727,442.801,80.727z"/>
</g>
<g>
	<g id="Layer_1_1_">
		<g>
			<defs>
				<rect id="SVGID_1_" x="267.933" y="25.772" width="181.373" height="39.458"/>
			</defs>
			<clipPath id="SVGID_2_">
				<use xlink:href="#SVGID_1_"  overflow="visible"/>
			</clipPath>
			<polygon clip-path="url(#SVGID_2_)" fill="#FFFFFF" points="279.133,63.65 274.085,63.65 274.085,39.451 287.956,39.451 
				287.956,43.656 279.133,43.656 279.133,49.896 287.343,49.896 287.343,54.083 279.133,54.083 			"/>
		</g>
		<g>
			<defs>
				<rect id="SVGID_3_" x="267.933" y="25.772" width="181.373" height="39.458"/>
			</defs>
			<clipPath id="SVGID_4_">
				<use xlink:href="#SVGID_3_"  overflow="visible"/>
			</clipPath>
			<g clip-path="url(#SVGID_4_)">
				<g>
					<defs>
						<rect id="SVGID_5_" x="267.933" y="25.772" width="181.373" height="39.458"/>
					</defs>
					<defs>
						<rect id="SVGID_6_" x="267.933" y="25.772" width="181.373" height="39.458"/>
					</defs>
					<defs>
						<rect id="SVGID_7_" x="267.933" y="25.772" width="181.373" height="39.458"/>
					</defs>
					<defs>
						<rect id="SVGID_8_" x="267.933" y="25.772" width="181.373" height="39.458"/>
					</defs>
					<defs>
						<rect id="SVGID_9_" x="267.933" y="25.772" width="181.373" height="39.458"/>
					</defs>
					<defs>
						<rect id="SVGID_10_" x="267.933" y="25.772" width="181.373" height="39.458"/>
					</defs>
					<defs>
						<rect id="SVGID_11_" x="267.933" y="25.772" width="181.373" height="39.458"/>
					</defs>
					<defs>
						<rect id="SVGID_12_" x="267.933" y="25.772" width="181.373" height="39.458"/>
					</defs>
					<defs>
						<rect id="SVGID_13_" x="267.933" y="25.772" width="181.373" height="39.458"/>
					</defs>
					<defs>
						<rect id="SVGID_14_" x="267.933" y="25.772" width="181.373" height="39.458"/>
					</defs>
					<clipPath id="SVGID_15_">
						<use xlink:href="#SVGID_5_"  overflow="visible"/>
					</clipPath>
					<clipPath id="SVGID_16_" clip-path="url(#SVGID_15_)">
						<use xlink:href="#SVGID_6_"  overflow="visible"/>
					</clipPath>
					<clipPath id="SVGID_17_" clip-path="url(#SVGID_16_)">
						<use xlink:href="#SVGID_7_"  overflow="visible"/>
					</clipPath>
					<clipPath id="SVGID_18_" clip-path="url(#SVGID_17_)">
						<use xlink:href="#SVGID_8_"  overflow="visible"/>
					</clipPath>
					<clipPath id="SVGID_19_" clip-path="url(#SVGID_18_)">
						<use xlink:href="#SVGID_9_"  overflow="visible"/>
					</clipPath>
					<clipPath id="SVGID_20_" clip-path="url(#SVGID_19_)">
						<use xlink:href="#SVGID_10_"  overflow="visible"/>
					</clipPath>
					<clipPath id="SVGID_21_" clip-path="url(#SVGID_20_)">
						<use xlink:href="#SVGID_11_"  overflow="visible"/>
					</clipPath>
					<clipPath id="SVGID_22_" clip-path="url(#SVGID_21_)">
						<use xlink:href="#SVGID_12_"  overflow="visible"/>
					</clipPath>
					<clipPath id="SVGID_23_" clip-path="url(#SVGID_22_)">
						<use xlink:href="#SVGID_13_"  overflow="visible"/>
					</clipPath>
					<clipPath id="SVGID_24_" clip-path="url(#SVGID_23_)">
						<use xlink:href="#SVGID_14_"  overflow="visible"/>
					</clipPath>
					<path clip-path="url(#SVGID_24_)" fill="#FFFFFF" d="M309.11,54.363c0,3.014-0.795,5.371-2.384,7.069
						c-1.588,1.699-3.801,2.549-6.637,2.549c-1.777,0-3.343-0.389-4.701-1.168c-1.356-0.777-2.399-1.895-3.128-3.351
						c-0.729-1.457-1.093-3.155-1.093-5.1c0-3.021,0.79-5.374,2.368-7.049c1.578-1.678,3.796-2.517,6.655-2.517
						c1.776,0,3.343,0.386,4.701,1.158c1.357,0.773,2.399,1.881,3.128,3.327C308.745,50.73,309.11,52.424,309.11,54.363
						 M296.314,54.363c0,1.834,0.3,3.218,0.901,4.157c0.602,0.938,1.582,1.408,2.938,1.408c1.346,0,2.314-0.468,2.905-1.399
						c0.592-0.934,0.887-2.321,0.887-4.165c0-1.83-0.299-3.206-0.895-4.121c-0.595-0.916-1.572-1.374-2.93-1.374
						c-1.346,0-2.316,0.456-2.912,1.366C296.613,51.145,296.314,52.523,296.314,54.363"/>
					<path clip-path="url(#SVGID_24_)" fill="#FFFFFF" d="M323.609,44.798c0.683,0,1.252,0.049,1.705,0.148l-0.382,4.734
						c-0.407-0.109-0.903-0.166-1.487-0.166c-1.613,0-2.867,0.413-3.767,1.241c-0.9,0.827-1.35,1.987-1.35,3.476v9.418h-5.048
						V45.146h3.824l0.745,3.111h0.249c0.573-1.036,1.349-1.874,2.324-2.508C321.399,45.115,322.46,44.798,323.609,44.798"/>
					<path clip-path="url(#SVGID_24_)" fill="#FFFFFF" d="M337.049,63.981c-2.979,0-5.307-0.821-6.985-2.464
						c-1.677-1.647-2.515-3.975-2.515-6.987c0-3.1,0.775-5.497,2.325-7.191c1.55-1.694,3.693-2.542,6.432-2.542
						c2.614,0,4.65,0.746,6.106,2.234c1.458,1.49,2.184,3.549,2.184,6.174v2.451h-11.934c0.056,1.433,0.481,2.554,1.275,3.358
						c0.793,0.807,1.908,1.209,3.343,1.209c1.114,0,2.171-0.117,3.163-0.348c0.993-0.23,2.029-0.6,3.111-1.11v3.909
						c-0.884,0.44-1.827,0.769-2.83,0.984C339.719,63.875,338.495,63.981,337.049,63.981 M336.339,48.39
						c-1.069,0-1.91,0.339-2.518,1.017c-0.607,0.681-0.954,1.644-1.043,2.889h7.085c-0.023-1.246-0.349-2.209-0.976-2.889
						C338.257,48.729,337.407,48.39,336.339,48.39"/>
					<polygon clip-path="url(#SVGID_24_)" fill="#FFFFFF" points="352.492,54.2 346.533,45.146 352.261,45.146 355.852,51.037 
						359.479,45.146 365.203,45.146 359.179,54.2 365.484,63.65 359.74,63.65 355.852,57.311 351.945,63.65 346.219,63.65 					"/>
					<path clip-path="url(#SVGID_24_)" fill="#FFFFFF" d="M408.896,63.661l-0.98-2.516h-0.127c-0.848,1.061-1.721,1.808-2.623,2.222
						c-0.907,0.411-2.075,0.617-3.519,0.617c-1.778,0-3.182-0.508-4.194-1.515c-1.021-1.021-1.534-2.47-1.534-4.338
						c0-1.965,0.689-3.416,2.063-4.352c1.381-0.928,3.445-1.445,6.217-1.543l3.203-0.1v-0.812c0-1.875-0.953-2.817-2.879-2.817
						c-1.471,0-3.21,0.455-5.212,1.345l-1.665-3.41c2.127-1.112,4.486-1.672,7.081-1.672c2.48,0,4.387,0.54,5.709,1.619
						c1.315,1.083,1.988,2.729,1.988,4.935v12.335H408.896z M407.401,55.081l-1.946,0.069c-1.471,0.047-2.558,0.308-3.276,0.797
						c-0.718,0.485-1.082,1.221-1.082,2.22c0,1.419,0.82,2.131,2.456,2.131c1.17,0,2.109-0.336,2.8-1.009
						c0.702-0.676,1.049-1.566,1.049-2.68V55.081L407.401,55.081z"/>
					<path clip-path="url(#SVGID_24_)" fill="#FFFFFF" d="M427.951,44.806c0.679,0,1.249,0.048,1.699,0.146l-0.382,4.734
						c-0.406-0.108-0.901-0.166-1.482-0.166c-1.619,0-2.868,0.418-3.764,1.245c-0.905,0.825-1.357,1.985-1.357,3.477v9.419h-5.047
						V45.152h3.825l0.742,3.11h0.247c0.578-1.033,1.352-1.875,2.331-2.506C425.74,45.12,426.801,44.806,427.951,44.806"/>
					<path clip-path="url(#SVGID_24_)" fill="#FFFFFF" d="M440.813,59.968c0.879,0,1.935-0.192,3.172-0.582v3.759
						c-1.254,0.561-2.801,0.839-4.631,0.839c-2.024,0-3.49-0.508-4.415-1.524c-0.922-1.025-1.384-2.558-1.384-4.598v-8.916h-2.412
						v-2.14l2.781-1.688l1.454-3.906h3.228v3.939h5.178v3.794h-5.178v8.916c0,0.719,0.199,1.25,0.606,1.593
						C439.618,59.796,440.149,59.968,440.813,59.968"/>
					<path clip-path="url(#SVGID_24_)" fill="#FFFFFF" d="M384.468,39.458l-6.071,18.509h-0.105l-5.725-18.509h-2.605l-4.378,6.608
						v17.595h4.578V52.399c0-1.289-0.103-3.865-0.308-7.724h0.149l5.82,18.986h4.698l6.25-18.955h0.143
						c-0.132,3.046-0.205,4.918-0.224,5.628c-0.016,0.704-0.028,1.328-0.028,1.87v11.457h4.79V39.458H384.468z"/>
					<polygon clip-path="url(#SVGID_24_)" fill="#FFFFFF" points="367.298,32.737 371.432,35.359 358.146,56.363 355.438,51.474 
											"/>
					<polygon clip-path="url(#SVGID_24_)" fill="#FFFFFF" points="363.439,32.722 373.349,27.021 373.332,38.455 					"/>
				</g>
			</g>
		</g>
		<path fill="none" stroke="#FFFFFF" stroke-miterlimit="10" d="M265.752,58.754c0,18.446-14.967,33.416-33.413,33.416
			c-18.459,0-33.422-14.97-33.422-33.416c0-18.457,14.962-33.42,33.421-33.42C250.784,25.334,265.752,40.297,265.752,58.754z"/>
		<path fill="#FFFFFF" d="M255.152,36.146l-0.007,9.397l-2.022-1.17l-13.37,20.113l6.104,9.149h-5.563l-3.76-6.126l-3.779,6.126
			h-5.545l6.07-9.149l-5.762-8.754h5.54l3.195,5.247l12.625-19.063l-1.904-1.104l8.16-4.694c-5.851-5.924-13.958-9.6-22.946-9.6
			c-17.803,0-32.231,14.432-32.231,32.235c0,10.184,4.729,19.249,12.103,25.161V50.009h13.496v4.092h-8.585v6.069h7.989v4.08h-7.989
			v22.92c4.534,2.422,9.714,3.812,15.218,3.812c17.804,0,32.234-14.431,32.234-32.229C264.425,49.939,260.89,41.962,255.152,36.146z
			"/>
	</g>
</g>
</svg>
