<?xml version="1.0" encoding="utf-8"?>
<!-- Generator: Adobe Illustrator 16.0.0, SVG Export Plug-In . SVG Version: 6.00 Build 0)  -->
<!DOCTYPE svg PUBLIC "-//W3C//DTD SVG 1.1//EN" "http://www.w3.org/Graphics/SVG/1.1/DTD/svg11.dtd">
<svg version="1.1" id="Layer_1" xmlns="http://www.w3.org/2000/svg" xmlns:xlink="http://www.w3.org/1999/xlink" x="0px" y="0px"
	 width="219px" height="145px" viewBox="0 0 219 145" enable-background="new 0 0 219 145" xml:space="preserve">
<g>
	<path fill="#2988CA" d="M22.063,136.955h-5.545v-26.58h15.235v4.618h-9.69v6.854h9.018v4.6h-9.018V136.955z"/>
	<path fill="#2988CA" d="M54.988,126.756c0,3.309-0.873,5.896-2.618,7.763c-1.746,1.867-4.176,2.8-7.291,2.8
		c-1.952,0-3.672-0.427-5.163-1.281s-2.636-2.082-3.436-3.682s-1.2-3.466-1.2-5.6c0-3.32,0.867-5.902,2.6-7.744
		c1.733-1.843,4.169-2.764,7.309-2.764c1.951,0,3.672,0.424,5.163,1.272s2.636,2.066,3.436,3.653
		C54.588,122.763,54.988,124.623,54.988,126.756z M40.935,126.756c0,2.012,0.33,3.533,0.991,4.563s1.736,1.545,3.227,1.545
		c1.479,0,2.542-0.512,3.191-1.536c0.648-1.023,0.973-2.548,0.973-4.572c0-2.012-0.328-3.521-0.982-4.527
		c-0.654-1.006-1.727-1.508-3.218-1.508c-1.479,0-2.545,0.5-3.2,1.499C41.262,123.22,40.935,124.732,40.935,126.756z"/>
	<path fill="#2988CA" d="M70.914,116.248c0.751,0,1.375,0.055,1.873,0.163l-0.418,5.2c-0.449-0.121-0.994-0.182-1.636-0.182
		c-1.77,0-3.148,0.454-4.136,1.363c-0.988,0.908-1.482,2.182-1.482,3.817v10.345h-5.545v-20.326h4.2l0.818,3.418h0.272
		c0.63-1.139,1.482-2.057,2.554-2.754C68.487,116.596,69.653,116.248,70.914,116.248z"/>
	<path fill="#2988CA" d="M85.676,137.318c-3.272,0-5.83-0.902-7.672-2.709c-1.842-1.806-2.764-4.363-2.764-7.672
		c0-3.405,0.852-6.039,2.555-7.898c1.703-1.861,4.057-2.791,7.063-2.791c2.873,0,5.108,0.818,6.708,2.454
		c1.601,1.636,2.4,3.896,2.4,6.781v2.69H80.859c0.06,1.576,0.527,2.807,1.4,3.69c0.873,0.885,2.097,1.327,3.672,1.327
		c1.224,0,2.381-0.127,3.472-0.382c1.091-0.254,2.23-0.66,3.418-1.218v4.291c-0.97,0.484-2.006,0.845-3.109,1.081
		S87.264,137.318,85.676,137.318z M84.895,120.193c-1.176,0-2.097,0.372-2.763,1.117c-0.667,0.746-1.048,1.803-1.146,3.173h7.781
		c-0.024-1.37-0.382-2.427-1.073-3.173C87.003,120.565,86.07,120.193,84.895,120.193z"/>
	<path fill="#2988CA" d="M102.639,126.574l-6.545-9.945h6.29l3.945,6.473l3.981-6.473h6.29l-6.617,9.945l6.927,10.381h-6.309
		l-4.272-6.963l-4.29,6.963h-6.291L102.639,126.574z"/>
</g>
<path fill="#2988CA" d="M198.492,158.22"/>
<g>
	<g>
		<path fill="#2988CA" d="M128.262,136.955l-6.399-20.854h-0.163c0.229,4.243,0.345,7.072,0.345,8.49v12.363h-5.036v-26.58h7.673
			l6.29,20.326h0.109l6.672-20.326h7.672v26.58h-5.254v-12.58c0-0.594,0.009-1.279,0.027-2.055s0.1-2.836,0.245-6.182h-0.163
			l-6.854,20.816H128.262z"/>
		<path fill="#2988CA" d="M164.586,136.955l-1.072-2.764h-0.146c-0.934,1.176-1.894,1.991-2.882,2.445
			c-0.987,0.455-2.275,0.682-3.863,0.682c-1.951,0-3.487-0.557-4.608-1.672s-1.682-2.703-1.682-4.764
			c0-2.157,0.755-3.748,2.264-4.772s3.784-1.591,6.826-1.7l3.527-0.108v-0.892c0-2.06-1.055-3.09-3.163-3.09
			c-1.625,0-3.533,0.49-5.728,1.473l-1.836-3.746c2.339-1.223,4.933-1.836,7.781-1.836c2.728,0,4.818,0.594,6.272,1.782
			s2.182,2.993,2.182,5.417v13.545H164.586z M162.95,127.537l-2.146,0.073c-1.612,0.049-2.812,0.339-3.6,0.872
			c-0.788,0.534-1.182,1.346-1.182,2.438c0,1.563,0.896,2.345,2.69,2.345c1.285,0,2.313-0.37,3.082-1.109s1.154-1.721,1.154-2.944
			V127.537z"/>
		<path fill="#2988CA" d="M185.512,116.248c0.752,0,1.376,0.055,1.873,0.163l-0.418,5.2c-0.449-0.121-0.994-0.182-1.637-0.182
			c-1.77,0-3.148,0.454-4.136,1.363c-0.988,0.908-1.481,2.182-1.481,3.817v10.345h-5.545v-20.326h4.199l0.818,3.418h0.272
			c0.63-1.139,1.481-2.057,2.555-2.754C183.085,116.596,184.252,116.248,185.512,116.248z"/>
		<path fill="#2988CA" d="M199.638,132.9c0.97,0,2.133-0.211,3.491-0.636v4.127c-1.382,0.618-3.079,0.927-5.091,0.927
			c-2.218,0-3.833-0.561-4.845-1.682c-1.013-1.121-1.519-2.803-1.519-5.045v-9.799h-2.654v-2.346l3.055-1.854l1.6-4.291h3.545v4.326
			h5.69v4.164h-5.69v9.799c0,0.788,0.221,1.37,0.664,1.746C198.326,132.713,198.91,132.9,199.638,132.9z"/>
	</g>
</g>
<polygon fill="#FFFFFF" points="122.455,109.428 116.455,118.47 115.965,117.695 121.477,108.983 "/>
<polygon fill="#2988CA" points="118.896,102.994 123.445,105.873 108.851,128.94 105.871,123.577 "/>
<polygon fill="#2988CA" points="114.658,102.977 125.543,96.715 125.525,109.273 "/>
<circle fill="none" stroke="#2988CA" stroke-miterlimit="10" cx="112.029" cy="44.035" r="38.167"/>
<circle fill="#2988CA" cx="111.868" cy="44.035" r="36.818"/>
<polyline fill="#2988CA" points="94.194,46.334 103.975,46.334 103.975,51.281 94.194,51.281 94.194,46.334 94.194,46.334 "/>
<path fill="#FFFFFF" d="M88.212,62.789"/>
<polygon fill="#FFFFFF" points="131.578,23.834 136.232,26.918 119.033,52.875 116.229,46.996 "/>
<g>
	<path fill="#FFFFFF" d="M113.108,50.59l-6.587-10.009h6.33l3.971,6.514l4.008-6.514h6.33L120.5,50.59l6.971,10.447h-6.349
		l-4.3-7.008l-4.318,7.008h-6.33L113.108,50.59z"/>
</g>
<polygon fill="#FFFFFF" points="129.225,23.34 138.094,18.237 138.078,28.469 "/>
<polygon fill="#FFFFFF" points="104.288,38.725 104.288,34.053 88.874,34.053 88.874,60.946 94.484,60.946 94.484,50.313 
	103.608,50.313 103.608,45.66 94.484,45.66 94.484,38.725 "/>
<polygon fill="#FFFFFF" points="88.874,60.723 94.484,60.723 94.484,76.637 88.874,73.205 "/>
<g>
</g>
<g>
</g>
<g>
</g>
<g>
</g>
<g>
</g>
<g>
</g>
</svg>
