<svg width="38" height="38" viewBox="0 0 38 38" fill="none" xmlns="http://www.w3.org/2000/svg">
<path d="M0 19C0 8.50659 8.50659 0 19 0C29.4934 0 38 8.50659 38 19C38 29.4934 29.4934 38 19 38C8.50659 38 0 29.4934 0 19Z" fill="#398BF8"/>
<g clip-path="url(#clip0)">
<path d="M22.2184 19.8018L24.5748 25.8736L26.9312 19.8018H28.2778V27.0543H27.4362V20.9825L25.2481 27.0543H24.4065L21.7135 20.9825V27.0543H20.8719V19.8018H22.2184ZM28.4461 17.7779L29.2877 17.2719C29.456 17.1033 29.6243 16.9346 29.456 16.7659C29.2877 16.5973 29.1194 16.4286 28.951 16.5973L27.6045 17.2719C27.4362 17.1033 27.0996 16.9346 26.9312 16.9346L29.2877 15.754C29.456 15.5853 29.6243 15.4166 29.456 15.248C29.2877 15.0793 29.1194 14.9107 28.951 15.0793L25.753 16.7659C25.4164 16.5973 24.9115 16.5973 24.4065 16.5973L29.1194 14.0674C29.2877 13.8987 29.456 13.73 29.2877 13.5614C29.1194 13.3927 28.951 13.2241 28.7827 13.3927L24.2382 15.754V14.742L29.1194 12.2121C29.2877 12.2121 29.2877 12.0434 29.2877 11.8748C29.2877 11.7061 29.1194 11.5374 29.1194 11.5374L21.7135 7.8269C21.7135 7.8269 21.5451 7.8269 21.3768 7.8269L5.2185 15.754C5.2185 15.754 5.05019 15.9226 5.05019 16.0913C5.05019 16.26 5.2185 16.4286 5.2185 16.4286L13.2977 20.3078H13.466H13.6343L18.8521 17.6092V18.4525L13.466 21.3198L5.72345 17.4406C5.38682 17.4406 5.2185 17.4406 5.05019 17.6092C5.05019 17.9466 5.05019 18.1152 5.2185 18.2839L13.2977 22.1631H13.466H13.6343L18.1788 19.8018C18.0105 20.1392 17.8422 20.4765 17.6739 20.8138L13.466 23.0064L5.72345 19.1272C5.38682 19.1272 5.2185 19.1272 5.05019 19.4645C5.05019 19.6332 5.05019 19.8018 5.2185 19.9705L13.2977 23.8497H13.466H13.6343L17.3372 21.9944C17.3372 22.3317 17.1689 22.5004 17.1689 22.8377L13.466 24.693L5.72345 20.8138C5.38682 20.8138 5.2185 20.8138 5.05019 21.1511C4.88187 21.4884 5.05019 21.6571 5.2185 21.6571L13.2977 25.5363H13.466H13.6343L17.1689 23.681C17.3372 27.5602 20.3669 30.5961 24.2382 30.5961C28.1095 30.5961 31.3074 27.4963 31.3074 23.6171C31.3074 21.105 30.2429 19.3107 28.4461 17.7779ZM21.5451 8.67021L28.2778 11.8748L24.0699 14.0674L17.3372 10.6941L21.5451 8.67021ZM13.466 19.6332L6.39671 16.0913L11.4462 13.5614L18.3471 16.9346L13.466 19.6332ZM12.4561 13.2241L16.3273 11.2001L23.5649 14.9107V16.5973C22.0501 16.7659 20.7036 17.2719 19.6937 18.2839V17.2719L22.3867 15.9226C22.555 15.754 22.7233 15.5853 22.555 15.4166C22.3867 15.248 22.2184 15.0793 22.0501 15.248L19.357 16.5973L12.4561 13.2241ZM24.2382 29.9215C20.7036 29.9215 17.8949 26.9903 17.8949 23.6171C17.8949 20.0752 20.8445 17.2719 24.2108 17.2719C27.9608 17.2719 30.5977 20.2439 30.5977 23.6171C30.7661 26.9903 27.7728 29.9215 24.2382 29.9215ZM16.3273 14.742C16.159 14.236 16.8323 13.73 17.6739 13.2241C18.5155 12.7181 19.5253 12.8867 19.6937 13.2241C19.862 13.5614 19.1887 14.236 18.1788 14.5733C17.3372 15.0793 16.3273 15.0793 16.3273 14.742Z" fill="white"/>
</g>
<defs>
<clipPath id="clip0">
<rect width="29" height="23" fill="white" transform="translate(3.55762 7.8269)"/>
</clipPath>
</defs>
</svg>
