<svg width="26" height="26" viewBox="0 0 26 26" fill="none" xmlns="http://www.w3.org/2000/svg">
<g clip-path="url(#clip0)">
<path fill-rule="evenodd" clip-rule="evenodd" d="M14.4278 4.49116C14.474 4.50928 14.5233 4.52123 14.5746 4.526C17.401 5.23138 19.5003 7.7913 19.5003 10.8333V14.1245C19.5003 16.6671 20.6151 19.0678 22.5607 20.7133C22.681 20.8163 22.7503 20.9668 22.7503 21.125C22.7503 21.424 22.5077 21.6667 22.2087 21.6667H3.79199C3.49299 21.6667 3.25033 21.424 3.25033 21.125C3.25033 20.9668 3.31966 20.8163 3.44424 20.7101C5.38666 19.0678 6.50033 16.6682 6.50033 14.1245V10.8333C6.50033 7.79126 8.59974 5.23132 11.4261 4.52597C11.4773 4.5212 11.5264 4.50929 11.5725 4.49125C12.0321 4.38789 12.5099 4.33333 13.0003 4.33333C13.4906 4.33333 13.9683 4.38786 14.4278 4.49116ZM15.1669 3.56523V2.16667C15.1669 0.97175 14.1952 0 13.0002 0C11.8053 0 10.8336 0.97175 10.8336 2.16667V3.56528C7.70439 4.49972 5.41699 7.40428 5.41699 10.8333V14.1245C5.41699 16.3475 4.44308 18.447 2.73574 19.89C2.37391 20.1998 2.16699 20.6494 2.16699 21.125C2.16699 22.0209 2.89608 22.75 3.79199 22.75H9.24714C9.51071 24.5852 11.0933 26 13.0002 26C14.9072 26 16.4898 24.5852 16.7533 22.75H22.2087C23.1057 22.75 23.8337 22.0209 23.8337 21.125C23.8337 20.6494 23.6267 20.1998 23.2562 19.8824C21.5576 18.447 20.5837 16.3486 20.5837 14.1245V10.8333C20.5837 7.40422 18.2962 4.49962 15.1669 3.56523ZM15.6541 22.75H10.3464C10.5981 23.9844 11.6928 24.9167 13.0002 24.9167C14.3077 24.9167 15.4024 23.9844 15.6541 22.75ZM11.9169 3.32715V2.16667C11.9169 1.56975 12.4033 1.08333 13.0002 1.08333C13.5972 1.08333 14.0836 1.56975 14.0836 2.16667V3.32713C13.7297 3.2763 13.368 3.25 13.0003 3.25C12.6326 3.25 12.2708 3.27631 11.9169 3.32715Z" fill="white"/>
</g>
<defs>
<clipPath id="clip0">
<rect width="26" height="26" fill="white"/>
</clipPath>
</defs>
</svg>
