<svg width="26" height="26" viewBox="0 0 26 26" fill="none" xmlns="http://www.w3.org/2000/svg">
<path fill-rule="evenodd" clip-rule="evenodd" d="M14.0832 1.60563V1.08333C14.0832 0.48425 13.5978 0 12.9998 0C12.4018 0 11.9165 0.48425 11.9165 1.08333V2.25333C8.24725 2.782 5.4165 5.93775 5.4165 9.75V12.7703C5.4165 14.9143 4.47725 16.9379 2.8295 18.3311C2.40809 18.6918 2.1665 19.2162 2.1665 19.7708C2.1665 20.8162 3.01692 21.6667 4.06234 21.6667H21.9373C22.9828 21.6667 23.8332 20.8162 23.8332 19.7708C23.8332 19.2162 23.5916 18.6918 23.1604 18.3224C21.5224 16.9379 20.5832 14.9143 20.5832 12.7703V11.6101C20.2308 11.6692 19.8689 11.7 19.4998 11.7C15.9099 11.7 12.9998 8.78985 12.9998 5.2C12.9998 3.87099 13.3986 2.63515 14.0832 1.60563Z" fill="white"/>
<path d="M13.0002 26C14.9621 26 16.6034 24.6014 16.9804 22.75H9.02002C9.39702 24.6014 11.0383 26 13.0002 26Z" fill="white"/>
<ellipse cx="19.4998" cy="5.2" rx="5.2" ry="5.2" fill="#F03738"/>
</svg>
