<svg width="38" height="38" viewBox="0 0 38 38" fill="none" xmlns="http://www.w3.org/2000/svg">
<path d="M0 19C0 8.50659 8.50659 0 19 0C29.4934 0 38 8.50659 38 19C38 29.4934 29.4934 38 19 38C8.50659 38 0 29.4934 0 19Z" fill="#BC8B00"/>
<path d="M13.6882 24.6226C15.4119 26.1874 17.9193 26.8909 20.3794 26.2391C23.1179 25.4604 25.1907 23.0038 25.3744 20.1661C25.7684 15.6541 21.9811 12.0751 17.6522 12.538C13.8044 12.9496 11.0542 16.3532 11.3579 20.1104L11.3682 20.2065" stroke="white" stroke-miterlimit="10" stroke-linecap="round"/>
<path d="M29.3078 18.3855C28.6719 12.4289 23.3419 8.14021 17.3686 8.77892C11.4917 9.40734 7.1771 14.6301 7.70638 20.501C7.71664 20.5971 7.63055 20.7034 7.53421 20.7137L5.60734 20.9198C5.511 20.9301 5.52126 21.0262 5.52126 21.0262L10.468 27.2021C10.4783 27.2981 10.5746 27.2878 10.5644 27.1918L14.0958 20.1093C14.0856 20.0132 14.0856 20.0132 13.9892 20.0235L9.94279 20.4562" stroke="white" stroke-miterlimit="10" stroke-linecap="round"/>
<path d="M16.5309 24.1705C16.3714 24.1705 16.2373 24.1162 16.1286 24.0074C16.0198 23.8987 15.9654 23.7645 15.9654 23.605V16.2427C15.9654 16.0759 16.0198 15.9418 16.1286 15.8403C16.2373 15.7315 16.3714 15.6772 16.5309 15.6772H18.4884C19.0322 15.6772 19.5143 15.7932 19.9348 16.0252C20.3553 16.2499 20.6816 16.5617 20.9136 16.9604C21.1528 17.3592 21.2724 17.8232 21.2724 18.3524C21.2724 18.8744 21.1419 19.3348 20.8809 19.7335C20.6199 20.125 20.2647 20.4223 19.8152 20.6253L21.4791 23.3005C21.6096 23.5108 21.6277 23.7102 21.5334 23.8987C21.4392 24.0799 21.2761 24.1705 21.0441 24.1705C20.8338 24.1705 20.6707 24.0799 20.5547 23.8987L18.6842 20.8972C18.6189 20.8972 18.5537 20.8972 18.4884 20.8972H17.0964V23.605C17.0964 23.7645 17.0421 23.8987 16.9333 24.0074C16.8318 24.1162 16.6977 24.1705 16.5309 24.1705ZM17.0964 19.8532H18.4884C18.9814 19.8532 19.3874 19.7154 19.7064 19.4399C20.0254 19.1572 20.1849 18.7947 20.1849 18.3524C20.1849 17.8739 20.0254 17.4824 19.7064 17.1779C19.3874 16.8734 18.9814 16.7212 18.4884 16.7212H17.0964V19.8532Z" fill="white"/>
<path d="M28.7715 23.2405C26.9562 23.2405 25.0264 23.8376 25.0264 24.9445V27.671C25.0264 28.778 26.9562 29.3751 28.7715 29.3751C30.5869 29.3751 32.5167 28.778 32.5167 27.671V24.9445C32.5167 23.8376 30.5869 23.2405 28.7715 23.2405ZM31.8358 27.671C31.8358 28.0875 30.6421 28.6935 28.7715 28.6935C26.901 28.6935 25.7073 28.0875 25.7073 27.671V27.3159C26.4298 27.7719 27.6228 28.0118 28.7715 28.0118C29.9203 28.0118 31.1133 27.7719 31.8358 27.3159V27.671ZM31.8358 26.3078C31.8358 26.7243 30.6421 27.3302 28.7715 27.3302C26.901 27.3302 25.7073 26.7243 25.7073 26.3078V25.9527C26.4298 26.4087 27.6228 26.6486 28.7715 26.6486C29.9203 26.6486 31.1133 26.4087 31.8358 25.9527V26.3078ZM28.7715 25.967C26.901 25.967 25.7073 25.361 25.7073 24.9445C25.7073 24.5281 26.901 23.9221 28.7715 23.9221C30.6421 23.9221 31.8358 24.5281 31.8358 24.9445C31.8358 25.361 30.6421 25.967 28.7715 25.967Z" fill="white"/>
<path d="M29.4961 21.0637V21.5468" stroke="white" stroke-miterlimit="10" stroke-linecap="round"/>
</svg>
