<?xml version="1.0" encoding="utf-8"?>
<!-- Generator: Adobe Illustrator 16.0.0, SVG Export Plug-In . SVG Version: 6.00 Build 0)  -->
<!DOCTYPE svg PUBLIC "-//W3C//DTD SVG 1.1//EN" "http://www.w3.org/Graphics/SVG/1.1/DTD/svg11.dtd">
<svg version="1.1" id="Layer_1" xmlns="http://www.w3.org/2000/svg" xmlns:xlink="http://www.w3.org/1999/xlink" x="0px" y="0px"
	 width="48px" height="48px" viewBox="289.167 58.496 48 48" enable-background="new 289.167 58.496 48 48" xml:space="preserve">
<g id="XMLID_834_" display="none">
	<path id="XMLID_835_" display="inline" fill="#707071" d="M15.009,26.273h4.245v17.475c0,0.343,0.28,0.624,0.625,0.624h7.198
		c0.345,0,0.623-0.281,0.623-0.624V26.356h4.881c0.315,0,0.584-0.239,0.622-0.554l0.739-6.435c0.02-0.176-0.036-0.353-0.154-0.487
		c-0.118-0.132-0.287-0.209-0.465-0.209h-5.623v-4.033c0-1.214,0.655-1.832,1.948-1.832c0.182,0,3.675,0,3.675,0
		c0.344,0,0.624-0.279,0.624-0.625V6.277c0-0.345-0.28-0.625-0.624-0.625h-5.064c-0.037-0.001-0.116-0.004-0.234-0.004
		c-0.878,0-3.932,0.173-6.345,2.393c-2.674,2.459-2.303,5.406-2.213,5.915v4.716h-4.456c-0.345,0-0.624,0.28-0.624,0.625v6.349
		C14.385,25.993,14.664,26.273,15.009,26.273z"/>
</g>
<g id="XMLID_826_" display="none">
	<path id="XMLID_827_" display="inline" fill="#707071" d="M101.681,11.768c-0.66,0.292-1.339,0.54-2.034,0.74
		c0.821-0.929,1.449-2.023,1.831-3.22c0.087-0.268-0.002-0.561-0.225-0.737c-0.22-0.175-0.525-0.197-0.767-0.053
		c-1.475,0.874-3.065,1.502-4.733,1.87c-1.678-1.641-3.961-2.576-6.319-2.576c-4.978,0-9.027,4.05-9.027,9.029
		c0,0.392,0.024,0.782,0.073,1.166c-6.178-0.542-11.921-3.578-15.863-8.416c-0.141-0.172-0.359-0.266-0.581-0.248
		c-0.221,0.018-0.42,0.143-0.533,0.335c-0.798,1.372-1.223,2.943-1.223,4.54c0,2.175,0.776,4.239,2.149,5.853
		c-0.417-0.145-0.821-0.326-1.207-0.541c-0.207-0.114-0.461-0.112-0.667,0.006c-0.209,0.117-0.336,0.334-0.343,0.572
		c0,0.04,0,0.08,0,0.121c0,3.247,1.748,6.168,4.419,7.764c-0.229-0.023-0.459-0.057-0.687-0.099
		c-0.234-0.047-0.476,0.036-0.635,0.216c-0.158,0.178-0.212,0.427-0.139,0.654c0.99,3.09,3.536,5.359,6.615,6.053
		c-2.554,1.597-5.474,2.436-8.538,2.436c-0.641,0-1.284-0.037-1.913-0.111c-0.313-0.037-0.612,0.149-0.718,0.446
		c-0.106,0.298,0.005,0.628,0.271,0.798c3.938,2.523,8.491,3.86,13.167,3.86c9.192,0,14.942-4.336,18.146-7.97
		c3.998-4.535,6.292-10.537,6.292-16.466c0-0.248-0.005-0.498-0.014-0.748c1.577-1.188,2.937-2.625,4.039-4.278
		c0.169-0.25,0.15-0.582-0.044-0.813C102.279,11.719,101.957,11.645,101.681,11.768z"/>
</g>
<g display="none">
	<g display="inline">
		<path fill="#707071" d="M176.661,43.84h5.359c0.741,0,1.34-0.602,1.34-1.338V19.075c0-0.741-0.599-1.34-1.34-1.34h-5.359
			c-0.737,0-1.338,0.6-1.338,1.34v23.427C175.323,43.238,175.924,43.84,176.661,43.84z"/>
		<path fill="#707071" d="M176.661,13.617h5.359c0.741,0,1.34-0.599,1.34-1.339v-4.76c0-0.738-0.599-1.338-1.34-1.338h-5.359
			c-0.737,0-1.338,0.6-1.338,1.338v4.76C175.323,13.018,175.924,13.617,176.661,13.617z"/>
		<path fill="#707071" d="M214.534,20.452c-0.753-0.991-1.864-1.806-3.333-2.445c-1.468-0.64-3.089-0.958-4.864-0.958
			c-3.6,0-6.648,1.374-9.149,4.122c-0.498,0.547-0.86,0.427-0.86-0.312v-1.784c0-0.741-0.599-1.34-1.337-1.34h-4.788
			c-0.738,0-1.34,0.6-1.34,1.34v23.427c0,0.736,0.602,1.338,1.34,1.338h5.359c0.739,0,1.339-0.602,1.339-1.338v-8.149
			c0-3.394,0.205-5.719,0.614-6.978c0.411-1.258,1.169-2.269,2.275-3.032c1.106-0.763,2.354-1.146,3.744-1.146
			c1.089,0,2.019,0.269,2.79,0.803c0.772,0.533,1.331,1.282,1.675,2.245c0.343,0.963,0.513,3.084,0.513,6.363v9.894
			c0,0.736,0.601,1.338,1.34,1.338h5.359c0.74,0,1.339-0.602,1.339-1.338v-13.27c0-2.344-0.148-4.146-0.444-5.406
			C215.812,22.569,215.286,21.445,214.534,20.452z"/>
	</g>
</g>
<g display="none">
	<path display="inline" fill="#707071" d="M130.701,27.886h6.807c-1.195,3.38-4.431,5.802-8.221,5.775
		c-4.599-0.034-8.401-3.713-8.579-8.308c-0.19-4.925,3.761-8.994,8.645-8.994c2.232,0,4.27,0.852,5.807,2.246
		c0.363,0.33,0.918,0.332,1.274-0.005l2.501-2.354c0.391-0.368,0.393-0.99,0.002-1.359c-2.436-2.308-5.703-3.748-9.306-3.817
		c-7.688-0.15-14.168,6.151-14.221,13.84c-0.055,7.747,6.208,14.042,13.942,14.042c7.436,0,13.512-5.823,13.919-13.158
		c0.011-0.091,0.018-3.2,0.018-3.2h-12.588c-0.519,0-0.936,0.417-0.936,0.935v3.424C129.766,27.468,130.183,27.886,130.701,27.886z"
		/>
	<path display="inline" fill="#707071" d="M154.827,22.906V19.56c0-0.452-0.367-0.818-0.818-0.818h-2.816
		c-0.452,0-0.819,0.367-0.819,0.818v3.346h-3.345c-0.452,0-0.819,0.366-0.819,0.818v2.815c0,0.453,0.367,0.818,0.819,0.818h3.345
		v3.346c0,0.452,0.367,0.819,0.819,0.819h2.816c0.451,0,0.818-0.367,0.818-0.819v-3.346h3.345c0.453,0,0.819-0.365,0.819-0.818
		v-2.815c0-0.453-0.366-0.818-0.819-0.818H154.827L154.827,22.906z"/>
</g>
<path display="none" fill="#707071" d="M271.758,42.402l-8.904-2.228c-8.379,4.688-18.972,1.696-23.659-6.684
	c-4.688-8.379-1.695-18.971,6.684-23.658s18.972-1.695,23.659,6.684c2.951,5.275,2.951,11.704-0.002,16.979L271.758,42.402z
	 M264.516,14.822c-5.611-5.624-14.72-5.634-20.344-0.023c-5.623,5.611-5.634,14.72-0.022,20.342
	c5.075,5.086,13.124,5.648,18.855,1.317l4.218,1.409l-1.406-4.222C270.14,27.926,269.585,19.894,264.516,14.822z M261.932,27.286
	c-1.253,0-2.268-1.016-2.268-2.268s1.015-2.268,2.268-2.268c1.252,0,2.268,1.016,2.268,2.268S263.184,27.286,261.932,27.286z
	 M254.372,27.286c-1.252,0-2.267-1.016-2.267-2.268s1.015-2.268,2.267-2.268c1.253,0,2.27,1.016,2.27,2.268
	S255.625,27.286,254.372,27.286z M246.813,27.286c-1.251,0-2.267-1.016-2.267-2.268s1.016-2.268,2.267-2.268
	c1.254,0,2.269,1.016,2.269,2.268S248.067,27.286,246.813,27.286z"/>
<g display="none">
	<polygon display="inline" fill="none" points="328.55,24.105 328.55,24.116 328.55,24.105 	"/>
	<path display="inline" fill="none" d="M324.12,36.548c0.2-0.193,0.388-0.376,0.525-0.56c0.693-0.703,0.432-1.139,0.09-1.479
		l-3.851-3.85c-0.195-0.166-0.411-0.353-0.634-0.353c-0.236,0-0.511,0.19-0.673,0.353l-2.404,2.406
		c-0.652,0.641-1.382,0.842-2.233,0.463h-0.113l-0.122-0.116c-0.086-0.043-0.171-0.09-0.258-0.14
		c-0.121-0.067-0.245-0.14-0.383-0.198l-0.346-0.189c-0.188-0.101-0.383-0.208-0.579-0.33c-2.29-1.45-4.356-3.331-6.325-5.753
		c-1.063-1.319-1.796-2.498-2.299-3.7l-0.086-0.086l-0.021-0.171c-0.236-0.809-0.062-1.514,0.521-2.096
		c0.632-0.595,1.176-1.14,1.758-1.721l0.613-0.613c0.257-0.257,0.387-0.496,0.387-0.708c0-0.212-0.13-0.45-0.389-0.709l-2.98-2.988
		c-0.269-0.276-0.526-0.542-0.814-0.809c-0.179-0.176-0.426-0.368-0.69-0.368c-0.263,0-0.511,0.192-0.672,0.353l-2.369,2.369
		c-0.48,0.515-0.739,1.066-0.8,1.723c-0.105,1.205,0.13,2.513,0.744,4.113c1.063,2.822,2.632,5.428,4.94,8.207
		c2.831,3.374,6.23,6.04,10.104,7.922c1.267,0.601,3.197,1.424,5.281,1.611l0.283-0.003c0.947,0,1.628-0.284,2.208-0.923
		c0.321-0.413,0.71-0.795,1.087-1.165L324.12,36.548z"/>
	<path display="inline" fill="#707071" d="M314.299,16.86c1.726,0.316,3.286,1.132,4.52,2.366c1.24,1.207,2.075,2.804,2.353,4.501
		c0.12,0.712,0.76,1.25,1.486,1.25h0.191l0.043-0.007c0.789-0.122,1.335-0.89,1.214-1.738c-0.431-2.301-1.533-4.412-3.188-6.106
		c-1.664-1.702-3.782-2.808-6.101-3.194c-0.829-0.177-1.638,0.392-1.749,1.178c-0.087,0.407-0.006,0.813,0.227,1.144
		C313.531,16.59,313.897,16.808,314.299,16.86z"/>
	<path display="inline" fill="#707071" d="M323.032,28.571c-1.521-1.605-3.894-1.671-5.552-0.012l-1.926,1.925
		c-0.059-0.029-0.127-0.065-0.226-0.12c-0.139-0.06-0.266-0.133-0.388-0.201c-0.098-0.055-0.191-0.107-0.239-0.129
		c-1.989-1.244-3.821-2.911-5.597-5.094c-0.758-0.947-1.277-1.736-1.646-2.506c0.433-0.413,0.861-0.84,1.268-1.246l0.672-0.672
		c0.823-0.823,1.276-1.821,1.276-2.808c0-1.015-0.43-1.96-1.273-2.804l-1.892-1.929c-0.21-0.209-0.42-0.418-0.611-0.648
		c-0.412-0.449-0.872-0.909-1.313-1.314c-1.547-1.546-3.827-1.585-5.506,0l-2.407,2.407c-0.995,0.996-1.561,2.198-1.682,3.582
		c-0.15,2.066,0.413,3.979,0.922,5.42c1.139,3.108,2.863,5.996,5.429,9.09c3.094,3.689,6.83,6.616,11.107,8.697
		c1.489,0.727,3.768,1.711,6.395,1.872h0.445c1.753,0,3.281-0.667,4.4-1.906l0.072-0.076c0.315-0.38,0.687-0.762,1.133-1.174
		c0.328-0.255,0.647-0.56,0.984-0.941c1.617-1.66,1.614-3.952-0.005-5.572L323.032,28.571z M320.325,39.129l-0.283,0.003
		c-2.084-0.188-4.015-1.011-5.281-1.611c-3.873-1.882-7.272-4.548-10.104-7.922c-2.309-2.778-3.878-5.385-4.94-8.207
		c-0.614-1.601-0.85-2.908-0.744-4.113c0.061-0.657,0.319-1.208,0.8-1.723l2.369-2.369c0.161-0.161,0.409-0.353,0.672-0.353
		c0.265,0,0.512,0.192,0.69,0.368c0.288,0.266,0.546,0.532,0.814,0.809l2.98,2.988c0.259,0.259,0.389,0.497,0.389,0.709
		c0,0.212-0.13,0.451-0.387,0.708l-0.613,0.613c-0.582,0.581-1.126,1.125-1.758,1.721c-0.582,0.582-0.757,1.287-0.521,2.096
		l0.021,0.171l0.086,0.086c0.503,1.202,1.235,2.38,2.299,3.7c1.969,2.422,4.035,4.303,6.325,5.753
		c0.196,0.122,0.392,0.229,0.579,0.33l0.346,0.189c0.138,0.059,0.262,0.131,0.383,0.198c0.087,0.05,0.172,0.097,0.258,0.14
		l0.122,0.116h0.113c0.852,0.379,1.581,0.178,2.233-0.463l2.404-2.406c0.162-0.162,0.437-0.353,0.673-0.353
		c0.223,0,0.438,0.187,0.634,0.353l3.851,3.85c0.342,0.341,0.604,0.776-0.09,1.479c-0.138,0.184-0.325,0.366-0.525,0.56l-0.5,0.493
		c-0.377,0.37-0.766,0.752-1.087,1.165C321.953,38.845,321.272,39.129,320.325,39.129z"/>
	<path display="inline" fill="#707071" d="M330.067,22.949c-0.61-3.737-2.381-7.16-5.12-9.9c-2.708-2.708-6.118-4.465-9.835-5.079
		c-0.792-0.167-1.57,0.356-1.748,1.178c-0.088,0.407-0.008,0.816,0.226,1.15c0.232,0.332,0.584,0.546,0.975,0.602
		c3.153,0.538,6.018,2.019,8.28,4.281c2.274,2.311,3.757,5.176,4.286,8.282c0.115,0.695,0.724,1.219,1.419,1.219l0.303-0.01
		C329.64,24.552,330.186,23.784,330.067,22.949z M328.55,24.105L328.55,24.105v0.011V24.105z"/>
</g>
<g id="XMLID_3_" display="none">
	<path id="XMLID_4_" display="inline" fill="#FFFFFF" d="M15.009,84.273h4.245v17.475c0,0.343,0.28,0.624,0.625,0.624h7.198
		c0.345,0,0.623-0.281,0.623-0.624V84.356h4.881c0.315,0,0.584-0.239,0.622-0.554l0.739-6.436c0.02-0.176-0.036-0.353-0.154-0.486
		c-0.118-0.133-0.287-0.209-0.465-0.209h-5.623v-4.033c0-1.215,0.655-1.832,1.948-1.832c0.182,0,3.675,0,3.675,0
		c0.344,0,0.624-0.279,0.624-0.625v-5.904c0-0.345-0.28-0.625-0.624-0.625h-5.064c-0.037-0.002-0.116-0.004-0.234-0.004
		c-0.878,0-3.932,0.172-6.345,2.393c-2.674,2.459-2.303,5.406-2.213,5.914v4.717h-4.456c-0.345,0-0.624,0.28-0.624,0.625v6.35
		C14.385,83.993,14.664,84.273,15.009,84.273z"/>
</g>
<g id="XMLID_1_" display="none">
	<path id="XMLID_2_" display="inline" fill="#FFFFFF" d="M101.681,69.768c-0.66,0.293-1.339,0.541-2.034,0.74
		c0.821-0.928,1.449-2.022,1.831-3.219c0.087-0.268-0.002-0.561-0.225-0.737c-0.22-0.175-0.525-0.196-0.767-0.053
		c-1.475,0.874-3.065,1.503-4.733,1.87c-1.678-1.641-3.961-2.576-6.319-2.576c-4.978,0-9.027,4.051-9.027,9.029
		c0,0.392,0.024,0.781,0.073,1.165c-6.178-0.542-11.921-3.577-15.863-8.416c-0.141-0.172-0.359-0.267-0.581-0.247
		c-0.221,0.018-0.42,0.143-0.533,0.334c-0.798,1.373-1.223,2.943-1.223,4.541c0,2.174,0.776,4.238,2.149,5.852
		c-0.417-0.145-0.821-0.326-1.207-0.541c-0.207-0.113-0.461-0.111-0.667,0.006c-0.209,0.117-0.336,0.335-0.343,0.572
		c0,0.04,0,0.08,0,0.121c0,3.247,1.748,6.169,4.419,7.765c-0.229-0.023-0.459-0.057-0.687-0.099
		c-0.234-0.047-0.476,0.036-0.635,0.216c-0.158,0.178-0.212,0.427-0.139,0.654c0.99,3.09,3.536,5.359,6.615,6.053
		c-2.554,1.597-5.474,2.436-8.538,2.436c-0.641,0-1.284-0.037-1.913-0.111c-0.313-0.037-0.612,0.149-0.718,0.446
		c-0.106,0.298,0.005,0.628,0.271,0.798c3.938,2.523,8.491,3.86,13.167,3.86c9.192,0,14.942-4.336,18.146-7.97
		c3.998-4.535,6.292-10.537,6.292-16.466c0-0.248-0.005-0.498-0.014-0.748c1.577-1.188,2.937-2.625,4.039-4.279
		c0.169-0.249,0.15-0.581-0.044-0.813C102.279,69.719,101.957,69.645,101.681,69.768z"/>
</g>
<g display="none">
	<g display="inline">
		<path fill="#FFFFFF" d="M176.661,101.84h5.359c0.741,0,1.34-0.602,1.34-1.338V77.074c0-0.74-0.599-1.34-1.34-1.34h-5.359
			c-0.737,0-1.338,0.6-1.338,1.34v23.428C175.323,101.238,175.924,101.84,176.661,101.84z"/>
		<path fill="#FFFFFF" d="M176.661,71.617h5.359c0.741,0,1.34-0.6,1.34-1.34v-4.76c0-0.738-0.599-1.338-1.34-1.338h-5.359
			c-0.737,0-1.338,0.6-1.338,1.338v4.76C175.323,71.018,175.924,71.617,176.661,71.617z"/>
		<path fill="#FFFFFF" d="M214.534,78.452c-0.753-0.991-1.864-1.806-3.333-2.444c-1.468-0.641-3.089-0.959-4.864-0.959
			c-3.6,0-6.648,1.374-9.149,4.122c-0.498,0.548-0.86,0.427-0.86-0.312v-1.785c0-0.74-0.599-1.34-1.337-1.34h-4.788
			c-0.738,0-1.34,0.6-1.34,1.34v23.428c0,0.736,0.602,1.338,1.34,1.338h5.359c0.739,0,1.339-0.602,1.339-1.338v-8.149
			c0-3.394,0.205-5.719,0.614-6.978c0.411-1.258,1.169-2.269,2.275-3.031c1.106-0.764,2.354-1.146,3.744-1.146
			c1.089,0,2.019,0.27,2.79,0.803c0.772,0.533,1.331,1.282,1.675,2.245c0.343,0.963,0.513,3.084,0.513,6.363v9.894
			c0,0.736,0.601,1.338,1.34,1.338h5.359c0.74,0,1.339-0.602,1.339-1.338v-13.27c0-2.344-0.148-4.146-0.444-5.406
			C215.812,80.568,215.286,79.445,214.534,78.452z"/>
	</g>
</g>
<g display="none">
	<path display="inline" fill="#FFFFFF" d="M130.701,85.886h6.807c-1.195,3.38-4.431,5.802-8.221,5.775
		c-4.599-0.034-8.401-3.713-8.579-8.308c-0.19-4.926,3.761-8.994,8.645-8.994c2.232,0,4.27,0.852,5.807,2.246
		c0.363,0.329,0.918,0.332,1.274-0.006l2.501-2.354c0.391-0.367,0.393-0.99,0.002-1.359c-2.436-2.307-5.703-3.747-9.306-3.816
		c-7.688-0.15-14.168,6.151-14.221,13.84c-0.055,7.747,6.208,14.042,13.942,14.042c7.436,0,13.512-5.823,13.919-13.158
		c0.011-0.091,0.018-3.2,0.018-3.2h-12.588c-0.519,0-0.936,0.418-0.936,0.936v3.424C129.766,85.468,130.183,85.886,130.701,85.886z"
		/>
	<path display="inline" fill="#FFFFFF" d="M154.827,80.906V77.56c0-0.452-0.367-0.818-0.818-0.818h-2.816
		c-0.452,0-0.819,0.366-0.819,0.818v3.347h-3.345c-0.452,0-0.819,0.365-0.819,0.818v2.814c0,0.453,0.367,0.818,0.819,0.818h3.345
		v3.346c0,0.452,0.367,0.819,0.819,0.819h2.816c0.451,0,0.818-0.367,0.818-0.819v-3.346h3.345c0.453,0,0.819-0.365,0.819-0.818
		v-2.814c0-0.453-0.366-0.818-0.819-0.818H154.827L154.827,80.906z"/>
</g>
<path display="none" fill="#2988CA" d="M271.758,100.402l-8.904-2.228c-8.379,4.688-18.972,1.696-23.659-6.684
	c-4.688-8.379-1.695-18.971,6.684-23.658s18.972-1.695,23.659,6.684c2.951,5.274,2.951,11.704-0.002,16.979L271.758,100.402z
	 M264.516,72.822c-5.611-5.624-14.72-5.635-20.344-0.023c-5.623,5.611-5.634,14.721-0.022,20.343
	c5.075,5.086,13.124,5.648,18.855,1.317l4.218,1.409l-1.406-4.222C270.14,85.926,269.585,77.895,264.516,72.822z M261.932,85.286
	c-1.253,0-2.268-1.016-2.268-2.268s1.015-2.268,2.268-2.268c1.252,0,2.268,1.016,2.268,2.268S263.184,85.286,261.932,85.286z
	 M254.372,85.286c-1.252,0-2.267-1.016-2.267-2.268s1.015-2.268,2.267-2.268c1.253,0,2.27,1.016,2.27,2.268
	S255.625,85.286,254.372,85.286z M246.813,85.286c-1.251,0-2.267-1.016-2.267-2.268s1.016-2.268,2.267-2.268
	c1.254,0,2.269,1.016,2.269,2.268S248.067,85.286,246.813,85.286z"/>
<g>
	<polygon fill="#2988CA" points="328.55,82.105 328.55,82.115 328.55,82.105 	"/>
	<path fill="#2988CA" d="M314.299,74.86c1.726,0.316,3.286,1.132,4.52,2.366c1.24,1.206,2.075,2.803,2.353,4.5
		c0.12,0.713,0.76,1.25,1.486,1.25h0.191l0.043-0.007c0.789-0.122,1.335-0.89,1.214-1.737c-0.431-2.301-1.533-4.412-3.188-6.107
		c-1.664-1.701-3.782-2.807-6.101-3.193c-0.829-0.177-1.638,0.393-1.749,1.178c-0.087,0.406-0.006,0.813,0.227,1.145
		C313.531,74.59,313.897,74.808,314.299,74.86z"/>
	<path fill="#2988CA" d="M323.032,86.571c-1.521-1.605-3.894-1.671-5.552-0.012l-1.926,1.925c-0.059-0.029-0.127-0.065-0.226-0.12
		c-0.139-0.06-0.266-0.133-0.388-0.201c-0.098-0.055-0.191-0.107-0.239-0.129c-1.989-1.244-3.821-2.911-5.597-5.094
		c-0.758-0.946-1.277-1.735-1.646-2.507c0.433-0.412,0.861-0.84,1.268-1.246l0.672-0.672c0.823-0.823,1.276-1.82,1.276-2.809
		c0-1.015-0.43-1.959-1.273-2.804l-1.892-1.929c-0.21-0.209-0.42-0.418-0.611-0.648c-0.412-0.449-0.872-0.909-1.313-1.314
		c-1.547-1.545-3.827-1.585-5.506,0l-2.407,2.408c-0.995,0.996-1.561,2.197-1.682,3.581c-0.15,2.065,0.413,3.979,0.922,5.42
		c1.139,3.108,2.863,5.996,5.429,9.09c3.094,3.689,6.83,6.616,11.107,8.697c1.489,0.727,3.768,1.711,6.395,1.872h0.445
		c1.753,0,3.281-0.667,4.4-1.906l0.072-0.076c0.315-0.38,0.687-0.762,1.133-1.174c0.328-0.255,0.647-0.56,0.984-0.941
		c1.617-1.66,1.614-3.952-0.005-5.572L323.032,86.571z M320.325,97.129l-0.283,0.003c-2.084-0.188-4.015-1.011-5.281-1.611
		c-3.873-1.882-7.272-4.548-10.104-7.922c-2.309-2.778-3.878-5.385-4.94-8.206c-0.614-1.602-0.85-2.908-0.744-4.113
		c0.061-0.658,0.319-1.209,0.8-1.724l2.369-2.368c0.161-0.162,0.409-0.354,0.672-0.354c0.265,0,0.512,0.191,0.69,0.368
		c0.288,0.267,0.546,0.532,0.814,0.809l2.98,2.987c0.259,0.26,0.389,0.498,0.389,0.709c0,0.213-0.13,0.451-0.387,0.709l-0.613,0.613
		c-0.582,0.58-1.126,1.125-1.758,1.721c-0.582,0.582-0.757,1.287-0.521,2.096l0.021,0.17l0.086,0.086
		c0.503,1.202,1.235,2.381,2.299,3.7c1.969,2.422,4.035,4.303,6.325,5.753c0.196,0.122,0.392,0.229,0.579,0.33l0.346,0.189
		c0.138,0.059,0.262,0.131,0.383,0.198c0.087,0.05,0.172,0.097,0.258,0.14l0.122,0.116h0.113c0.852,0.379,1.581,0.178,2.233-0.463
		l2.404-2.406c0.162-0.162,0.437-0.353,0.673-0.353c0.223,0,0.438,0.187,0.634,0.353l3.851,3.85c0.342,0.341,0.604,0.776-0.09,1.479
		c-0.138,0.184-0.325,0.366-0.525,0.56l-0.5,0.493c-0.377,0.37-0.766,0.752-1.087,1.165
		C321.953,96.845,321.272,97.129,320.325,97.129z"/>
	<path fill="#2988CA" d="M330.067,80.949c-0.61-3.737-2.381-7.16-5.12-9.9c-2.708-2.707-6.118-4.465-9.835-5.078
		c-0.792-0.167-1.57,0.355-1.748,1.178c-0.088,0.406-0.008,0.816,0.226,1.15c0.232,0.332,0.584,0.547,0.975,0.602
		c3.153,0.538,6.018,2.02,8.28,4.281c2.274,2.311,3.757,5.176,4.286,8.283c0.115,0.695,0.724,1.219,1.419,1.219l0.303-0.01
		C329.64,82.552,330.186,81.783,330.067,80.949z M328.55,82.105L328.55,82.105v0.01V82.105z"/>
</g>
</svg>
