<?xml version="1.0" encoding="utf-8"?>
<!-- Generator: Adobe Illustrator 16.0.0, SVG Export Plug-In . SVG Version: 6.00 Build 0)  -->
<!DOCTYPE svg PUBLIC "-//W3C//DTD SVG 1.1//EN" "http://www.w3.org/Graphics/SVG/1.1/DTD/svg11.dtd">
<svg version="1.1" id="Layer_1" xmlns="http://www.w3.org/2000/svg" xmlns:xlink="http://www.w3.org/1999/xlink" x="0px" y="0px"
	 width="48px" height="48px" viewBox="230.834 0 48 48" enable-background="new 230.834 0 48 48" xml:space="preserve">
<g id="XMLID_834_" display="none">
	<path id="XMLID_835_" display="inline" fill="#707071" d="M17.038,25.257h3.228v13.288c0,0.262,0.213,0.475,0.475,0.475h5.473
		c0.262,0,0.475-0.213,0.475-0.475V25.319h3.711c0.24,0,0.443-0.182,0.473-0.421l0.563-4.892c0.016-0.134-0.027-0.269-0.117-0.37
		c-0.09-0.101-0.219-0.159-0.354-0.159h-4.275v-3.066c0-0.924,0.498-1.393,1.48-1.393c0.139,0,2.795,0,2.795,0
		c0.262,0,0.475-0.213,0.475-0.476v-4.49c0-0.262-0.213-0.475-0.475-0.475h-3.852c-0.027-0.002-0.088-0.004-0.178-0.004
		c-0.668,0-2.99,0.132-4.825,1.819c-2.033,1.87-1.751,4.11-1.683,4.498v3.586h-3.389c-0.263,0-0.475,0.213-0.475,0.476v4.829
		C16.563,25.044,16.775,25.257,17.038,25.257z"/>
</g>
<g id="XMLID_826_" display="none">
	<path id="XMLID_827_" display="inline" fill="#707071" d="M96.516,15.252c-0.451,0.2-0.915,0.369-1.39,0.506
		c0.562-0.635,0.989-1.382,1.251-2.199c0.059-0.183-0.002-0.383-0.153-0.503c-0.15-0.12-0.359-0.135-0.524-0.036
		c-1.007,0.597-2.093,1.026-3.232,1.277c-1.146-1.121-2.705-1.76-4.315-1.76c-3.4,0-6.166,2.767-6.166,6.167
		c0,0.268,0.017,0.533,0.05,0.796c-4.219-0.37-8.142-2.443-10.835-5.748c-0.096-0.117-0.244-0.182-0.396-0.169
		c-0.151,0.012-0.287,0.098-0.364,0.229c-0.546,0.938-0.835,2.01-0.835,3.101c0,1.485,0.53,2.896,1.468,3.997
		c-0.285-0.099-0.562-0.223-0.825-0.369c-0.142-0.078-0.314-0.077-0.456,0.004c-0.141,0.08-0.229,0.229-0.232,0.391
		c-0.001,0.027-0.001,0.055-0.001,0.083c0,2.218,1.194,4.213,3.019,5.303c-0.156-0.016-0.313-0.039-0.469-0.068
		c-0.16-0.031-0.325,0.025-0.434,0.148c-0.108,0.121-0.145,0.291-0.095,0.447c0.676,2.109,2.415,3.66,4.518,4.133
		c-1.744,1.092-3.738,1.664-5.831,1.664c-0.438,0-0.877-0.025-1.307-0.076c-0.214-0.025-0.418,0.102-0.49,0.305
		c-0.073,0.203,0.004,0.43,0.186,0.545c2.689,1.725,5.799,2.637,8.992,2.637c6.278,0,10.206-2.961,12.395-5.443
		c2.729-3.098,4.296-7.197,4.296-11.247c0-0.169-0.003-0.34-0.009-0.511c1.077-0.812,2.005-1.793,2.759-2.922
		c0.115-0.171,0.103-0.397-0.03-0.556S96.704,15.168,96.516,15.252z"/>
</g>
<g display="none">
	<g display="inline">
		<path fill="#707071" d="M182.191,38.628h4.079c0.563,0,1.02-0.457,1.02-1.019v-17.83c0-0.563-0.456-1.02-1.02-1.02h-4.079
			c-0.562,0-1.019,0.457-1.019,1.02v17.83C181.173,38.171,181.63,38.628,182.191,38.628z"/>
		<path fill="#707071" d="M182.191,15.626h4.079c0.563,0,1.02-0.457,1.02-1.02v-3.623c0-0.562-0.456-1.019-1.02-1.019h-4.079
			c-0.562,0-1.019,0.457-1.019,1.019v3.623C181.173,15.169,181.63,15.626,182.191,15.626z"/>
		<path fill="#707071" d="M211.016,20.828c-0.573-0.754-1.418-1.375-2.536-1.861c-1.117-0.487-2.352-0.729-3.702-0.729
			c-2.739,0-5.061,1.045-6.964,3.137c-0.379,0.417-0.654,0.325-0.654-0.237v-1.358c0-0.563-0.456-1.02-1.019-1.02h-3.644
			c-0.563,0-1.02,0.457-1.02,1.02v17.83c0,0.562,0.457,1.019,1.02,1.019h4.079c0.563,0,1.019-0.457,1.019-1.019v-6.201
			c0-2.583,0.156-4.354,0.468-5.312c0.313-0.957,0.89-1.727,1.731-2.308c0.842-0.581,1.792-0.872,2.851-0.872
			c0.828,0,1.535,0.204,2.123,0.611c0.588,0.406,1.013,0.976,1.274,1.709c0.261,0.732,0.391,2.347,0.391,4.843v7.529
			c0,0.562,0.456,1.019,1.02,1.019h4.079c0.563,0,1.019-0.457,1.019-1.019V27.511c0-1.783-0.112-3.155-0.338-4.115
			C211.988,22.439,211.588,21.583,211.016,20.828z"/>
	</g>
</g>
<g display="none">
	<path display="inline" fill="#707071" d="M132.215,26.869h6.089c-1.068,3.022-3.964,5.189-7.354,5.165
		c-4.113-0.03-7.514-3.321-7.674-7.431c-0.17-4.405,3.364-8.044,7.732-8.044c1.997,0,3.819,0.761,5.193,2.008
		c0.325,0.295,0.821,0.297,1.141-0.004l2.237-2.105c0.35-0.33,0.352-0.886,0.002-1.216c-2.179-2.064-5.103-3.352-8.325-3.415
		c-6.876-0.135-12.672,5.503-12.72,12.379c-0.048,6.93,5.554,12.561,12.472,12.561c6.651,0,12.086-5.209,12.45-11.77
		c0.01-0.082,0.016-2.862,0.016-2.862h-11.26c-0.463,0-0.837,0.374-0.837,0.835v3.063C131.378,26.495,131.752,26.869,132.215,26.869
		z"/>
	<path display="inline" fill="#707071" d="M153.795,22.414v-2.992c0-0.405-0.328-0.732-0.732-0.732h-2.519
		c-0.404,0-0.732,0.328-0.732,0.732v2.992h-2.992c-0.404,0-0.732,0.328-0.732,0.732v2.518c0,0.405,0.328,0.732,0.732,0.732h2.992
		v2.992c0,0.404,0.328,0.732,0.732,0.732h2.519c0.404,0,0.732-0.328,0.732-0.732v-2.992h2.992c0.404,0,0.732-0.327,0.732-0.732
		v-2.518c0-0.405-0.328-0.732-0.732-0.732H153.795L153.795,22.414z"/>
</g>
<path fill="#707071" d="M271.758,41.689l-8.904-2.228c-8.379,4.688-18.972,1.696-23.659-6.684
	c-4.688-8.379-1.695-18.971,6.684-23.659s18.972-1.695,23.659,6.684c2.951,5.275,2.951,11.705-0.002,16.98L271.758,41.689z
	 M264.516,14.109c-5.611-5.624-14.72-5.634-20.344-0.023c-5.623,5.611-5.634,14.721-0.022,20.343
	c5.075,5.086,13.124,5.648,18.855,1.317l4.218,1.409l-1.406-4.222C270.14,27.213,269.585,19.181,264.516,14.109z M261.932,26.573
	c-1.253,0-2.268-1.016-2.268-2.268c0-1.252,1.015-2.268,2.268-2.268c1.252,0,2.268,1.016,2.268,2.268
	C264.199,25.558,263.184,26.573,261.932,26.573z M254.372,26.573c-1.252,0-2.267-1.016-2.267-2.268c0-1.252,1.015-2.268,2.267-2.268
	c1.253,0,2.27,1.016,2.27,2.268C256.642,25.558,255.625,26.573,254.372,26.573z M246.813,26.573c-1.251,0-2.267-1.016-2.267-2.268
	c0-1.252,1.016-2.268,2.267-2.268c1.254,0,2.269,1.016,2.269,2.268C249.082,25.558,248.067,26.573,246.813,26.573z"/>
<g display="none">
	<polygon display="inline" fill="none" points="328.55,23.391 328.55,23.402 328.55,23.391 	"/>
	<path display="inline" fill="none" d="M324.12,35.835c0.2-0.193,0.388-0.376,0.525-0.56c0.693-0.703,0.432-1.139,0.09-1.479
		l-3.851-3.85c-0.195-0.166-0.411-0.353-0.634-0.353c-0.236,0-0.511,0.19-0.673,0.353l-2.404,2.406
		c-0.652,0.641-1.382,0.842-2.233,0.463h-0.113l-0.122-0.116c-0.086-0.043-0.171-0.09-0.258-0.14
		c-0.121-0.067-0.245-0.14-0.383-0.198l-0.346-0.189c-0.188-0.101-0.383-0.208-0.579-0.33c-2.29-1.45-4.356-3.331-6.325-5.753
		c-1.063-1.319-1.796-2.499-2.299-3.701l-0.086-0.086l-0.021-0.171c-0.236-0.809-0.062-1.514,0.521-2.096
		c0.632-0.595,1.176-1.14,1.758-1.721l0.613-0.613c0.257-0.257,0.387-0.496,0.387-0.708c0-0.212-0.13-0.45-0.389-0.709l-2.98-2.988
		c-0.269-0.276-0.526-0.542-0.814-0.809c-0.179-0.176-0.426-0.368-0.69-0.368c-0.263,0-0.511,0.192-0.672,0.353l-2.369,2.369
		c-0.48,0.515-0.739,1.066-0.8,1.723c-0.105,1.205,0.13,2.513,0.744,4.113c1.063,2.822,2.632,5.429,4.94,8.208
		c2.831,3.374,6.23,6.04,10.104,7.922c1.267,0.601,3.197,1.424,5.281,1.611l0.283-0.003c0.947,0,1.628-0.284,2.208-0.923
		c0.321-0.413,0.71-0.795,1.087-1.165L324.12,35.835z"/>
	<path display="inline" fill="#707071" d="M314.299,16.146c1.726,0.316,3.286,1.132,4.52,2.366c1.24,1.207,2.075,2.804,2.353,4.501
		c0.12,0.712,0.76,1.25,1.486,1.25h0.191l0.043-0.007c0.789-0.122,1.335-0.89,1.214-1.738c-0.431-2.301-1.533-4.412-3.188-6.106
		c-1.664-1.702-3.782-2.808-6.101-3.194c-0.829-0.177-1.638,0.392-1.749,1.178c-0.087,0.407-0.006,0.813,0.227,1.144
		C313.531,15.876,313.897,16.094,314.299,16.146z"/>
	<path display="inline" fill="#707071" d="M323.032,27.858c-1.521-1.605-3.894-1.671-5.552-0.012l-1.926,1.925
		c-0.059-0.029-0.127-0.065-0.226-0.12c-0.139-0.06-0.266-0.133-0.388-0.201c-0.098-0.055-0.191-0.107-0.239-0.129
		c-1.989-1.244-3.821-2.911-5.597-5.095c-0.758-0.947-1.277-1.736-1.646-2.506c0.433-0.413,0.861-0.84,1.268-1.246l0.672-0.672
		c0.823-0.823,1.276-1.821,1.276-2.808c0-1.015-0.43-1.96-1.273-2.804l-1.892-1.929c-0.21-0.209-0.42-0.418-0.611-0.648
		c-0.412-0.449-0.872-0.909-1.313-1.314c-1.547-1.546-3.827-1.585-5.506,0l-2.407,2.407c-0.995,0.996-1.561,2.198-1.682,3.582
		c-0.15,2.066,0.413,3.979,0.922,5.42c1.139,3.109,2.863,5.997,5.429,9.091c3.094,3.689,6.83,6.616,11.107,8.697
		c1.489,0.727,3.768,1.711,6.395,1.872h0.445c1.753,0,3.281-0.667,4.4-1.906l0.072-0.076c0.315-0.38,0.687-0.762,1.133-1.174
		c0.328-0.255,0.647-0.56,0.984-0.941c1.617-1.66,1.614-3.952-0.005-5.572L323.032,27.858z M320.325,38.416l-0.283,0.003
		c-2.084-0.188-4.015-1.011-5.281-1.611c-3.873-1.882-7.272-4.548-10.104-7.922c-2.309-2.778-3.878-5.386-4.94-8.208
		c-0.614-1.601-0.85-2.908-0.744-4.113c0.061-0.657,0.319-1.208,0.8-1.723l2.369-2.369c0.161-0.161,0.409-0.353,0.672-0.353
		c0.265,0,0.512,0.192,0.69,0.368c0.288,0.266,0.546,0.532,0.814,0.809l2.98,2.988c0.259,0.259,0.389,0.497,0.389,0.709
		c0,0.212-0.13,0.451-0.387,0.708l-0.613,0.613c-0.582,0.581-1.126,1.125-1.758,1.721c-0.582,0.582-0.757,1.287-0.521,2.096
		l0.021,0.171l0.086,0.086c0.503,1.202,1.235,2.381,2.299,3.701c1.969,2.422,4.035,4.303,6.325,5.753
		c0.196,0.122,0.392,0.229,0.579,0.33l0.346,0.189c0.138,0.059,0.262,0.131,0.383,0.198c0.087,0.05,0.172,0.097,0.258,0.14
		l0.122,0.116h0.113c0.852,0.379,1.581,0.178,2.233-0.463l2.404-2.406c0.162-0.162,0.437-0.353,0.673-0.353
		c0.223,0,0.438,0.187,0.634,0.353l3.851,3.85c0.342,0.341,0.604,0.776-0.09,1.479c-0.138,0.184-0.325,0.366-0.525,0.56l-0.5,0.493
		c-0.377,0.37-0.766,0.752-1.087,1.165C321.953,38.132,321.272,38.416,320.325,38.416z"/>
	<path display="inline" fill="#707071" d="M330.067,22.235c-0.61-3.737-2.381-7.16-5.12-9.9c-2.708-2.708-6.118-4.465-9.835-5.079
		c-0.792-0.167-1.57,0.356-1.748,1.178c-0.088,0.407-0.008,0.816,0.226,1.15c0.232,0.332,0.584,0.546,0.975,0.602
		c3.153,0.538,6.018,2.019,8.28,4.281c2.274,2.311,3.757,5.176,4.286,8.282c0.115,0.695,0.724,1.219,1.419,1.219l0.303-0.01
		C329.64,23.838,330.186,23.07,330.067,22.235z M328.55,23.391L328.55,23.391v0.011V23.391z"/>
</g>
</svg>
