<?xml version="1.0" encoding="utf-8"?>
<!-- Generator: Adobe Illustrator 16.0.0, SVG Export Plug-In . SVG Version: 6.00 Build 0)  -->
<!DOCTYPE svg PUBLIC "-//W3C//DTD SVG 1.1//EN" "http://www.w3.org/Graphics/SVG/1.1/DTD/svg11.dtd">
<svg version="1.1" id="Layer_1" xmlns="http://www.w3.org/2000/svg" xmlns:xlink="http://www.w3.org/1999/xlink" x="0px" y="0px"
	 width="48px" height="48px" viewBox="0 0 48 48" enable-background="new 0 0 48 48" xml:space="preserve">
<path fill="#707071" d="M11.723,36.084H7.324V16.765H1.691v-4.14h15.663v4.14h-5.632V36.084z"/>
<path fill="#707071" d="M40.751,36.084h-5.008l-2.81-12.323c-0.104-0.438-0.282-1.345-0.532-2.72
	c-0.251-1.375-0.396-2.297-0.433-2.768c-0.057,0.578-0.199,1.506-0.426,2.784s-0.402,2.19-0.524,2.736l-2.795,12.291h-4.995
	l-5.291-23.459h4.327l2.653,12.805c0.463,2.363,0.799,4.412,1.007,6.145c0.057-0.609,0.187-1.553,0.39-2.832
	c0.203-1.277,0.395-2.27,0.575-2.976l3.022-13.142h4.156l3.022,13.142c0.132,0.588,0.298,1.487,0.496,2.695
	c0.198,1.209,0.35,2.246,0.454,3.112c0.094-0.834,0.245-1.874,0.454-3.12c0.208-1.246,0.397-2.255,0.567-3.024l2.64-12.805h4.327
	L40.751,36.084z"/>
</svg>
