<?xml version="1.0" encoding="utf-8"?>
<!-- Generator: Adobe Illustrator 16.0.0, SVG Export Plug-In . SVG Version: 6.00 Build 0)  -->
<!DOCTYPE svg PUBLIC "-//W3C//DTD SVG 1.1//EN" "http://www.w3.org/Graphics/SVG/1.1/DTD/svg11.dtd">
<svg version="1.1" id="Layer_1" xmlns="http://www.w3.org/2000/svg" xmlns:xlink="http://www.w3.org/1999/xlink" x="0px" y="0px"
	 width="48px" height="48px" viewBox="0 0 48 48" enable-background="new 0 0 48 48" xml:space="preserve">
<g>
	<path fill="#707071" d="M17.48,22.891h9.129v11.93c-1.479,0.484-2.872,0.822-4.179,1.016s-2.642,0.291-4.006,0.291
		c-3.473,0-6.126-1.02-7.957-3.061c-1.83-2.041-2.746-4.971-2.746-8.791c0-3.714,1.063-6.611,3.188-8.688
		c2.125-2.077,5.071-3.116,8.838-3.116c2.361,0,4.639,0.472,6.832,1.417l-1.622,3.904c-1.679-0.84-3.426-1.26-5.241-1.26
		c-2.11,0-3.799,0.708-5.069,2.125c-1.269,1.417-1.904,3.321-1.904,5.714c0,2.497,0.513,4.403,1.535,5.721
		c1.022,1.316,2.511,1.975,4.463,1.975c1.018,0,2.051-0.105,3.101-0.314v-4.801h-4.36V22.891z"/>
</g>
<polygon fill="#707071" points="37.282,27.959 37.282,22.583 34.561,22.583 34.561,27.959 29.187,27.959 29.187,30.679 
	34.561,30.679 34.561,36.053 37.282,36.053 37.282,30.679 42.656,30.679 42.656,27.959 "/>
</svg>
