<svg width="120" height="40" viewBox="0 0 120 40" fill="none" xmlns="http://www.w3.org/2000/svg">
<g clip-path="url(#clip0)">
<path d="M110.444 0.00013H9.56145C9.19372 0.00013 8.8304 0.00013 8.46364 0.00213C8.15663 0.00413 7.85207 0.00994 7.54211 0.01483C6.86874 0.0227318 6.19695 0.0818063 5.53259 0.19154C4.86915 0.303663 4.2265 0.515046 3.62637 0.81854C3.02697 1.1246 2.47929 1.5223 2.00318 1.9972C1.52457 2.47077 1.12561 3.01815 0.82165 3.61829C0.516847 4.21724 0.305496 4.85907 0.194896 5.52161C0.083244 6.18332 0.0231632 6.85265 0.0151925 7.52361C0.00588648 7.83021 0.00490373 8.13783 0 8.44447V31.5587C0.00490373 31.8692 0.00588648 32.17 0.0151925 32.4806C0.0231657 33.1516 0.0832464 33.8209 0.194896 34.4825C0.30519 35.1455 0.516554 35.7877 0.82165 36.3868C1.12548 36.985 1.52449 37.5302 2.00318 38.0011C2.47748 38.4781 3.02552 38.8761 3.62637 39.1798C4.2265 39.4841 4.86908 39.6968 5.53259 39.8106C6.19707 39.9195 6.86879 39.9786 7.54211 39.9874C7.85207 39.9942 8.15663 39.9981 8.46364 39.9981C8.83039 40.0001 9.19374 40.0001 9.56145 40.0001H110.444C110.804 40.0001 111.171 40.0001 111.531 39.9981C111.837 39.9981 112.15 39.9942 112.455 39.9874C113.128 39.9791 113.798 39.92 114.461 39.8106C115.127 39.696 115.772 39.4834 116.375 39.1798C116.975 38.8759 117.522 38.478 117.996 38.0011C118.474 37.5284 118.874 36.9836 119.181 36.3868C119.484 35.7872 119.693 35.1451 119.802 34.4825C119.914 33.8208 119.976 33.1516 119.988 32.4806C119.992 32.17 119.992 31.8692 119.992 31.5587C120 31.1954 120 30.8341 120 30.4649V9.53626C120 9.17005 120 8.80677 119.992 8.44447C119.992 8.13783 119.992 7.83021 119.988 7.52357C119.976 6.85255 119.914 6.18337 119.802 5.52157C119.693 4.85941 119.484 4.21763 119.181 3.61825C118.562 2.41533 117.581 1.43616 116.375 0.81845C115.772 0.515697 115.127 0.30437 114.461 0.19145C113.798 0.0812328 113.128 0.0221378 112.455 0.01469C112.15 0.00981 111.837 0.00395 111.531 0.002C111.171 0 110.804 0 110.444 0V0.00013Z" fill="#A6A6A6"/>
<path d="M8.46856 39.125C8.16303 39.125 7.86487 39.1211 7.56174 39.1143C6.93376 39.1061 6.30725 39.0516 5.68735 38.9512C5.10932 38.8519 4.54937 38.6673 4.02596 38.4033C3.50735 38.1415 3.03433 37.7983 2.62504 37.3867C2.20981 36.98 1.86412 36.5082 1.60166 35.9902C1.33631 35.4688 1.15267 34.9099 1.05714 34.333C0.953972 33.7131 0.898156 33.0863 0.890169 32.458C0.883812 32.2471 0.875488 31.5449 0.875488 31.5449V8.44434C0.875488 8.44434 0.884353 7.75293 0.89022 7.5498C0.897867 6.92248 0.953358 6.29665 1.05621 5.67773C1.15192 5.09925 1.3357 4.53875 1.6012 4.01563C1.8627 3.49794 2.20647 3.02586 2.61919 2.61768C3.03145 2.20562 3.50597 1.8606 4.02547 1.59521C4.54767 1.33209 5.10657 1.14873 5.68343 1.05127C6.30537 0.949836 6.93405 0.894996 7.5642 0.88721L8.46906 0.875H111.526L112.442 0.8877C113.066 0.895099 113.689 0.94945 114.305 1.05029C114.888 1.14898 115.453 1.33362 115.981 1.59814C117.022 2.13299 117.869 2.97916 118.403 4.01807C118.664 4.53758 118.845 5.09351 118.939 5.66699C119.044 6.29099 119.102 6.92174 119.114 7.5542C119.117 7.8374 119.117 8.1416 119.117 8.44434C119.125 8.81934 119.125 9.17627 119.125 9.53613V30.4648C119.125 30.8281 119.125 31.1826 119.117 31.54C119.117 31.8652 119.117 32.1631 119.113 32.4697C119.101 33.0909 119.044 33.7104 118.941 34.3232C118.848 34.9043 118.665 35.4675 118.4 35.9932C118.136 36.5056 117.792 36.9733 117.381 37.3789C116.972 37.7927 116.498 38.1379 115.978 38.4014C115.451 38.6674 114.887 38.8527 114.305 38.9512C113.686 39.0522 113.059 39.1067 112.431 39.1143C112.137 39.1211 111.83 39.125 111.531 39.125L110.444 39.127L8.46856 39.125Z" fill="#002B55"/>
<path d="M24.8384 20.3013C24.8492 19.4666 25.0715 18.6483 25.4847 17.9223C25.8978 17.1964 26.4885 16.5864 27.2015 16.1492C26.7485 15.5041 26.1509 14.9731 25.4561 14.5986C24.7614 14.224 23.9886 14.0162 23.1992 13.9916C21.5152 13.8153 19.8827 14.9964 19.0246 14.9964C18.1499 14.9964 16.8287 14.0091 15.406 14.0383C14.4857 14.0679 13.5889 14.3348 12.8028 14.8128C12.0167 15.2909 11.3682 15.9638 10.9205 16.7661C8.98105 20.1145 10.4277 25.0356 12.2855 27.7422C13.215 29.0676 14.3013 30.548 15.7228 30.4955C17.1137 30.438 17.6332 29.611 19.3122 29.611C20.9756 29.611 21.463 30.4955 22.9133 30.4621C24.4058 30.438 25.3462 29.1309 26.2431 27.793C26.911 26.8486 27.4249 25.8049 27.7658 24.7005C26.8987 24.3347 26.1587 23.7226 25.6381 22.9403C25.1175 22.158 24.8394 21.2402 24.8384 20.3013Z" fill="white"/>
<path d="M22.0989 12.2113C22.9127 11.2371 23.3137 9.98494 23.2166 8.7207C21.9733 8.85092 20.8248 9.44348 20 10.3803C19.5967 10.838 19.2879 11.3704 19.0911 11.9472C18.8943 12.524 18.8134 13.1337 18.8531 13.7417C19.475 13.7481 20.0902 13.6137 20.6524 13.3486C21.2147 13.0835 21.7092 12.6946 22.0989 12.2113Z" fill="white"/>
<path d="M42.421 27.1397H37.6743L36.5344 30.4961H34.5239L39.0199 18.0781H41.1088L45.6047 30.4961H43.56L42.421 27.1397ZM38.166 25.5908H41.9285L40.0737 20.1436H40.0218L38.166 25.5908Z" fill="white"/>
<path d="M55.3145 25.9695C55.3145 28.7829 53.8044 30.5905 51.5256 30.5905C50.9483 30.6207 50.3742 30.4881 49.869 30.2079C49.3638 29.9278 48.9479 29.5114 48.6689 29.0065H48.6258V33.4909H46.7622V21.4421H48.5661V22.948H48.6004C48.8922 22.4455 49.3151 22.0313 49.8241 21.7495C50.3332 21.4676 50.9093 21.3287 51.4913 21.3474C53.7956 21.3474 55.3145 23.1638 55.3145 25.9695ZM53.399 25.9695C53.399 24.1365 52.449 22.9314 50.9997 22.9314C49.5758 22.9314 48.618 24.1618 48.618 25.9695C48.618 27.7937 49.5758 29.0154 50.9997 29.0154C52.4491 29.0154 53.399 27.8191 53.399 25.9695Z" fill="white"/>
<path d="M65.3072 25.9694C65.3072 28.7829 63.7971 30.5905 61.5182 30.5905C60.941 30.6206 60.3669 30.488 59.8617 30.2079C59.3565 29.9278 58.9406 29.5114 58.6616 29.0065H58.6185V33.4909H56.7549V21.4421H58.5588V22.948H58.593C58.8848 22.4455 59.3077 22.0313 59.8168 21.7495C60.3258 21.4676 60.902 21.3287 61.4839 21.3474C63.7883 21.3474 65.3072 23.1638 65.3072 25.9694ZM63.3917 25.9694C63.3917 24.1364 62.4417 22.9314 60.9924 22.9314C59.5684 22.9314 58.6107 24.1618 58.6107 25.9694C58.6107 27.7937 59.5684 29.0153 60.9924 29.0153C62.4417 29.0153 63.3917 27.8191 63.3917 25.9694H63.3917Z" fill="white"/>
<path d="M71.9116 27.0362C72.0497 28.2676 73.2494 29.0762 74.8887 29.0762C76.4595 29.0762 77.5896 28.2676 77.5896 27.1572C77.5896 26.1934 76.908 25.6162 75.2941 25.2207L73.6803 24.833C71.3936 24.2822 70.332 23.2158 70.332 21.4854C70.332 19.3428 72.2044 17.8711 74.8632 17.8711C77.4946 17.8711 79.2985 19.3428 79.3592 21.4854H77.478C77.3653 20.2461 76.3381 19.4981 74.8368 19.4981C73.3355 19.4981 72.3082 20.2549 72.3082 21.3565C72.3082 22.2344 72.9644 22.751 74.5694 23.1465L75.9414 23.4824C78.4964 24.0849 79.558 25.1084 79.558 26.9248C79.558 29.248 77.7022 30.7031 74.7506 30.7031C71.989 30.7031 70.1244 29.2822 70.0039 27.0361L71.9116 27.0362Z" fill="white"/>
<path d="M83.5802 19.2998V21.4424H85.3067V22.9141H83.5802V27.9053C83.5802 28.6807 83.9259 29.042 84.6849 29.042C84.8898 29.0384 85.0945 29.0241 85.2979 28.999V30.4619C84.9567 30.5255 84.6099 30.5543 84.2628 30.5478C82.4246 30.5478 81.7078 29.8593 81.7078 28.1035V22.9141H80.3877V21.4424H81.7078V19.2998H83.5802Z" fill="white"/>
<path d="M86.3066 25.9697C86.3066 23.1211 87.9891 21.3311 90.6126 21.3311C93.245 21.3311 94.9196 23.1211 94.9196 25.9697C94.9196 28.8262 93.2538 30.6084 90.6126 30.6084C87.9724 30.6084 86.3066 28.8262 86.3066 25.9697ZM93.0207 25.9697C93.0207 24.0156 92.1227 22.8623 90.6126 22.8623C89.1025 22.8623 88.2055 24.0244 88.2055 25.9697C88.2055 27.9316 89.1025 29.0762 90.6126 29.0762C92.1227 29.0762 93.0207 27.9316 93.0207 25.9697H93.0207Z" fill="white"/>
<path d="M96.4561 21.442H98.2335V22.983H98.2766C98.3969 22.5017 98.6796 22.0764 99.0773 21.7785C99.475 21.4806 99.9634 21.3284 100.46 21.3473C100.675 21.3465 100.889 21.3698 101.099 21.4166V23.1549C100.828 23.0723 100.545 23.0343 100.262 23.0426C99.9909 23.0316 99.721 23.0792 99.4704 23.1821C99.2199 23.285 98.9946 23.4408 98.8102 23.6386C98.6257 23.8365 98.4863 24.0719 98.4016 24.3286C98.317 24.5852 98.289 24.8571 98.3197 25.1256V30.4957H96.4561L96.4561 21.442Z" fill="white"/>
<path d="M109.691 27.8369C109.441 29.4805 107.836 30.6084 105.782 30.6084C103.141 30.6084 101.501 28.8437 101.501 26.0127C101.501 23.1729 103.15 21.3311 105.704 21.3311C108.216 21.3311 109.795 23.0518 109.795 25.7969V26.4336H103.383V26.5459C103.353 26.8791 103.395 27.2148 103.505 27.5306C103.616 27.8464 103.793 28.1352 104.024 28.3778C104.255 28.6203 104.535 28.8111 104.845 28.9374C105.156 29.0637 105.49 29.1226 105.825 29.1103C106.265 29.1515 106.707 29.0498 107.085 28.8203C107.463 28.5909 107.756 28.246 107.922 27.8369L109.691 27.8369ZM103.392 25.1348H107.931C107.947 24.8352 107.902 24.5354 107.797 24.2541C107.692 23.9729 107.53 23.7164 107.321 23.5006C107.111 23.2849 106.86 23.1145 106.582 23.0003C106.303 22.8861 106.004 22.8305 105.704 22.8369C105.4 22.8351 105.099 22.8933 104.819 23.008C104.538 23.1227 104.282 23.2918 104.067 23.5054C103.853 23.7191 103.682 23.973 103.566 24.2527C103.45 24.5323 103.391 24.8321 103.392 25.1348V25.1348Z" fill="white"/>
<path d="M37.9323 8.73138C38.323 8.70342 38.7151 8.76228 39.0802 8.90371C39.4453 9.04515 39.7745 9.26563 40.0438 9.54925C40.3131 9.83288 40.516 10.1726 40.6377 10.5438C40.7595 10.9151 40.7971 11.3087 40.7478 11.6962C40.7478 13.6025 39.7147 14.6982 37.9323 14.6982H35.771V8.73138H37.9323ZM36.7003 13.8544H37.8285C38.1077 13.871 38.3871 13.8254 38.6463 13.7208C38.9056 13.6161 39.1382 13.4552 39.3272 13.2496C39.5163 13.0441 39.6569 12.7991 39.739 12.5324C39.8211 12.2658 39.8426 11.9843 39.8018 11.7084C39.8396 11.4335 39.816 11.1538 39.7326 10.8891C39.6493 10.6244 39.5083 10.3814 39.3197 10.1775C39.1311 9.97358 38.8996 9.81378 38.6418 9.70954C38.384 9.6053 38.1063 9.55922 37.8285 9.57459H36.7003V13.8544Z" fill="white"/>
<path d="M41.7977 12.4448C41.7693 12.1489 41.8032 11.8503 41.8973 11.5682C41.9914 11.2862 42.1436 11.0268 42.3441 10.8068C42.5446 10.5868 42.789 10.4111 43.0616 10.2908C43.3343 10.1705 43.6291 10.1084 43.9272 10.1084C44.2253 10.1084 44.5201 10.1705 44.7927 10.2908C45.0653 10.4111 45.3097 10.5868 45.5102 10.8068C45.7107 11.0268 45.8629 11.2862 45.957 11.5682C46.0511 11.8503 46.0851 12.1489 46.0567 12.4448C46.0856 12.741 46.0521 13.04 45.9582 13.3225C45.8643 13.605 45.7122 13.8648 45.5117 14.0853C45.3111 14.3057 45.0666 14.4818 44.7937 14.6023C44.5208 14.7229 44.2256 14.7851 43.9272 14.7851C43.6287 14.7851 43.3336 14.7229 43.0607 14.6023C42.7878 14.4818 42.5432 14.3057 42.3426 14.0853C42.1421 13.8648 41.99 13.605 41.8961 13.3225C41.8023 13.04 41.7687 12.741 41.7977 12.4448ZM45.14 12.4448C45.14 11.4687 44.7003 10.8979 43.9286 10.8979C43.154 10.8979 42.7182 11.4687 42.7182 12.4448C42.7182 13.4287 43.154 13.9951 43.9286 13.9951C44.7003 13.9951 45.14 13.4248 45.14 12.4448H45.14Z" fill="white"/>
<path d="M51.7181 14.6982H50.7937L49.8604 11.3818H49.7899L48.8605 14.6982H47.9449L46.7002 10.1953H47.6041L48.413 13.6313H48.4796L49.408 10.1953H50.2629L51.1913 13.6313H51.2618L52.0668 10.1953H52.9579L51.7181 14.6982Z" fill="white"/>
<path d="M54.0049 10.1949H54.8628V10.9102H54.9293C55.0423 10.6533 55.2329 10.4379 55.4744 10.2941C55.716 10.1503 55.9965 10.0852 56.2769 10.1079C56.4966 10.0915 56.7172 10.1245 56.9224 10.2046C57.1275 10.2847 57.312 10.4098 57.4621 10.5707C57.6122 10.7315 57.7241 10.924 57.7895 11.1338C57.8549 11.3436 57.8721 11.5654 57.8398 11.7827V14.6977H56.9487V12.0059C56.9487 11.2823 56.6333 10.9224 55.9743 10.9224C55.8251 10.9155 55.6762 10.9408 55.5377 10.9966C55.3993 11.0525 55.2746 11.1375 55.1722 11.2459C55.0698 11.3543 54.9921 11.4834 54.9444 11.6246C54.8967 11.7657 54.8802 11.9154 54.896 12.0635V14.6978H54.0049L54.0049 10.1949Z" fill="white"/>
<path d="M59.2598 8.4375H60.1509V14.6982H59.2598V8.4375Z" fill="white"/>
<path d="M61.3894 12.4449C61.3611 12.1489 61.395 11.8503 61.4892 11.5683C61.5833 11.2862 61.7355 11.0268 61.936 10.8068C62.1366 10.5869 62.381 10.4111 62.6536 10.2908C62.9262 10.1705 63.2211 10.1084 63.5192 10.1084C63.8173 10.1084 64.1121 10.1705 64.3848 10.2908C64.6574 10.4111 64.9018 10.5869 65.1023 10.8068C65.3029 11.0268 65.4551 11.2862 65.5492 11.5683C65.6433 11.8503 65.6773 12.1489 65.6489 12.4449C65.6778 12.7411 65.6442 13.0401 65.5504 13.3226C65.4565 13.6051 65.3044 13.8649 65.1038 14.0853C64.9032 14.3058 64.6586 14.4819 64.3857 14.6024C64.1128 14.7229 63.8177 14.7852 63.5192 14.7852C63.2207 14.7852 62.9255 14.7229 62.6527 14.6024C62.3798 14.4819 62.1352 14.3058 61.9346 14.0853C61.734 13.8649 61.5819 13.6051 61.488 13.3226C61.3941 13.0401 61.3606 12.7411 61.3894 12.4449ZM64.7318 12.4449C64.7318 11.4688 64.2921 10.898 63.5204 10.898C62.7458 10.898 62.31 11.4688 62.31 12.4449C62.31 13.4288 62.7458 13.9952 63.5204 13.9952C64.2921 13.9952 64.7318 13.4248 64.7318 12.4449H64.7318Z" fill="white"/>
<path d="M66.5874 13.4248C66.5874 12.6142 67.1926 12.147 68.2669 12.0806L69.4901 12.0102V11.6216C69.4901 11.146 69.1747 10.8774 68.5656 10.8774C68.0681 10.8774 67.7234 11.0596 67.6245 11.3779H66.7617C66.8528 10.6045 67.5824 10.1084 68.6067 10.1084C69.7388 10.1084 70.3773 10.6704 70.3773 11.6216V14.6982H69.5194V14.0654H69.4489C69.3058 14.2924 69.1048 14.4775 68.8666 14.6017C68.6283 14.7259 68.3612 14.7848 68.0926 14.7724C67.903 14.7921 67.7114 14.7719 67.5302 14.7132C67.3489 14.6545 67.182 14.5586 67.0402 14.4316C66.8983 14.3047 66.7848 14.1495 66.7068 13.9761C66.6288 13.8026 66.5881 13.6149 66.5874 13.4248ZM69.4901 13.04V12.6636L68.3874 12.7339C67.7655 12.7754 67.4835 12.9863 67.4835 13.3833C67.4835 13.7886 67.836 14.0244 68.3208 14.0244C68.4628 14.0387 68.6063 14.0244 68.7427 13.9823C68.8791 13.9403 69.0056 13.8712 69.1147 13.7794C69.2238 13.6876 69.3132 13.5748 69.3777 13.4477C69.4422 13.3207 69.4804 13.1821 69.4901 13.04Z" fill="white"/>
<path d="M71.5483 12.4448C71.5483 11.022 72.2818 10.1206 73.4227 10.1206C73.7049 10.1077 73.985 10.1751 74.2302 10.315C74.4754 10.4548 74.6756 10.6615 74.8075 10.9106H74.8741V8.4375H75.7652V14.6982H74.9113V13.9868H74.8408C74.6988 14.2343 74.4916 14.4383 74.2416 14.5768C73.9917 14.7153 73.7085 14.783 73.4227 14.7724C72.274 14.7725 71.5483 13.8711 71.5483 12.4448ZM72.4689 12.4448C72.4689 13.3999 72.9204 13.9746 73.6754 13.9746C74.4265 13.9746 74.8907 13.3916 74.8907 12.4487C74.8907 11.5103 74.4217 10.919 73.6754 10.919C72.9252 10.919 72.4689 11.4976 72.4689 12.4448H72.4689Z" fill="white"/>
<path d="M79.4525 12.4448C79.4241 12.1489 79.458 11.8503 79.5521 11.5682C79.6462 11.2862 79.7984 11.0268 79.9989 10.8068C80.1994 10.5868 80.4438 10.4111 80.7164 10.2908C80.989 10.1705 81.2838 10.1084 81.582 10.1084C81.8801 10.1084 82.1749 10.1705 82.4475 10.2908C82.7201 10.4111 82.9645 10.5868 83.165 10.8068C83.3655 11.0268 83.5177 11.2862 83.6118 11.5682C83.7059 11.8503 83.7398 12.1489 83.7114 12.4448C83.7404 12.741 83.7068 13.04 83.613 13.3225C83.5191 13.605 83.367 13.8648 83.1665 14.0853C82.9659 14.3057 82.7213 14.4818 82.4485 14.6023C82.1756 14.7229 81.8804 14.7851 81.582 14.7851C81.2835 14.7851 80.9883 14.7229 80.7154 14.6023C80.4426 14.4818 80.198 14.3057 79.9974 14.0853C79.7969 13.8648 79.6448 13.605 79.5509 13.3225C79.4571 13.04 79.4235 12.741 79.4525 12.4448ZM82.7948 12.4448C82.7948 11.4687 82.3551 10.8979 81.5834 10.8979C80.8088 10.8979 80.373 11.4687 80.373 12.4448C80.373 13.4287 80.8088 13.9951 81.5834 13.9951C82.3551 13.9951 82.7948 13.4248 82.7948 12.4448Z" fill="white"/>
<path d="M84.9072 10.1949H85.7651V10.9102H85.8317C85.9447 10.6533 86.1352 10.4379 86.3768 10.2941C86.6183 10.1503 86.8988 10.0852 87.1792 10.1079C87.3989 10.0915 87.6196 10.1245 87.8247 10.2046C88.0299 10.2847 88.2144 10.4098 88.3645 10.5707C88.5146 10.7315 88.6265 10.924 88.6919 11.1338C88.7572 11.3436 88.7744 11.5654 88.7422 11.7827V14.6977H87.851V12.0059C87.851 11.2823 87.5357 10.9224 86.8766 10.9224C86.7274 10.9155 86.5785 10.9408 86.4401 10.9966C86.3016 11.0525 86.1769 11.1375 86.0745 11.2459C85.9721 11.3543 85.8944 11.4834 85.8467 11.6246C85.7991 11.7657 85.7826 11.9154 85.7984 12.0635V14.6978H84.9072V10.1949Z" fill="white"/>
<path d="M93.7775 9.07422V10.2158H94.7558V10.9644H93.7775V13.2798C93.7775 13.7515 93.9723 13.958 94.416 13.958C94.5295 13.9576 94.643 13.9508 94.7558 13.9375V14.6777C94.5958 14.7063 94.4336 14.7215 94.271 14.7231C93.28 14.7231 92.8853 14.3755 92.8853 13.5073V10.9643H92.1685V10.2158H92.8853V9.07422H93.7775Z" fill="white"/>
<path d="M95.9731 8.4375H96.8565V10.919H96.927C97.0454 10.6596 97.2412 10.443 97.4876 10.2987C97.734 10.1543 98.019 10.0893 98.3038 10.1123C98.5224 10.1004 98.7409 10.1368 98.9438 10.2189C99.1466 10.3009 99.3288 10.4266 99.4773 10.5869C99.6259 10.7473 99.7371 10.9383 99.803 11.1465C99.869 11.3546 99.8881 11.5747 99.859 11.791V14.6982H98.9669V12.0103C98.9669 11.291 98.631 10.9268 98.0013 10.9268C97.8481 10.9142 97.6941 10.9352 97.5499 10.9883C97.4057 11.0413 97.2749 11.1252 97.1666 11.2339C97.0583 11.3426 96.9752 11.4737 96.9229 11.6178C96.8707 11.7619 96.8507 11.9157 96.8643 12.0683V14.6982H95.9732L95.9731 8.4375Z" fill="white"/>
<path d="M105.055 13.4825C104.934 13.894 104.672 14.25 104.314 14.4882C103.957 14.7263 103.526 14.8315 103.099 14.7852C102.801 14.7931 102.506 14.7362 102.232 14.6187C101.959 14.5012 101.715 14.3258 101.516 14.1046C101.318 13.8835 101.17 13.6219 101.083 13.3381C100.996 13.0543 100.972 12.755 101.013 12.461C100.973 12.1661 100.998 11.8662 101.084 11.5815C101.171 11.2969 101.318 11.0341 101.516 10.811C101.713 10.5879 101.956 10.4098 102.229 10.2886C102.501 10.1674 102.797 10.1059 103.095 10.1085C104.351 10.1085 105.109 10.9645 105.109 12.3785V12.6886H101.921V12.7384C101.907 12.9036 101.928 13.0699 101.982 13.2267C102.036 13.3834 102.123 13.5271 102.236 13.6486C102.349 13.7701 102.487 13.8666 102.639 13.932C102.792 13.9974 102.957 14.0302 103.123 14.0284C103.336 14.0539 103.552 14.0156 103.744 13.9184C103.935 13.8212 104.093 13.6694 104.198 13.4825L105.055 13.4825ZM101.921 12.0313H104.201C104.213 11.8802 104.192 11.7284 104.141 11.5857C104.09 11.443 104.009 11.3125 103.905 11.2026C103.8 11.0928 103.674 11.006 103.533 10.9478C103.393 10.8896 103.242 10.8613 103.09 10.8648C102.936 10.8629 102.783 10.8917 102.64 10.9497C102.497 11.0076 102.368 11.0935 102.259 11.2022C102.15 11.3109 102.064 11.4403 102.006 11.5827C101.948 11.7251 101.919 11.8776 101.921 12.0313H101.921Z" fill="white"/>
</g>
<defs>
<clipPath id="clip0">
<rect width="120" height="40" fill="white"/>
</clipPath>
</defs>
</svg>
