<?xml version="1.0" encoding="utf-8"?>
<!-- Generator: Adobe Illustrator 16.0.0, SVG Export Plug-In . SVG Version: 6.00 Build 0)  -->
<!DOCTYPE svg PUBLIC "-//W3C//DTD SVG 1.1//EN" "http://www.w3.org/Graphics/SVG/1.1/DTD/svg11.dtd">
<svg version="1.1" id="Layer_1" xmlns="http://www.w3.org/2000/svg" xmlns:xlink="http://www.w3.org/1999/xlink" x="0px" y="0px"
	 width="254.367px" height="79px" viewBox="0 0 254.367 79" enable-background="new 0 0 254.367 79" xml:space="preserve">
<g display="none">
	<defs>
		<rect id="SVGID_1_" width="254.367" height="79"/>
	</defs>
	<clipPath id="SVGID_2_" display="inline">
		<use xlink:href="#SVGID_1_"  overflow="visible"/>
	</clipPath>
	<polygon display="inline" clip-path="url(#SVGID_2_)" fill="#28A64A" points="244.615,63.839 244.259,63.839 148.576,63.839 
		154.691,71.42 148.576,79 244.259,79 244.615,79 244.628,79 244.628,78.989 254.367,71.42 244.628,63.85 244.628,63.839 	"/>
</g>
<g>
	<path fill="none" d="M129.164,58.975l-1.526-0.002v3.033h1.606c0.68,0,1.182-0.132,1.504-0.389
		c0.323-0.262,0.484-0.659,0.484-1.196C131.232,59.457,130.542,58.975,129.164,58.975z"/>
	<path fill="none" d="M104.854,41.6c1.361,0,2.34-0.473,2.937-1.414c0.598-0.943,0.896-2.348,0.896-4.211
		c0-1.85-0.302-3.239-0.903-4.165c-0.603-0.926-1.591-1.39-2.963-1.39c-1.362,0-2.343,0.461-2.946,1.381
		c-0.601,0.919-0.903,2.313-0.903,4.173c0,1.855,0.304,3.253,0.912,4.203C102.492,41.124,103.483,41.6,104.854,41.6z"/>
	<path fill="none" d="M185.492,56.266c-0.777,0-1.367,0.303-1.779,0.906c-0.412,0.602-0.615,1.451-0.615,2.551
		c0,1.112,0.203,1.953,0.611,2.521c0.406,0.567,1.006,0.853,1.799,0.853c0.9,0,1.557-0.246,1.962-0.736s0.608-1.281,0.608-2.375
		v-0.278c0-1.237-0.205-2.117-0.617-2.646C187.048,56.531,186.393,56.266,185.492,56.266z"/>
	<path fill="none" d="M174.58,60.295c-0.465,0.292-0.697,0.74-0.697,1.35c0,0.479,0.146,0.842,0.435,1.092
		c0.288,0.25,0.692,0.375,1.212,0.375c0.822,0,1.469-0.227,1.938-0.678c0.471-0.449,0.703-1.082,0.703-1.893v-0.788l-1.318,0.056
		C175.8,59.846,175.042,60.007,174.58,60.295z"/>
	<path fill="none" d="M195.524,56.266c-0.7,0-1.259,0.229-1.675,0.688s-0.662,1.089-0.735,1.896h4.56
		c0-0.834-0.187-1.473-0.557-1.916C196.746,56.491,196.216,56.266,195.524,56.266z"/>
	<path fill="none" d="M141.438,29.934c-1.082,0-1.931,0.344-2.545,1.029c-0.614,0.688-0.964,1.661-1.054,2.92h7.162
		c-0.022-1.259-0.353-2.232-0.985-2.92C143.378,30.278,142.521,29.934,141.438,29.934z"/>
	<path fill="none" d="M130.521,56.704c0.299-0.206,0.447-0.55,0.447-1.026c0-0.445-0.161-0.764-0.487-0.957
		c-0.326-0.195-0.842-0.293-1.548-0.293h-1.296v2.588h1.432C129.738,57.016,130.22,56.911,130.521,56.704z"/>
	<path fill="none" d="M208.005,37.574c-0.726,0.492-1.094,1.234-1.094,2.246c0,1.434,0.83,2.154,2.482,2.154
		c1.184,0,2.134-0.34,2.83-1.02c0.712-0.686,1.063-1.585,1.063-2.71v-1.547l-1.967,0.071
		C209.832,36.815,208.733,37.081,208.005,37.574z"/>
	<path fill="none" d="M233.805,56.266c-0.701,0-1.259,0.229-1.675,0.688c-0.416,0.457-0.662,1.089-0.736,1.896h4.561
		c0-0.834-0.187-1.473-0.558-1.916C235.026,56.491,234.494,56.266,233.805,56.266z"/>
	<path fill="none" d="M217.487,56.283c-0.864,0-1.517,0.285-1.957,0.854c-0.442,0.566-0.663,1.412-0.663,2.536
		c0,1.113,0.223,1.963,0.67,2.548c0.446,0.582,1.101,0.875,1.965,0.875c0.865,0,1.521-0.291,1.97-0.871
		c0.448-0.582,0.673-1.434,0.673-2.552c0-1.106-0.225-1.948-0.673-2.526C219.024,56.572,218.363,56.283,217.487,56.283z"/>
	<path fill="none" d="M46.683,78.334c12.667-5,21.667-13.667,21.667-13.667l42,1.333c0,0,55.333,0.667,56.333,0.667
		s86.667-2.333,86.667-2.333s7-43,7-49s-9.333-36.667-27-36.667S64.017-19,57.683-16S14.317-11,2-12s-28.65-4.667-28.65-2
		S-2.317,63-2.317,63S34.017,83.334,46.683,78.334z M36.141,73c-5.566,0-10.804-1.406-15.387-3.854V45.973h8.078V41.85h-8.078v-6.14
		h8.681v-4.137H15.789v34.28C8.334,59.877,3.553,50.71,3.553,40.415c0-18.001,14.588-32.592,32.587-32.592
		c9.087,0,17.285,3.716,23.2,9.705l-8.251,4.746l1.926,1.117L40.25,42.665l-3.23-5.303h-5.601l5.825,8.85l-6.137,9.25h5.606
		l3.821-6.192l3.802,6.192h5.624l-6.172-9.25l13.516-20.336l2.045,1.182l0.007-9.501c5.802,5.881,9.375,13.947,9.376,22.856
		C68.732,58.409,54.142,73,36.141,73z M91.901,31.456v4.235h-8.299v9.674h-5.105V20.896h14.024v4.252h-8.919v6.308H91.901z
		 M95.768,35.973c0-3.055,0.798-5.433,2.394-7.127c1.595-1.696,3.838-2.544,6.727-2.544c1.797,0,3.381,0.39,4.754,1.17
		c1.371,0.782,2.426,1.903,3.162,3.365c0.735,1.465,1.104,3.177,1.104,5.136c0,3.048-0.804,5.429-2.41,7.149
		c-1.606,1.717-3.843,2.576-6.71,2.576c-1.797,0-3.381-0.394-4.754-1.181c-1.372-0.785-2.426-1.916-3.162-3.388
		C96.137,39.657,95.768,37.939,95.768,35.973z M118.125,45.364v-18.71h3.866l0.754,3.148h0.251c0.579-1.049,1.364-1.896,2.35-2.538
		c0.989-0.641,2.061-0.961,3.222-0.961c0.691,0,1.266,0.049,1.725,0.15l-0.387,4.787c-0.412-0.109-0.914-0.167-1.505-0.167
		c-1.63,0-2.898,0.417-3.807,1.253c-0.91,0.838-1.365,2.009-1.365,3.517v9.521H118.125z M139.012,40.678
		c0.803,0.815,1.93,1.223,3.381,1.223c1.127,0,2.192-0.119,3.196-0.354c1.006-0.232,2.052-0.607,3.146-1.122v3.952
		c-0.894,0.446-1.847,0.777-2.862,0.995c-1.017,0.22-2.254,0.326-3.715,0.326c-3.014,0-5.367-0.83-7.064-2.491
		c-1.694-1.665-2.543-4.02-2.543-7.065c0-3.133,0.785-5.558,2.352-7.271c1.568-1.713,3.735-2.569,6.502-2.569
		c2.645,0,4.703,0.753,6.176,2.259c1.475,1.507,2.209,3.588,2.209,6.242v2.479h-12.064C137.78,38.73,138.21,39.863,139.012,40.678z
		 M151.746,26.654h5.791l3.562,5.848l10.604-16.75l-2.862-1.659l10.018-5.764l-0.018,11.559l-2.854-1.654l-11.281,17.837
		l6.201,9.294H165.1l-3.935-6.409l-3.945,6.409h-5.792l6.343-9.555L151.746,26.654z M192.425,26.209l-6.316,19.165h-4.75
		l-5.886-19.196h-0.149c0.209,3.902,0.313,6.506,0.313,7.81v11.386h-4.631v-17.79l4.429-6.681h2.633l5.788,18.714h0.105
		l6.139-18.714h7.061v24.471h-4.842V33.791c0-0.548,0.01-1.179,0.027-1.891c0.02-0.718,0.094-2.61,0.227-5.691H192.425z
		 M210.376,30.055c-1.489,0-3.248,0.459-5.271,1.359l-1.685-3.446c2.149-1.126,4.537-1.691,7.16-1.691
		c2.508,0,4.434,0.545,5.771,1.636c1.33,1.097,2.011,2.761,2.011,4.991v12.47h-3.567l-0.991-2.543h-0.128
		c-0.857,1.071-1.738,1.828-2.651,2.248c-0.917,0.415-2.099,0.623-3.558,0.623c-1.799,0-3.217-0.515-4.241-1.533
		c-1.031-1.033-1.55-2.496-1.55-4.384c0-1.989,0.695-3.455,2.086-4.4c1.396-0.94,3.482-1.462,6.285-1.561l3.238-0.102v-0.818
		C213.287,31.007,212.321,30.055,210.376,30.055z M223.617,45.373V26.662h3.866l0.749,3.146h0.252
		c0.582-1.045,1.364-1.897,2.354-2.536c0.99-0.644,2.063-0.961,3.226-0.961c0.687,0,1.263,0.048,1.718,0.147l-0.387,4.787
		c-0.409-0.11-0.909-0.168-1.497-0.168c-1.64,0-2.899,0.423-3.806,1.26c-0.918,0.833-1.373,2.006-1.373,3.514v9.522H223.617z
		 M250.274,44.855c-1.269,0.563-2.833,0.847-4.683,0.847c-2.047,0-3.527-0.513-4.463-1.541c-0.934-1.039-1.4-2.585-1.4-4.647v-9.016
		h-2.438v-2.164l2.813-1.707l1.471-3.949h3.264v3.983h5.234v3.837h-5.234v9.016c0,0.725,0.201,1.264,0.613,1.609
		c0.408,0.344,0.944,0.518,1.616,0.518c0.89,0,1.956-0.195,3.207-0.588V44.855z M86.644,53.609H82.96V64.04h-0.001h-1.353V53.609
		h-3.684v-1.201h8.722V53.609z M95.482,64.041h-1.32V64.04V58.4c0-0.711-0.162-1.242-0.486-1.592
		c-0.324-0.35-0.83-0.526-1.519-0.526c-0.919,0-1.588,0.25-2.01,0.749c-0.422,0.496-0.632,1.314-0.632,2.451v4.558h-1.321V51.66
		h1.321v3.748c0,0.449-0.021,0.824-0.064,1.121h0.08c0.259-0.42,0.63-0.748,1.109-0.99c0.48-0.241,1.028-0.361,1.644-0.361
		c1.066,0,1.866,0.254,2.399,0.76c0.533,0.508,0.799,1.311,0.799,2.416V64.041z M99.518,64.04h-1.321v-8.72h1.321V64.04z
		 M99.413,53.622c-0.153,0.146-0.337,0.221-0.549,0.221c-0.222,0-0.408-0.075-0.557-0.221c-0.148-0.146-0.222-0.367-0.222-0.665
		c0-0.303,0.074-0.523,0.222-0.663c0.149-0.142,0.335-0.212,0.557-0.212c0.213,0,0.396,0.072,0.549,0.216
		c0.154,0.144,0.231,0.362,0.231,0.659C99.644,53.255,99.567,53.477,99.413,53.622z M109.609,64.039h-1.323v0.001v-0.001V58.4
		c0-0.711-0.162-1.242-0.486-1.592c-0.324-0.35-0.83-0.526-1.519-0.526c-0.913,0-1.582,0.247-2.006,0.741
		c-0.423,0.492-0.635,1.308-0.635,2.442v4.575h-1.321V55.32h1.074l0.215,1.193h0.064c0.271-0.43,0.649-0.763,1.138-0.998
		c0.489-0.236,1.032-0.354,1.631-0.354c1.051,0,1.842,0.252,2.372,0.759c0.53,0.508,0.796,1.316,0.796,2.43V64.039z M117.699,64.041
		l-3.079-4.121l-0.995,0.859v3.262h-1.306V51.66h1.306v6.564c0,0.293-0.022,0.742-0.064,1.353h0.064
		c0.228-0.323,0.576-0.747,1.042-1.272l2.817-2.984h1.568l-3.532,3.717l3.778,5.004H117.699z M132.646,63.148
		c-0.768,0.596-1.809,0.892-3.123,0.892h-4.352V52.409h-0.001h0.001h3.62c1.649,0,2.849,0.233,3.592,0.702
		c0.746,0.47,1.119,1.219,1.119,2.24c0,0.695-0.164,1.267-0.489,1.709c-0.326,0.447-0.761,0.715-1.302,0.807v0.076
		c0.738,0.166,1.271,0.475,1.597,0.926c0.325,0.449,0.487,1.049,0.487,1.797C133.794,61.729,133.412,62.557,132.646,63.148z
		 M138.585,64.04h-2.467V52.408h2.467V64.04z M150.544,63.54c-0.748,0.243-1.451,0.416-2.111,0.513
		c-0.66,0.098-1.335,0.146-2.023,0.146c-1.757,0-3.098-0.516-4.022-1.547c-0.927-1.032-1.39-2.514-1.39-4.444
		c0-1.877,0.539-3.342,1.612-4.394c1.075-1.047,2.563-1.572,4.468-1.572c1.194,0,2.346,0.236,3.453,0.714l-0.82,1.976
		c-0.848-0.426-1.73-0.638-2.648-0.638c-1.066,0-1.92,0.358-2.563,1.072c-0.642,0.719-0.963,1.681-0.963,2.89
		c0,1.264,0.258,2.229,0.776,2.893c0.517,0.666,1.269,1,2.255,1c0.516,0,1.037-0.053,1.568-0.16v-2.428h-2.204l-0.001-2.052h4.613
		V63.54z M164.947,53.609h-3.683V64.04h-0.001h-1.354V53.609h-3.683v-1.201h8.72V53.609z M171.335,56.482
		c-0.36-0.078-0.678-0.117-0.955-0.117c-0.705,0-1.31,0.285-1.811,0.857c-0.502,0.572-0.752,1.286-0.752,2.143v4.678h-1.32V55.32
		h1.09l0.15,1.617h0.064c0.322-0.567,0.713-1.006,1.17-1.313s0.959-0.462,1.505-0.462c0.387,0,0.733,0.031,1.042,0.095
		L171.335,56.482z M179.496,64.041h-0.979V64.04h-0.002l-0.263-1.241h-0.063c-0.437,0.549-0.869,0.916-1.301,1.111
		c-0.433,0.193-0.974,0.289-1.619,0.289c-0.864,0-1.541-0.223-2.033-0.666c-0.491-0.445-0.735-1.081-0.735-1.902
		c0-1.762,1.408-2.684,4.227-2.768l1.479-0.049v-0.543c0-0.684-0.146-1.188-0.439-1.516c-0.296-0.324-0.768-0.49-1.413-0.49
		c-0.728,0-1.549,0.225-2.468,0.67l-0.405-1.011c0.431-0.231,0.899-0.416,1.413-0.55c0.512-0.132,1.023-0.198,1.54-0.198
		c1.04,0,1.81,0.23,2.312,0.692c0.5,0.462,0.752,1.201,0.752,2.22V64.041z M189.398,64.04h-1.074l-0.177-1.17h-0.071
		c-0.611,0.887-1.522,1.328-2.736,1.328c-1.141,0-2.026-0.386-2.661-1.166c-0.634-0.781-0.952-1.89-0.952-3.327
		s0.318-2.555,0.955-3.35c0.637-0.797,1.523-1.193,2.656-1.193c1.185,0,2.092,0.431,2.723,1.287h0.104l-0.056-0.629l-0.032-0.61
		v-3.55h1.322V64.04z M199.089,59.918h-6.008c0.025,1.025,0.283,1.803,0.774,2.332c0.491,0.531,1.183,0.795,2.073,0.795
		c0.939,0,1.867-0.197,2.785-0.588v1.177c-0.469,0.201-0.909,0.347-1.325,0.435c-0.415,0.088-0.917,0.131-1.505,0.131
		c-1.29,0-2.309-0.393-3.055-1.176c-0.744-0.787-1.117-1.877-1.117-3.271c0-1.406,0.348-2.521,1.039-3.352
		c0.691-0.826,1.621-1.24,2.789-1.24c1.092,0,1.957,0.359,2.594,1.078s0.955,1.666,0.955,2.845V59.918z M212.259,53.609h-5.133
		v4.258h4.822v1.199h-4.822v4.974h-1.354V52.408h6.486V53.609z M220.438,63.003c-0.717,0.798-1.706,1.196-2.969,1.196
		c-0.778,0-1.47-0.182-2.075-0.549c-0.605-0.365-1.07-0.892-1.4-1.575c-0.33-0.683-0.494-1.484-0.494-2.402
		c0-1.421,0.354-2.53,1.065-3.321c0.711-0.793,1.697-1.188,2.96-1.188c1.221,0,2.188,0.407,2.909,1.218
		c0.718,0.809,1.077,1.908,1.077,3.292C221.511,61.096,221.155,62.205,220.438,63.003z M228.666,56.482
		c-0.36-0.078-0.68-0.117-0.955-0.117c-0.705,0-1.31,0.285-1.811,0.857s-0.753,1.286-0.753,2.143v4.678h-1.319V55.32h1.09
		l0.15,1.617h0.063c0.322-0.567,0.714-1.006,1.172-1.313c0.457-0.308,0.959-0.462,1.504-0.462c0.387,0,0.734,0.031,1.042,0.095
		L228.666,56.482z M237.371,59.918h-6.009c0.026,1.025,0.284,1.803,0.775,2.332c0.491,0.531,1.182,0.795,2.073,0.795
		c0.938,0,1.865-0.197,2.783-0.588v1.177c-0.467,0.201-0.908,0.347-1.324,0.435c-0.414,0.088-0.916,0.131-1.506,0.131
		c-1.289,0-2.308-0.393-3.052-1.176c-0.745-0.787-1.118-1.877-1.118-3.271c0-1.406,0.346-2.521,1.037-3.352
		c0.693-0.826,1.622-1.24,2.789-1.24c1.094,0,1.957,0.359,2.596,1.078c0.635,0.719,0.955,1.666,0.955,2.845V59.918z M244.938,64.04
		l-2.442-3.532l-2.469,3.532h-1.496l3.191-4.463l-3.032-4.257h1.503l2.301,3.342l2.291-3.342h1.489l-3.032,4.257l3.191,4.463
		H244.938z"/>
	<polygon fill="#333333" points="77.922,53.609 81.606,53.609 81.606,64.04 82.959,64.04 82.96,64.04 82.96,53.609 86.644,53.609 
		86.644,52.408 77.922,52.408 	"/>
	<path fill="#333333" d="M92.284,55.178c-0.616,0-1.164,0.12-1.644,0.361c-0.479,0.242-0.85,0.57-1.109,0.99h-0.08
		c0.043-0.297,0.064-0.672,0.064-1.121V51.66h-1.321v12.38h1.321v-4.558c0-1.137,0.21-1.955,0.632-2.451
		c0.422-0.499,1.091-0.749,2.01-0.749c0.689,0,1.195,0.177,1.519,0.526c0.324,0.35,0.486,0.881,0.486,1.592v5.64v0.001h1.32v-5.688
		c0-1.105-0.266-1.908-0.799-2.416C94.15,55.432,93.35,55.178,92.284,55.178z"/>
	<path fill="#333333" d="M98.864,52.082c-0.222,0-0.408,0.07-0.557,0.212c-0.148,0.14-0.222,0.36-0.222,0.663
		c0,0.298,0.074,0.52,0.222,0.665c0.149,0.146,0.335,0.221,0.557,0.221c0.212,0,0.396-0.075,0.549-0.221
		c0.154-0.146,0.231-0.367,0.231-0.665c0-0.297-0.077-0.516-0.231-0.659C99.26,52.154,99.077,52.082,98.864,52.082z"/>
	<rect x="98.197" y="55.32" fill="#333333" width="1.321" height="8.72"/>
	
		<line fill="none" stroke="#333333" stroke-width="0" stroke-linecap="round" stroke-linejoin="round" x1="108.286" y1="64.039" x2="108.286" y2="64.04"/>
	<path fill="#333333" d="M106.441,55.161c-0.599,0-1.142,0.118-1.631,0.354c-0.489,0.235-0.867,0.568-1.138,0.998h-0.064
		l-0.215-1.193h-1.074v8.721h1.321v-4.575c0-1.135,0.212-1.95,0.635-2.442c0.424-0.494,1.093-0.741,2.006-0.741
		c0.689,0,1.195,0.177,1.519,0.526c0.324,0.35,0.486,0.881,0.486,1.592v5.639h1.323V58.35c0-1.113-0.266-1.922-0.796-2.43
		C108.283,55.413,107.492,55.161,106.441,55.161z"/>
	<path fill="#333333" d="M119.052,55.32h-1.568l-2.817,2.984c-0.466,0.525-0.814,0.949-1.042,1.272h-0.064
		c0.042-0.61,0.064-1.06,0.064-1.353V51.66h-1.306v12.381h1.306v-3.262l0.995-0.859l3.079,4.121h1.599l-3.778-5.004L119.052,55.32z"
		/>
	
		<line fill="none" stroke="#333333" stroke-width="0" stroke-linecap="round" stroke-linejoin="round" x1="125.171" y1="52.409" x2="125.17" y2="52.409"/>
	<path fill="#333333" d="M131.71,57.943v-0.076c0.541-0.092,0.976-0.359,1.302-0.807c0.325-0.442,0.489-1.014,0.489-1.709
		c0-1.021-0.373-1.771-1.119-2.24c-0.743-0.469-1.942-0.702-3.592-0.702h-3.62V64.04h4.352c1.314,0,2.355-0.296,3.123-0.892
		c0.766-0.592,1.148-1.42,1.148-2.482c0-0.748-0.162-1.348-0.487-1.797C132.981,58.418,132.449,58.109,131.71,57.943z
		 M127.637,54.428h1.296c0.706,0,1.222,0.098,1.548,0.293c0.326,0.193,0.487,0.512,0.487,0.957c0,0.477-0.148,0.82-0.447,1.026
		c-0.301,0.207-0.783,0.312-1.452,0.312h-1.432V54.428z M130.748,61.617c-0.322,0.257-0.824,0.389-1.504,0.389h-1.606v-3.033
		l1.526,0.002c1.379,0,2.068,0.482,2.068,1.446C131.232,60.958,131.071,61.355,130.748,61.617z"/>
	<rect x="136.119" y="52.408" fill="#333333" width="2.467" height="11.632"/>
	<path fill="#333333" d="M145.932,59.561h2.204v2.428c-0.531,0.107-1.053,0.16-1.568,0.16c-0.986,0-1.738-0.334-2.255-1
		c-0.519-0.664-0.776-1.629-0.776-2.893c0-1.209,0.321-2.171,0.963-2.89c0.643-0.714,1.496-1.072,2.563-1.072
		c0.918,0,1.801,0.212,2.648,0.638l0.82-1.976c-1.107-0.478-2.259-0.714-3.453-0.714c-1.904,0-3.393,0.525-4.468,1.572
		c-1.073,1.052-1.612,2.517-1.612,4.394c0,1.931,0.463,3.412,1.39,4.444c0.925,1.031,2.266,1.547,4.022,1.547
		c0.688,0,1.363-0.049,2.023-0.146c0.66-0.097,1.363-0.27,2.111-0.513v-6.031h-4.613L145.932,59.561z"/>
	<polygon fill="#28A64A" points="156.227,53.609 159.91,53.609 159.91,64.04 161.263,64.04 161.264,64.04 161.264,53.609 
		164.947,53.609 164.947,52.408 156.227,52.408 	"/>
	<path fill="#28A64A" d="M168.972,55.624c-0.457,0.308-0.848,0.746-1.17,1.313h-0.064l-0.15-1.617h-1.09v8.723h1.32v-4.678
		c0-0.856,0.25-1.57,0.752-2.143c0.501-0.572,1.105-0.857,1.811-0.857c0.277,0,0.595,0.039,0.955,0.117l0.184-1.226
		c-0.309-0.063-0.655-0.095-1.042-0.095C169.931,55.162,169.429,55.316,168.972,55.624z"/>
	<path fill="#28A64A" d="M176.432,55.177c-0.517,0-1.028,0.066-1.54,0.198c-0.514,0.134-0.982,0.318-1.413,0.55l0.405,1.011
		c0.919-0.445,1.74-0.67,2.468-0.67c0.646,0,1.117,0.166,1.413,0.49c0.294,0.328,0.439,0.832,0.439,1.516v0.543l-1.479,0.049
		c-2.818,0.084-4.227,1.006-4.227,2.768c0,0.821,0.244,1.457,0.735,1.902c0.492,0.443,1.169,0.666,2.033,0.666
		c0.646,0,1.187-0.096,1.619-0.289c0.432-0.195,0.864-0.563,1.301-1.111h0.063l0.263,1.241h0.002v0.001h0.979v-5.952
		c0-1.019-0.252-1.758-0.752-2.22C178.242,55.407,177.472,55.177,176.432,55.177z M178.169,60.541c0,0.811-0.232,1.443-0.703,1.893
		c-0.469,0.451-1.115,0.678-1.938,0.678c-0.52,0-0.924-0.125-1.212-0.375c-0.289-0.25-0.435-0.612-0.435-1.092
		c0-0.609,0.232-1.058,0.697-1.35c0.463-0.288,1.221-0.449,2.271-0.486l1.318-0.056V60.541z"/>
	<path fill="#28A64A" d="M188.076,55.21l0.032,0.61l0.056,0.629h-0.104c-0.631-0.856-1.538-1.287-2.723-1.287
		c-1.133,0-2.02,0.396-2.656,1.193c-0.637,0.795-0.955,1.912-0.955,3.35s0.318,2.546,0.952,3.327
		c0.635,0.78,1.521,1.166,2.661,1.166c1.214,0,2.125-0.441,2.736-1.328h0.071l0.177,1.17h1.074V51.66h-1.322V55.21z M188.078,59.984
		c0,1.094-0.203,1.885-0.608,2.375s-1.062,0.736-1.962,0.736c-0.793,0-1.393-0.285-1.799-0.853
		c-0.408-0.567-0.611-1.408-0.611-2.521c0-1.1,0.203-1.949,0.615-2.551c0.412-0.604,1.002-0.906,1.779-0.906
		c0.901,0,1.557,0.266,1.969,0.795c0.412,0.528,0.617,1.408,0.617,2.646V59.984z"/>
	<path fill="#28A64A" d="M195.541,55.16c-1.168,0-2.098,0.414-2.789,1.24c-0.691,0.83-1.039,1.945-1.039,3.352
		c0,1.395,0.373,2.484,1.117,3.271c0.746,0.783,1.765,1.176,3.055,1.176c0.588,0,1.09-0.043,1.505-0.131
		c0.416-0.088,0.856-0.233,1.325-0.435v-1.177c-0.918,0.391-1.846,0.588-2.785,0.588c-0.891,0-1.582-0.264-2.073-0.795
		c-0.491-0.529-0.749-1.307-0.774-2.332h6.008v-0.835c0-1.179-0.318-2.126-0.955-2.845S196.632,55.16,195.541,55.16z M193.114,58.85
		c0.073-0.808,0.319-1.438,0.735-1.896s0.975-0.688,1.675-0.688c0.692,0,1.222,0.226,1.593,0.668
		c0.37,0.443,0.557,1.082,0.557,1.916H193.114z"/>
	<polygon fill="#28A64A" points="205.773,64.04 207.126,64.04 207.126,59.066 211.949,59.066 211.949,57.867 207.126,57.867 
		207.126,53.609 212.259,53.609 212.259,52.408 205.773,52.408 	"/>
	<path fill="#28A64A" d="M217.525,55.163c-1.263,0-2.249,0.396-2.96,1.188c-0.711,0.791-1.065,1.9-1.065,3.321
		c0,0.918,0.164,1.72,0.494,2.402c0.33,0.684,0.795,1.21,1.4,1.575c0.605,0.367,1.297,0.549,2.075,0.549
		c1.263,0,2.252-0.398,2.969-1.196s1.073-1.907,1.073-3.33c0-1.384-0.359-2.483-1.077-3.292
		C219.712,55.57,218.746,55.163,217.525,55.163z M219.471,62.225c-0.448,0.58-1.104,0.871-1.97,0.871
		c-0.864,0-1.519-0.293-1.965-0.875c-0.447-0.585-0.67-1.435-0.67-2.548c0-1.124,0.221-1.97,0.663-2.536
		c0.44-0.568,1.093-0.854,1.957-0.854c0.876,0,1.537,0.289,1.984,0.863c0.448,0.578,0.673,1.42,0.673,2.526
		C220.144,60.791,219.919,61.643,219.471,62.225z"/>
	<path fill="#28A64A" d="M226.302,55.624c-0.458,0.308-0.85,0.746-1.172,1.313h-0.063l-0.15-1.617h-1.09v8.723h1.319v-4.678
		c0-0.856,0.252-1.57,0.753-2.143s1.105-0.857,1.811-0.857c0.275,0,0.595,0.039,0.955,0.117l0.183-1.226
		c-0.308-0.063-0.655-0.095-1.042-0.095C227.261,55.162,226.759,55.316,226.302,55.624z"/>
	<path fill="#28A64A" d="M233.82,55.16c-1.167,0-2.096,0.414-2.789,1.24c-0.691,0.83-1.037,1.945-1.037,3.352
		c0,1.395,0.373,2.484,1.118,3.271c0.744,0.783,1.763,1.176,3.052,1.176c0.59,0,1.092-0.043,1.506-0.131
		c0.416-0.088,0.857-0.233,1.324-0.435v-1.177c-0.918,0.391-1.846,0.588-2.783,0.588c-0.892,0-1.582-0.264-2.073-0.795
		c-0.491-0.529-0.749-1.307-0.775-2.332h6.009v-0.835c0-1.179-0.32-2.126-0.955-2.845C235.777,55.52,234.914,55.16,233.82,55.16z
		 M231.394,58.85c0.074-0.808,0.32-1.439,0.736-1.896c0.416-0.458,0.974-0.688,1.675-0.688c0.688,0,1.221,0.226,1.592,0.668
		c0.371,0.443,0.558,1.082,0.558,1.916H231.394z"/>
	<polygon fill="#28A64A" points="246.274,55.32 244.785,55.32 242.494,58.662 240.193,55.32 238.69,55.32 241.722,59.577 
		238.531,64.04 240.027,64.04 242.496,60.508 244.938,64.04 246.433,64.04 243.242,59.577 	"/>
	<polygon fill="#2A88C9" points="92.521,25.148 92.521,20.896 78.497,20.896 78.497,45.365 83.602,45.365 83.602,35.691 
		91.901,35.691 91.901,31.456 83.602,31.456 83.602,25.148 	"/>
	<path fill="#2A88C9" d="M100.035,44.518c1.373,0.787,2.957,1.181,4.754,1.181c2.867,0,5.104-0.859,6.71-2.576
		c1.606-1.72,2.41-4.101,2.41-7.149c0-1.959-0.369-3.671-1.104-5.136c-0.736-1.462-1.791-2.583-3.162-3.365
		c-1.373-0.78-2.957-1.17-4.754-1.17c-2.889,0-5.132,0.848-6.727,2.544c-1.596,1.694-2.394,4.072-2.394,7.127
		c0,1.966,0.369,3.684,1.105,5.157C97.609,42.602,98.663,43.732,100.035,44.518z M101.875,31.8c0.603-0.92,1.584-1.381,2.946-1.381
		c1.372,0,2.36,0.464,2.963,1.39c0.601,0.926,0.903,2.315,0.903,4.165c0,1.864-0.298,3.268-0.896,4.211
		c-0.597,0.941-1.576,1.414-2.937,1.414c-1.371,0-2.362-0.476-2.97-1.424c-0.608-0.949-0.912-2.348-0.912-4.203
		C100.972,34.113,101.274,32.719,101.875,31.8z"/>
	<path fill="#2A88C9" d="M124.594,32.326c0.909-0.836,2.177-1.253,3.807-1.253c0.591,0,1.093,0.058,1.505,0.167l0.387-4.787
		c-0.459-0.101-1.033-0.15-1.725-0.15c-1.161,0-2.233,0.32-3.222,0.961c-0.986,0.642-1.771,1.489-2.35,2.538h-0.251l-0.754-3.148
		h-3.866v18.71h5.104v-9.521C123.229,34.335,123.684,33.164,124.594,32.326z"/>
	<path fill="#2A88C9" d="M149.789,34.803c0-2.654-0.734-4.735-2.209-6.242c-1.473-1.506-3.531-2.259-6.176-2.259
		c-2.767,0-4.934,0.856-6.502,2.569c-1.566,1.713-2.352,4.138-2.352,7.271c0,3.045,0.849,5.4,2.543,7.065
		c1.697,1.661,4.051,2.491,7.064,2.491c1.461,0,2.698-0.106,3.715-0.326c1.016-0.218,1.969-0.549,2.862-0.995v-3.952
		c-1.094,0.515-2.14,0.89-3.146,1.122c-1.004,0.234-2.069,0.354-3.196,0.354c-1.451,0-2.578-0.407-3.381-1.223
		c-0.802-0.814-1.232-1.948-1.288-3.396h12.064V34.803z M137.839,33.883c0.09-1.259,0.439-2.232,1.054-2.92
		c0.614-0.685,1.463-1.029,2.545-1.029c1.083,0,1.94,0.344,2.578,1.029c0.633,0.688,0.963,1.661,0.985,2.92H137.839z"/>
	<polygon fill="#2A88C9" points="157.22,45.365 161.166,38.956 165.1,45.365 170.906,45.365 164.705,36.071 163.487,37.996 
		160.75,33.052 161.098,32.501 157.537,26.654 151.746,26.654 157.771,35.81 151.428,45.365 	"/>
	<path fill="#2A88C9" d="M210.048,33.824c-2.803,0.099-4.889,0.621-6.285,1.561c-1.391,0.945-2.086,2.411-2.086,4.4
		c0,1.888,0.519,3.351,1.55,4.384c1.024,1.019,2.442,1.533,4.241,1.533c1.459,0,2.641-0.208,3.558-0.623
		c0.913-0.42,1.794-1.177,2.651-2.248h0.128l0.991,2.543h3.567v-12.47c0-2.23-0.681-3.894-2.011-4.991
		c-1.338-1.091-3.264-1.636-5.771-1.636c-2.623,0-5.011,0.565-7.16,1.691l1.685,3.446c2.022-0.9,3.781-1.359,5.271-1.359
		c1.944,0,2.91,0.952,2.91,2.849v0.818L210.048,33.824z M213.287,38.245c0,1.125-0.351,2.024-1.063,2.71
		c-0.696,0.68-1.646,1.02-2.83,1.02c-1.652,0-2.482-0.721-2.482-2.154c0-1.012,0.368-1.754,1.094-2.246
		c0.728-0.493,1.826-0.759,3.314-0.805l1.967-0.071V38.245z"/>
	<path fill="#2A88C9" d="M230.091,32.337c0.906-0.837,2.166-1.26,3.806-1.26c0.588,0,1.088,0.058,1.497,0.168l0.387-4.787
		c-0.455-0.099-1.031-0.147-1.718-0.147c-1.163,0-2.235,0.317-3.226,0.961c-0.989,0.639-1.771,1.491-2.354,2.536h-0.252
		l-0.749-3.146h-3.866v18.711h5.102v-9.522C228.718,34.343,229.173,33.17,230.091,32.337z"/>
	<path fill="#2A88C9" d="M245.451,41.123c-0.412-0.346-0.613-0.885-0.613-1.609v-9.016h5.234v-3.837h-5.234v-3.983h-3.264
		l-1.471,3.949l-2.813,1.707v2.164h2.438v9.016c0,2.063,0.467,3.608,1.4,4.647c0.936,1.028,2.416,1.541,4.463,1.541
		c1.85,0,3.414-0.283,4.683-0.847v-3.803c-1.251,0.393-2.317,0.588-3.207,0.588C246.395,41.641,245.859,41.467,245.451,41.123z"/>
	<path fill="#2A88C9" d="M192.318,33.791v11.583h4.842V20.903h-7.061l-6.139,18.714h-0.105l-5.788-18.714h-2.633l-4.429,6.681v17.79
		h4.631V33.988c0-1.304-0.104-3.908-0.313-7.81h0.149l5.886,19.196h4.75l6.316-19.165h0.146c-0.133,3.081-0.207,4.973-0.227,5.691
		C192.328,32.612,192.318,33.243,192.318,33.791z"/>
	<polygon fill="#2A88C9" points="163.487,37.996 164.705,36.071 175.986,18.234 171.702,15.751 161.098,32.501 160.75,33.052 	"/>
	<polygon fill="#2A88C9" points="178.839,19.888 178.857,8.329 168.839,14.093 171.702,15.751 175.986,18.234 	"/>
	<path fill="#2986C8" d="M59.349,27.058l-2.045-1.182L43.788,46.212l6.172,9.25h-5.624l-3.802-6.192l-3.821,6.192h-5.606l6.137-9.25
		l-5.825-8.85h5.601l3.23,5.303l12.765-19.274l-1.926-1.117l8.251-4.746c-5.915-5.989-14.113-9.705-23.2-9.705
		c-17.999,0-32.587,14.591-32.587,32.592c0,10.295,4.781,19.462,12.236,25.438v-34.28h13.646v4.137h-8.681v6.14h8.078v4.123h-8.078
		v23.174C25.337,71.594,30.575,73,36.141,73c18.001,0,32.591-14.591,32.591-32.587c-0.001-8.909-3.574-16.975-9.376-22.856
		L59.349,27.058z"/>
</g>
</svg>
