<svg width="120" height="40" viewBox="0 0 120 40" fill="none" xmlns="http://www.w3.org/2000/svg">
<path fill-rule="evenodd" clip-rule="evenodd" d="M115.554 40H4.44608C1.99566 40 0 37.7456 0 35V5C0 2.24439 1.99566 0 4.44608 0H115.554C118.002 0 120 2.24439 120 5V35C120 37.7456 118.002 40 115.554 40Z" fill="white"/>
<path fill-rule="evenodd" clip-rule="evenodd" d="M115.554 0.800499C117.609 0.800499 119.291 2.68828 119.291 5V35C119.291 37.3117 117.62 39.1995 115.554 39.1995H4.44608C2.39082 39.1995 0.708635 37.3117 0.708635 35V5C0.708635 2.68828 2.37978 0.800499 4.44608 0.800499H115.554ZM115.554 0H4.44608C1.99566 0 0 2.25436 0 5V35C0 37.7556 1.99566 40 4.44608 40H115.554C118.002 40 120 37.7556 120 35V5C120 2.25436 118.002 0 115.554 0Z" fill="#A6A6A6"/>
<path d="M61.585 13C60.727 13 60.0036 12.7061 59.4316 12.1277C58.8643 11.5654 58.5476 10.7902 58.5617 9.99884C58.5617 9.15426 58.8549 8.43926 59.4316 7.87235C60.0013 7.29387 60.7246 7 61.5826 7C62.4312 7 63.1545 7.29387 63.736 7.87235C64.3128 8.45777 64.6059 9.17277 64.6059 9.99884C64.5964 10.8457 64.3033 11.5607 63.736 12.1253C63.1664 12.7084 62.443 13 61.585 13ZM36.054 13C35.2148 13 34.4868 12.7108 33.8911 12.1392C33.3002 11.57 33 10.8504 33 10.0012C33 9.15195 33.3002 8.43232 33.8911 7.86309C34.475 7.29155 35.203 7.00231 36.054 7.00231C36.47 7.00231 36.8742 7.0833 37.2619 7.24759C37.6424 7.40725 37.9521 7.62476 38.1814 7.89086L38.2381 7.95796L37.5975 8.57347L37.5313 8.49711C37.1697 8.07597 36.6851 7.87003 36.0445 7.87003C35.4725 7.87003 34.9737 8.06903 34.5624 8.4624C34.1488 8.85808 33.9384 9.3764 33.9384 10.0035C33.9384 10.6305 34.1488 11.1489 34.5624 11.5445C34.9737 11.9379 35.4725 12.1369 36.0445 12.1369C36.6544 12.1369 37.1673 11.9379 37.5668 11.5445C37.8032 11.3132 37.9497 10.9892 38.0017 10.5796H35.9476V9.71423H38.8834L38.8952 9.7929C38.9165 9.93868 38.9378 10.0891 38.9378 10.2279C38.9378 11.0262 38.6919 11.6718 38.205 12.1485C37.6519 12.7131 36.9286 13 36.054 13ZM70 12.8774H69.0947L66.322 8.53413L66.3456 9.31624V12.875H65.4403V7.12495H66.4733L66.5016 7.16892L69.1089 11.2599L69.0852 10.4801V7.12495H70V12.8774ZM54.7821 12.8774H53.8649V7.99036H52.2741V7.12495H56.3705V7.99036H54.7797V12.8774H54.7821ZM51.5272 12.8774H50.6124V7.12495H51.5272V12.8774ZM46.386 12.8774H45.4712V7.99036H43.8804V7.12495H47.9768V7.99036H46.386V12.8774ZM43.3013 12.8681H39.7935V7.12495H43.3013V7.99036H40.7106V9.56845H43.0484V10.4246H40.7106V12.0027H43.3013V12.8681ZM60.1029 11.533C60.5118 11.9333 61.0082 12.1346 61.585 12.1346C62.1783 12.1346 62.6629 11.9379 63.0671 11.533C63.4689 11.1396 63.6722 10.6236 63.6722 10.0012C63.6722 9.37871 63.4689 8.86039 63.0694 8.46934C62.6605 8.06903 62.1618 7.86772 61.5874 7.86772C60.9941 7.86772 60.5095 8.0644 60.1076 8.46934C59.7058 8.86271 59.5025 9.37871 59.5025 10.0012C59.5025 10.6236 59.7034 11.1419 60.1029 11.533Z" fill="#002B55"/>
<path fill-rule="evenodd" clip-rule="evenodd" d="M58.5516 21.4362C56.327 21.4362 54.5237 23.1156 54.5237 25.4321C54.5237 27.7276 56.3387 29.428 58.5516 29.428C60.7762 29.428 62.5795 27.7369 62.5795 25.4321C62.5795 23.1156 60.7762 21.4362 58.5516 21.4362ZM58.5516 27.8447C57.3345 27.8447 56.2869 26.8422 56.2869 25.4228C56.2869 23.9823 57.3369 23.0009 58.5516 23.0009C59.7687 23.0009 60.8163 23.9823 60.8163 25.4228C60.8186 26.8516 59.7687 27.8447 58.5516 27.8447ZM49.7637 21.4362C47.539 21.4362 45.7358 23.1156 45.7358 25.4321C45.7358 27.7276 47.5508 29.428 49.7637 29.428C51.9883 29.428 53.7916 27.7369 53.7916 25.4321C53.7916 23.1156 51.986 21.4362 49.7637 21.4362ZM49.7637 27.8447C48.5466 27.8447 47.499 26.8422 47.499 25.4228C47.499 23.9823 48.549 23.0009 49.7637 23.0009C50.9808 23.0009 52.0283 23.9823 52.0283 25.4228C52.0283 26.8516 50.9808 27.8447 49.7637 27.8447ZM39.3067 22.6566V24.3477H43.3864C43.2616 25.2963 42.9461 25.9966 42.4636 26.4768C41.8656 27.0717 40.9428 27.7182 39.3161 27.7182C36.809 27.7182 34.848 25.7038 34.848 23.2093C34.848 20.7148 36.809 18.7005 39.3161 18.7005C40.6697 18.7005 41.6561 19.2322 42.3882 19.9114L43.5935 18.7122C42.5766 17.7425 41.2229 17 39.3255 17C35.8862 17 33 19.7873 33 23.2C33 26.622 35.8838 29.3999 39.3255 29.3999C41.1829 29.3999 42.5766 28.7956 43.6783 27.6573C44.8012 26.54 45.1567 24.9637 45.1567 23.6918C45.1567 23.296 45.1261 22.94 45.0625 22.6378H39.3043C39.3067 22.6355 39.3067 22.6566 39.3067 22.6566ZM82.0787 23.9729C81.742 23.0758 80.725 21.4269 78.6393 21.4269C76.5724 21.4269 74.8539 23.0454 74.8539 25.4228C74.8539 27.6667 76.5535 29.4187 78.8394 29.4187C80.6756 29.4187 81.7444 28.3014 82.1846 27.6456L80.8216 26.7368C80.3696 27.4043 79.741 27.8423 78.8488 27.8423C77.9472 27.8423 77.3163 27.4348 76.8972 26.6314L82.267 24.4179C82.267 24.4203 82.0787 23.9729 82.0787 23.9729ZM76.603 25.308C76.5606 23.7645 77.8083 22.9798 78.7005 22.9798C79.4044 22.9798 79.9906 23.3241 80.1907 23.8254L76.603 25.308ZM72.2408 29.1798H74.004V17.4403H72.2408V29.1798ZM69.3452 22.324H69.2817C68.8838 21.8532 68.1282 21.4269 67.163 21.4269C65.1596 21.4269 63.314 23.1812 63.314 25.4345C63.314 27.6784 65.1502 29.4117 67.163 29.4117C68.1164 29.4117 68.8838 28.983 69.2817 28.5029H69.3452V29.0767C69.3452 30.6015 68.526 31.4237 67.2053 31.4237C66.1248 31.4237 65.4539 30.6507 65.1808 30.0042L63.6483 30.6413C64.0885 31.6954 65.2632 33 67.203 33C69.2699 33 71.0214 31.7891 71.0214 28.8355V21.6658H69.3546V22.324C69.357 22.324 69.3452 22.324 69.3452 22.324ZM67.3207 27.8447C66.1036 27.8447 65.0866 26.8328 65.0866 25.4345C65.0866 24.0244 66.1036 23.0032 67.3207 23.0032C68.526 23.0032 69.4606 24.0362 69.4606 25.4345C69.4724 26.8328 68.5284 27.8447 67.3207 27.8447ZM90.3345 17.4403H86.1183V29.1798H87.8816V24.7342H90.3369C92.2885 24.7342 94.2071 23.3265 94.2071 21.0919C94.2071 18.8574 92.2955 17.4403 90.3345 17.4403ZM90.3863 23.0946H87.8792V19.0659H90.3863C91.707 19.0659 92.4533 20.1503 92.4533 21.0802C92.4533 22.0007 91.6976 23.0946 90.3863 23.0946ZM101.274 21.4152C99.9935 21.4152 98.6728 21.9797 98.1267 23.2093L99.6898 23.8558C100.026 23.2093 100.643 22.9892 101.295 22.9892C102.209 22.9892 103.132 23.5326 103.153 24.5023V24.6264C102.837 24.4484 102.145 24.1767 101.317 24.1767C99.6286 24.1767 97.9172 25.0949 97.9172 26.8164C97.9172 28.3928 99.3014 29.4046 100.843 29.4046C102.027 29.4046 102.68 28.8729 103.087 28.2569H103.15V29.1657H104.85V24.6686C104.85 22.5746 103.287 21.4152 101.274 21.4152ZM101.053 27.8447C100.476 27.8447 99.6686 27.5636 99.6686 26.8422C99.6686 25.9334 100.676 25.5891 101.535 25.5891C102.312 25.5891 102.68 25.7554 103.141 25.9849C103.014 27.0389 102.119 27.8353 101.053 27.8447ZM111.051 21.6658L109.026 26.7579H108.963L106.865 21.6658H104.968L108.115 28.7839L106.321 32.74H108.158L113 21.6658H111.051ZM95.1793 29.1798H96.9426V17.4403H95.1793V29.1798Z" fill="#002B55"/>
<path d="M7.125 8.94462C7.125 8.35672 7.27805 7.92149 7.52744 7.63886L19.7546 19.909V20.0825L7.53662 32.3508C7.27957 32.0815 7.125 31.6479 7.125 31.0568V8.94462Z" fill="#002B55" stroke="white" stroke-width="0.25"/>
<path d="M24.0089 15.885L24.0089 15.8851L24.0123 15.8871L28.8801 18.6651L28.8805 18.6654C29.554 19.0463 29.862 19.534 29.862 19.9967C29.862 20.4597 29.5538 20.9499 28.8799 21.3359L24.0123 24.1138L24.0123 24.1138L24.0089 24.1158L24.0037 24.119L19.9946 20.0935V19.9074L24.0037 15.8819L24.0089 15.885Z" fill="#002B55" stroke="white" stroke-width="0.25"/>
<path d="M7.6326 32.4647L19.8698 20.1771L23.8706 24.1944L9.46237 32.4246C9.46221 32.4246 9.46205 32.4247 9.4619 32.4248C8.69477 32.8536 8.04185 32.8191 7.6326 32.4647Z" fill="#002B55" stroke="white" stroke-width="0.25"/>
<path d="M19.8697 19.8233L7.63236 7.54779C8.04051 7.19163 8.69566 7.14837 9.46117 7.5876L9.46145 7.58776L23.8705 15.806L19.8697 19.8233Z" fill="#002B55" stroke="white" stroke-width="0.25"/>
<path opacity="0.25" fill-rule="evenodd" clip-rule="evenodd" d="M11.0754 7.62329L28.3365 18.7006C28.8973 19.0572 29.213 19.5235 29.2615 19.9999C29.2615 19.4787 28.9569 18.955 28.3365 18.556L11.0754 7.47866C9.83697 6.67816 8.83252 7.34649 8.83252 8.94499V9.08963C8.83252 7.48863 9.83697 6.83277 11.0754 7.62329Z" fill="white"/>
</svg>
