<svg xmlns="http://www.w3.org/2000/svg" width="31.747" height="31.747" viewBox="0 0 31.747 31.747">
  <path id="Icon_awesome-check-square" data-name="Icon awesome-check-square" d="M28.345,34H3.4A3.4,3.4,0,0,1,0,30.6V5.651a3.4,3.4,0,0,1,3.4-3.4H28.345a3.4,3.4,0,0,1,3.4,3.4V30.6A3.4,3.4,0,0,1,28.345,34Zm-14.5-6.949L26.879,14.009a1.134,1.134,0,0,0,0-1.6l-1.6-1.6a1.134,1.134,0,0,0-1.6,0L13.039,21.436,8.074,16.471a1.134,1.134,0,0,0-1.6,0l-1.6,1.6a1.134,1.134,0,0,0,0,1.6l7.37,7.37a1.134,1.134,0,0,0,1.6,0Z" transform="translate(0 -2.25)" fill="#29a742"/>
</svg>
