<?xml version="1.0" encoding="utf-8"?>
<!-- Generator: Adobe Illustrator 16.0.0, SVG Export Plug-In . SVG Version: 6.00 Build 0)  -->
<!DOCTYPE svg PUBLIC "-//W3C//DTD SVG 1.1//EN" "http://www.w3.org/Graphics/SVG/1.1/DTD/svg11.dtd">
<svg version="1.1" id="Layer_1" xmlns="http://www.w3.org/2000/svg" xmlns:xlink="http://www.w3.org/1999/xlink" x="0px" y="0px"
	 width="256px" height="256px" viewBox="285.5 0 256 256" enable-background="new 285.5 0 256 256" xml:space="preserve">
<image display="none" overflow="visible" enable-background="new    " width="1067" height="1067" xlink:href="icon-fm-03.png"  transform="matrix(0.24 0 0 0.24 -275 0)">
</image>
<g display="none">
	<path display="inline" fill="#3D7CBF" d="M127.097,124.341c26.963,0,48.901-21.934,48.901-48.894
		c0-26.96-21.938-48.896-48.901-48.896c-26.961,0-48.895,21.934-48.895,48.896C78.202,102.408,100.136,124.341,127.097,124.341z
		 M127.097,46.083c16.185,0,29.354,13.173,29.354,29.364c0,16.191-13.169,29.363-29.354,29.363
		c-16.191,0-29.364-13.172-29.364-29.363C97.732,59.256,110.905,46.083,127.097,46.083z"/>
	<path display="inline" fill="#3D7CBF" d="M150.576,136.105h-46.961c-39.902,0-72.366,32.473-72.366,72.386v15.646
		c0,5.381,4.381,9.758,9.766,9.758h172.17c5.381,0,9.758-4.377,9.758-9.758v-15.646
		C222.941,168.578,190.479,136.105,150.576,136.105z M103.615,155.637h46.961c29.628,0,52.836,23.217,52.836,52.854v5.872H50.779
		v-5.872C50.779,178.854,73.987,155.637,103.615,155.637z"/>
</g>
<g display="none">
	<path display="inline" fill="#3D7CBF" d="M473.999,96.553h-5.414V95c0-0.584-0.012-1.175-0.023-1.781
		c-0.013-0.656-0.025-1.328-0.025-2.027c0-35.918-29.082-65.139-64.829-65.139c-35.904,0-65.124,29.209-65.137,65.114v1.553h-0.126
		v3.833h-5.324c-9.942,0-18.03,8.089-18.03,18.032v101.812c0,9.935,8.088,18.018,18.03,18.018H474c4.831,0,9.366-1.88,12.771-5.293
		c3.393-3.4,5.256-7.919,5.242-12.721V114.584C492.014,104.642,483.934,96.553,473.999,96.553z M359.104,89.526h0.115
		c0.834-23.892,20.53-43.076,44.614-43.076c24.621,0,44.652,20.026,44.652,44.641c0,1.38-0.108,2.643-0.199,3.666v1.795h-89.183
		V89.526L359.104,89.526z M471.742,204.693c0,5.166-4.204,9.371-9.372,9.371H344.771c-5.176,0-9.386-4.205-9.386-9.371V126.41
		c0-5.167,4.21-9.372,9.386-9.372H462.37c5.168,0,9.372,4.204,9.372,9.372V204.693z"/>
	<path display="inline" fill="#3D7CBF" d="M405.451,143.898h-3.896c-4.524,0-8.208,3.683-8.208,8.207v27.041
		c0,4.525,3.684,8.207,8.208,8.207h3.896c4.524,0,8.208-3.682,8.208-8.207v-27.041C413.659,147.581,409.977,143.898,405.451,143.898
		z"/>
</g>
<g display="none">
	<path display="inline" fill="#3D7CBF" d="M768.452,115.709l-0.068-3.373l-0.004-0.103c-0.591-11.72-0.591-27.053-0.591-46.465
		c0-3.841-2.737-7.449-6.411-8.514l-79.987-33.525c-2.046-0.966-4.862-0.968-6.912-0.005l-80.182,33.01l-0.234,0.106
		c-3.585,1.805-5.992,5.393-5.992,8.928c0,10.928-0.188,20.522-0.354,28.988c-0.131,6.651-0.243,12.399-0.243,17.581
		c-1.221,30.976-1.05,45.968,5.652,59.403c8.401,17.275,38.762,36.455,63.156,51.865c5.872,3.711,11.42,7.215,15.854,10.209
		c1.827,1.354,3.796,2.041,5.855,2.041c1.546,0,3.123-0.396,4.686-1.176l0.383-0.225c4.374-2.959,9.872-6.446,15.692-10.139
		c24.748-15.697,55.547-35.234,63.965-52.547C769.313,158.546,769.007,143.331,768.452,115.709z M746.045,163.436
		c-6.373,12.748-37.48,32.295-58.066,45.229c-3.896,2.446-7.354,4.621-10.346,6.556c-2.844-1.843-6.101-3.9-9.766-6.219
		c-20.558-12.997-51.593-32.621-58.622-45.543c-4.233-9.609-4.408-22.738-3.194-50.31l0.002-0.148c0-5.721,0.126-11.878,0.26-18.396
		c0.146-7.112,0.295-14.444,0.317-22.456l71.006-29.868l71.589,29.873c0.001,15.563,0.026,29.091,0.582,40.921l0.085,3.808
		C750.431,140.861,750.729,154.068,746.045,163.436z"/>
	<path display="inline" fill="#3D7CBF" d="M707.762,104.118c-1.754-1.751-4.235-2.756-6.813-2.756s-5.063,1.005-6.814,2.757
		l-24.171,24.171l-6.462-6.473c-1.778-1.779-4.096-2.758-6.523-2.758c-2.429,0-4.745,0.979-6.524,2.758
		c-3.656,3.658-3.656,9.389,0.001,13.047l12.983,12.983c1.754,1.754,4.237,2.758,6.816,2.758c2.575,0,5.063-1.002,6.828-2.758
		l30.681-30.682l0.315-0.364c2.682-3.581,2.679-8.766-0.006-12.329L707.762,104.118z"/>
</g>
<g display="none">
	<path display="inline" fill="#3D7CBF" d="M899.181,190.4V66.863c0-3.646,2.967-6.612,6.611-6.612h27.083V39.803h-27.083
		c-14.921,0-27.06,12.139-27.06,27.06V190.4c0,14.937,12.139,27.086,27.06,27.086h27.083v-20.45h-27.083
		C902.146,197.036,899.181,194.061,899.181,190.4z"/>
	<path display="inline" fill="#3D7CBF" d="M1053.733,121.697h-0.573l-0.014-0.598l-40.651-40.632l-14.459,14.482l23.445,23.472
		h-97.83v20.448h97.832l-23.446,23.451l14.458,14.479l40.935-40.935C1057.326,131.986,1057.43,125.716,1053.733,121.697z"/>
</g>
<g>
	<path fill="#3D7CBF" d="M408.781,148.836c-3.594-3.638-10.45-9.994-12.052-11.246l-31.526,31.524V48.699h-19.608v120.415
		L314.1,137.628l-0.79,0.604c-0.847,0.658-4.267,3.883-7.991,7.621l-5.209,5.245l27.407,27.407
		c19.506,19.506,26.011,25.782,28.04,27.619c2.171-1.963,9.122-8.708,28.048-27.62l27.407-27.421L408.781,148.836z"/>
	<path fill="#3D7CBF" d="M498.854,77.063c-19.522-19.529-26.019-25.796-28.039-27.624c-2.173,1.962-9.121,8.702-28.036,27.616
		l-27.407,27.408l5.212,5.253c3.457,3.477,7.038,6.892,7.984,7.61l0.798,0.613l31.49-31.493v120.422h19.597V86.448l31.543,31.527
		c1.687-1.306,8.565-7.726,12.048-11.248l2.231-2.251L498.854,77.063z"/>
</g>
</svg>
