<?xml version="1.0" encoding="utf-8"?>
<!-- Generator: Adobe Illustrator 16.0.0, SVG Export Plug-In . SVG Version: 6.00 Build 0)  -->
<!DOCTYPE svg PUBLIC "-//W3C//DTD SVG 1.1//EN" "http://www.w3.org/Graphics/SVG/1.1/DTD/svg11.dtd">
<svg version="1.1" id="Layer_1" xmlns="http://www.w3.org/2000/svg" xmlns:xlink="http://www.w3.org/1999/xlink" x="0px" y="0px"
	 width="256px" height="256px" viewBox="0 0 256 256" enable-background="new 0 0 256 256" xml:space="preserve">
<g display="none">
	<path display="inline" fill="#FFFFFF" d="M502.165-960.128c37.397-42.354,33.383-107.234-8.929-144.631
		c-26.625-23.553-63.857-31.498-97.854-21.135l0.328,19.783c28.876-10.977,61.604-5.201,85.032,15.482
		c34.529,30.516,37.806,83.477,7.291,118.006l-2.949,3.359l-12.329-10.896l0.615,38.135l37.928-4.096l-12.041-10.65L502.165-960.128
		z"/>
	<path display="inline" fill="#FFFFFF" d="M370.069-965.29c-34.529-30.516-37.806-83.477-7.291-118.006l2.99-3.359l12.206,10.773
		l-0.614-38.133l-37.929,4.096l12.205,10.771l-2.989,3.359c-37.396,42.311-33.424,107.191,8.929,144.629
		c26.584,23.512,63.734,31.498,97.689,21.219l-0.327-19.785C426.103-938.87,393.416-944.646,370.069-965.29z"/>
	<path display="inline" fill="#FFFFFF" d="M439.21-1029.065l-1.147,2.213L439.21-1029.065l-0.942-0.49
		c-2.212-1.188-4.014-2.131-5.447-2.867v-32.523c9.134,2.949,9.707,10.814,9.748,12.535l0.041,2.457l14.787,0.041v-2.498
		c0.041-8.234-5.162-24.248-24.576-27.771v-7.414h-14.828v7.332c-9.134,1.598-16.588,6.227-21.135,13.189
		c-5.161,7.945-5.652,17.449-1.27,26.092c3.973,7.863,11.223,11.715,16.015,14.213l0.983,0.531c2.212,1.189,4.014,2.131,5.447,2.867
		v32.523c-9.134-2.949-9.707-10.855-9.748-12.533l-0.041-2.459l-7.373,0.041h-7.414v2.5c0,8.232,5.161,24.248,24.576,27.77v7.414
		h14.828v-7.332c9.134-1.598,16.588-6.227,21.135-13.189c5.202-7.945,5.652-17.449,1.27-26.092
		C451.252-1022.757,444.002-1026.565,439.21-1029.065z M417.992-1040.247c-3.686-1.965-7.414-4.014-9.175-7.496
		c-1.925-3.768-1.761-7.904,0.45-11.264c1.844-2.826,4.875-4.955,8.725-6.102V-1040.247L417.992-1040.247z M441.545-996.911
		c-1.844,2.826-4.875,4.957-8.725,6.104v-24.863c3.686,1.967,7.414,4.014,9.175,7.496
		C443.92-1004.366,443.756-1000.271,441.545-996.911z"/>
</g>
<g transform="translate(0,-1028.3622)" display="none">
	<path display="inline" fill="#FFFFFF" d="M107.597-94.762c-8.253,0-16.519,3.096-22.748,9.326L27.777-28.342
		c-12.463,12.461-12.463,33.019,0,45.48l61.231,61.233H18.428v11.156h223.145V78.372h-36.503l21.794-21.791
		c12.46-12.463,12.462-33.018,0-45.479l-96.536-96.538C124.096-91.666,115.854-94.763,107.597-94.762z M107.577-72.645
		c2.481,0,4.976,1.012,6.974,3.01l96.535,96.515c3.992,3.991,3.992,9.932,0,13.924l-35.499,35.497l-2.07,2.071h-52.952l-1.503-1.505
		L43.554,1.361c-3.994-3.993-3.994-9.934,0-13.926l57.07-57.07C102.621-71.633,105.093-72.645,107.577-72.645L107.577-72.645z
		 M130.021-15.223c-4.545,0.436-7.925,3-10.59,5.664c-6.485,6.486-6.485,17.205,0,23.689c4.41,4.412,15.775,15.776,15.775,15.776
		c2.338,2.34,2.338,5.551,0,7.888c-1.757,1.759-3.113,2.399-3.77,2.463c-0.657,0.112-1.651-0.001-4.096-2.439l-27.633-27.61
		l-7.888,7.888l15.756,15.757l-8.042,8.063l7.889,7.888l8.041-8.062l3.922,3.922c3.89,3.951,8.595,6.149,13.141,5.709
		c4.546-0.447,7.914-3.01,10.568-5.666c6.485-6.483,6.485-17.181,0-23.665c0,0-11.364-11.365-15.776-15.776
		c-2.339-2.338-2.339-5.574,0-7.912c1.747-1.745,3.117-2.374,3.791-2.44c0.674-0.111,1.652-0.111,4.055,2.399h0.021l19.742,19.764
		l7.889-7.889l-7.889-7.89l7.868-7.865l-7.89-7.889l-7.867,7.865l-3.9-3.9C139.274-13.455,134.565-15.66,130.021-15.223
		L130.021-15.223z"/>
</g>
<path display="none" fill="#FFFFFF" d="M-261.905-1057.205c0,10.997-16.719,10.997-16.719,0v-55.728
	c0-4.617,3.743-8.359,8.361-8.359h211.77c4.613,0,8.358,3.742,8.358,8.359v52.94c0,10.997-16.718,10.997-16.718,0v-44.581h-195.052
	V-1057.205z M-195.231-996.165c-7.386-8.073,4.892-19.304,12.276-11.231l10.218,11.177v-58.461c0-10.997,16.721-10.997,16.721,0
	v58.461l10.213-11.177c7.388-8.072,19.664,3.158,12.279,11.231l-24.626,26.939c-3.269,3.675-9.03,3.741-12.368,0.096
	L-195.231-996.165z M-241.704-1094.822h154.649c4.615,0,8.356,3.743,8.356,8.358v143.5c0,4.618-3.741,8.361-8.356,8.361h-154.649
	c-4.615,0-8.357-3.743-8.357-8.361v-143.5C-250.062-1091.079-246.319-1094.822-241.704-1094.822L-241.704-1094.822z
	 M-95.416-1078.104h-137.927v126.784h137.927V-1078.104z"/>
<path display="none" fill="#FFFFFF" d="M126.462-846.221C61.021-846.221,9.27-799.37,9.27-742.815
	c0,24.092,9.532,47.433,26.883,65.926c3.435,14.154-0.734,29.154-11.076,39.496c-4.323,4.323-1.265,11.768,4.876,11.768
	c19.642,0,38.579-7.699,52.655-21.267c13.922,4.964,28.65,7.479,43.854,7.479c65.621,0,118.11-46.986,118.11-103.404
	c0-56.447-52.522-103.405-118.11-103.405V-846.221z M126.462-832.523c57.522,0,104.413,40.293,104.413,89.708
	s-46.891,89.707-104.413,89.707c-15.037,0-29.535-2.827-43.089-8.224c-2.663-1.06-5.702-0.364-7.639,1.749
	c-8.325,9.098-19.15,15.444-30.941,18.361c6.495-12.449,8.157-27.127,4.204-41.029c-0.312-1.095-0.891-2.098-1.686-2.916
	c-15.64-16.108-24.343-36.581-24.343-57.648c0-49.415,46.479-89.708,103.495-89.708H126.462z M86.578-757.82
	c-8.272,0-15.003,6.729-15.003,15.003c0,8.271,6.73,15.002,15.003,15.002s15.003-6.73,15.003-15.002
	C101.581-751.091,94.851-757.82,86.578-757.82z M126.587-757.82c-8.272,0-15.003,6.729-15.003,15.003
	c0,8.271,6.73,15.002,15.003,15.002s15.002-6.73,15.002-15.002C141.589-751.091,134.859-757.82,126.587-757.82z M167.261-757.82
	c-8.272,0-15.002,6.729-15.002,15.003c0,8.271,6.729,15.002,15.002,15.002s15.004-6.73,15.004-15.002
	C182.265-751.091,175.533-757.82,167.261-757.82z"/>
<g display="none">
	<path display="inline" fill="#FFFFFF" d="M790.687-679.182l-35.954-29.415c-3.341-2.733-7.62-4.238-12.052-4.238
		c-5.078,0-9.99,2-13.478,5.486l-14.011,14.011c-0.734,0.733-2.06,1.189-3.459,1.189c-1.006,0-1.938-0.23-2.698-0.667l-0.09-0.048
		c-0.218-0.106-0.731-0.378-1.508-0.821c-1.505-0.859-3.11-1.864-4.771-2.983c-5.447-3.675-10.721-8.049-15.673-13.002
		c-4.957-4.957-9.328-10.225-12.992-15.656c-1.12-1.66-2.121-3.261-2.976-4.759c-0.455-0.796-0.733-1.325-1.149-2.11
		c-0.891-1.485-0.488-4.402,0.783-5.675l14.012-14.01c6.827-6.826,7.375-18.041,1.248-25.53l-29.416-35.951
		c-3.31-4.047-8.125-6.367-13.212-6.367c-4.502,0-8.782,1.801-12.052,5.07l-22.179,22.177c-9.558,9.559-9.679,29.579-0.332,54.929
		c8.723,23.656,24.105,47.954,41.148,64.997c26.974,26.974,70.091,48.102,98.159,48.102c9.608,0,16.932-2.451,21.766-7.285
		l22.179-22.178c3.5-3.499,5.295-8.075,5.055-12.885C796.796-671.632,794.54-676.028,790.687-679.182z M643.969-803.107
		l29.416,35.952c0.83,1.016,0.748,2.908-0.165,3.822l-14.012,14.013c-6.47,6.47-7.925,17.294-3.425,25.102
		c0.619,1.233,2.064,3.905,4.792,7.948c4.247,6.294,9.282,12.368,14.966,18.052c5.69,5.689,11.771,10.729,18.07,14.977
		c4.088,2.759,6.77,4.205,7.938,4.787c2.967,1.669,6.448,2.551,10.069,2.551c5.747,0,11.224-2.18,15.024-5.98l14.012-14.012
		c0.869-0.865,2.854-0.956,3.821-0.166l35.954,29.416c0.268,0.219,0.42,0.448,0.43,0.646c0.013,0.25-0.202,0.504-0.331,0.633
		l-22.177,22.177c-1.969,1.969-5.396,2.967-10.188,2.967c-20.323,0-61.776-18.724-86.835-43.782
		c-13.911-13.91-27.354-34.716-35.962-55.653c-8.306-20.205-10.166-36.057-4.854-41.369l22.177-22.177
		c0.211-0.211,0.427-0.326,0.609-0.326C643.58-803.532,643.839-803.267,643.969-803.107z"/>
	<path display="inline" fill="#FFFFFF" d="M715.157-795.94c31.915,0,57.88,25.965,57.88,57.879c0,4.466,3.633,8.099,8.098,8.099
		s8.098-3.633,8.098-8.099c0-40.845-33.23-74.074-74.075-74.074c-4.465,0-8.098,3.633-8.098,8.098S710.692-795.94,715.157-795.94z"
		/>
	<path display="inline" fill="#FFFFFF" d="M715.157-851.723c-4.465,0-8.098,3.633-8.098,8.098s3.633,8.098,8.098,8.098
		c53.743,0,97.467,43.723,97.467,97.466c0,4.466,3.633,8.099,8.098,8.099s8.098-3.633,8.098-8.099
		C828.819-800.734,777.831-851.723,715.157-851.723z"/>
</g>
<g display="none">
	<path display="inline" fill="#FFFFFF" d="M233.794-475.854l-14.328-1.817c-1.629-5.219-3.714-10.332-6.221-15.256l8.809-11.41
		c3.937-4.923,3.484-12.328-0.998-16.544l-18.994-18.995c-2.354-2.354-5.479-3.649-8.798-3.649c-2.795,0-5.531,0.957-7.656,2.658
		l-11.458,8.845c-4.92-2.505-10.034-4.591-15.255-6.221l-1.795-14.15c-0.651-6.183-6.157-11.025-12.534-11.025h-27.163
		c-6.257,0-11.518,4.562-12.51,10.847l-1.814,14.096c-5.225,1.631-10.342,3.717-15.266,6.225l-11.172-8.577
		c-2.172-1.739-4.937-2.696-7.783-2.696c-3.363,0-6.552,1.345-8.76,3.691L41.102-520.84c-4.482,4.483-4.893,11.577-0.991,16.454
		l8.845,11.458c-2.506,4.922-4.592,10.036-6.221,15.256l-14.149,1.794c-6.184,0.651-11.026,6.157-11.026,12.534v26.931
		c0,6.257,4.562,11.519,10.848,12.511l14.328,1.817c1.623,5.203,3.702,10.304,6.199,15.213l-9.014,11.215l-0.072,0.093
		c-3.883,5.179-3.422,12.24,1.064,16.456l18.994,18.994c2.355,2.354,5.479,3.651,8.799,3.651c2.795,0,5.531-0.957,7.656-2.657
		l11.457-8.846c4.924,2.507,10.037,4.592,15.256,6.221l1.794,14.148c0.65,6.184,6.155,11.028,12.534,11.028h26.932
		c6.257,0,11.518-4.563,12.51-10.849l1.818-14.328c5.218-1.629,10.332-3.714,15.256-6.221l11.409,8.809
		c2.173,1.737,4.937,2.694,7.783,2.694c0,0,0,0,0.001,0c3.363,0,6.552-1.345,8.759-3.693l18.994-18.993
		c4.484-4.483,4.896-11.577,0.994-16.454l-8.846-11.458c2.507-4.923,4.592-10.036,6.221-15.256l14.148-1.793
		c6.185-0.651,11.028-6.158,11.028-12.536v-26.618C244.67-469.451,240.122-474.854,233.794-475.854z M205.432-431.043
		c-1.8,7.354-4.697,14.391-8.649,20.98c-1.691,2.953-1.475,6.573,0.533,9.032l10.149,13.077l-14.667,14.667l-13.311-10.373
		c-2.407-1.968-6.168-2.179-9.034-0.537l-0.106,0.063c-6.33,3.928-13.399,6.828-21.06,8.631c-3.236,0.811-5.69,3.586-6.104,6.889
		l-2.153,16.455h-20.788l-2.152-16.436c-0.416-3.322-2.869-6.098-6.131-6.914c-7.39-1.792-14.462-4.691-21.02-8.617
		c-1.196-0.773-2.751-1.232-4.182-1.232c-1.803,0-3.447,0.549-4.93,1.665L68.71-373.514l-14.671-14.671l10.147-13.077
		c2.009-2.458,2.227-6.076,0.537-9.03l-0.064-0.108c-3.929-6.33-6.829-13.399-8.632-21.059c-0.828-3.306-3.447-5.702-6.656-6.104
		l-16.455-2.155v-20.786l16.434-2.153c3.471-0.432,6.203-3.002,6.723-6.288c1.799-7.354,4.697-14.392,8.651-20.983
		c1.689-2.954,1.472-6.573-0.536-9.031l-10.148-13.076l14.671-14.672l13.078,10.149c2.405,1.964,6.165,2.173,9.028,0.537l0.11-0.065
		c6.329-3.93,13.397-6.83,21.056-8.633c3.237-0.809,5.691-3.584,6.105-6.887l2.154-16.455h20.788l2.151,16.436
		c0.416,3.322,2.87,6.098,6.131,6.912c7.412,1.797,14.505,4.709,21.145,8.692c2.866,1.637,6.623,1.425,9.027-0.537l13.077-10.149
		l14.702,14.703l-10.196,13.532c-1.992,2.458-2.203,6.064-0.519,9.01l0.064,0.107c3.93,6.332,6.83,13.401,8.631,21.058
		c0.827,3.306,3.447,5.702,6.656,6.104l16.455,2.154v20.586l-16.201,2.121C208.683-436.9,205.951-434.33,205.432-431.043z"/>
	<path display="inline" fill="#FFFFFF" d="M130.868-505.846c-30.86,0-55.968,25.106-55.968,55.967s25.107,55.968,55.968,55.968
		s55.968-25.107,55.968-55.968S161.729-505.846,130.868-505.846z M130.868-409.966c-22.008,0-39.913-17.905-39.913-39.913
		s17.905-39.912,39.913-39.912s39.913,17.904,39.913,39.912S152.876-409.966,130.868-409.966z"/>
</g>
<path display="none" fill="#333333" d="M1111.966-1071.746c-3.184-3.183-7.449-4.936-12.012-4.936
	c-4.562,0-8.828,1.753-12.012,4.937l-77.566,77.566l-77.575-77.319c-3.192-3.192-7.457-4.946-12.02-4.946
	c-4.532,0-8.772,1.73-11.949,4.876c-3.231,3.431-4.939,7.604-4.939,12.074c0,4.343,1.8,8.739,4.942,12.077l89.447,89.208
	c3.399,3.194,7.688,4.952,12.086,4.952c4.667,0,8.82-1.687,12.012-4.879l89.586-89.586
	C1118.59-1054.345,1118.59-1065.122,1111.966-1071.746z"/>
<path display="none" fill="#333333" d="M715.638-551.687c-3.183,3.184-4.936,7.449-4.936,12.012s1.753,8.828,4.937,12.012
	l77.566,77.566l-77.319,77.576c-3.192,3.191-4.946,7.457-4.946,12.02c0,4.531,1.73,8.771,4.876,11.949
	c3.431,3.23,7.604,4.939,12.074,4.939c4.343,0,8.739-1.801,12.077-4.943l89.208-89.447c3.194-3.398,4.952-7.688,4.952-12.086
	c0-4.666-1.687-8.82-4.879-12.012l-89.586-89.586C733.039-558.31,722.262-558.31,715.638-551.687z"/>
<path display="none" fill="#333333" d="M605.21-551.687c-3.183,3.184-4.936,7.449-4.936,12.012s1.753,8.828,4.937,12.012
	l77.566,77.566l-77.319,77.576c-3.192,3.191-4.946,7.457-4.946,12.02c0,4.531,1.73,8.771,4.876,11.949
	c3.431,3.23,7.604,4.939,12.074,4.939c4.343,0,8.739-1.801,12.077-4.943l89.208-89.447c3.194-3.398,4.952-7.688,4.952-12.086
	c0-4.666-1.687-8.82-4.879-12.012l-89.586-89.586C622.611-558.31,611.834-558.31,605.21-551.687z"/>
<path display="none" fill="#FFFFFF" d="M816.553-1071.746c-3.184-3.183-7.449-4.936-12.012-4.936c-4.562,0-8.828,1.753-12.012,4.937
	l-77.566,77.566l-77.575-77.319c-3.192-3.192-7.457-4.946-12.02-4.946c-4.532,0-8.772,1.73-11.949,4.876
	c-3.231,3.431-4.939,7.604-4.939,12.074c0,4.343,1.8,8.739,4.942,12.077l89.447,89.208c3.399,3.194,7.688,4.952,12.086,4.952
	c4.667,0,8.82-1.687,12.012-4.879l89.586-89.586C823.177-1054.345,823.177-1065.122,816.553-1071.746z"/>
<g display="none">
	<path display="inline" fill="#333333" d="M889.634-509.097c0.667,1.622,1.65,3.099,2.888,4.341l39.943,39.937
		c5.287,5.11,13.717,4.963,18.822-0.324c4.984-5.158,4.984-13.342,0-18.499l-17.226-17.227h180.872
		c7.353,0,13.315-5.959,13.315-13.312s-5.963-13.315-13.315-13.315H934.062l17.212-17.217c5.106-5.286,4.962-13.716-0.326-18.823
		c-5.16-4.983-13.34-4.983-18.497,0l-39.942,39.941c-3.808,3.809-4.947,9.537-2.89,14.513L889.634-509.097z"/>
	<path display="inline" fill="#333333" d="M1127.224-386.138c-0.669-1.62-1.65-3.097-2.89-4.34l-39.942-39.938
		c-5.287-5.107-13.717-4.963-18.823,0.328c-4.984,5.16-4.984,13.336,0,18.498l17.227,17.227H901.923
		c-7.354,0-13.315,5.959-13.315,13.312s5.962,13.315,13.315,13.315h180.872l-17.212,17.217c-5.288,5.105-5.438,13.534-0.329,18.821
		c5.11,5.288,13.537,5.436,18.826,0.326c0.108-0.105,0.217-0.218,0.326-0.326l39.942-39.942c3.807-3.807,4.947-9.533,2.889-14.511
		L1127.224-386.138z"/>
</g>
<g display="none">
	<circle display="inline" fill="#2A88C9" cx="426.382" cy="-169.189" r="118"/>
	<g display="inline">
		<path fill="#FFFFFF" stroke="#FFFFFF" stroke-miterlimit="10" d="M456.693-194.33c1.68,1.496,3.825,2.314,6.09,2.314
			c2.482,0,4.807-0.975,6.544-2.745c1.717-1.749,2.649-4.061,2.627-6.51s-0.998-4.743-2.746-6.459
			c-1.686-1.655-3.901-2.583-6.257-2.624l-0.176-0.003c-5.052,0-9.164,4.11-9.167,9.162c0,1.424,0.333,2.833,0.967,4.101
			l-8.666,7.263c-1.742-2.029-4.246-3.183-6.947-3.183c-2.028,0-3.954,0.654-5.569,1.892c-0.672,0.516-1.267,1.118-1.771,1.795
			l-9.925-6.395c0.01-0.168,0.016-0.337,0.016-0.507c0.003-2.451-0.949-4.755-2.68-6.489c-1.731-1.734-4.033-2.69-6.492-2.692
			c-5.052,0-9.167,4.11-9.174,9.163c0,1.467,0.353,2.917,1.023,4.216l-10.31,10.077c-1.264-0.624-2.66-0.952-4.063-0.952
			c-3.373,0-6.471,1.839-8.085,4.799c-2.426,4.452-0.777,10.05,3.676,12.478c1.348,0.733,2.867,1.122,4.393,1.122
			c3.374,0,6.473-1.838,8.086-4.797c1.85-3.399,1.341-7.651-1.208-10.52l9.678-9.461c1.665,1.44,3.772,2.229,5.988,2.229
			c2.518,0,4.864-0.999,6.607-2.813c0.66-0.688,1.203-1.463,1.618-2.311l9.326,6.011c-1.246,4.723,1.456,9.648,6.167,11.104
			c0.882,0.272,1.792,0.41,2.706,0.41c4.049,0,7.57-2.601,8.765-6.471c0.566-1.832,0.538-3.817-0.072-5.633L456.693-194.33z
			 M462.782-206.878c3.14,0,5.693,2.554,5.693,5.692c-0.005,3.138-2.559,5.691-5.693,5.694c-3.141,0-5.695-2.554-5.695-5.693
			S459.642-206.878,462.782-206.878z M390.033-168.031c-3.14,0-5.693-2.554-5.693-5.693s2.554-5.694,5.693-5.694
			c3.141,0,5.695,2.555,5.695,5.693C395.724-170.588,393.169-168.034,390.033-168.031z M412.54-190.536
			c-3.141,0-5.695-2.554-5.695-5.693c0-3.141,2.555-5.695,5.695-5.695c3.14,0,5.694,2.555,5.694,5.694
			C418.23-193.095,415.676-190.541,412.54-190.536z M438.967-178.146c-3.14,0-5.693-2.556-5.693-5.696
			c0-3.139,2.554-5.691,5.693-5.691c3.141,0,5.696,2.553,5.696,5.69C444.659-180.706,442.104-178.15,438.967-178.146z"/>
		<path fill="#FFFFFF" stroke="#FFFFFF" stroke-miterlimit="10" d="M421.451-173.631h-12.804c-0.959,0-1.739,0.78-1.739,1.739
			v42.129c0,0.959,0.78,1.739,1.739,1.739h12.804c0.959,0,1.739-0.78,1.739-1.739v-42.129
			C423.19-172.851,422.41-173.631,421.451-173.631z M419.712-131.502h-9.325v-38.651h9.325V-131.502z"/>
		<path fill="#FFFFFF" stroke="#FFFFFF" stroke-miterlimit="10" d="M397.702-154.425h-12.804c-0.959,0-1.739,0.78-1.739,1.739
			v22.923c0,0.959,0.78,1.739,1.739,1.739h12.804c0.959,0,1.739-0.78,1.739-1.739v-22.923
			C399.441-153.645,398.661-154.425,397.702-154.425z M395.756-131.502h-9.119v-19.444h9.119V-131.502z"/>
		<path fill="#FFFFFF" stroke="#FFFFFF" stroke-miterlimit="10" d="M445.201-161.653h-12.805c-0.959,0-1.739,0.78-1.739,1.739
			v30.151c0,0.959,0.78,1.739,1.739,1.739h12.805c0.959,0,1.738-0.78,1.738-1.739v-30.151
			C446.939-160.873,446.16-161.653,445.201-161.653z M443.462-131.502h-9.326v-26.673h9.326V-131.502z"/>
		<path fill="#FFFFFF" stroke="#FFFFFF" stroke-miterlimit="10" d="M469.156-173.631h-12.804c-0.959,0-1.739,0.78-1.739,1.739
			v42.129c0,0.959,0.78,1.739,1.739,1.739h12.804c0.959,0,1.739-0.78,1.739-1.739v-42.129
			C470.896-172.851,470.115-173.631,469.156-173.631z M467.211-131.502h-9.119v-38.651h9.119V-131.502z"/>
	</g>
</g>
<g display="none">
	<circle display="inline" fill="#28A64A" cx="715.051" cy="-166.889" r="118"/>
	<g display="inline">
		<path fill="#FFFFFF" stroke="#FFFFFF" stroke-miterlimit="10" d="M696.242-134.563h-6.082c-2.02,0-3.662,1.643-3.662,3.662
			s1.643,3.663,3.662,3.663h6.082c2.02,0,3.662-1.644,3.662-3.663S698.262-134.563,696.242-134.563z"/>
		<path fill="#FFFFFF" stroke="#FFFFFF" stroke-miterlimit="10" d="M721.56-134.563h-6.083c-2.02,0-3.663,1.643-3.663,3.662
			s1.644,3.663,3.663,3.663h6.083c2.02,0,3.662-1.644,3.662-3.663S723.579-134.563,721.56-134.563z"/>
		<path fill="#FFFFFF" stroke="#FFFFFF" stroke-miterlimit="10" d="M746.877-134.563h-6.083c-2.02,0-3.662,1.643-3.662,3.662
			s1.643,3.663,3.662,3.663h6.083c2.02,0,3.663-1.644,3.663-3.663S748.896-134.563,746.877-134.563z"/>
		<path fill="#FFFFFF" stroke="#FFFFFF" stroke-miterlimit="10" d="M696.242-146.425h-6.082c-2.02,0-3.662,1.644-3.662,3.663
			s1.643,3.662,3.662,3.662h6.082c2.02,0,3.662-1.643,3.662-3.662S698.262-146.425,696.242-146.425z"/>
		<path fill="#FFFFFF" stroke="#FFFFFF" stroke-miterlimit="10" d="M696.242-158.286h-6.082c-2.02,0-3.662,1.644-3.662,3.663
			s1.643,3.662,3.662,3.662h6.082c2.02,0,3.662-1.643,3.662-3.662S698.262-158.286,696.242-158.286z"/>
		<path fill="#FFFFFF" stroke="#FFFFFF" stroke-miterlimit="10" d="M721.56-146.425h-6.083c-2.02,0-3.663,1.644-3.663,3.663
			s1.644,3.662,3.663,3.662h6.083c2.02,0,3.662-1.643,3.662-3.662S723.579-146.425,721.56-146.425z"/>
		<path fill="#FFFFFF" stroke="#FFFFFF" stroke-miterlimit="10" d="M721.56-158.286h-6.083c-2.02,0-3.663,1.644-3.663,3.663
			s1.644,3.662,3.663,3.662h6.083c2.02,0,3.662-1.643,3.662-3.662S723.579-158.286,721.56-158.286z"/>
		<path fill="#FFFFFF" stroke="#FFFFFF" stroke-miterlimit="10" d="M746.877-146.425h-6.083c-2.02,0-3.662,1.644-3.662,3.663
			s1.643,3.662,3.662,3.662h6.083c2.02,0,3.663-1.643,3.663-3.662S748.896-146.425,746.877-146.425z"/>
		<path fill="#FFFFFF" stroke="#FFFFFF" stroke-miterlimit="10" d="M746.877-158.286h-6.083c-2.02,0-3.662,1.644-3.662,3.663
			s1.643,3.662,3.662,3.662h6.083c2.02,0,3.663-1.643,3.663-3.662S748.896-158.286,746.877-158.286z"/>
		<path fill="#FFFFFF" stroke="#FFFFFF" stroke-miterlimit="10" d="M721.56-170.146h-6.083c-2.02,0-3.663,1.644-3.663,3.663
			s1.644,3.663,3.663,3.663h6.083c2.02,0,3.662-1.644,3.662-3.663S723.579-170.146,721.56-170.146z"/>
		<path fill="#FFFFFF" stroke="#FFFFFF" stroke-miterlimit="10" d="M721.56-182.006h-6.083c-2.02,0-3.663,1.643-3.663,3.662
			s1.644,3.663,3.663,3.663h6.083c2.02,0,3.662-1.644,3.662-3.663S723.579-182.006,721.56-182.006z"/>
		<path fill="#FFFFFF" stroke="#FFFFFF" stroke-miterlimit="10" d="M746.877-170.146h-6.083c-2.02,0-3.662,1.644-3.662,3.663
			s1.643,3.663,3.662,3.663h6.083c2.02,0,3.663-1.644,3.663-3.663S748.896-170.146,746.877-170.146z"/>
		<path fill="#FFFFFF" stroke="#FFFFFF" stroke-miterlimit="10" d="M746.877-182.006h-6.083c-2.02,0-3.662,1.643-3.662,3.662
			s1.643,3.663,3.662,3.663h6.083c2.02,0,3.663-1.644,3.663-3.663S748.896-182.006,746.877-182.006z"/>
		<path fill="#FFFFFF" stroke="#FFFFFF" stroke-miterlimit="10" d="M746.877-193.865h-6.083c-2.02,0-3.662,1.644-3.662,3.663
			s1.643,3.663,3.662,3.663h6.083c2.02,0,3.663-1.644,3.663-3.663S748.896-193.865,746.877-193.865z"/>
		<path fill="#FFFFFF" stroke="#FFFFFF" stroke-miterlimit="10" d="M740.794-198.4h6.083c2.02,0,3.663-1.643,3.663-3.662
			c0-2.021-1.644-3.664-3.663-3.664h-6.083c-2.02,0-3.662,1.644-3.662,3.664C737.132-200.043,738.774-198.4,740.794-198.4z"/>
		<path fill="#FFFFFF" stroke="#FFFFFF" stroke-miterlimit="10" d="M689.762-173.444c0,1.223,0.993,2.217,2.215,2.217
			s2.215-0.994,2.215-2.217v-2.931h2.932c1.222,0,2.216-0.994,2.216-2.216s-0.994-2.215-2.216-2.215h-5.146
			c-4.453,0-8.076-3.624-8.076-8.078c0-4.455,3.623-8.079,8.076-8.079h5.146c1.222,0,2.216-0.993,2.216-2.214
			c0-1.223-0.994-2.217-2.216-2.217h-2.932v-2.931c0-1.222-0.993-2.216-2.215-2.216s-2.215,0.994-2.215,2.216v3.147
			c-3.127,0.584-5.873,2.307-7.768,4.883c-1.979,2.692-2.793,5.994-2.288,9.297c0.806,5.297,4.821,9.429,10.056,10.406V-173.444z"/>
	</g>
</g>
<g display="none">
	<circle display="inline" fill="#ED1F24" cx="1009.677" cy="-166.428" r="118"/>
	<g display="inline">
		<path fill="#FFFFFF" stroke="#FFFFFF" stroke-miterlimit="10" d="M1022.184-159.376c2.241,0,4.182-0.791,5.763-2.349
			c1.604-1.548,2.416-3.447,2.416-5.644c0-2.194-0.813-4.1-2.414-5.662c-1.585-1.547-3.524-2.331-5.765-2.331
			c-2.237,0-4.184,0.783-5.787,2.332c-1.587,1.563-2.392,3.468-2.392,5.661c0,2.195,0.805,4.094,2.394,5.643
			C1017.998-160.167,1019.944-159.376,1022.184-159.376z M1024.965-164.667c-0.773,0.765-1.683,1.136-2.781,1.136
			c-1.1,0-2.017-0.372-2.803-1.138c-0.77-0.752-1.144-1.635-1.144-2.699c0-1.066,0.375-1.956,1.141-2.715
			c0.787-0.756,1.705-1.123,2.806-1.123c1.1,0,2.011,0.366,2.783,1.12c0.782,0.763,1.162,1.651,1.162,2.718
			C1026.129-166.305,1025.75-165.422,1024.965-164.667z"/>
		<path fill="#FFFFFF" stroke="#FFFFFF" stroke-miterlimit="10" d="M1042.391-155.645c-2.239,0-4.185,0.783-5.786,2.332
			c-1.588,1.563-2.393,3.467-2.393,5.66c0,2.194,0.806,4.093,2.394,5.642c1.599,1.561,3.545,2.352,5.785,2.352
			c2.241,0,4.182-0.792,5.764-2.35c1.603-1.549,2.415-3.447,2.415-5.644c0-2.194-0.813-4.1-2.413-5.661
			C1046.571-154.86,1044.632-155.645,1042.391-155.645z M1045.172-144.951c-0.773,0.765-1.684,1.137-2.781,1.137
			c-1.099,0-2.016-0.373-2.803-1.139c-0.769-0.751-1.142-1.634-1.142-2.699c0-1.067,0.374-1.957,1.138-2.714
			c0.788-0.756,1.706-1.123,2.807-1.123c1.1,0,2.01,0.366,2.783,1.119c0.783,0.764,1.163,1.652,1.163,2.718
			C1046.337-146.589,1045.957-145.707,1045.172-144.951z"/>
		<polygon fill="#FFFFFF" stroke="#FFFFFF" stroke-miterlimit="10" points="1048.453,-176.21 1013.122,-141.737 1016.122,-138.811 
			1051.453,-173.284 		"/>
		<path fill="#FFFFFF" stroke="#FFFFFF" stroke-miterlimit="10" d="M986.246-198.512c-5.861,0-10.397,1.602-13.483,4.76
			c-3.083,3.156-4.646,7.626-4.646,13.285v28.079c0,5.632,1.555,10.094,4.622,13.262c3.072,3.173,7.616,4.782,13.507,4.782
			c5.863,0,10.4-1.602,13.484-4.759c3.083-3.156,4.646-7.625,4.646-13.285v-28.079c0-5.688-1.556-10.165-4.624-13.307
			C996.681-196.917,992.136-198.512,986.246-198.512z M977.783-180.467c0-2.86,0.686-5.07,2.037-6.568
			c1.34-1.483,3.501-2.235,6.426-2.235s5.086,0.752,6.426,2.235c1.353,1.499,2.038,3.709,2.038,6.568v28.079
			c0,2.859-0.692,5.069-2.057,6.566c-1.354,1.484-3.51,2.237-6.407,2.237c-2.896,0-5.052-0.753-6.406-2.237
			c-1.364-1.496-2.057-3.706-2.057-6.566V-180.467z"/>
	</g>
</g>
<g display="none">
	<circle display="inline" fill="#5C7080" cx="-163.854" cy="132.97" r="118"/>
	<g display="inline">
		<path fill="#FFFFFF" stroke="#FFFFFF" stroke-miterlimit="10" d="M-186.701,116.005h-4.215v-11.346h-4.235v11.346h-4.213
			c-1.306,0-2.117,0.812-2.117,2.117v41.006c0,1.307,0.811,2.118,2.117,2.118h4.213v10.286h4.235v-10.286h4.215
			c1.018,0,2.117-0.81,2.117-2.118v-41.006C-184.583,116.814-185.683,116.005-186.701,116.005z M-188.819,157.011h-8.429v-36.771
			h8.429V157.011z"/>
		<path fill="#FFFFFF" stroke="#FFFFFF" stroke-miterlimit="10" d="M-161.072,95.2h-4.215v-9.792h-4.235V95.2h-4.214
			c-1.307,0-2.116,1.099-2.116,2.117v41.309c0,1.019,0.809,2.117,2.116,2.117h4.214v10.324h4.235v-10.324h4.215
			c1.009,0,2.116-1.108,2.116-2.117V97.317C-158.956,96.309-160.063,95.2-161.072,95.2z M-163.189,136.508h-8.429V99.435h8.429
			V136.508z"/>
		<path fill="#FFFFFF" stroke="#FFFFFF" stroke-miterlimit="10" d="M-135.443,116.005h-4.214v-11.346h-4.236v11.346h-4.214
			c-1.306,0-2.117,0.812-2.117,2.117v41.006c0,1.307,0.812,2.118,2.117,2.118h4.214v10.286h4.236v-10.286h4.214
			c1.018,0,2.116-0.81,2.116-2.118v-41.006C-133.327,116.814-134.426,116.005-135.443,116.005z M-137.562,157.011h-8.429v-36.771
			h8.429V157.011z"/>
	</g>
</g>
<g opacity="0.5">
	<circle fill="#5C7080" cx="130.264" cy="132.508" r="118"/>
	<text transform="matrix(1 0 0 1 114.3027 160.5625)" fill="#FFFFFF" font-family="'Bahnschrift'" font-size="96">1</text>
</g>
<g display="none" opacity="0.5">
	<circle display="inline" fill="#5C7080" cx="423.799" cy="132.508" r="118"/>
	<text transform="matrix(1 0 0 1 399.0029 160.5625)" display="inline" fill="#FFFFFF" font-family="'Bahnschrift'" font-size="96">2</text>
</g>
<g display="none" opacity="0.5">
	<circle display="inline" fill="#5C7080" cx="720.984" cy="128" r="118"/>
	<text transform="matrix(1 0 0 1 695.6025 156.0547)" display="inline" fill="#FFFFFF" font-family="'Bahnschrift'" font-size="96">3</text>
</g>
</svg>
