<?xml version="1.0" encoding="utf-8"?>
<!-- Generator: Adobe Illustrator 16.0.0, SVG Export Plug-In . SVG Version: 6.00 Build 0)  -->
<!DOCTYPE svg PUBLIC "-//W3C//DTD SVG 1.1//EN" "http://www.w3.org/Graphics/SVG/1.1/DTD/svg11.dtd">
<svg version="1.1" id="Layer_1" xmlns="http://www.w3.org/2000/svg" xmlns:xlink="http://www.w3.org/1999/xlink" x="0px" y="0px"
	 width="256px" height="256px" viewBox="0 0 256 256" enable-background="new 0 0 256 256" xml:space="preserve">
<g transform="translate(0,-952.36218)">
	<path fill="#3D7CBF" d="M47.303,1094.679l23.9-29.875H55.332c8.136-35.964,40.134-62.739,78.609-62.739
		c44.654,0,80.666,36.009,80.666,80.663c0,44.654-36.012,80.666-80.666,80.666c-29.185,0-54.646-15.346-68.809-38.467l-15.59,8.684
		c17.291,28.56,48.66,47.708,84.396,47.708c54.345,0,98.59-44.247,98.59-98.589c0-54.345-44.245-98.591-98.59-98.591
		c-48.205,0-88.519,34.865-97.001,80.666H23.402 M124.979,1025.965v8.962v47.802v4.293l3.36,2.709l29.876,23.899l7.003,5.603
		l11.201-14.006l-7.001-5.603l-26.516-21.191v-43.507v-8.962H124.979z"/>
</g>
</svg>
