<?xml version="1.0" encoding="utf-8"?>
<!-- Generator: Adobe Illustrator 16.0.0, SVG Export Plug-In . SVG Version: 6.00 Build 0)  -->
<!DOCTYPE svg PUBLIC "-//W3C//DTD SVG 1.1//EN" "http://www.w3.org/Graphics/SVG/1.1/DTD/svg11.dtd">
<svg version="1.1" id="Layer_1" xmlns="http://www.w3.org/2000/svg" xmlns:xlink="http://www.w3.org/1999/xlink" x="0px" y="0px"
	 width="256px" height="256px" viewBox="0 0 256 256" enable-background="new 0 0 256 256" xml:space="preserve">
<rect x="184.756" y="107.797" fill="none" width="17.169" height="90.535"/>
<rect x="52.074" y="107.797" fill="none" width="17.17" height="90.535"/>
<rect x="118.414" y="53.945" fill="none" width="17.172" height="91.316"/>
<g>
	<path fill="#417CBF" d="M77.05,92.188h-8.585V64.09c0-0.424-0.055-0.849-0.142-1.27H52.97c-0.072,0.42-0.116,0.845-0.116,1.27
		v28.097h-8.585c-4.683,0-7.804,3.122-7.804,7.805v106.144c0,4.685,3.121,7.807,7.804,7.807h8.585v26.626h15.611v-26.626h8.585
		c3.901,0,7.805-3.122,7.805-7.807V99.993C84.854,95.31,80.951,92.188,77.05,92.188z M69.244,198.332h-17.17v-90.535h17.17V198.332z
		"/>
	<path fill="#417CBF" d="M143.39,38.335h-8.585V12.99h-15.609v25.346h-8.585c-4.685,0-7.804,3.902-7.804,7.804v106.925
		c0,3.903,3.119,7.805,7.804,7.805h8.585v26.726h15.609v-26.726h8.585c3.903,0,7.804-3.901,7.804-7.805V46.14
		C151.193,42.237,147.293,38.335,143.39,38.335z M135.586,145.261h-17.172V53.945h17.172V145.261z"/>
	<path fill="#417CBF" d="M209.731,92.188h-8.585V64.09c0-0.424-0.055-0.849-0.142-1.27h-15.354c-0.072,0.42-0.116,0.845-0.116,1.27
		v28.097h-8.585c-4.683,0-7.805,3.122-7.805,7.805v106.144c0,4.685,3.122,7.807,7.805,7.807h8.585v26.626h15.611v-26.626h8.585
		c3.901,0,7.804-3.122,7.804-7.807V99.993C217.535,95.31,213.633,92.188,209.731,92.188z M201.925,198.332h-17.169v-90.535h17.169
		V198.332z"/>
</g>
</svg>
