<?xml version="1.0" encoding="utf-8"?>
<!-- Generator: Adobe Illustrator 16.0.0, SVG Export Plug-In . SVG Version: 6.00 Build 0)  -->
<!DOCTYPE svg PUBLIC "-//W3C//DTD SVG 1.1//EN" "http://www.w3.org/Graphics/SVG/1.1/DTD/svg11.dtd">
<svg version="1.1" id="Layer_1" xmlns="http://www.w3.org/2000/svg" xmlns:xlink="http://www.w3.org/1999/xlink" x="0px" y="0px"
	 width="64px" height="64px" viewBox="0 0 64 64" enable-background="new 0 0 64 64" xml:space="preserve">
<g>
	<rect x="8.809" y="47.479" fill="#FFFFFF" width="1.263" height="9.022"/>
	<g>
		<rect x="18.148" y="42.57" fill="#FFFFFF" width="1.263" height="13.931"/>
		<rect x="27.48" y="36.547" fill="#FFFFFF" width="1.263" height="19.954"/>
		<rect x="36.814" y="41.126" fill="#FFFFFF" width="1.261" height="15.375"/>
		<rect x="46.145" y="32.26" fill="#FFFFFF" width="1.266" height="24.241"/>
		<rect x="55.479" y="24.07" fill="#FFFFFF" width="1.264" height="32.431"/>
		<polygon fill="#FFFFFF" points="43.432,6.655 43.432,7.918 54.678,7.918 42.704,19.858 37.18,14.334 24.816,26.016 18.653,19.846 
			6.63,29.507 7.426,30.492 18.558,21.538 24.791,27.777 37.152,16.095 42.704,21.646 55.479,8.909 55.479,19.966 56.742,19.966 
			56.742,6.655 		"/>
	</g>
</g>
<g display="none">
	<path display="inline" fill="#5C7080" d="M107.467,29.034c-4.244-1.753-4.572-2.55-4.572-3.485c0-1.266,1.105-2.021,2.959-2.021
		c2.596,0,4.215,0.932,4.906,1.329l2.045,1.168l2.61-6.883l-1.465-0.859c-1.519-0.891-3.151-1.458-4.992-1.734l-0.106-0.016v-4.715
		h-6.932v5.148l-0.088,0.027c-4.313,1.345-6.989,4.839-6.989,9.117c0,5.682,4.544,8.23,8.988,9.974
		c4.044,1.643,4.044,2.991,4.044,3.716c0,1.546-1.434,2.584-3.566,2.584c-1.955,0-4.063-0.627-5.636-1.678l-2.144-1.431
		l-2.506,6.998l1.236,0.885c1.531,1.096,3.801,1.922,6.225,2.268l0.106,0.016v4.89h6.978v-5.296l0.088-0.027
		c4.445-1.4,7.316-5.145,7.316-9.535C115.973,33.3,111.426,30.651,107.467,29.034z M107.829,48.029l-0.435,0.115v5.016h-4.633
		v-4.762l-0.525-0.058c-2.432-0.258-4.786-1.056-6.297-2.136l-0.52-0.369l0.032-0.089l1.671-4.661l0.896,0.596
		c1.756,1.174,4.104,1.873,6.287,1.873c2.834,0,4.736-1.509,4.736-3.755c0-1.487-0.579-3.098-4.783-4.803
		c-4.078-1.601-8.25-3.906-8.25-8.886c0-3.934,2.545-7.052,6.641-8.136l0.436-0.116v-4.871h4.59v4.585l0.52,0.057
		c1.938,0.216,3.625,0.759,5.16,1.661l0.612,0.36l-1.772,4.677l-0.854-0.488c-0.772-0.444-2.581-1.484-5.489-1.484
		c-3.049,0-4.131,1.719-4.131,3.191c0,1.846,1.188,2.871,5.299,4.57c3.623,1.478,7.782,3.877,7.782,9.355
		C114.802,43.539,112.064,46.896,107.829,48.029z"/>
	<path display="inline" fill="#5C7080" d="M82.607,30.681c-2.377-0.983-2.377-1.375-2.377-1.721c0-0.573,0.518-0.902,1.416-0.902
		c1.363,0,2.22,0.491,2.584,0.7l1.32,0.756l1.571-4.144l-0.948-0.556c-0.794-0.465-1.639-0.772-2.584-0.938l-0.104-0.018v-2.605
		h-4.191v2.869l-0.085,0.029c-2.333,0.799-3.783,2.76-3.783,5.118c0,3.227,2.548,4.661,5.039,5.637
		c2.083,0.846,2.083,1.496,2.083,1.846c0,0.725-0.701,1.21-1.744,1.21c-1.033,0-2.145-0.33-2.97-0.884l-1.386-0.926l-1.512,4.214
		l0.802,0.569c0.813,0.58,2.006,1.033,3.272,1.241l0.104,0.017v2.699h4.215v-2.949l0.084-0.028c2.408-0.831,3.964-2.929,3.964-5.345
		C87.38,33.076,84.829,31.587,82.607,30.681z M82.675,41.055l-0.386,0.103v2.692H80.16v-2.58l-0.469-0.051
		c-1.295-0.137-2.547-0.56-3.346-1.131l-0.158-0.111l0.793-2.209l0.271,0.181c0.995,0.663,2.321,1.059,3.55,1.059
		c1.671,0,2.792-0.905,2.792-2.254c0-0.884-0.332-1.836-2.742-2.813c-2.168-0.851-4.384-2.07-4.384-4.668
		c0-2.055,1.334-3.685,3.48-4.253l0.389-0.102v-2.617h2.104v2.487l0.463,0.05c1.029,0.116,1.925,0.404,2.74,0.881l0.188,0.113
		l-0.826,2.174l-0.261-0.15c-0.443-0.253-1.469-0.837-3.104-0.837c-1.697,0-2.457,0.977-2.457,1.945
		c0,1.229,0.932,1.822,3.021,2.686c1.921,0.784,4.127,2.052,4.127,4.926C86.338,38.699,84.9,40.459,82.675,41.055z"/>
	<path display="inline" fill="#5C7080" d="M131.227,30.681c-2.379-0.983-2.379-1.375-2.379-1.721c0-0.573,0.518-0.902,1.418-0.902
		c1.361,0,2.217,0.49,2.582,0.7l1.323,0.756l1.57-4.144l-0.948-0.556c-0.795-0.465-1.641-0.772-2.584-0.938l-0.104-0.018v-2.605
		h-4.192v2.869l-0.085,0.029c-2.333,0.799-3.783,2.76-3.783,5.118c0,3.228,2.547,4.661,5.038,5.637
		c2.085,0.846,2.085,1.496,2.085,1.846c0,0.725-0.702,1.21-1.747,1.21c-1.032,0-2.144-0.33-2.969-0.884l-1.386-0.926l-1.51,4.214
		l0.801,0.569c0.813,0.58,2.007,1.033,3.272,1.242l0.104,0.018v2.699h4.218v-2.947l0.084-0.029c2.405-0.834,3.961-2.934,3.961-5.348
		C135.998,33.078,133.447,31.589,131.227,30.681z M131.293,41.055l-0.389,0.103v2.692h-2.129v-2.58l-0.467-0.051
		c-1.293-0.137-2.545-0.559-3.346-1.13l-0.158-0.114l0.793-2.207l0.272,0.181c0.995,0.663,2.321,1.059,3.549,1.059
		c1.67,0,2.792-0.905,2.792-2.254c0-0.884-0.332-1.837-2.74-2.813c-2.168-0.851-4.384-2.069-4.384-4.668
		c0-2.055,1.333-3.685,3.479-4.253l0.39-0.103v-2.616h2.104v2.487l0.463,0.05c1.026,0.115,1.924,0.403,2.74,0.881l0.188,0.113
		l-0.826,2.174l-0.261-0.15c-0.44-0.252-1.465-0.837-3.1-0.837c-1.701,0-2.461,0.977-2.461,1.945c0,1.229,0.932,1.822,3.021,2.686
		c1.921,0.783,4.126,2.051,4.126,4.926C134.954,38.7,133.518,40.46,131.293,41.055z"/>
</g>
<g display="none">
	<path display="inline" fill="#5C7080" d="M193.542,29.95c-0.687-0.686-1.595-1.063-2.562-1.063h-0.299
		c-0.584,0-1.142,0.135-1.656,0.401l-0.77,0.397l-0.146-0.854c-0.297-1.749-1.801-3.018-3.575-3.018h-0.298
		c-0.646,0-1.279,0.173-1.836,0.499l-0.648,0.382l-0.264-0.705c-0.529-1.41-1.896-2.357-3.398-2.357h-0.299
		c-0.563,0-1.104,0.126-1.605,0.375l-0.914,0.453v-7.561c0-2-1.627-3.626-3.625-3.626h-0.297c-2,0-3.627,1.627-3.627,3.626v16.569
		l-2.313,1.757c-1.427,1.084-2.331,2.659-2.548,4.438c-0.215,1.778,0.287,3.524,1.412,4.917l6.431,7.949v3.351
		c0,1.431,1.163,2.595,2.595,2.595h15.615c1.432,0,2.595-1.164,2.595-2.595l0.001-3.192l0.141-0.172
		c1.906-2.379,2.955-5.356,2.955-8.388V32.511C194.604,31.545,194.229,30.635,193.542,29.95z M193.501,44.128
		c-0.001,2.922-1.054,5.761-2.963,7.995c-0.086,0.1-0.134,0.227-0.134,0.357v3.398c0,0.82-0.668,1.489-1.488,1.489h-15.615
		c-0.82,0-1.488-0.669-1.488-1.489v-3.548c0-0.125-0.045-0.248-0.123-0.347l-6.553-8.102c-0.938-1.156-1.354-2.609-1.175-4.089
		c0.179-1.479,0.931-2.789,2.116-3.69l1.645-1.244v5.236c0,0.305,0.25,0.553,0.553,0.553c0.306,0,0.555-0.248,0.555-0.553V16.899
		c0-1.39,1.13-2.521,2.521-2.521h0.297c1.39,0,2.521,1.131,2.521,2.521l0.007,18.976c0,0.307,0.247,0.553,0.553,0.553
		c0.305-0.001,0.554-0.25,0.554-0.555l-0.007-8.613c0-1.39,1.131-2.521,2.521-2.521h0.298c1.391,0,2.521,1.131,2.521,2.521
		l0.006,8.616c0,0.453,0.624,0.71,0.945,0.392c0.104-0.104,0.16-0.244,0.16-0.392l-0.006-6.436c0-1.389,1.129-2.519,2.521-2.519
		h0.298c1.391,0,2.521,1.13,2.521,2.519l-0.008,6.436c0,0.306,0.249,0.554,0.555,0.554c0.305-0.002,0.554-0.25,0.554-0.557
		l-0.007-3.275l0.01-0.076c0.002-1.396,1.133-2.527,2.523-2.527h0.297c1.39,0,2.521,1.131,2.521,2.52v11.614H193.501z"/>
	<path display="inline" fill="#5C7080" d="M171.301,7.479c4.604,0,8.348,3.745,8.348,8.348c0,0.305,0.25,0.553,0.556,0.553
		c0.305,0,0.553-0.249,0.554-0.555c0-5.211-4.24-9.452-9.456-9.452c-5.213,0-9.454,4.241-9.454,9.454
		c0,0.305,0.248,0.553,0.553,0.553c0.306,0,0.554-0.249,0.554-0.553C162.952,11.224,166.697,7.479,171.301,7.479z"/>
</g>
</svg>
