<?xml version="1.0" encoding="utf-8"?>
<!-- Generator: Adobe Illustrator 16.0.0, SVG Export Plug-In . SVG Version: 6.00 Build 0)  -->
<!DOCTYPE svg PUBLIC "-//W3C//DTD SVG 1.1//EN" "http://www.w3.org/Graphics/SVG/1.1/DTD/svg11.dtd">
<svg version="1.1" id="Layer_1" xmlns="http://www.w3.org/2000/svg" xmlns:xlink="http://www.w3.org/1999/xlink" x="0px" y="0px"
	 width="256.08px" height="256.08px" viewBox="0 0 256.08 256.08" enable-background="new 0 0 256.08 256.08" xml:space="preserve">
<image display="none" overflow="visible" width="1067" height="1067" xlink:href="icon-fm-01.png"  transform="matrix(0.24 0 0 0.24 -588 0)">
</image>
<path display="none" fill="#3D7CBF" stroke="#3D7CBF" stroke-width="5" stroke-miterlimit="10" d="M-88.87,54.524
	c-41.344-41.334-108.354-41.334-149.681,0c-41.326,41.335-41.326,108.354,0,149.681c41.327,41.344,108.337,41.344,149.681,0
	C-47.527,162.879-47.527,95.859-88.87,54.524z M-192.006,38.009c-4.709,5.397-8.686,11.39-11.813,17.824
	c-2.62,5.287-4.864,10.752-6.682,16.362c-7.838-2.074-15.453-4.947-22.729-8.56C-221.907,51.711-207.713,42.888-192.006,38.009z
	 M-239.926,71.55c8.431,4.427,17.32,7.896,26.519,10.335c-3.504,13.88-5.407,28.108-5.696,42.421h-40.203
	C-258.286,105.175-251.538,86.789-239.926,71.55z M-239.926,187.309c-11.629-15.284-18.396-33.711-19.381-52.887h40.203
	c0.289,14.298,2.192,28.491,5.696,42.347C-222.622,179.268-231.513,182.803-239.926,187.309z M-233.194,195.095
	c7.24-3.622,14.855-6.494,22.693-8.553c1.836,5.594,4.062,11.067,6.682,16.354c3.16,6.443,7.139,12.427,11.863,17.833
	C-207.68,215.867-221.874,207.027-233.194,195.095z M-208.956,134.422h40.088v36.141c-11.664,0.256-23.291,1.564-34.715,3.894
	C-206.88,161.366-208.684,147.938-208.956,134.422z M-168.769,224.436c-12.97-3.196-24.511-18.514-31.823-40.255
	c10.489-2.108,21.132-3.299,31.823-3.569V224.436z M-168.769,124.307h-40.118c0.307-13.531,2.143-26.986,5.491-40.102
	c11.407,2.355,23,3.681,34.627,3.961V124.307z M-168.769,78.12c-10.676-0.255-21.334-1.436-31.823-3.519
	c7.362-21.819,18.854-37.101,31.823-40.306V78.12z M-87.475,71.635c11.592,15.222,18.323,33.574,19.344,52.672h-40.187
	c-0.306-14.279-2.209-28.482-5.677-42.336C-104.814,79.53-95.906,76.063-87.475,71.635z M-94.207,63.636
	c-7.243,3.63-14.859,6.494-22.711,8.56c-1.836-5.61-4.08-11.076-6.664-16.362c-3.163-6.434-7.14-12.427-11.832-17.824
	C-119.705,42.879-105.53,51.702-94.207,63.636z M-158.636,78.052V34.294c12.954,3.205,24.515,18.513,31.79,40.255
	c-10.472,2.107-21.115,3.298-31.79,3.57V78.052z M-123.922,84.265c3.332,13.124,5.168,26.579,5.472,40.11h-40.118l-0.067-36.209
	C-146.973,87.911-135.346,86.611-123.922,84.265z M-158.636,170.495v-36.073h40.086c-0.272,13.531-2.144,26.995-5.476,40.104
	c-11.389-2.347-22.983-3.672-34.61-3.963V170.495z M-158.636,224.436v-0.068v-43.756c10.675,0.253,21.318,1.427,31.79,3.535
	C-134.189,205.94-145.682,221.239-158.636,224.436z M-135.414,220.729c4.692-5.406,8.669-11.39,11.832-17.833
	c2.616-5.287,4.828-10.744,6.664-16.354c7.852,2.074,15.468,4.948,22.744,8.553C-105.494,207.027-119.705,215.851-135.414,220.729z
	 M-87.475,187.309c-8.432-4.488-17.34-7.99-26.556-10.455c3.537-13.889,5.44-28.118,5.713-42.432h40.118
	C-69.184,153.581-75.883,172.009-87.475,187.309z"/>
<g>
	<path fill="#3D7CBF" d="M225.014,138.194l-1.541-1.549c-5.968-5.993-5.968-8.745-0.002-14.724l1.511-1.613l-0.047-0.092
		c5.712-6.808,7.558-16.004,4.797-24.504c-2.786-8.633-9.822-15.041-18.603-17.083l-0.056-0.167l-1.801-0.286
		c-4.262-0.676-6.775-1.722-7.912-3.292c-1.141-1.576-1.354-4.305-0.671-8.59l0.297-2.415l-0.111-0.044
		c0.562-8.793-3.32-17.234-10.478-22.464c-4.415-3.21-9.616-4.907-15.042-4.907c-3.408,0-6.829,0.699-10,2.032l-0.128-0.096
		l-1.676,0.855c-3.713,1.896-6.536,2.599-8.313,2.013c-1.76-0.575-3.688-2.842-5.578-6.554l-1.113-2.013l-0.101,0.02
		c-4.69-7.524-12.821-12.11-21.727-12.11c-8.908,0-17.04,4.587-21.729,12.114l-0.182-0.036l-1.03,2.024
		c-2.395,4.706-4.348,6.159-5.568,6.551c-1.77,0.571-4.626-0.122-8.321-2.009l-1.436-0.667l-0.056,0.028
		c-3.255-1.414-6.784-2.156-10.299-2.156c-5.434,0-10.636,1.699-15.044,4.912c-7.308,5.328-11.208,14.022-10.445,23.028
		l-0.128,0.095l0.284,1.794c1.319,8.346-0.287,10.568-8.599,11.886l-2.53,0.481v0.133c-8.46,2.225-15.2,8.516-17.912,16.9
		c-2.79,8.593-0.884,17.876,4.955,24.688l-0.061,0.154l1.38,1.386c5.954,5.981,5.954,8.73,0,14.712l-1.349,1.466l0.029,0.074
		c-5.841,6.813-7.746,16.09-4.957,24.665c2.706,8.399,9.447,14.698,17.914,16.923v0.234l2.535,0.397
		c8.291,1.301,9.897,3.523,8.593,11.891l-0.215,1.838l0.057,0.042c-0.774,8.988,3.12,17.682,10.435,23.031
		c4.405,3.205,9.6,4.898,15.021,4.898c3.316,0,6.646-0.661,9.748-1.924l0.136,0.135l1.943-0.992c2.87-1.467,5.221-2.21,6.984-2.21
		c0.503,0,0.957,0.063,1.326,0.181c1.761,0.576,3.69,2.843,5.579,6.554l0.899,1.64h0.077c4.667,7.733,12.923,12.464,21.964,12.464
		c8.905,0,17.04-4.585,21.731-12.105l0.182,0.035l1.027-2.017c1.89-3.713,3.819-5.979,5.568-6.552
		c1.766-0.567,4.623,0.121,8.322,2.011l1.74,0.807l0.063-0.048c3.171,1.334,6.594,2.032,10.004,2.032
		c5.435,0,10.631-1.698,15.021-4.908c7.25-5.272,11.147-13.863,10.467-22.797l0.165-0.097l-0.323-2.027
		c-0.684-4.285-0.47-7.015,0.671-8.59c1.137-1.57,3.65-2.616,7.912-3.292l2.099-0.412l0.019-0.095
		c8.662-2.124,15.587-8.491,18.341-17.024c2.757-8.492,0.911-17.689-4.797-24.508L225.014,138.194z M185.752,192.14l-0.152,0.063
		l0.378,2.342c0.671,4.156-0.983,8.245-4.326,10.677c-1.835,1.345-4.009,2.056-6.286,2.056c-1.739,0-3.497-0.43-5.083-1.242
		l-1.755-0.817l-0.036,0.027c-4.317-1.986-8.231-2.955-11.92-2.955c-2.043,0-4.028,0.309-5.888,0.914
		c-5.293,1.695-9.656,5.696-13.299,12.207h-0.13l-0.831,1.651c-1.886,3.745-5.604,6.072-9.703,6.072
		c-4.094,0-7.813-2.328-9.705-6.076l-0.912-1.647h-0.051c-3.649-6.497-8.009-10.497-13.292-12.206
		c-5.274-1.693-11.123-1.037-17.821,2.033l-0.105-0.079l-1.679,0.862c-1.596,0.819-3.36,1.253-5.102,1.253
		c-2.27,0-4.443-0.711-6.286-2.056c-3.326-2.429-4.977-6.519-4.305-10.674l0.222-1.814l-0.043-0.032
		c1.661-14.582-4.997-23.74-19.355-26.62l-0.047-0.116l-1.678-0.269c-4.139-0.66-7.502-3.501-8.773-7.404
		c-1.268-3.939-0.206-8.221,2.771-11.171l1.323-1.313l-0.052-0.155c9.756-10.72,9.784-21.951,0.083-32.66l0.056-0.138l-1.406-1.399
		c-2.979-2.966-4.042-7.254-2.777-11.184c1.274-3.927,4.631-6.76,8.758-7.394l1.812-0.278l0.05-0.149
		c14.351-2.901,20.828-11.704,19.282-26.201l0.118-0.06l-0.342-2.155c-0.661-4.181,0.992-8.28,4.319-10.699
		c1.841-1.342,4.017-2.052,6.292-2.052c1.739,0,3.495,0.431,5.076,1.246l1.744,0.817l0.043-0.033
		c6.712,3.079,12.549,3.75,17.836,2.045c5.292-1.729,9.648-5.729,13.28-12.202h0.132l0.831-1.651
		c1.891-3.755,5.608-6.088,9.703-6.088c4.092,0,7.816,2.336,9.723,6.096l0.897,1.644h0.044c3.621,6.468,7.973,10.467,13.263,12.201
		c1.88,0.616,3.873,0.929,5.925,0.929c3.773,0,7.794-1.018,12.252-3.105l0.094,0.047l1.359-0.693
		c1.595-0.814,3.358-1.244,5.101-1.244c2.28,0,4.455,0.711,6.294,2.059c3.327,2.429,4.977,6.519,4.306,10.674l-0.302,2.398
		l0.07,0.028c-1.479,14.4,5.031,23.146,19.384,26.032l0.051,0.131l1.715,0.263c4.138,0.635,7.493,3.471,8.761,7.413
		c1.277,3.918,0.219,8.197-2.763,11.165l-1.317,1.311l0.05,0.148c-9.866,10.807-9.807,22.142,0.176,32.947l-0.025,0.142l1.117,1.111
		c2.98,2.968,4.039,7.253,2.761,11.187c-1.266,3.911-4.625,6.744-8.768,7.393l-1.823,0.285l-0.047,0.146
		C190.94,168.994,184.322,177.938,185.752,192.14z"/>
	<polygon fill="#3D7CBF" points="117.918,144.563 96.864,119.205 85.479,128.666 113.107,161.949 122.712,161.949 172.363,102.16 
		160.979,92.698 	"/>
</g>
</svg>
