<?xml version="1.0" encoding="utf-8"?>
<!-- Generator: Adobe Illustrator 16.0.0, SVG Export Plug-In . SVG Version: 6.00 Build 0)  -->
<!DOCTYPE svg PUBLIC "-//W3C//DTD SVG 1.1//EN" "http://www.w3.org/Graphics/SVG/1.1/DTD/svg11.dtd">
<svg version="1.1" id="Layer_1" xmlns="http://www.w3.org/2000/svg" xmlns:xlink="http://www.w3.org/1999/xlink" x="0px" y="0px"
	 width="256px" height="256px" viewBox="0 0 256 256" enable-background="new 0 0 256 256" xml:space="preserve">
<g>
	<path fill="#417CBF" d="M204.766,198.975c37.397-42.354,33.383-107.234-8.929-144.631c-26.625-23.552-63.857-31.498-97.854-21.135
		l0.328,19.783c28.876-10.977,61.604-5.201,85.032,15.483c34.529,30.515,37.806,83.476,7.291,118.005l-2.949,3.359l-12.329-10.896
		l0.615,38.134l37.928-4.096l-12.041-10.65L204.766,198.975z"/>
	<path fill="#417CBF" d="M72.67,193.813c-34.529-30.515-37.806-83.477-7.291-118.006l2.99-3.358l12.206,10.772l-0.614-38.133
		l-37.929,4.096l12.205,10.771l-2.989,3.359c-37.396,42.312-33.424,107.192,8.929,144.63c26.584,23.511,63.734,31.498,97.689,21.218
		l-0.327-19.784C128.703,220.232,96.017,214.457,72.67,193.813z"/>
	<path fill="#417CBF" d="M141.811,130.038l-1.147,2.212L141.811,130.038l-0.942-0.491c-2.212-1.188-4.014-2.13-5.447-2.867V94.157
		c9.134,2.949,9.707,10.813,9.748,12.534l0.041,2.457l14.787,0.041v-2.498c0.041-8.233-5.162-24.248-24.576-27.771v-7.414h-14.828
		v7.332c-9.134,1.598-16.588,6.227-21.135,13.189c-5.161,7.946-5.652,17.449-1.27,26.092c3.973,7.864,11.223,11.715,16.015,14.213
		l0.983,0.532c2.212,1.188,4.014,2.13,5.447,2.867v32.522c-9.134-2.949-9.707-10.854-9.748-12.533l-0.041-2.458l-7.373,0.041h-7.414
		v2.499c0,8.232,5.161,24.248,24.576,27.77v7.414h14.828v-7.332c9.134-1.597,16.588-6.226,21.135-13.188
		c5.202-7.946,5.652-17.449,1.27-26.092C153.853,136.346,146.603,132.537,141.811,130.038z M120.593,118.855
		c-3.686-1.965-7.414-4.014-9.175-7.495c-1.925-3.769-1.761-7.905,0.45-11.264c1.844-2.826,4.875-4.956,8.725-6.103V118.855
		L120.593,118.855z M144.146,162.191c-1.844,2.826-4.875,4.957-8.725,6.104v-24.863c3.686,1.967,7.414,4.015,9.175,7.496
		C146.521,154.737,146.356,158.833,144.146,162.191z"/>
</g>
</svg>
