<?xml version="1.0" encoding="utf-8"?>
<!-- Generator: Adobe Illustrator 16.0.0, SVG Export Plug-In . SVG Version: 6.00 Build 0)  -->
<!DOCTYPE svg PUBLIC "-//W3C//DTD SVG 1.1//EN" "http://www.w3.org/Graphics/SVG/1.1/DTD/svg11.dtd">
<svg version="1.1" id="Layer_1" xmlns="http://www.w3.org/2000/svg" xmlns:xlink="http://www.w3.org/1999/xlink" x="0px" y="0px"
	 width="26px" height="26px" viewBox="3 -0.2 26 26" enable-background="new 3 -0.2 26 26" xml:space="preserve">
<title>usr</title>
<path fill="#5C7080" d="M16,12.6c3.479,0,6.3-2.821,6.3-6.3c0-3.479-2.82-6.3-6.3-6.3S9.7,2.821,9.7,6.3
	C9.705,9.777,12.522,12.595,16,12.6z M16,1.876c2.442,0,4.422,1.98,4.422,4.422c0,2.443-1.979,4.423-4.422,4.423
	c-2.442,0-4.422-1.979-4.422-4.422c0.003-2.44,1.981-4.418,4.422-4.421V1.876z"/>
<path fill="#5C7080" d="M6.012,25.6c0-5.508,4.48-9.988,9.988-9.988c5.508,0,9.988,4.48,9.988,9.988h1.879
	c0-6.554-5.313-11.866-11.868-11.866c-3.147,0-6.165,1.25-8.391,3.476C5.376,19.43,4.125,22.451,4.133,25.6H6.012z"/>
</svg>
