<?xml version="1.0" encoding="utf-8"?>
<!-- Generator: Adobe Illustrator 16.0.0, SVG Export Plug-In . SVG Version: 6.00 Build 0)  -->
<!DOCTYPE svg PUBLIC "-//W3C//DTD SVG 1.1//EN" "http://www.w3.org/Graphics/SVG/1.1/DTD/svg11.dtd">
<svg version="1.1" id="Layer_1" xmlns="http://www.w3.org/2000/svg" xmlns:xlink="http://www.w3.org/1999/xlink" x="0px" y="0px"
	 width="256px" height="256px" viewBox="0 0 256 256" enable-background="new 0 0 256 256" xml:space="preserve">
<g>
	<circle fill="#5C7080" cx="128.146" cy="132.97" r="118"/>
	<g>
		<path fill="#FFFFFF" stroke="#FFFFFF" stroke-miterlimit="10" d="M105.299,116.005h-4.215v-11.346h-4.235v11.346h-4.213
			c-1.306,0-2.117,0.812-2.117,2.117v41.006c0,1.308,0.811,2.118,2.117,2.118h4.213v10.286h4.235v-10.286h4.215
			c1.018,0,2.117-0.811,2.117-2.118v-41.006C107.417,116.814,106.317,116.005,105.299,116.005z M103.181,157.011h-8.429V120.24
			h8.429V157.011z"/>
		<path fill="#FFFFFF" stroke="#FFFFFF" stroke-miterlimit="10" d="M130.928,95.2h-4.215v-9.792h-4.235V95.2h-4.214
			c-1.307,0-2.116,1.099-2.116,2.117v41.309c0,1.019,0.809,2.117,2.116,2.117h4.214v10.323h4.235v-10.323h4.215
			c1.01,0,2.116-1.108,2.116-2.117V97.317C133.044,96.309,131.938,95.2,130.928,95.2z M128.811,136.508h-8.429V99.435h8.429V136.508
			z"/>
		<path fill="#FFFFFF" stroke="#FFFFFF" stroke-miterlimit="10" d="M156.557,116.005h-4.214v-11.346h-4.235v11.346h-4.215
			c-1.306,0-2.117,0.812-2.117,2.117v41.006c0,1.308,0.813,2.118,2.117,2.118h4.215v10.286h4.235v-10.286h4.214
			c1.019,0,2.116-0.811,2.116-2.118v-41.006C158.673,116.814,157.574,116.005,156.557,116.005z M154.438,157.011h-8.429V120.24
			h8.429V157.011z"/>
	</g>
</g>
</svg>
