<?xml version="1.0" encoding="utf-8"?>
<!-- Generator: Adobe Illustrator 16.0.0, SVG Export Plug-In . SVG Version: 6.00 Build 0)  -->
<!DOCTYPE svg PUBLIC "-//W3C//DTD SVG 1.1//EN" "http://www.w3.org/Graphics/SVG/1.1/DTD/svg11.dtd">
<svg version="1.1" id="Layer_1" xmlns="http://www.w3.org/2000/svg" xmlns:xlink="http://www.w3.org/1999/xlink" x="0px" y="0px"
	 width="256px" height="256px" viewBox="0 0 256 256" enable-background="new 0 0 256 256" xml:space="preserve">
<g transform="translate(0,-1028.3622)">
	<path fill="#417CBF" d="M107.597,1065.352c-8.253,0-16.519,3.095-22.748,9.326l-57.071,57.094
		c-12.463,12.461-12.463,33.018,0,45.48l61.231,61.233H18.428v11.156h223.145v-11.156h-36.503l21.794-21.791
		c12.46-12.463,12.462-33.018,0-45.479l-96.536-96.538C124.096,1068.447,115.854,1065.35,107.597,1065.352z M107.577,1087.469
		c2.481,0,4.976,1.012,6.974,3.009l96.535,96.515c3.992,3.991,3.992,9.932,0,13.924l-35.499,35.497l-2.07,2.071h-52.952
		l-1.503-1.505l-75.508-75.506c-3.994-3.993-3.994-9.933,0-13.926l57.07-57.071C102.621,1088.481,105.093,1087.469,107.577,1087.469
		L107.577,1087.469z M130.021,1144.891c-4.545,0.435-7.925,3-10.59,5.665c-6.485,6.485-6.485,17.205,0,23.689
		c4.41,4.412,15.775,15.776,15.775,15.776c2.338,2.34,2.338,5.551,0,7.888c-1.757,1.759-3.113,2.399-3.77,2.463
		c-0.657,0.112-1.651-0.001-4.096-2.439l-27.633-27.61l-7.888,7.888l15.756,15.757l-8.042,8.063l7.889,7.888l8.041-8.062
		l3.922,3.922c3.89,3.951,8.595,6.149,13.141,5.709c4.546-0.447,7.914-3.01,10.568-5.666c6.485-6.483,6.485-17.181,0-23.665
		c0,0-11.364-11.365-15.776-15.776c-2.339-2.338-2.339-5.574,0-7.912c1.747-1.746,3.117-2.375,3.791-2.44
		c0.674-0.111,1.652-0.111,4.055,2.399h0.021l19.742,19.764l7.889-7.889l-7.889-7.89l7.868-7.866l-7.89-7.888l-7.867,7.865
		l-3.9-3.899C139.274,1146.659,134.565,1144.453,130.021,1144.891L130.021,1144.891z"/>
</g>
</svg>
