<?xml version="1.0" encoding="utf-8"?>
<!-- Generator: Adobe Illustrator 16.0.0, SVG Export Plug-In . SVG Version: 6.00 Build 0)  -->
<!DOCTYPE svg PUBLIC "-//W3C//DTD SVG 1.1//EN" "http://www.w3.org/Graphics/SVG/1.1/DTD/svg11.dtd">
<svg version="1.1" id="Layer_1" xmlns="http://www.w3.org/2000/svg" xmlns:xlink="http://www.w3.org/1999/xlink" x="0px" y="0px"
	 width="64px" height="64px" viewBox="0 0 64 64" enable-background="new 0 0 64 64" xml:space="preserve">
<g display="none">
	<rect x="-138.191" y="47.479" display="inline" fill="#5C7080" width="1.263" height="9.022"/>
	<g display="inline">
		<rect x="-128.852" y="42.57" fill="#5C7080" width="1.263" height="13.931"/>
		<rect x="-119.52" y="36.547" fill="#5C7080" width="1.263" height="19.954"/>
		<rect x="-110.186" y="41.126" fill="#5C7080" width="1.261" height="15.375"/>
		<rect x="-100.855" y="32.26" fill="#5C7080" width="1.265" height="24.241"/>
		<rect x="-91.521" y="24.07" fill="#5C7080" width="1.263" height="32.431"/>
		<polygon fill="#5C7080" points="-103.569,6.655 -103.569,7.918 -92.322,7.918 -104.296,19.858 -109.821,14.334 -122.184,26.016 
			-128.347,19.846 -140.37,29.507 -139.574,30.492 -128.442,21.538 -122.209,27.777 -109.847,16.095 -104.296,21.646 -91.521,8.909 
			-91.521,19.966 -90.258,19.966 -90.258,6.655 		"/>
	</g>
</g>
<g display="none">
	<path display="inline" fill="#5C7080" d="M-39.533,29.034c-4.245-1.753-4.573-2.55-4.573-3.485c0-1.266,1.106-2.021,2.959-2.021
		c2.596,0,4.215,0.932,4.907,1.329l2.045,1.168l2.61-6.883l-1.465-0.859c-1.518-0.891-3.151-1.458-4.992-1.734l-0.106-0.016v-4.715
		h-6.932v5.148l-0.088,0.027c-4.312,1.345-6.989,4.839-6.989,9.117c0,5.682,4.544,8.23,8.988,9.974
		c4.044,1.643,4.044,2.991,4.044,3.716c0,1.546-1.434,2.584-3.566,2.584c-1.956,0-4.063-0.627-5.636-1.678l-2.143-1.431
		l-2.507,6.998l1.237,0.885c1.531,1.096,3.8,1.922,6.224,2.268l0.107,0.016v4.89h6.977v-5.296l0.088-0.027
		c4.445-1.4,7.317-5.145,7.317-9.535C-31.028,33.3-35.574,30.651-39.533,29.034z M-39.171,48.029l-0.435,0.115v5.016h-4.633v-4.762
		l-0.525-0.058c-2.432-0.258-4.786-1.056-6.297-2.136l-0.519-0.369l0.032-0.089l1.671-4.661l0.897,0.596
		c1.755,1.174,4.104,1.873,6.286,1.873c2.834,0,4.737-1.509,4.737-3.755c0-1.487-0.579-3.098-4.783-4.803
		c-4.079-1.601-8.25-3.906-8.25-8.886c0-3.934,2.545-7.052,6.641-8.136l0.435-0.116v-4.871h4.59v4.585l0.52,0.057
		c1.937,0.216,3.624,0.759,5.159,1.661l0.613,0.36l-1.773,4.677l-0.854-0.488c-0.773-0.444-2.581-1.484-5.489-1.484
		c-3.049,0-4.131,1.719-4.131,3.191c0,1.846,1.188,2.871,5.299,4.57c3.623,1.478,7.782,3.877,7.782,9.355
		C-32.198,43.539-34.936,46.896-39.171,48.029z"/>
	<path display="inline" fill="#5C7080" d="M-64.393,30.681c-2.376-0.983-2.376-1.375-2.376-1.721c0-0.573,0.517-0.902,1.416-0.902
		c1.363,0,2.219,0.491,2.584,0.7l1.32,0.756l1.571-4.144l-0.948-0.556c-0.794-0.465-1.639-0.772-2.584-0.938l-0.104-0.018v-2.605
		h-4.191v2.869l-0.085,0.029c-2.333,0.799-3.783,2.76-3.783,5.118c0,3.227,2.547,4.661,5.039,5.637
		c2.083,0.846,2.083,1.496,2.083,1.846c0,0.725-0.701,1.21-1.745,1.21c-1.033,0-2.144-0.33-2.969-0.884l-1.386-0.926l-1.512,4.214
		l0.802,0.569c0.813,0.58,2.006,1.033,3.271,1.241l0.104,0.017v2.699h4.215v-2.949l0.084-0.028c2.408-0.831,3.964-2.929,3.964-5.345
		C-59.62,33.076-62.171,31.587-64.393,30.681z M-64.325,41.055l-0.386,0.103v2.692h-2.129v-2.58l-0.469-0.051
		c-1.295-0.137-2.546-0.56-3.345-1.131l-0.159-0.111l0.793-2.209l0.272,0.181c0.995,0.663,2.321,1.059,3.55,1.059
		c1.67,0,2.792-0.905,2.792-2.254c0-0.884-0.332-1.836-2.743-2.813c-2.167-0.851-4.383-2.07-4.383-4.668
		c0-2.055,1.334-3.685,3.48-4.253l0.389-0.102v-2.617h2.104v2.487l0.464,0.05c1.028,0.116,1.924,0.404,2.74,0.881l0.188,0.113
		l-0.826,2.174l-0.261-0.15c-0.443-0.253-1.468-0.837-3.103-0.837c-1.698,0-2.458,0.977-2.458,1.945
		c0,1.229,0.932,1.822,3.021,2.686c1.921,0.784,4.127,2.052,4.127,4.926C-60.662,38.699-62.099,40.459-64.325,41.055z"/>
	<path display="inline" fill="#5C7080" d="M-15.774,30.681c-2.378-0.983-2.378-1.375-2.378-1.721c0-0.573,0.517-0.902,1.417-0.902
		c1.362,0,2.217,0.49,2.582,0.7l1.324,0.756l1.57-4.144l-0.948-0.556c-0.795-0.465-1.64-0.772-2.584-0.938l-0.104-0.018v-2.605
		h-4.192v2.869l-0.085,0.029c-2.333,0.799-3.783,2.76-3.783,5.118c0,3.228,2.547,4.661,5.038,5.637
		c2.085,0.846,2.085,1.496,2.085,1.846c0,0.725-0.702,1.21-1.747,1.21c-1.032,0-2.143-0.33-2.969-0.884l-1.385-0.926l-1.51,4.214
		l0.801,0.569c0.813,0.58,2.006,1.033,3.272,1.242l0.104,0.018v2.699h4.218v-2.947l0.084-0.029c2.406-0.834,3.961-2.934,3.961-5.348
		C-11.002,33.078-13.553,31.589-15.774,30.681z M-15.707,41.055l-0.388,0.103v2.692h-2.129v-2.58l-0.467-0.051
		c-1.294-0.137-2.545-0.559-3.346-1.13l-0.158-0.114l0.793-2.207l0.272,0.181c0.995,0.663,2.321,1.059,3.549,1.059
		c1.67,0,2.792-0.905,2.792-2.254c0-0.884-0.332-1.837-2.741-2.813c-2.167-0.851-4.383-2.069-4.383-4.668
		c0-2.055,1.333-3.685,3.479-4.253l0.39-0.103v-2.616h2.105v2.487l0.463,0.05c1.026,0.115,1.923,0.403,2.74,0.881l0.188,0.113
		l-0.826,2.174l-0.261-0.15c-0.44-0.252-1.464-0.837-3.1-0.837c-1.7,0-2.461,0.977-2.461,1.945c0,1.229,0.933,1.822,3.022,2.686
		c1.921,0.783,4.126,2.051,4.126,4.926C-12.046,38.7-13.483,40.46-15.707,41.055z"/>
</g>
<g>
	<path fill="#FFFFFF" d="M46.542,29.95c-0.687-0.686-1.595-1.063-2.562-1.063h-0.299c-0.584,0-1.142,0.135-1.656,0.401l-0.77,0.397
		l-0.146-0.854c-0.297-1.749-1.801-3.018-3.575-3.018h-0.298c-0.646,0-1.279,0.173-1.836,0.499l-0.648,0.382l-0.264-0.705
		c-0.529-1.41-1.896-2.357-3.398-2.357h-0.299c-0.563,0-1.103,0.126-1.605,0.375l-0.914,0.453v-7.561c0-2-1.627-3.626-3.626-3.626
		H24.35c-2,0-3.627,1.627-3.627,3.626v16.569l-2.313,1.757c-1.427,1.084-2.331,2.659-2.548,4.438
		c-0.215,1.778,0.287,3.524,1.413,4.917l6.43,7.949v3.351c0,1.431,1.163,2.595,2.595,2.595h15.615c1.431,0,2.595-1.164,2.595-2.595
		l0.002-3.192l0.139-0.172c1.906-2.379,2.955-5.356,2.955-8.388V32.511C47.604,31.545,47.229,30.635,46.542,29.95z M46.501,44.128
		c-0.001,2.922-1.054,5.761-2.963,7.995c-0.086,0.1-0.134,0.227-0.134,0.357v3.398c0,0.82-0.668,1.489-1.488,1.489H26.301
		c-0.821,0-1.489-0.669-1.489-1.489v-3.548c0-0.125-0.044-0.248-0.123-0.347l-6.553-8.102c-0.938-1.156-1.354-2.609-1.174-4.089
		c0.179-1.479,0.931-2.789,2.116-3.69l1.645-1.244v5.236c0,0.305,0.249,0.553,0.553,0.553c0.305,0,0.554-0.248,0.554-0.553V16.899
		c0-1.39,1.13-2.521,2.521-2.521h0.297c1.39,0,2.521,1.131,2.521,2.521l0.007,18.976c0,0.307,0.247,0.553,0.552,0.553
		c0.305-0.001,0.554-0.25,0.554-0.555l-0.007-8.613c0-1.39,1.131-2.521,2.521-2.521h0.298c1.39,0,2.521,1.131,2.521,2.521
		l0.006,8.616c0,0.453,0.624,0.71,0.945,0.392c0.104-0.104,0.16-0.244,0.16-0.392l-0.006-6.436c0-1.389,1.129-2.519,2.521-2.519
		h0.298c1.391,0,2.521,1.13,2.521,2.519l-0.008,6.436c0,0.306,0.249,0.554,0.555,0.554c0.305-0.002,0.554-0.25,0.554-0.557
		l-0.007-3.275l0.01-0.076c0.002-1.396,1.133-2.527,2.523-2.527h0.297c1.39,0,2.521,1.131,2.521,2.52v11.614H46.501z"/>
	<path fill="#FFFFFF" d="M24.301,7.479c4.603,0,8.348,3.745,8.348,8.348c0,0.305,0.25,0.553,0.556,0.553
		c0.305,0,0.553-0.249,0.554-0.555c0-5.211-4.241-9.452-9.456-9.452c-5.213,0-9.454,4.241-9.454,9.454
		c0,0.305,0.248,0.553,0.553,0.553c0.305,0,0.553-0.249,0.553-0.553C15.952,11.224,19.697,7.479,24.301,7.479z"/>
</g>
</svg>
