<?xml version="1.0" encoding="utf-8"?>
<!-- Generator: Adobe Illustrator 16.0.0, SVG Export Plug-In . SVG Version: 6.00 Build 0)  -->
<!DOCTYPE svg PUBLIC "-//W3C//DTD SVG 1.1//EN" "http://www.w3.org/Graphics/SVG/1.1/DTD/svg11.dtd">
<svg version="1.1" id="Layer_1" xmlns="http://www.w3.org/2000/svg" xmlns:xlink="http://www.w3.org/1999/xlink" x="0px" y="0px"
	 width="256px" height="256px" viewBox="0 0 256 256" enable-background="new 0 0 256 256" xml:space="preserve">
<path fill="#417CBF" d="M30.095,102.908c0,10.997-16.719,10.997-16.719,0V47.181c0-4.618,3.743-8.36,8.361-8.36h211.77
	c4.613,0,8.358,3.743,8.358,8.36v52.94c0,10.997-16.718,10.997-16.718,0V55.54H30.095V102.908z M96.769,163.948
	c-7.386-8.073,4.892-19.304,12.276-11.231l10.218,11.177v-58.461c0-10.997,16.721-10.997,16.721,0v58.461l10.213-11.177
	c7.388-8.072,19.664,3.158,12.279,11.231l-24.626,26.939c-3.269,3.675-9.03,3.741-12.368,0.096L96.769,163.948z M50.296,65.291
	h154.649c4.615,0,8.356,3.743,8.356,8.358v143.5c0,4.618-3.741,8.361-8.356,8.361H50.296c-4.615,0-8.357-3.743-8.357-8.361v-143.5
	C41.938,69.034,45.681,65.291,50.296,65.291L50.296,65.291z M196.584,82.009H58.657v126.784h137.927V82.009z"/>
</svg>
