<?xml version="1.0" encoding="utf-8"?>
<!-- Generator: Adobe Illustrator 16.0.0, SVG Export Plug-In . SVG Version: 6.00 Build 0)  -->
<!DOCTYPE svg PUBLIC "-//W3C//DTD SVG 1.1//EN" "http://www.w3.org/Graphics/SVG/1.1/DTD/svg11.dtd">
<svg version="1.1" id="Layer_1" xmlns="http://www.w3.org/2000/svg" xmlns:xlink="http://www.w3.org/1999/xlink" x="0px" y="0px"
	 width="256px" height="256px" viewBox="0 0 256 256" enable-background="new 0 0 256 256" xml:space="preserve">
<g transform="translate(0,-1028.3622)" display="none">
	<path display="inline" fill="#417CBF" d="M107.597,191.8c-8.253,0-16.519,3.095-22.748,9.326L27.777,258.22
		c-12.463,12.461-12.463,33.018,0,45.48l61.231,61.233H18.428v11.156h223.145v-11.156h-36.503l21.794-21.791
		c12.46-12.463,12.462-33.018,0-45.479l-96.536-96.538C124.096,194.895,115.854,191.799,107.597,191.8z M107.577,213.917
		c2.481,0,4.976,1.012,6.974,3.009l96.535,96.515c3.992,3.991,3.992,9.932,0,13.924l-35.499,35.497l-2.07,2.071h-52.952
		l-1.503-1.505l-75.508-75.506c-3.994-3.993-3.994-9.933,0-13.926l57.07-57.071C102.621,214.929,105.093,213.917,107.577,213.917
		L107.577,213.917z M130.021,271.339c-4.545,0.435-7.925,3-10.59,5.665c-6.485,6.485-6.485,17.205,0,23.689
		c4.41,4.412,15.775,15.776,15.775,15.776c2.338,2.34,2.338,5.551,0,7.888c-1.757,1.759-3.113,2.399-3.77,2.463
		c-0.657,0.112-1.651-0.001-4.096-2.439l-27.633-27.61l-7.888,7.888l15.756,15.757l-8.042,8.063l7.889,7.888l8.041-8.062
		l3.922,3.922c3.89,3.951,8.595,6.149,13.141,5.709c4.546-0.447,7.914-3.01,10.568-5.666c6.485-6.483,6.485-17.181,0-23.665
		c0,0-11.364-11.365-15.776-15.776c-2.339-2.338-2.339-5.574,0-7.912c1.747-1.746,3.117-2.375,3.791-2.44
		c0.674-0.111,1.652-0.111,4.055,2.399h0.021l19.742,19.764l7.889-7.889l-7.889-7.89l7.868-7.866l-7.89-7.888l-7.867,7.865
		l-3.9-3.899C139.274,273.107,134.565,270.901,130.021,271.339L130.021,271.339z"/>
</g>
<g display="none">
	<path display="inline" fill="#417CBF" d="M500.766-674.577c37.397-42.354,33.383-107.234-8.929-144.631
		c-26.625-23.552-63.857-31.498-97.854-21.135l0.328,19.783c28.876-10.977,61.604-5.201,85.032,15.483
		c34.529,30.515,37.806,83.476,7.291,118.005l-2.949,3.359l-12.329-10.896l0.615,38.134l37.928-4.096l-12.041-10.65L500.766-674.577
		z"/>
	<path display="inline" fill="#417CBF" d="M368.67-679.739c-34.529-30.515-37.806-83.477-7.291-118.006l2.99-3.358l12.206,10.772
		l-0.614-38.133l-37.929,4.096l12.205,10.771l-2.989,3.359c-37.396,42.312-33.424,107.192,8.929,144.63
		c26.584,23.511,63.734,31.498,97.689,21.218l-0.327-19.784C424.703-653.319,392.017-659.095,368.67-679.739z"/>
	<path display="inline" fill="#417CBF" d="M437.811-743.514l-1.147,2.212L437.811-743.514l-0.942-0.491
		c-2.212-1.188-4.014-2.13-5.447-2.867v-32.522c9.134,2.949,9.707,10.813,9.748,12.534l0.041,2.457l14.787,0.041v-2.498
		c0.041-8.233-5.162-24.248-24.576-27.771v-7.414h-14.828v7.332c-9.134,1.598-16.588,6.227-21.135,13.189
		c-5.161,7.946-5.652,17.449-1.27,26.092c3.973,7.864,11.223,11.715,16.015,14.213l0.983,0.532c2.212,1.188,4.014,2.13,5.447,2.867
		v32.522c-9.134-2.949-9.707-10.854-9.748-12.533l-0.041-2.458l-7.373,0.041h-7.414v2.499c0,8.232,5.161,24.248,24.576,27.77v7.414
		h14.828v-7.332c9.134-1.597,16.588-6.226,21.135-13.188c5.202-7.946,5.652-17.449,1.27-26.092
		C449.853-737.206,442.603-741.015,437.811-743.514z M416.593-754.696c-3.686-1.965-7.414-4.014-9.175-7.495
		c-1.925-3.769-1.761-7.905,0.45-11.264c1.844-2.826,4.875-4.956,8.725-6.103V-754.696L416.593-754.696z M440.146-711.36
		c-1.844,2.826-4.875,4.957-8.725,6.104v-24.863c3.686,1.967,7.414,4.015,9.175,7.496
		C442.521-718.814,442.356-714.719,440.146-711.36z"/>
</g>
<g display="none">
	<path display="inline" fill="#FFFFFF" d="M502.165-94.749c37.397-42.354,33.383-107.234-8.929-144.631
		c-26.625-23.553-63.857-31.498-97.854-21.135l0.328,19.783c28.876-10.977,61.604-5.201,85.032,15.482
		c34.529,30.516,37.806,83.477,7.291,118.006l-2.949,3.359l-12.329-10.896l0.615,38.135l37.928-4.096l-12.041-10.65L502.165-94.749z
		"/>
	<path display="inline" fill="#FFFFFF" d="M370.069-99.911c-34.529-30.516-37.806-83.477-7.291-118.006l2.99-3.359l12.206,10.773
		l-0.614-38.133l-37.929,4.096l12.205,10.771l-2.989,3.359c-37.396,42.311-33.424,107.191,8.929,144.629
		c26.584,23.512,63.734,31.498,97.689,21.219l-0.327-19.785C426.103-73.491,393.416-79.267,370.069-99.911z"/>
	<path display="inline" fill="#FFFFFF" d="M439.21-163.687l-1.147,2.213L439.21-163.687l-0.942-0.49
		c-2.212-1.188-4.014-2.131-5.447-2.867v-32.523c9.134,2.949,9.707,10.814,9.748,12.535l0.041,2.457l14.787,0.041v-2.498
		c0.041-8.234-5.162-24.248-24.576-27.771v-7.414h-14.828v7.332c-9.134,1.598-16.588,6.227-21.135,13.189
		c-5.161,7.945-5.652,17.449-1.27,26.092c3.973,7.863,11.223,11.715,16.015,14.213l0.983,0.531c2.212,1.189,4.014,2.131,5.447,2.867
		v32.523c-9.134-2.949-9.707-10.855-9.748-12.533l-0.041-2.459l-7.373,0.041h-7.414v2.5c0,8.232,5.161,24.248,24.576,27.77v7.414
		h14.828v-7.332c9.134-1.598,16.588-6.227,21.135-13.189c5.202-7.945,5.652-17.449,1.27-26.092
		C451.252-157.378,444.002-161.187,439.21-163.687z M417.992-174.868c-3.686-1.965-7.414-4.014-9.175-7.496
		c-1.925-3.768-1.761-7.904,0.45-11.264c1.844-2.826,4.875-4.955,8.725-6.102V-174.868L417.992-174.868z M441.545-131.532
		c-1.844,2.826-4.875,4.957-8.725,6.104v-24.863c3.686,1.967,7.414,4.014,9.175,7.496
		C443.92-138.987,443.756-134.892,441.545-131.532z"/>
</g>
<path display="none" fill="#417CBF" d="M702.919-821.074c1.622-1.62,3.347-2.559,7.364-2.559h55.838
	c2.354,0,5.163,2.478,7.215,4.287c0.307,0.271,0.601,0.53,0.877,0.768c2.266,1.942,4.483,4.032,6.629,6.055
	c1.309,1.232,2.616,2.465,3.943,3.675c7.205,6.576,15.037,12.996,24.55,12.996h27.206v-14.632h-27.206
	c-2.956,0-5.868-1.998-8.598-4.042c-3.458-2.594-6.687-5.643-9.809-8.592l-1.246-1.176c-0.488-0.458-0.985-0.93-1.49-1.41
	c-5.888-5.595-13.216-12.558-22.071-12.558l-96.625-0.003c-8.862,0-16.193,6.968-22.083,12.567
	c-0.503,0.478-0.998,0.948-1.483,1.403l-1.233,1.162c-2.874,2.71-5.847,5.513-8.986,7.965c-2.384,1.865-5.983,4.684-9.432,4.684
	h-29.51v14.632h29.51c9.506,0,17.34-6.42,24.548-12.995c1.327-1.21,2.636-2.443,3.944-3.676c2.146-2.022,4.366-4.113,6.63-6.056
	c0.273-0.235,0.563-0.491,0.867-0.76c2.053-1.812,4.863-4.293,7.229-4.293h15.29l-20.199,20.2
	c-6.181,6.179-8.081,14.427-4.959,21.524c2.761,6.269,9.193,11.005,17.21,12.671c2.253,0.467,4.585,0.704,6.928,0.704
	c15.526,0,28.789-10.041,35.551-16.308h28.861l57.819,57.821c2.611,2.613,2.037,5.334,1.462,6.723
	c-1.096,2.646-3.804,4.566-6.441,4.567c-1.588,0-3.048-0.652-4.337-1.937l-37.521-37.526c-1.408-1.411-3.115-2.157-4.938-2.157
	c-2.939,0-5.824,2.007-7.015,4.881c-1.103,2.663-0.503,5.511,1.605,7.619l42.69,42.692c2.616,2.618,2.038,5.345,1.462,6.738
	c-1.097,2.646-3.804,4.565-6.438,4.565c-1.59,0.001-3.053-0.654-4.345-1.947l-42.711-42.709c-1.406-1.41-3.112-2.155-4.934-2.155
	c-2.941,0-5.828,2.008-7.019,4.883c-1.104,2.662-0.503,5.509,1.604,7.618l36.7,36.699c2.253,2.254,2.173,5.191,1.345,7.189
	c-0.82,1.979-2.824,4.096-5.993,4.096c-1.769,0-3.426-0.688-4.667-1.936l-36.712-36.715c-1.408-1.41-3.114-2.154-4.937-2.154
	c-2.94,0-5.826,2.007-7.018,4.882c-0.194,0.47-0.336,0.946-0.426,1.424c-2.781-3.763-6.781-6.613-11.473-7.851
	c0.924-5.691-0.537-11.536-4.1-16.229c-3.537-4.662-8.733-7.617-14.415-8.247c-0.069-5.212-2.04-10.09-5.624-13.856
	c-4.128-4.337-9.932-6.825-15.923-6.825c-5.479,0-10.654,2.158-14.573,6.077l-21.235,21.24c-2.877,2.886-4.826,6.512-5.682,10.548
	h-17.623v14.631h19.769c3.173,5.836,8.73,9.784,15.184,10.804c-0.173,5.488,1.759,10.712,5.516,14.838
	c4.384,4.815,10.723,7.38,17.194,6.897c1.938,9.819,10.716,17.064,20.958,17.064c1.848,0,3.677-0.246,5.455-0.733
	c2.811,8.467,11.023,14.473,20.071,14.473c5.663,0,10.993-2.212,15.012-6.228l2.28-2.283l2.281,2.282
	c3.917,3.921,9.157,6.081,14.757,6.081c9.337,0,17.484-5.822,20.313-14.327c1.78,0.484,3.617,0.73,5.474,0.73
	c9.271,0,17.4-5.872,20.263-14.449c1.816,0.508,3.668,0.764,5.521,0.764c6.522,0,12.839-3.236,16.896-8.657
	c3.746-5.006,5.082-11.184,3.757-17.149c5.292-1.594,9.729-5.199,12.409-10.104h16.664v-14.637h-14.515
	c-0.855-4.038-2.806-7.663-5.685-10.547l-59.961-59.964c-1.385-1.383-3.223-2.144-5.174-2.144h-34.838c-3.19,0-5.33,2.14-7.22,4.027
	c-0.514,0.514-0.999,1-1.486,1.426c-2.768,2.411-5.453,4.367-8.209,5.981c-4.418,2.59-8.813,4.155-13.064,4.651
	c-2.584,0.301-5.005,0.202-7.128-0.296c-3.144-0.741-5.552-2.549-6.135-4.606c-0.44-1.545,0.169-3.156,1.807-4.792L702.919-821.074z
	 M648.18-705.42l22.207-22.199c1.292-1.292,2.757-1.947,4.352-1.947c2.639,0,5.35,1.92,6.446,4.565
	c0.573,1.388,1.148,4.105-1.465,6.718l-22.205,22.205c-1.244,1.243-2.9,1.928-4.664,1.928c-1.766,0-3.425-0.685-4.671-1.928
	C645.604-698.654,645.604-702.844,648.18-705.42z M660.993-738.925l-21.251,21.251c-1.175,1.171-2.871,1.843-4.653,1.843
	c-1.789,0-3.49-0.677-4.67-1.856c-1.242-1.241-1.925-2.898-1.925-4.666s0.687-3.426,1.932-4.671l21.232-21.238
	c1.294-1.293,2.759-1.949,4.354-1.949c2.638,0,5.348,1.919,6.441,4.563C663.03-744.259,663.604-741.539,660.993-738.925z
	 M695.161-694.373l-0.146,0.146l-0.001,0.002c-1.511,1.514-14.991,14.989-15.104,15.104c-1.252,1.251-2.91,1.94-4.673,1.94
	c-3.171,0-5.181-2.128-6.004-4.12c-0.822-1.988-0.902-4.908,1.338-7.144l0.083-0.083c0.452-0.453,2.846-2.847,5.602-5.603
	c7.454-7.455,9.149-9.151,9.568-9.583l0.005,0.005c1.293-1.293,2.757-1.948,4.351-1.948c2.636,0,5.345,1.919,6.44,4.563
	C697.195-699.705,697.771-696.984,695.161-694.373z M705.575-665.419c-1.291,1.293-2.753,1.949-4.345,1.949
	c-2.618,0-5.319-1.908-6.422-4.534c-0.581-1.385-1.171-4.099,1.394-6.709l7.523-7.518c1.223-1.228,2.922-1.932,4.66-1.932
	c3.17,0,5.178,2.117,5.998,4.099c0.825,1.994,0.907,4.926-1.341,7.176l-0.061,0.061C712.312-672.154,705.576-665.42,705.575-665.419
	z M727.526-668.729c2.789-6.035,2.533-13.083-0.737-19.056c-0.153-0.283-0.314-0.563-0.481-0.837l13.882,13.882
	c2.599,2.618,2.019,5.332,1.442,6.717c-1.098,2.637-3.806,4.55-6.438,4.55c-1.597,0-3.062-0.655-4.355-1.95L727.526-668.729z
	 M719.119-695.811c-2.288-1.378-4.836-2.313-7.522-2.727c0.048-1.826-0.146-3.623-0.556-5.351L719.119-695.811z"/>
<rect x="1064.756" y="-765.755" display="none" fill="none" width="17.169" height="90.535"/>
<rect x="932.074" y="-765.755" display="none" fill="none" width="17.17" height="90.535"/>
<rect x="998.414" y="-819.607" display="none" fill="none" width="17.172" height="91.316"/>
<g display="none">
	<path display="inline" fill="#417CBF" d="M957.05-781.364h-8.585v-28.097c0-0.424-0.055-0.849-0.142-1.27H932.97
		c-0.072,0.42-0.116,0.845-0.116,1.27v28.097h-8.585c-4.683,0-7.804,3.122-7.804,7.805v106.144c0,4.685,3.121,7.807,7.804,7.807
		h8.585v26.626h15.611v-26.626h8.585c3.901,0,7.805-3.122,7.805-7.807v-106.144C964.854-778.242,960.951-781.364,957.05-781.364z
		 M949.244-675.22h-17.17v-90.535h17.17V-675.22z"/>
	<path display="inline" fill="#417CBF" d="M1023.39-835.216h-8.585v-25.346h-15.609v25.346h-8.585c-4.685,0-7.804,3.902-7.804,7.804
		v106.925c0,3.903,3.119,7.805,7.804,7.805h8.585v26.726h15.609v-26.726h8.585c3.903,0,7.804-3.901,7.804-7.805v-106.925
		C1031.193-831.314,1027.293-835.216,1023.39-835.216z M1015.586-728.291h-17.172v-91.316h17.172V-728.291z"/>
	<path display="inline" fill="#417CBF" d="M1089.731-781.364h-8.585v-28.097c0-0.424-0.055-0.849-0.142-1.27h-15.354
		c-0.072,0.42-0.116,0.845-0.116,1.27v28.097h-8.585c-4.683,0-7.805,3.122-7.805,7.805v106.144c0,4.685,3.122,7.807,7.805,7.807
		h8.585v26.626h15.611v-26.626h8.585c3.901,0,7.804-3.122,7.804-7.807v-106.144C1097.535-778.242,1093.633-781.364,1089.731-781.364
		z M1081.925-675.22h-17.169v-90.535h17.169V-675.22z"/>
</g>
<g>
	<path fill="#417CBF" d="M-258.831-535.102h162.74v25.392h13.618v-30.47c0-4.617-3.923-8.542-8.539-8.542h-172.667
		c-4.617,0-8.541,3.925-8.541,8.542v117.033c0,4.617,3.693,8.54,8.541,8.54h69.481v15.468h-15.235c-2.309,0-4.155,1.847-4.155,4.154
		v8.079c0,2.31,1.847,4.156,4.155,4.156h64.634c2.308,0,4.154-1.847,4.154-4.156v-8.079c0-2.308-1.847-4.154-4.154-4.154h-15.467
		v-15.468h31.856v-29.776h-130.423V-535.102z M-177.346-435.612c3.231,0,6.002,2.771,6.002,6.002c0,3.232-2.771,6.003-6.002,6.003
		c-3.232,0-6.002-2.771-6.002-6.003C-183.349-432.842-180.578-435.612-177.346-435.612z"/>
	<path fill="#417CBF" d="M-62.158-500.015h-47.553c-5.079,0-9.002,4.155-9.002,9.232v99.261c0,5.078,4.154,9.233,9.002,9.233h47.553
		c5.079,0,9.233-4.155,9.233-9.233v-99.491C-52.925-496.091-57.079-500.015-62.158-500.015z M-93.553-493.32h15.005
		c1.153,0,2.078,0.922,2.078,2.077c0,1.154-0.925,2.077-2.078,2.077h-15.005c-1.153,0-2.076-0.923-2.076-2.077
		C-95.629-492.398-94.706-493.32-93.553-493.32z M-85.934-389.213c-3.231,0-6.003-2.771-6.003-6.002s2.771-6.002,6.003-6.002
		s6.001,2.771,6.001,6.002S-82.702-389.213-85.934-389.213z M-62.852-407.911h-46.166v-74.561h46.397v74.561H-62.852z"/>
</g>
<g display="none">
	<path display="inline" fill="#417CBF" d="M205.95-537.685c-4.108-4.109-10.849-4.109-14.957,0L56.049-402.741
		c-4.109,4.109-4.109,10.849,0,14.958c2.137,2.136,4.767,3.122,7.396,3.122s5.425-0.986,7.396-3.122l134.943-134.944
		C210.06-526.837,210.06-533.576,205.95-537.685z"/>
	<path display="inline" fill="#417CBF" d="M87.278-472.103c18.902,0,34.353-15.451,34.353-34.353
		c0-18.902-15.45-34.353-34.353-34.353s-34.352,15.45-34.352,34.353C52.927-487.554,68.376-472.103,87.278-472.103z M87.278-519.604
		c7.232,0,13.149,5.917,13.149,13.149c0,7.231-5.917,13.148-13.149,13.148s-13.149-5.917-13.149-13.148
		C74.129-513.688,80.046-519.604,87.278-519.604z"/>
	<path display="inline" fill="#417CBF" d="M174.721-453.365c-18.902,0-34.353,15.449-34.353,34.353
		c0,18.901,15.45,34.352,34.353,34.352s34.352-15.45,34.352-34.352C209.072-437.916,193.623-453.365,174.721-453.365z
		 M174.721-405.864c-7.232,0-13.149-5.916-13.149-13.148s5.917-13.15,13.149-13.15s13.149,5.918,13.149,13.15
		S181.953-405.864,174.721-405.864z"/>
</g>
<g display="none">
	<path display="inline" fill="#417CBF" d="M416.772-544.268c2.836,1.083,5.739,1.631,8.627,1.632c0,0,0.001,0,0.002,0
		c7.367,0,14.27-3.637,18.464-9.726c4.271-6.2,5.113-13.968,2.312-21.311c-2.134-5.589-6.563-10.019-12.153-12.15
		c-2.836-1.082-5.738-1.631-8.625-1.631c-7.367,0-14.271,3.635-18.466,9.726c-4.27,6.199-5.111,13.967-2.311,21.309
		C406.753-550.828,411.183-546.398,416.772-544.268z M410.998-571.32c1.457-3.707,4.417-6.668,8.123-8.123
		c2.071-0.814,4.184-1.227,6.277-1.227c5.171,0,10.004,2.561,12.926,6.852c2.98,4.372,3.519,9.859,1.479,15.054
		c-1.458,3.703-4.418,6.664-8.124,8.12c-2.071,0.814-4.184,1.228-6.277,1.228c-5.171,0-10.004-2.563-12.928-6.853
		C409.495-560.642,408.957-566.128,410.998-571.32z"/>
	<path display="inline" fill="#417CBF" d="M395.156-496.331h24.802v-0.002c0.054-0.064,0.078-0.092,0.134-0.153l-7.258-45.012
		c-0.012-0.066-0.067-0.113-0.136-0.113h-0.871c-9.945,0-18.007,8.061-18.007,18.007v25.938
		C393.82-496.928,394.417-496.331,395.156-496.331z"/>
	<path display="inline" fill="#417CBF" d="M437.98-541.62v0.006c-0.076,0.066-0.161,0.125-0.24,0.192l-7.246,44.934
		c0.053,0.063,0.08,0.091,0.135,0.154h25.008c0.737,0,1.34-0.6,1.34-1.34v-25.939c0-9.945-8.063-18.007-18.008-18.007H437.98z"/>
	<path display="inline" fill="#417CBF" d="M429.823-537.121c0.096-0.095,0.012-0.247-0.124-0.22
		c-1.383,0.325-2.817,0.509-4.303,0.509c-1.59,0-3.13-0.203-4.605-0.573c-0.133-0.031-0.221,0.12-0.125,0.217l2.694,2.696
		c0.028,0.025,0.04,0.063,0.04,0.104l-1.639,33.36c-0.002,0.039,0.015,0.075,0.039,0.104l3.383,3.381
		c0.053,0.053,0.138,0.053,0.191,0l3.38-3.381c0.026-0.028,0.04-0.064,0.04-0.104l-1.641-33.36
		c-0.003-0.041,0.014-0.079,0.041-0.104L429.823-537.121z"/>
	<path display="inline" fill="#417CBF" d="M323.747-386.334c2.837,1.083,5.739,1.631,8.628,1.632c0,0,0.001,0,0.002,0
		c7.366,0,14.269-3.637,18.463-9.726c4.271-6.2,5.113-13.967,2.312-21.311c-2.134-5.589-6.563-10.019-12.152-12.15
		c-2.837-1.082-5.738-1.631-8.625-1.631c-7.368,0-14.271,3.636-18.466,9.726c-4.27,6.199-5.112,13.967-2.311,21.309
		C313.729-392.895,318.157-388.465,323.747-386.334z M317.974-413.387c1.456-3.707,4.417-6.667,8.122-8.123
		c2.071-0.814,4.184-1.227,6.278-1.227c5.171,0,10.003,2.561,12.926,6.852c2.98,4.373,3.519,9.859,1.478,15.054
		c-1.457,3.703-4.418,6.664-8.123,8.121c-2.071,0.814-4.184,1.227-6.277,1.227c-5.171,0-10.005-2.562-12.929-6.853
		C316.47-402.708,315.933-408.194,317.974-413.387z"/>
	<path display="inline" fill="#417CBF" d="M319.674-383.678h-0.871c-9.946,0-18.007,8.061-18.007,18.007v25.938
		c0,0.738,0.597,1.335,1.336,1.335h24.802v-0.002c0.053-0.063,0.078-0.092,0.134-0.153l-7.258-45.012
		C319.797-383.631,319.741-383.678,319.674-383.678z"/>
	<path display="inline" fill="#417CBF" d="M345.943-383.687h-0.988v0.006c-0.076,0.066-0.16,0.125-0.239,0.192l-7.246,44.934
		c0.052,0.063,0.08,0.092,0.135,0.154h25.008c0.737,0,1.339-0.6,1.339-1.34v-25.939
		C363.951-375.625,355.889-383.687,345.943-383.687z"/>
	<path display="inline" fill="#417CBF" d="M336.675-379.407c-1.384,0.325-2.818,0.509-4.304,0.509c-1.59,0-3.129-0.203-4.604-0.573
		c-0.133-0.031-0.222,0.12-0.126,0.217l2.694,2.697c0.029,0.024,0.04,0.063,0.04,0.104l-1.638,33.361
		c-0.002,0.039,0.014,0.074,0.039,0.103l3.382,3.381c0.053,0.053,0.139,0.053,0.191,0l3.381-3.381
		c0.025-0.028,0.04-0.063,0.04-0.103l-1.642-33.361c-0.003-0.041,0.015-0.079,0.041-0.104l2.629-2.63
		C336.895-379.282,336.811-379.435,336.675-379.407z"/>
	<path display="inline" fill="#417CBF" d="M499.957-419.794c-4.271,6.199-5.112,13.967-2.311,21.309
		c2.131,5.591,6.56,10.021,12.149,12.151c2.836,1.083,5.739,1.631,8.627,1.632c0.002,0,0.002,0,0.002,0
		c7.367,0,14.27-3.637,18.464-9.726c4.271-6.2,5.113-13.967,2.312-21.311c-2.134-5.589-6.563-10.019-12.152-12.15
		c-2.837-1.082-5.738-1.631-8.626-1.631C511.055-429.52,504.152-425.884,499.957-419.794z M531.349-415.885
		c2.98,4.373,3.519,9.859,1.478,15.054c-1.457,3.703-4.418,6.664-8.123,8.121c-2.071,0.814-4.184,1.227-6.277,1.227
		c-5.171,0-10.005-2.562-12.929-6.853c-2.979-4.372-3.517-9.858-1.475-15.051c1.456-3.707,4.417-6.667,8.122-8.123
		c2.071-0.814,4.184-1.227,6.277-1.227C523.593-422.736,528.426-420.176,531.349-415.885z"/>
	<path display="inline" fill="#417CBF" d="M505.723-383.678h-0.871c-9.946,0-18.007,8.061-18.007,18.007v25.938
		c0,0.738,0.597,1.335,1.336,1.335h24.801v-0.002c0.054-0.063,0.079-0.092,0.134-0.153l-7.257-45.012
		C505.846-383.631,505.79-383.678,505.723-383.678z"/>
	<path display="inline" fill="#417CBF" d="M531.992-383.687h-0.988v0.006c-0.076,0.066-0.16,0.125-0.239,0.192l-7.246,44.934
		c0.052,0.063,0.08,0.092,0.135,0.154h25.008c0.737,0,1.339-0.6,1.339-1.34v-25.939C550-375.625,541.938-383.687,531.992-383.687z"
		/>
	<path display="inline" fill="#417CBF" d="M522.724-379.407c-1.384,0.325-2.818,0.509-4.304,0.509c-1.59,0-3.129-0.203-4.604-0.573
		c-0.133-0.031-0.222,0.12-0.126,0.217l2.694,2.697c0.029,0.024,0.04,0.063,0.04,0.104l-1.638,33.361
		c-0.002,0.039,0.014,0.074,0.039,0.103l3.382,3.381c0.053,0.053,0.138,0.053,0.191,0l3.381-3.381
		c0.025-0.028,0.04-0.063,0.04-0.103l-1.642-33.361c-0.003-0.041,0.015-0.079,0.041-0.104l2.629-2.63
		C522.943-379.282,522.858-379.435,522.724-379.407z"/>
	<path display="inline" fill="#417CBF" d="M339.036-455.27h172.723v18.446h13.479v-25.182c0-3.72-3.027-6.745-6.747-6.745h-86.71
		v-18.517h-13.479v18.517h-86.009c-3.714,0-6.735,3.021-6.735,6.735v25.191h13.479V-455.27z"/>
</g>
<g display="none">
	<path display="inline" fill="#417CBF" d="M815.516-527.802h-22.07L779.979-567.1c-0.742-2.166-2.361-3.959-4.441-4.918
		c-2.063-0.954-4.513-1.023-6.626-0.187l-112.483,44.402h-40.176c-4.647,0-8.429,3.78-8.429,8.428v154.27
		c0,4.647,3.781,8.428,8.429,8.428h199.264c4.647,0,8.428-3.78,8.428-8.428v-154.27
		C823.943-524.021,820.163-527.802,815.516-527.802z M702.333-527.802l64.56-25.488l8.733,25.488H702.333z M759.272-472.38h47.816
		v60.279h-47.816c-15.467,0-28.534-13.802-28.534-30.139C730.738-458.577,743.806-472.38,759.272-472.38z M713.883-442.239
		c0,25.474,20.786,46.995,45.39,46.995h47.816v21.711H624.68v-137.414h182.409v21.713h-47.816
		C734.669-489.234,713.883-467.713,713.883-442.239z"/>
	<path display="inline" fill="#417CBF" d="M764.094-427.385c8.19,0,14.854-6.664,14.854-14.854c0-8.191-6.664-14.856-14.854-14.856
		c-8.193,0-14.858,6.665-14.858,14.856C749.235-434.049,755.9-427.385,764.094-427.385z"/>
</g>
<path display="none" fill="#417CBF" d="M-261.905-770.644c0,10.997-16.719,10.997-16.719,0v-55.727c0-4.618,3.743-8.36,8.361-8.36
	h211.77c4.613,0,8.358,3.743,8.358,8.36v52.94c0,10.997-16.718,10.997-16.718,0v-44.582h-195.052V-770.644z M-195.231-709.604
	c-7.386-8.073,4.892-19.304,12.276-11.231l10.218,11.177v-58.461c0-10.997,16.721-10.997,16.721,0v58.461l10.213-11.177
	c7.388-8.072,19.664,3.158,12.279,11.231l-24.626,26.939c-3.269,3.675-9.03,3.741-12.368,0.096L-195.231-709.604z M-241.704-808.261
	h154.649c4.615,0,8.356,3.743,8.356,8.358v143.5c0,4.618-3.741,8.361-8.356,8.361h-154.649c-4.615,0-8.357-3.743-8.357-8.361v-143.5
	C-250.062-804.518-246.319-808.261-241.704-808.261L-241.704-808.261z M-95.416-791.542h-137.927v126.784h137.927V-791.542z"/>
<g transform="translate(0,-1028.3622)" display="none">
	<path display="inline" fill="#FFFFFF" d="M107.597,770.617c-8.253,0-16.519,3.096-22.748,9.326l-57.071,57.094
		c-12.463,12.461-12.463,33.019,0,45.48l61.231,61.233H18.428v11.156h223.145v-11.156h-36.503l21.794-21.791
		c12.46-12.463,12.462-33.018,0-45.479l-96.536-96.538C124.096,773.713,115.854,770.616,107.597,770.617z M107.577,792.734
		c2.481,0,4.976,1.012,6.974,3.01l96.535,96.515c3.992,3.991,3.992,9.932,0,13.924l-35.499,35.497l-2.07,2.071h-52.952l-1.503-1.505
		L43.554,866.74c-3.994-3.993-3.994-9.934,0-13.926l57.07-57.07C102.621,793.746,105.093,792.734,107.577,792.734L107.577,792.734z
		 M130.021,850.156c-4.545,0.436-7.925,3-10.59,5.664c-6.485,6.486-6.485,17.205,0,23.689c4.41,4.412,15.775,15.776,15.775,15.776
		c2.338,2.34,2.338,5.551,0,7.888c-1.757,1.759-3.113,2.399-3.77,2.463c-0.657,0.112-1.651-0.001-4.096-2.439l-27.633-27.61
		l-7.888,7.888l15.756,15.757l-8.042,8.063l7.889,7.888l8.041-8.062l3.922,3.922c3.89,3.951,8.595,6.149,13.141,5.709
		c4.546-0.447,7.914-3.01,10.568-5.666c6.485-6.483,6.485-17.181,0-23.665c0,0-11.364-11.365-15.776-15.776
		c-2.339-2.338-2.339-5.574,0-7.912c1.747-1.745,3.117-2.374,3.791-2.44c0.674-0.111,1.652-0.111,4.055,2.399h0.021l19.742,19.764
		l7.889-7.889l-7.889-7.89l7.868-7.865l-7.89-7.889l-7.867,7.865l-3.9-3.9C139.274,851.924,134.565,849.719,130.021,850.156
		L130.021,850.156z"/>
</g>
<path display="none" fill="#FFFFFF" d="M-261.905-191.826c0,10.997-16.719,10.997-16.719,0v-55.728c0-4.617,3.743-8.359,8.361-8.359
	h211.77c4.613,0,8.358,3.742,8.358,8.359v52.94c0,10.997-16.718,10.997-16.718,0v-44.581h-195.052V-191.826z M-195.231-130.786
	c-7.386-8.073,4.892-19.304,12.276-11.231l10.218,11.177v-58.461c0-10.997,16.721-10.997,16.721,0v58.461l10.213-11.177
	c7.388-8.072,19.664,3.158,12.279,11.231l-24.626,26.939c-3.269,3.675-9.03,3.741-12.368,0.096L-195.231-130.786z M-241.704-229.443
	h154.649c4.615,0,8.356,3.743,8.356,8.358v143.5c0,4.618-3.741,8.361-8.356,8.361h-154.649c-4.615,0-8.357-3.743-8.357-8.361v-143.5
	C-250.062-225.7-246.319-229.443-241.704-229.443L-241.704-229.443z M-95.416-212.726h-137.927v126.784h137.927V-212.726z"/>
<g display="none">
	<path display="inline" fill="#417CBF" d="M900.702-370.521v-164.566h219.423v164.566H900.702z M1009.414-425.985L978.72-452.17
		c-19.188,23.356-42.471,51.662-54.368,66.168h170.417l-54.587-66.217L1009.414-425.985z M916.476-402.215l50.857-59.684
		l-50.857-43.322V-402.215z M925.399-519.605l84.015,71.678l83.746-71.678H925.399z M1051.518-461.898l50.858,59.684v-103.006
		L1051.518-461.898z"/>
</g>
<g display="none">
	<g display="inline">
		<path fill="#417CBF" d="M-128.695,109.568l-25.067-25.067c-4.27-4.27-4.27-11.193,0-15.462s11.19-4.269,15.461,0l43.732,43.731
			c4.269,4.269,4.269,11.192,0,15.46l-43.732,43.733c-4.271,4.27-11.191,4.27-15.461,0c-4.27-4.271-4.27-11.192,0-15.462
			l25.067-25.067h-82.934c-6.038,0-10.934-4.896-10.934-10.933c0-6.038,4.896-10.934,10.934-10.934H-128.695z M-63.254,64.192
			c3.11,5.177,1.437,11.893-3.738,15.003c-5.177,3.109-11.894,1.434-15.004-3.74c-24.878-41.405-78.61-54.803-120.016-29.925
			c-41.405,24.88-54.801,78.611-29.923,120.019c24.878,41.403,78.61,54.801,120.016,29.923
			c12.422-7.465,22.576-17.673,29.875-29.804c3.111-5.175,9.83-6.847,15.003-3.733c5.175,3.113,6.846,9.83,3.733,15.005
			c-9.13,15.178-21.844,27.956-37.35,37.274c-51.757,31.099-118.922,14.351-150.021-37.404
			c-31.098-51.757-14.351-118.924,37.406-150.021C-161.517-4.31-94.351,12.437-63.254,64.192z"/>
	</g>
</g>
<path fill="#FFFFFF" d="M126.462,19.158C61.021,19.158,9.27,66.009,9.27,122.563c0,24.092,9.532,47.433,26.883,65.926
	c3.435,14.154-0.734,29.154-11.076,39.496c-4.323,4.323-1.265,11.768,4.876,11.768c19.642,0,38.579-7.699,52.655-21.267
	c13.922,4.964,28.65,7.479,43.854,7.479c65.621,0,118.11-46.986,118.11-103.404c0-56.447-52.522-103.405-118.11-103.405V19.158z
	 M126.462,32.855c57.522,0,104.413,40.293,104.413,89.708s-46.891,89.707-104.413,89.707c-15.037,0-29.535-2.827-43.089-8.224
	c-2.663-1.06-5.702-0.364-7.639,1.749c-8.325,9.098-19.15,15.444-30.941,18.361c6.495-12.449,8.157-27.127,4.204-41.029
	c-0.312-1.095-0.891-2.098-1.686-2.916c-15.64-16.108-24.343-36.581-24.343-57.648c0-49.415,46.479-89.708,103.495-89.708H126.462z
	 M86.578,107.559c-8.272,0-15.003,6.729-15.003,15.003c0,8.271,6.73,15.002,15.003,15.002s15.003-6.73,15.003-15.002
	C101.581,114.288,94.851,107.559,86.578,107.559z M126.587,107.559c-8.272,0-15.003,6.729-15.003,15.003
	c0,8.271,6.73,15.002,15.003,15.002s15.002-6.73,15.002-15.002C141.589,114.288,134.859,107.559,126.587,107.559z M167.261,107.559
	c-8.272,0-15.002,6.729-15.002,15.003c0,8.271,6.729,15.002,15.002,15.002s15.004-6.73,15.004-15.002
	C182.265,114.288,175.533,107.559,167.261,107.559z"/>
<path display="none" fill="#417CBF" d="M424.975,19.906c-65.441,0-117.192,46.851-117.192,103.405
	c0,24.092,9.532,47.433,26.883,65.926c3.435,14.154-0.734,29.154-11.076,39.496c-4.323,4.323-1.265,11.768,4.876,11.768
	c19.642,0,38.579-7.699,52.655-21.267c13.922,4.964,28.65,7.479,43.854,7.479c65.621,0,118.11-46.986,118.11-103.404
	c0-56.447-52.522-103.405-118.11-103.405V19.906z M424.975,33.604c57.522,0,104.413,40.293,104.413,89.708
	s-46.891,89.707-104.413,89.707c-15.037,0-29.535-2.827-43.089-8.224c-2.663-1.06-5.702-0.364-7.639,1.749
	c-8.325,9.098-19.15,15.444-30.941,18.361c6.495-12.449,8.157-27.127,4.204-41.029c-0.312-1.095-0.891-2.098-1.686-2.916
	c-15.64-16.108-24.343-36.581-24.343-57.648c0-49.415,46.479-89.708,103.495-89.708H424.975z M385.091,108.307
	c-8.272,0-15.003,6.729-15.003,15.003c0,8.271,6.73,15.002,15.003,15.002s15.003-6.73,15.003-15.002
	C400.094,115.036,393.363,108.307,385.091,108.307z M425.1,108.307c-8.272,0-15.003,6.729-15.003,15.003
	c0,8.271,6.73,15.002,15.003,15.002s15.002-6.73,15.002-15.002C440.102,115.036,433.372,108.307,425.1,108.307z M465.773,108.307
	c-8.272,0-15.002,6.729-15.002,15.003c0,8.271,6.729,15.002,15.002,15.002s15.004-6.73,15.004-15.002
	C480.777,115.036,474.046,108.307,465.773,108.307z"/>
<g display="none">
	<path display="inline" fill="#FFFFFF" d="M790.687,186.197l-35.954-29.415c-3.341-2.733-7.62-4.238-12.052-4.238
		c-5.078,0-9.99,2-13.478,5.486l-14.011,14.011c-0.734,0.733-2.06,1.189-3.459,1.189c-1.006,0-1.938-0.23-2.698-0.667l-0.09-0.048
		c-0.218-0.106-0.731-0.378-1.508-0.821c-1.505-0.859-3.11-1.864-4.771-2.983c-5.447-3.675-10.721-8.049-15.673-13.002
		c-4.957-4.957-9.328-10.225-12.992-15.656c-1.12-1.66-2.121-3.261-2.976-4.759c-0.455-0.796-0.733-1.325-1.149-2.11
		c-0.891-1.485-0.488-4.402,0.783-5.675l14.012-14.01c6.827-6.826,7.375-18.041,1.248-25.53l-29.416-35.951
		c-3.31-4.047-8.125-6.367-13.212-6.367c-4.502,0-8.782,1.801-12.052,5.07l-22.179,22.177c-9.558,9.559-9.679,29.579-0.332,54.929
		c8.723,23.656,24.105,47.954,41.148,64.997c26.974,26.974,70.091,48.102,98.159,48.102c9.608,0,16.932-2.451,21.766-7.285
		l22.179-22.178c3.5-3.499,5.295-8.075,5.055-12.885C796.796,193.747,794.54,189.351,790.687,186.197z M643.969,62.271
		l29.416,35.952c0.83,1.016,0.748,2.908-0.165,3.822l-14.012,14.013c-6.47,6.47-7.925,17.294-3.425,25.102
		c0.619,1.233,2.064,3.905,4.792,7.948c4.247,6.294,9.282,12.368,14.966,18.052c5.69,5.689,11.771,10.729,18.07,14.977
		c4.088,2.759,6.77,4.205,7.938,4.787c2.967,1.669,6.448,2.551,10.069,2.551c5.747,0,11.224-2.18,15.024-5.98l14.012-14.012
		c0.869-0.865,2.854-0.956,3.821-0.166l35.954,29.416c0.268,0.219,0.42,0.448,0.43,0.646c0.013,0.25-0.202,0.504-0.331,0.633
		l-22.177,22.177c-1.969,1.969-5.396,2.967-10.188,2.967c-20.323,0-61.776-18.724-86.835-43.782
		c-13.911-13.91-27.354-34.716-35.962-55.653c-8.306-20.205-10.166-36.057-4.854-41.369l22.177-22.177
		c0.211-0.211,0.427-0.326,0.609-0.326C643.58,61.847,643.839,62.112,643.969,62.271z"/>
	<path display="inline" fill="#FFFFFF" d="M715.157,69.438c31.915,0,57.88,25.965,57.88,57.879c0,4.466,3.633,8.099,8.098,8.099
		s8.098-3.633,8.098-8.099c0-40.845-33.23-74.074-74.075-74.074c-4.465,0-8.098,3.633-8.098,8.098S710.692,69.438,715.157,69.438z"
		/>
	<path display="inline" fill="#FFFFFF" d="M715.157,13.656c-4.465,0-8.098,3.633-8.098,8.098s3.633,8.098,8.098,8.098
		c53.743,0,97.467,43.723,97.467,97.466c0,4.466,3.633,8.099,8.098,8.099s8.098-3.633,8.098-8.099
		C828.819,64.645,777.831,13.656,715.157,13.656z"/>
</g>
<g transform="translate(0,-952.36218)" display="none">
	<path display="inline" fill="#417CBF" d="M47.459,1664.696l23.9-29.874H55.488c8.136-35.964,40.134-62.739,78.609-62.739
		c44.655,0,80.666,36.009,80.666,80.662c0,44.655-36.011,80.666-80.666,80.666c-29.184,0-54.646-15.345-68.808-38.466l-15.59,8.683
		c17.291,28.56,48.66,47.708,84.397,47.708c54.344,0,98.589-44.247,98.589-98.589c0-54.345-44.245-98.591-98.589-98.591
		c-48.205,0-88.519,34.865-97.002,80.666H23.559 M125.136,1595.983v8.962v47.802v4.293l3.36,2.709l29.876,23.9l7.003,5.602
		l11.201-14.005l-7.001-5.603l-26.515-21.191v-43.507v-8.962H125.136z"/>
</g>
<g display="none">
	<path display="inline" fill="#417CBF" d="M-61.588,385.484l-14.328-1.817c-1.629-5.219-3.714-10.332-6.221-15.256l8.809-11.41
		c3.937-4.923,3.484-12.328-0.998-16.544l-18.994-18.995c-2.354-2.354-5.479-3.649-8.798-3.649c-2.795,0-5.531,0.957-7.656,2.658
		l-11.458,8.845c-4.92-2.505-10.034-4.591-15.255-6.221l-1.795-14.15c-0.651-6.183-6.157-11.025-12.534-11.025h-27.163
		c-6.257,0-11.518,4.562-12.51,10.847l-1.814,14.096c-5.224,1.631-10.341,3.717-15.265,6.225l-11.172-8.577
		c-2.173-1.739-4.937-2.696-7.784-2.696c-3.363,0-6.551,1.345-8.759,3.691l-18.996,18.995c-4.483,4.483-4.894,11.577-0.992,16.454
		l8.845,11.458c-2.507,4.922-4.592,10.036-6.221,15.256l-14.149,1.794c-6.184,0.651-11.027,6.157-11.027,12.534v26.931
		c0,6.257,4.562,11.519,10.848,12.511l14.329,1.817c1.624,5.203,3.702,10.304,6.199,15.213l-9.013,11.215l-0.072,0.093
		c-3.884,5.179-3.422,12.24,1.064,16.456l18.995,18.994c2.354,2.354,5.479,3.651,8.799,3.651c2.794,0,5.53-0.957,7.656-2.657
		l11.458-8.846c4.923,2.507,10.037,4.592,15.255,6.221l1.794,14.148c0.65,6.184,6.156,11.028,12.534,11.028h26.932
		c6.257,0,11.518-4.563,12.51-10.849l1.818-14.328c5.218-1.629,10.332-3.714,15.256-6.221l11.409,8.809
		c2.173,1.737,4.937,2.694,7.783,2.694c0,0,0,0,0.001,0c3.363,0,6.552-1.345,8.759-3.693l18.994-18.993
		c4.484-4.483,4.896-11.577,0.994-16.454l-8.846-11.458c2.507-4.923,4.592-10.036,6.221-15.256L-62,437.229
		c6.185-0.651,11.028-6.158,11.028-12.536v-26.618C-50.712,391.888-55.26,386.484-61.588,385.484z M-89.95,430.296
		c-1.8,7.354-4.697,14.391-8.649,20.98c-1.691,2.953-1.475,6.573,0.533,9.032l10.149,13.077l-14.667,14.667l-13.311-10.373
		c-2.407-1.968-6.168-2.179-9.034-0.537l-0.106,0.063c-6.33,3.928-13.399,6.828-21.06,8.631c-3.236,0.811-5.69,3.586-6.104,6.889
		l-2.153,16.455h-20.788l-2.152-16.436c-0.416-3.322-2.87-6.098-6.131-6.914c-7.39-1.792-14.462-4.691-21.02-8.617
		c-1.196-0.773-2.751-1.232-4.181-1.232c-1.803,0-3.447,0.549-4.931,1.665l-13.118,10.179l-14.671-14.671l10.148-13.077
		c2.008-2.458,2.227-6.076,0.537-9.03l-0.064-0.108c-3.929-6.33-6.83-13.399-8.632-21.059c-0.827-3.306-3.447-5.702-6.655-6.104
		l-16.456-2.155v-20.786l16.434-2.153c3.471-0.432,6.202-3.002,6.722-6.288c1.8-7.354,4.698-14.392,8.652-20.983
		c1.689-2.954,1.472-6.573-0.537-9.031l-10.148-13.076l14.671-14.672l13.078,10.149c2.405,1.964,6.165,2.173,9.028,0.537
		l0.111-0.065c6.329-3.93,13.397-6.83,21.056-8.633c3.237-0.809,5.691-3.584,6.104-6.887l2.155-16.455h20.788l2.151,16.436
		c0.416,3.322,2.87,6.098,6.131,6.912c7.412,1.797,14.505,4.709,21.145,8.692c2.866,1.637,6.623,1.425,9.027-0.537l13.077-10.149
		l14.702,14.703l-10.196,13.532c-1.992,2.458-2.203,6.064-0.519,9.01l0.064,0.107c3.93,6.332,6.83,13.401,8.631,21.058
		c0.827,3.306,3.447,5.702,6.656,6.104l16.455,2.154v20.586l-16.201,2.121C-86.699,424.438-89.431,427.009-89.95,430.296z"/>
	<path display="inline" fill="#417CBF" d="M-164.514,355.493c-30.861,0-55.968,25.106-55.968,55.967s25.107,55.968,55.968,55.968
		c30.86,0,55.968-25.107,55.968-55.968S-133.653,355.493-164.514,355.493z M-164.514,451.373c-22.008,0-39.913-17.905-39.913-39.913
		s17.905-39.912,39.913-39.912s39.913,17.904,39.913,39.912S-142.506,451.373-164.514,451.373z"/>
</g>
<g display="none">
	<path display="inline" fill="#FFFFFF" d="M233.794,389.524l-14.328-1.817c-1.629-5.219-3.714-10.332-6.221-15.256l8.809-11.41
		c3.937-4.923,3.484-12.328-0.998-16.544l-18.994-18.995c-2.354-2.354-5.479-3.649-8.798-3.649c-2.795,0-5.531,0.957-7.656,2.658
		l-11.458,8.845c-4.92-2.505-10.034-4.591-15.255-6.221l-1.795-14.15c-0.651-6.183-6.157-11.025-12.534-11.025h-27.163
		c-6.257,0-11.518,4.562-12.51,10.847l-1.814,14.096c-5.225,1.631-10.342,3.717-15.266,6.225l-11.172-8.577
		c-2.172-1.739-4.937-2.696-7.783-2.696c-3.363,0-6.552,1.345-8.76,3.691l-18.996,18.995c-4.482,4.483-4.893,11.577-0.991,16.454
		l8.845,11.458c-2.506,4.922-4.592,10.036-6.221,15.256l-14.149,1.794c-6.184,0.651-11.026,6.157-11.026,12.534v26.931
		c0,6.257,4.562,11.519,10.848,12.511l14.328,1.817c1.623,5.203,3.702,10.304,6.199,15.213l-9.014,11.215l-0.072,0.093
		c-3.883,5.179-3.422,12.24,1.064,16.456l18.994,18.994c2.355,2.354,5.479,3.651,8.799,3.651c2.795,0,5.531-0.957,7.656-2.657
		l11.457-8.846c4.924,2.507,10.037,4.592,15.256,6.221l1.794,14.148c0.65,6.184,6.155,11.028,12.534,11.028h26.932
		c6.257,0,11.518-4.563,12.51-10.849l1.818-14.328c5.218-1.629,10.332-3.714,15.256-6.221l11.409,8.809
		c2.173,1.737,4.937,2.694,7.783,2.694c0,0,0,0,0.001,0c3.363,0,6.552-1.345,8.759-3.693l18.994-18.993
		c4.484-4.483,4.896-11.577,0.994-16.454l-8.846-11.458c2.507-4.923,4.592-10.036,6.221-15.256l14.148-1.793
		c6.185-0.651,11.028-6.158,11.028-12.536v-26.618C244.67,395.928,240.122,390.524,233.794,389.524z M205.432,434.336
		c-1.8,7.354-4.697,14.391-8.649,20.98c-1.691,2.953-1.475,6.573,0.533,9.032l10.149,13.077l-14.667,14.667l-13.311-10.373
		c-2.407-1.968-6.168-2.179-9.034-0.537l-0.106,0.063c-6.33,3.928-13.399,6.828-21.06,8.631c-3.236,0.811-5.69,3.586-6.104,6.889
		l-2.153,16.455h-20.788l-2.152-16.436c-0.416-3.322-2.869-6.098-6.131-6.914c-7.39-1.792-14.462-4.691-21.02-8.617
		c-1.196-0.773-2.751-1.232-4.182-1.232c-1.803,0-3.447,0.549-4.93,1.665L68.71,491.865l-14.671-14.671l10.147-13.077
		c2.009-2.458,2.227-6.076,0.537-9.03l-0.064-0.108c-3.929-6.33-6.829-13.399-8.632-21.059c-0.828-3.306-3.447-5.702-6.656-6.104
		l-16.455-2.155v-20.786l16.434-2.153c3.471-0.432,6.203-3.002,6.723-6.288c1.799-7.354,4.697-14.392,8.651-20.983
		c1.689-2.954,1.472-6.573-0.536-9.031l-10.148-13.076l14.671-14.672l13.078,10.149c2.405,1.964,6.165,2.173,9.028,0.537l0.11-0.065
		c6.329-3.93,13.397-6.83,21.056-8.633c3.237-0.809,5.691-3.584,6.105-6.887l2.154-16.455h20.788l2.151,16.436
		c0.416,3.322,2.87,6.098,6.131,6.912c7.412,1.797,14.505,4.709,21.145,8.692c2.866,1.637,6.623,1.425,9.027-0.537l13.077-10.149
		l14.702,14.703l-10.196,13.532c-1.992,2.458-2.203,6.064-0.519,9.01l0.064,0.107c3.93,6.332,6.83,13.401,8.631,21.058
		c0.827,3.306,3.447,5.702,6.656,6.104l16.455,2.154v20.586l-16.201,2.121C208.683,428.479,205.951,431.049,205.432,434.336z"/>
	<path display="inline" fill="#FFFFFF" d="M130.868,359.533c-30.86,0-55.968,25.106-55.968,55.967s25.107,55.968,55.968,55.968
		s55.968-25.107,55.968-55.968S161.729,359.533,130.868,359.533z M130.868,455.413c-22.008,0-39.913-17.905-39.913-39.913
		s17.905-39.912,39.913-39.912s39.913,17.904,39.913,39.912S152.876,455.413,130.868,455.413z"/>
</g>
<path display="none" fill="#417CBF" d="M527.002,371.469c-3.184-3.183-7.449-4.936-12.012-4.936c-4.562,0-8.828,1.753-12.012,4.937
	l-77.566,77.566l-77.575-77.319c-3.192-3.192-7.457-4.946-12.02-4.946c-4.532,0-8.772,1.73-11.949,4.876
	c-3.231,3.431-4.939,7.604-4.939,12.074c0,4.343,1.8,8.739,4.942,12.077l89.447,89.208c3.399,3.194,7.688,4.952,12.086,4.952
	c4.667,0,8.82-1.687,12.012-4.879l89.586-89.586C533.626,388.87,533.626,378.093,527.002,371.469z"/>
<path display="none" fill="#333333" d="M1111.966-206.367c-3.184-3.183-7.449-4.936-12.012-4.936c-4.562,0-8.828,1.753-12.012,4.937
	l-77.566,77.566l-77.575-77.319c-3.192-3.192-7.457-4.946-12.02-4.946c-4.532,0-8.772,1.73-11.949,4.876
	c-3.231,3.431-4.939,7.604-4.939,12.074c0,4.343,1.8,8.739,4.942,12.077l89.447,89.208c3.399,3.194,7.688,4.952,12.086,4.952
	c4.667,0,8.82-1.687,12.012-4.879l89.586-89.586C1118.59-188.966,1118.59-199.743,1111.966-206.367z"/>
<path display="none" fill="#333333" d="M715.638,313.692c-3.183,3.184-4.936,7.449-4.936,12.012s1.753,8.828,4.937,12.012
	l77.566,77.566l-77.319,77.576c-3.192,3.191-4.946,7.457-4.946,12.02c0,4.531,1.73,8.771,4.876,11.949
	c3.431,3.23,7.604,4.939,12.074,4.939c4.343,0,8.739-1.801,12.077-4.943l89.208-89.447c3.194-3.398,4.952-7.688,4.952-12.086
	c0-4.666-1.687-8.82-4.879-12.012l-89.586-89.586C733.039,307.069,722.262,307.069,715.638,313.692z"/>
<path display="none" fill="#333333" d="M605.21,313.692c-3.183,3.184-4.936,7.449-4.936,12.012s1.753,8.828,4.937,12.012
	l77.566,77.566l-77.319,77.576c-3.192,3.191-4.946,7.457-4.946,12.02c0,4.531,1.73,8.771,4.876,11.949
	c3.431,3.23,7.604,4.939,12.074,4.939c4.343,0,8.739-1.801,12.077-4.943l89.208-89.447c3.194-3.398,4.952-7.688,4.952-12.086
	c0-4.666-1.687-8.82-4.879-12.012l-89.586-89.586C622.611,307.069,611.834,307.069,605.21,313.692z"/>
<path display="none" fill="#FFFFFF" d="M816.553-206.367c-3.184-3.183-7.449-4.936-12.012-4.936c-4.562,0-8.828,1.753-12.012,4.937
	L714.963-128.8l-77.575-77.319c-3.192-3.192-7.457-4.946-12.02-4.946c-4.532,0-8.772,1.73-11.949,4.876
	c-3.231,3.431-4.939,7.604-4.939,12.074c0,4.343,1.8,8.739,4.942,12.077l89.447,89.208c3.399,3.194,7.688,4.952,12.086,4.952
	c4.667,0,8.82-1.687,12.012-4.879l89.586-89.586C823.177-188.966,823.177-199.743,816.553-206.367z"/>
<g display="none">
	<path display="inline" fill="#333333" d="M889.634,356.282c0.667,1.622,1.65,3.099,2.888,4.341l39.943,39.937
		c5.287,5.11,13.717,4.963,18.822-0.324c4.984-5.158,4.984-13.342,0-18.499l-17.226-17.227h180.872
		c7.353,0,13.315-5.959,13.315-13.312s-5.963-13.315-13.315-13.315H934.062l17.212-17.217c5.106-5.286,4.962-13.716-0.326-18.823
		c-5.16-4.983-13.34-4.983-18.497,0l-39.942,39.941c-3.808,3.809-4.947,9.537-2.89,14.513L889.634,356.282z"/>
	<path display="inline" fill="#333333" d="M1127.224,479.241c-0.669-1.62-1.65-3.097-2.89-4.34l-39.942-39.938
		c-5.287-5.107-13.717-4.963-18.823,0.328c-4.984,5.16-4.984,13.336,0,18.498l17.227,17.227H901.923
		c-7.354,0-13.315,5.959-13.315,13.312s5.962,13.315,13.315,13.315h180.872l-17.212,17.217c-5.288,5.105-5.438,13.534-0.329,18.821
		c5.11,5.288,13.537,5.436,18.826,0.326c0.108-0.105,0.217-0.218,0.326-0.326l39.942-39.942c3.807-3.807,4.947-9.533,2.889-14.511
		L1127.224,479.241z"/>
</g>
<path display="none" fill="#417CBF" d="M-108.052,630.161c-10.754-35.697-48.409-55.919-84.106-45.166
	c-28.452,8.571-47.954,34.739-48.034,64.453v0.965c-26.098,5.3-42.958,30.751-37.658,56.848
	c4.567,22.49,24.352,38.646,47.302,38.622h28.93c5.326,0,9.644-4.317,9.644-9.644s-4.317-9.644-9.644-9.644h-28.93
	c-15.978,0.127-29.033-12.725-29.16-28.7c-0.127-15.979,12.723-29.033,28.701-29.16h1.181c2.85-0.051,5.552-1.271,7.474-3.376
	c1.865-2.172,2.669-5.061,2.194-7.884c-5.51-26.053,11.144-51.64,37.197-57.15c26.053-5.51,51.64,11.145,57.15,37.197
	c0.334,1.575,0.588,3.165,0.762,4.766c0.784,5.27,5.688,8.904,10.957,8.122c0.215-0.032,0.428-0.071,0.64-0.117
	c2.72-0.575,5.491-0.858,8.271-0.845c21.304,0,38.571,17.271,38.571,38.574s-17.268,38.573-38.571,38.573h-19.288
	c-5.327,0-9.644,4.317-9.644,9.644s4.316,9.644,9.644,9.644h19.288c31.955-0.792,57.219-27.34,56.426-59.295
	S-76.097,629.369-108.052,630.161z"/>
<path display="none" fill="#417CBF" d="M-163.045,688.022c-5.326,0-9.644,4.316-9.644,9.644v82.788l-12.464-12.464
	c-3.769-3.768-9.877-3.768-13.646,0c-3.768,3.768-3.768,9.877,0,13.646l0,0l28.93,28.931c3.765,3.769,9.87,3.771,13.639,0.008
	c0.003-0.003,0.005-0.006,0.008-0.008l28.931-28.931c3.768-3.769,3.768-9.878,0-13.646c-3.769-3.768-9.878-3.768-13.646,0l0,0
	l-12.464,12.464v-82.788C-153.401,692.339-157.719,688.022-163.045,688.022z"/>
</svg>
