<?xml version="1.0" encoding="utf-8"?>
<!-- Generator: Adobe Illustrator 16.0.0, SVG Export Plug-In . SVG Version: 6.00 Build 0)  -->
<!DOCTYPE svg PUBLIC "-//W3C//DTD SVG 1.1//EN" "http://www.w3.org/Graphics/SVG/1.1/DTD/svg11.dtd">
<svg version="1.1" id="Layer_1" xmlns="http://www.w3.org/2000/svg" xmlns:xlink="http://www.w3.org/1999/xlink" x="0px" y="0px"
	 width="250.941px" height="84.704px" viewBox="0 0 250.941 84.704" enable-background="new 0 0 250.941 84.704"
	 xml:space="preserve">
<g opacity="0.8">
	<path fill="#EC2327" d="M250.708,41.784L209.906,0.216c-0.064-0.065-0.143-0.118-0.227-0.153c-0.097-0.042-0.17-0.06-0.25-0.063
		l-0.308,0L0.729,0.001c-0.401,0-0.729,0.354-0.729,0.79L0.004,83.92c-0.001,0.225,0.079,0.425,0.231,0.582
		c0.122,0.125,0.302,0.201,0.477,0.201L209.433,84.7c0.072-0.001,0.157-0.018,0.229-0.049c0.094-0.039,0.171-0.09,0.229-0.149
		l40.821-41.572C251.02,42.614,251.019,42.099,250.708,41.784z M209.116,83.133H1.457V1.573l207.659-0.002l40.035,40.786
		L209.116,83.133z"/>
	<circle fill="#EC2327" cx="218.938" cy="42.351" r="6.267"/>
</g>
</svg>
