<svg xmlns="http://www.w3.org/2000/svg" width="56" height="56" viewBox="0 0 56 56">
  <path id="fa-twitter" d="M50,56H6a6.007,6.007,0,0,1-6-6V6A6.007,6.007,0,0,1,6,0H50a6.007,6.007,0,0,1,6,6V50A6.006,6.006,0,0,1,50,56ZM6.572,41.461h0A24.876,24.876,0,0,0,20.059,45.4a25.309,25.309,0,0,0,10.72-2.272,23.643,23.643,0,0,0,7.834-5.869,25.774,25.774,0,0,0,4.8-8.046,25.407,25.407,0,0,0,1.633-8.8c0-.374,0-.761-.027-1.142a18.766,18.766,0,0,0,4.4-4.541,17.564,17.564,0,0,1-5.058,1.36,8.748,8.748,0,0,0,3.862-4.841,17.4,17.4,0,0,1-5.575,2.121,8.789,8.789,0,0,0-15.2,6.01,9.914,9.914,0,0,0,.218,2.012,24.9,24.9,0,0,1-10.167-2.74A24.771,24.771,0,0,1,9.562,12.2a8.684,8.684,0,0,0-1.2,4.432,8.775,8.775,0,0,0,3.916,7.315,8.866,8.866,0,0,1-3.97-1.115v.109a8.784,8.784,0,0,0,7.043,8.62,9.32,9.32,0,0,1-2.311.3,11.08,11.08,0,0,1-1.659-.136A8.8,8.8,0,0,0,19.6,37.817a17.509,17.509,0,0,1-10.9,3.753A18.32,18.32,0,0,1,6.572,41.461Z" fill="#929292"/>
</svg>
