<svg xmlns="http://www.w3.org/2000/svg" width="55.998" height="56" viewBox="0 0 55.998 56">
  <path id="fa-telegram-hover" d="M54.042,3.814h-44a6,6,0,0,0-6,6v44a6,6,0,0,0,6,6h44a6,6,0,0,0,6-6v-44A6,6,0,0,0,54.042,3.814Zm-.219,12.973L47.211,47.969c-.5,2.2-1.8,2.748-3.648,1.711L33.489,42.257l-4.858,4.675a2.527,2.527,0,0,1-2.025.987L27.33,37.66,46,20.787c.813-.724-.177-1.125-1.264-.4L21.655,34.921l-9.938-3.109c-2.161-.676-2.2-2.163.45-3.2L51.036,13.638C52.835,12.963,54.41,14.039,53.823,16.787Z" transform="translate(-4.042 -3.814)" fill="#0b4b7b"/>
</svg>
