<svg xmlns="http://www.w3.org/2000/svg" width="56" height="56" viewBox="0 0 56 56">
  <path id="fa-vk" d="M50,56H6a6.007,6.007,0,0,1-6-6V6A6.007,6.007,0,0,1,6,0H50a6.007,6.007,0,0,1,6,6V50A6.006,6.006,0,0,1,50,56ZM32.7,32.669c.634,0,1.793.288,4.53,2.779.919.869,1.614,1.6,2.172,2.186,1.331,1.4,1.938,2.038,3.152,2.038H47.1a1.766,1.766,0,0,0,1.481-.539,1.4,1.4,0,0,0,.093-1.285c-.7-2.058-4.607-5.835-6.276-7.448-.386-.373-.641-.619-.691-.687-.668-.814-.483-1.174,0-1.912.006-.007,1.405-1.869,2.852-4.01,2.411-3.568,3.111-5.168,3.274-5.882a1.244,1.244,0,0,0-.064-1.133,1.554,1.554,0,0,0-1.309-.45H41.917a1.962,1.962,0,0,0-1.975,1.219,35.834,35.834,0,0,1-5.586,8.79c-1.083,1.024-1.559,1.32-2.122,1.32-.292,0-.725-.328-.725-1.233V17.911c0-1.139-.359-1.583-1.281-1.583H23.082a1.067,1.067,0,0,0-1.157.986,1.625,1.625,0,0,0,.542,1.031,4.694,4.694,0,0,1,1.263,3.163V27.84c0,1.4-.271,1.642-.841,1.642-.751,0-2.06-1.287-3.5-3.444A39,39,0,0,1,15.374,18c-.426-1.132-.841-1.67-2.052-1.67H8.777c-1.4,0-1.559.7-1.559,1.219,0,1.268,1.7,7,7.184,14.261a20.754,20.754,0,0,0,6.536,5.844,15.251,15.251,0,0,0,7.329,2.02c3.015,0,3.248-.692,3.248-1.67,0-.735-.006-1.362-.011-1.916-.019-2.018-.027-2.853.311-3.194A1.208,1.208,0,0,1,32.7,32.669Z" fill="#929292"/>
</svg>
